<?xml version="1.0" encoding="us-ascii" standalone="no"?><svg xmlns="http://www.w3.org/2000/svg" xmlns:xlink="http://www.w3.org/1999/xlink" contentStyleType="text/css" height="462px" preserveAspectRatio="none" style="width:488px;height:462px;background:#FFFFFF;" version="1.1" viewBox="0 0 488 462" width="488px" zoomAndPan="magnify"><defs/><g><!--class Mediator--><g id="elem_Mediator"><rect codeLine="1" fill="#F1F1F1" height="67.0679" id="Mediator" rx="2.5" ry="2.5" style="stroke:#181818;stroke-width:0.5;" width="335" x="117" y="7"/><ellipse cx="251.25" cy="23" fill="#B4A7E5" rx="11" ry="11" style="stroke:#181818;stroke-width:1.0;"/><path d="M247.2813,29.5 L247.2813,27.7969 L249.6406,27.5313 L249.6406,19.3281 L247.2813,19.0625 L247.2813,17.3594 L254.4219,17.3594 L254.4219,19.0625 L252,19.3281 L252,27.5313 L254.4219,27.7969 L254.4219,29.5 L247.2813,29.5 Z " fill="#000000"/><text fill="#000000" font-family="sans-serif" font-size="14" font-style="italic" lengthAdjust="spacing" textLength="58" x="271.75" y="28.432">Mediator</text><line style="stroke:#181818;stroke-width:0.5;" x1="118" x2="451" y1="39" y2="39"/><line style="stroke:#181818;stroke-width:0.5;" x1="118" x2="451" y1="47" y2="47"/><ellipse cx="128" cy="62.034" fill="#84BE84" rx="3" ry="3" style="stroke:#038048;stroke-width:1.0;"/><text fill="#000000" font-family="sans-serif" font-size="14" lengthAdjust="spacing" textLength="309" x="137" y="65.9659">notify(sender: Component, event: String): void</text></g><!--class ConcreteMediator--><g id="elem_ConcreteMediator"><rect codeLine="5" fill="#F1F1F1" height="67.0679" id="ConcreteMediator" rx="2.5" ry="2.5" style="stroke:#181818;stroke-width:0.5;" width="335" x="7" y="134.07"/><ellipse cx="109.75" cy="150.07" fill="#ADD1B2" rx="11" ry="11" style="stroke:#181818;stroke-width:1.0;"/><path d="M109.2188,156.9919 Q107.4688,156.9919 106.3281,156.2575 Q105.2031,155.5075 104.6406,154.1638 Q104.0938,152.8044 104.0938,151.0075 Q104.0938,148.9763 104.75,147.5231 Q105.4063,146.07 106.6875,145.2888 Q107.9688,144.5075 109.8438,144.5075 Q110.7344,144.5075 111.4063,144.695 Q112.0781,144.8669 112.7656,145.2106 L111.9531,147.2263 Q111.3281,146.9138 110.7813,146.7888 Q110.25,146.6638 109.7656,146.6638 Q108.5938,146.6638 107.8906,147.195 Q107.1875,147.7263 106.8906,148.6794 Q106.5938,149.6325 106.5938,150.8981 Q106.5938,152.9138 107.3125,153.8825 Q108.0313,154.8356 109.625,154.8356 Q110.2188,154.8356 110.8438,154.6794 Q111.4688,154.5231 112.2969,154.1481 L112.2969,156.3669 Q111.5625,156.6794 110.7656,156.8356 Q109.9844,156.9919 109.2188,156.9919 Z " fill="#000000"/><text fill="#000000" font-family="sans-serif" font-size="14" lengthAdjust="spacing" textLength="121" x="130.25" y="155.502">ConcreteMediator</text><line style="stroke:#181818;stroke-width:0.5;" x1="8" x2="341" y1="166.07" y2="166.07"/><line style="stroke:#181818;stroke-width:0.5;" x1="8" x2="341" y1="174.07" y2="174.07"/><ellipse cx="18" cy="189.104" fill="#84BE84" rx="3" ry="3" style="stroke:#038048;stroke-width:1.0;"/><text fill="#000000" font-family="sans-serif" font-size="14" lengthAdjust="spacing" textLength="309" x="27" y="193.0359">notify(sender: Component, event: String): void</text></g><!--class Component--><g id="elem_Component"><rect codeLine="9" fill="#F1F1F1" height="86.1358" id="Component" rx="2.5" ry="2.5" style="stroke:#181818;stroke-width:0.5;" width="281" x="144" y="261.13"/><ellipse cx="244.25" cy="277.13" fill="#A9DCDF" rx="11" ry="11" style="stroke:#181818;stroke-width:1.0;"/><path d="M239.4219,282.88 L242.7656,270.6925 L245.9063,270.6925 L249.2813,282.88 L246.8125,282.88 L246.0781,279.8644 L242.5625,279.8644 L241.8125,282.88 L239.4219,282.88 Z M243.8281,274.8331 L243.0781,277.8331 L245.5938,277.8331 L244.875,274.8331 Q244.7344,274.255 244.6094,273.7081 Q244.4844,273.1456 244.3438,272.5675 Q244.2344,273.1456 244.0938,273.7081 Q243.9531,274.255 243.8281,274.8331 Z " fill="#000000"/><text fill="#000000" font-family="sans-serif" font-size="14" font-style="italic" lengthAdjust="spacing" textLength="72" x="264.75" y="282.562">Component</text><line style="stroke:#181818;stroke-width:0.5;" x1="145" x2="424" y1="293.13" y2="293.13"/><rect fill="none" height="6" style="stroke:#C82930;stroke-width:1.0;" width="6" x="152" y="305.164"/><text fill="#000000" font-family="sans-serif" font-size="14" lengthAdjust="spacing" textLength="130" x="164" y="312.0959">mediator: Mediator</text><line style="stroke:#181818;stroke-width:0.5;" x1="145" x2="424" y1="320.1979" y2="320.1979"/><ellipse cx="155" cy="335.2319" fill="#84BE84" rx="3" ry="3" style="stroke:#038048;stroke-width:1.0;"/><text fill="#000000" font-family="sans-serif" font-size="14" lengthAdjust="spacing" textLength="255" x="164" y="339.1639">setMediator(mediator: Mediator): void</text></g><!--class ConcreteComponentA--><g id="elem_ConcreteComponentA"><rect codeLine="14" fill="#F1F1F1" height="48" id="ConcreteComponentA" rx="2.5" ry="2.5" style="stroke:#181818;stroke-width:0.5;" width="179" x="88" y="407.27"/><ellipse cx="103" cy="423.27" fill="#ADD1B2" rx="11" ry="11" style="stroke:#181818;stroke-width:1.0;"/><path d="M102.4688,430.1919 Q100.7188,430.1919 99.5781,429.4575 Q98.4531,428.7075 97.8906,427.3638 Q97.3438,426.0044 97.3438,424.2075 Q97.3438,422.1763 98,420.7231 Q98.6563,419.27 99.9375,418.4888 Q101.2188,417.7075 103.0938,417.7075 Q103.9844,417.7075 104.6563,417.895 Q105.3281,418.0669 106.0156,418.4106 L105.2031,420.4263 Q104.5781,420.1138 104.0313,419.9888 Q103.5,419.8638 103.0156,419.8638 Q101.8438,419.8638 101.1406,420.395 Q100.4375,420.9263 100.1406,421.8794 Q99.8438,422.8325 99.8438,424.0981 Q99.8438,426.1138 100.5625,427.0825 Q101.2813,428.0356 102.875,428.0356 Q103.4688,428.0356 104.0938,427.8794 Q104.7188,427.7231 105.5469,427.3481 L105.5469,429.5669 Q104.8125,429.8794 104.0156,430.0356 Q103.2344,430.1919 102.4688,430.1919 Z " fill="#000000"/><text fill="#000000" font-family="sans-serif" font-size="14" lengthAdjust="spacing" textLength="147" x="117" y="428.702">ConcreteComponentA</text><line style="stroke:#181818;stroke-width:0.5;" x1="89" x2="266" y1="439.27" y2="439.27"/><line style="stroke:#181818;stroke-width:0.5;" x1="89" x2="266" y1="447.27" y2="447.27"/></g><!--class ConcreteComponentB--><g id="elem_ConcreteComponentB"><rect codeLine="15" fill="#F1F1F1" height="48" id="ConcreteComponentB" rx="2.5" ry="2.5" style="stroke:#181818;stroke-width:0.5;" width="179" x="302" y="407.27"/><ellipse cx="317" cy="423.27" fill="#ADD1B2" rx="11" ry="11" style="stroke:#181818;stroke-width:1.0;"/><path d="M316.4688,430.1919 Q314.7188,430.1919 313.5781,429.4575 Q312.4531,428.7075 311.8906,427.3638 Q311.3438,426.0044 311.3438,424.2075 Q311.3438,422.1763 312,420.7231 Q312.6563,419.27 313.9375,418.4888 Q315.2188,417.7075 317.0938,417.7075 Q317.9844,417.7075 318.6563,417.895 Q319.3281,418.0669 320.0156,418.4106 L319.2031,420.4263 Q318.5781,420.1138 318.0313,419.9888 Q317.5,419.8638 317.0156,419.8638 Q315.8438,419.8638 315.1406,420.395 Q314.4375,420.9263 314.1406,421.8794 Q313.8438,422.8325 313.8438,424.0981 Q313.8438,426.1138 314.5625,427.0825 Q315.2813,428.0356 316.875,428.0356 Q317.4688,428.0356 318.0938,427.8794 Q318.7188,427.7231 319.5469,427.3481 L319.5469,429.5669 Q318.8125,429.8794 318.0156,430.0356 Q317.2344,430.1919 316.4688,430.1919 Z " fill="#000000"/><text fill="#000000" font-family="sans-serif" font-size="14" lengthAdjust="spacing" textLength="147" x="331" y="428.702">ConcreteComponentB</text><line style="stroke:#181818;stroke-width:0.5;" x1="303" x2="480" y1="439.27" y2="439.27"/><line style="stroke:#181818;stroke-width:0.5;" x1="303" x2="480" y1="447.27" y2="447.27"/></g><!--reverse link Mediator to ConcreteMediator--><g id="link_Mediator_ConcreteMediator"><path d="M243.7142,87.9077 C227.5442,106.2977 219.35,115.61 203.21,133.96 " fill="none" id="Mediator-backto-ConcreteMediator" style="stroke:#181818;stroke-width:1.0;stroke-dasharray:7.0,7.0;"/><polygon fill="none" points="255.6,74.39,239.2083,83.9457,248.2201,91.8696,255.6,74.39" style="stroke:#181818;stroke-width:1.0;"/></g><!--reverse link Component to ConcreteComponentA--><g id="link_Component_ConcreteComponentA"><path d="M223.5973,360.7907 C205.3473,380.6407 198.62,390.27 186.98,406.93 " fill="none" id="Component-backto-ConcreteComponentA" style="stroke:#181818;stroke-width:1.0;"/><polygon fill="none" points="235.78,347.54,219.1804,356.7299,228.0142,364.8516,235.78,347.54" style="stroke:#181818;stroke-width:1.0;"/></g><!--link ConcreteComponentA to Component--><g id="link_ConcreteComponentA_Component"><path codeLine="18" d="M207.96,406.93 C224.83,390.27 241.3479,372.096 257.0479,352.246 " fill="none" id="ConcreteComponentA-to-Component" style="stroke:#181818;stroke-width:1.0;"/><polygon fill="#181818" points="260.77,347.54,252.0496,352.1175,257.6683,351.4616,258.3242,357.0803,260.77,347.54" style="stroke:#181818;stroke-width:1.0;"/></g><!--reverse link Component to ConcreteComponentB--><g id="link_Component_ConcreteComponentB"><path d="M319.3963,361.6579 C335.0963,381.5079 344.17,390.27 361.04,406.93 " fill="none" id="Component-backto-ConcreteComponentB" style="stroke:#181818;stroke-width:1.0;"/><polygon fill="none" points="308.23,347.54,314.6903,365.38,324.1022,357.9358,308.23,347.54" style="stroke:#181818;stroke-width:1.0;"/></g><!--link ConcreteComponentB to Component--><g id="link_ConcreteComponentB_Component"><path codeLine="19" d="M382.02,406.93 C370.38,390.27 355.5309,371.8069 337.2809,351.9569 " fill="none" id="ConcreteComponentB-to-Component" style="stroke:#181818;stroke-width:1.0;"/><polygon fill="#181818" points="333.22,347.54,336.3667,356.8726,336.6041,351.2208,342.256,351.4581,333.22,347.54" style="stroke:#181818;stroke-width:1.0;"/></g><!--link Component to Mediator--><g id="link_Component_Mediator"><path codeLine="17" d="M324.89,260.97 C338.66,243.78 352.37,222.86 359.5,201.13 C368.79,172.81 369.46,162.16 359.5,134.07 C351.56,111.65 339.7089,95.091 324.5489,78.811 " fill="none" id="Component-to-Mediator" style="stroke:#181818;stroke-width:1.0;"/><polygon fill="#181818" points="320.46,74.42,323.666,83.7324,323.8674,78.0792,329.5207,78.2805,320.46,74.42" style="stroke:#181818;stroke-width:1.0;"/></g><!--link ConcreteMediator to Component--><g id="link_ConcreteMediator_Component"><path codeLine="20" d="M201.41,201.53 C215.97,219.35 230.3326,236.9246 245.9626,256.0446 " fill="none" id="ConcreteMediator-to-Component" style="stroke:#181818;stroke-width:1.0;"/><polygon fill="#181818" points="249.76,260.69,247.1607,251.1903,246.5955,256.8189,240.9669,256.2536,249.76,260.69" style="stroke:#181818;stroke-width:1.0;"/></g><!--SRC=[hP312i8m38RlVOeS9xeNw45GpvvyWjfcKbZJqOOnaRsx5RUEONSpbvBap_-biSGO6gKHhcYiOX_W9I35dZpRvbb598D1miMxpXCI7m3xz4YuSR3qs4delJLY54AtAiOa91sGCVjPrxNeqaZy0qFT8mUb6MROD34vrcuYoCpwaYBoNAX-DPkVoFudm87JcYlakAK-bzLYoUhwk6nOe7twEHK5G5cG3xnglm40]--></g></svg>