<?xml version="1.0" encoding="us-ascii" standalone="no"?><svg xmlns="http://www.w3.org/2000/svg" xmlns:xlink="http://www.w3.org/1999/xlink" contentStyleType="text/css" height="219px" preserveAspectRatio="none" style="width:647px;height:219px;background:#FFFFFF;" version="1.1" viewBox="0 0 647 219" width="647px" zoomAndPan="magnify"><defs/><g><!--class Mediator--><g id="elem_Mediator"><rect codeLine="3" fill="#F1F1F1" height="59.0679" id="Mediator" rx="2.5" ry="2.5" style="stroke:#181818;stroke-width:0.5;" width="205" x="435" y="20.53"/><ellipse cx="504.25" cy="36.53" fill="#B4A7E5" rx="11" ry="11" style="stroke:#181818;stroke-width:1.0;"/><path d="M500.2813,43.03 L500.2813,41.3269 L502.6406,41.0613 L502.6406,32.8581 L500.2813,32.5925 L500.2813,30.8894 L507.4219,30.8894 L507.4219,32.5925 L505,32.8581 L505,41.0613 L507.4219,41.3269 L507.4219,43.03 L500.2813,43.03 Z " fill="#000000"/><text fill="#000000" font-family="sans-serif" font-size="14" font-style="italic" lengthAdjust="spacing" textLength="58" x="524.75" y="41.962">Mediator</text><line style="stroke:#181818;stroke-width:0.5;" x1="436" x2="639" y1="52.53" y2="52.53"/><ellipse cx="446" cy="67.564" fill="#84BE84" rx="3" ry="3" style="stroke:#038048;stroke-width:1.0;"/><text fill="#000000" font-family="sans-serif" font-size="14" lengthAdjust="spacing" textLength="179" x="455" y="71.4959">notify(sender: Component)</text></g><!--class ConcreteMediator--><g id="elem_ConcreteMediator"><rect codeLine="7" fill="#F1F1F1" height="59.0679" id="ConcreteMediator" rx="2.5" ry="2.5" style="stroke:#181818;stroke-width:0.5;" width="205" x="435" y="153.13"/><ellipse cx="473.4" cy="169.13" fill="#ADD1B2" rx="11" ry="11" style="stroke:#181818;stroke-width:1.0;"/><path d="M472.8688,176.0519 Q471.1188,176.0519 469.9781,175.3175 Q468.8531,174.5675 468.2906,173.2238 Q467.7438,171.8644 467.7438,170.0675 Q467.7438,168.0363 468.4,166.5831 Q469.0563,165.13 470.3375,164.3488 Q471.6188,163.5675 473.4938,163.5675 Q474.3844,163.5675 475.0563,163.755 Q475.7281,163.9269 476.4156,164.2706 L475.6031,166.2863 Q474.9781,165.9738 474.4313,165.8488 Q473.9,165.7238 473.4156,165.7238 Q472.2438,165.7238 471.5406,166.255 Q470.8375,166.7863 470.5406,167.7394 Q470.2438,168.6925 470.2438,169.9581 Q470.2438,171.9738 470.9625,172.9425 Q471.6813,173.8956 473.275,173.8956 Q473.8688,173.8956 474.4938,173.7394 Q475.1188,173.5831 475.9469,173.2081 L475.9469,175.4269 Q475.2125,175.7394 474.4156,175.8956 Q473.6344,176.0519 472.8688,176.0519 Z " fill="#000000"/><text fill="#000000" font-family="sans-serif" font-size="14" lengthAdjust="spacing" textLength="121" x="492.6" y="174.562">ConcreteMediator</text><line style="stroke:#181818;stroke-width:0.5;" x1="436" x2="639" y1="185.13" y2="185.13"/><ellipse cx="446" cy="200.164" fill="#84BE84" rx="3" ry="3" style="stroke:#038048;stroke-width:1.0;"/><text fill="#000000" font-family="sans-serif" font-size="14" lengthAdjust="spacing" textLength="179" x="455" y="204.0959">notify(sender: Component)</text></g><!--class Component--><g id="elem_Component"><rect codeLine="11" fill="#F1F1F1" height="86.1358" id="Component" rx="2.5" ry="2.5" style="stroke:#181818;stroke-width:0.5;" width="281" x="119" y="7"/><ellipse cx="219.25" cy="23" fill="#A9DCDF" rx="11" ry="11" style="stroke:#181818;stroke-width:1.0;"/><path d="M214.4219,28.75 L217.7656,16.5625 L220.9063,16.5625 L224.2813,28.75 L221.8125,28.75 L221.0781,25.7344 L217.5625,25.7344 L216.8125,28.75 L214.4219,28.75 Z M218.8281,20.7031 L218.0781,23.7031 L220.5938,23.7031 L219.875,20.7031 Q219.7344,20.125 219.6094,19.5781 Q219.4844,19.0156 219.3438,18.4375 Q219.2344,19.0156 219.0938,19.5781 Q218.9531,20.125 218.8281,20.7031 Z " fill="#000000"/><text fill="#000000" font-family="sans-serif" font-size="14" font-style="italic" lengthAdjust="spacing" textLength="72" x="239.75" y="28.432">Component</text><line style="stroke:#181818;stroke-width:0.5;" x1="120" x2="399" y1="39" y2="39"/><rect fill="none" height="6" style="stroke:#C82930;stroke-width:1.0;" width="6" x="127" y="51.034"/><text fill="#000000" font-family="sans-serif" font-size="14" lengthAdjust="spacing" textLength="130" x="139" y="57.9659">mediator: Mediator</text><line style="stroke:#181818;stroke-width:0.5;" x1="120" x2="399" y1="66.0679" y2="66.0679"/><ellipse cx="130" cy="81.1019" fill="#84BE84" rx="3" ry="3" style="stroke:#038048;stroke-width:1.0;"/><text fill="#000000" font-family="sans-serif" font-size="14" lengthAdjust="spacing" textLength="255" x="139" y="85.0339">setMediator(mediator: Mediator): void</text></g><!--class ConcreteComponentA--><g id="elem_ConcreteComponentA"><rect codeLine="16" fill="#F1F1F1" height="32" id="ConcreteComponentA" rx="2.5" ry="2.5" style="stroke:#181818;stroke-width:0.5;" width="179" x="7" y="166.67"/><ellipse cx="22" cy="182.67" fill="#ADD1B2" rx="11" ry="11" style="stroke:#181818;stroke-width:1.0;"/><path d="M21.4688,189.5919 Q19.7188,189.5919 18.5781,188.8575 Q17.4531,188.1075 16.8906,186.7638 Q16.3438,185.4044 16.3438,183.6075 Q16.3438,181.5763 17,180.1231 Q17.6563,178.67 18.9375,177.8888 Q20.2188,177.1075 22.0938,177.1075 Q22.9844,177.1075 23.6563,177.295 Q24.3281,177.4669 25.0156,177.8106 L24.2031,179.8263 Q23.5781,179.5138 23.0313,179.3888 Q22.5,179.2638 22.0156,179.2638 Q20.8438,179.2638 20.1406,179.795 Q19.4375,180.3263 19.1406,181.2794 Q18.8438,182.2325 18.8438,183.4981 Q18.8438,185.5138 19.5625,186.4825 Q20.2813,187.4356 21.875,187.4356 Q22.4688,187.4356 23.0938,187.2794 Q23.7188,187.1231 24.5469,186.7481 L24.5469,188.9669 Q23.8125,189.2794 23.0156,189.4356 Q22.2344,189.5919 21.4688,189.5919 Z " fill="#000000"/><text fill="#000000" font-family="sans-serif" font-size="14" lengthAdjust="spacing" textLength="147" x="36" y="188.102">ConcreteComponentA</text></g><!--class ConcreteComponentB--><g id="elem_ConcreteComponentB"><rect codeLine="17" fill="#F1F1F1" height="32" id="ConcreteComponentB" rx="2.5" ry="2.5" style="stroke:#181818;stroke-width:0.5;" width="179" x="221" y="166.67"/><ellipse cx="236" cy="182.67" fill="#ADD1B2" rx="11" ry="11" style="stroke:#181818;stroke-width:1.0;"/><path d="M235.4688,189.5919 Q233.7188,189.5919 232.5781,188.8575 Q231.4531,188.1075 230.8906,186.7638 Q230.3438,185.4044 230.3438,183.6075 Q230.3438,181.5763 231,180.1231 Q231.6563,178.67 232.9375,177.8888 Q234.2188,177.1075 236.0938,177.1075 Q236.9844,177.1075 237.6563,177.295 Q238.3281,177.4669 239.0156,177.8106 L238.2031,179.8263 Q237.5781,179.5138 237.0313,179.3888 Q236.5,179.2638 236.0156,179.2638 Q234.8438,179.2638 234.1406,179.795 Q233.4375,180.3263 233.1406,181.2794 Q232.8438,182.2325 232.8438,183.4981 Q232.8438,185.5138 233.5625,186.4825 Q234.2813,187.4356 235.875,187.4356 Q236.4688,187.4356 237.0938,187.2794 Q237.7188,187.1231 238.5469,186.7481 L238.5469,188.9669 Q237.8125,189.2794 237.0156,189.4356 Q236.2344,189.5919 235.4688,189.5919 Z " fill="#000000"/><text fill="#000000" font-family="sans-serif" font-size="14" lengthAdjust="spacing" textLength="147" x="250" y="188.102">ConcreteComponentB</text></g><!--reverse link Mediator to ConcreteMediator--><g id="link_Mediator_ConcreteMediator"><path d="M537.5,98.05 C537.5,119.69 537.5,131.14 537.5,152.76 " fill="none" id="Mediator-backto-ConcreteMediator" style="stroke:#181818;stroke-width:1.0;stroke-dasharray:7.0,7.0;"/><polygon fill="none" points="537.5,80.05,531.5,98.05,543.5,98.05,537.5,80.05" style="stroke:#181818;stroke-width:1.0;"/></g><!--reverse link Component to ConcreteComponentA--><g id="link_Component_ConcreteComponentA"><path d="M192.5305,104.7222 C161.2905,129.7422 137.7,148.66 115.51,166.44 " fill="none" id="Component-backto-ConcreteComponentA" style="stroke:#181818;stroke-width:1.0;"/><polygon fill="none" points="206.58,93.47,188.7798,100.039,196.2812,109.4054,206.58,93.47" style="stroke:#181818;stroke-width:1.0;"/></g><!--reverse link Component to ConcreteComponentB--><g id="link_Component_ConcreteComponentB"><path d="M282.6073,110.237 C292.3773,135.257 297.61,148.66 304.55,166.44 " fill="none" id="Component-backto-ConcreteComponentB" style="stroke:#181818;stroke-width:1.0;"/><polygon fill="none" points="276.06,93.47,277.0183,112.4194,288.1963,108.0546,276.06,93.47" style="stroke:#181818;stroke-width:1.0;"/></g><!--link Component to Mediator--><g id="link_Component_Mediator"><path codeLine="19" d="M400.4,50.06 C411.83,50.06 417.25,50.06 428.68,50.06 " fill="none" id="Component-to-Mediator" style="stroke:#181818;stroke-width:1.0;"/><polygon fill="#181818" points="434.68,50.06,425.68,46.06,429.68,50.06,425.68,54.06,434.68,50.06" style="stroke:#181818;stroke-width:1.0;"/></g><!--reverse link ConcreteComponentA to ConcreteMediator--><g id="link_ConcreteComponentA_ConcreteMediator"><path codeLine="20" d="M127.1057,163.2043 C151.4357,148.6143 184.55,131.4 221,123.13 C298.59,105.54 322.1,106.99 400,123.13 C428.27,128.99 457.88,140.96 482.35,152.64 " fill="none" id="ConcreteComponentA-backto-ConcreteMediator" style="stroke:#181818;stroke-width:1.0;"/><polygon fill="#181818" points="121.96,166.29,131.7357,165.0919,126.2481,163.7186,127.6214,158.2309,121.96,166.29" style="stroke:#181818;stroke-width:1.0;"/></g><!--reverse link ConcreteComponentB to ConcreteMediator--><g id="link_ConcreteComponentB_ConcreteMediator"><path codeLine="21" d="M406.06,182.67 C417.6,182.67 423.14,182.67 434.69,182.67 " fill="none" id="ConcreteComponentB-backto-ConcreteMediator" style="stroke:#181818;stroke-width:1.0;"/><polygon fill="#181818" points="400.06,182.67,409.06,186.67,405.06,182.67,409.06,178.67,400.06,182.67" style="stroke:#181818;stroke-width:1.0;"/></g><!--SRC=[bP1D2i8m48NtSufPjaWlK4HGrnuYJLunq2Gb6SGYlRi1-uEqBimkas- -zyZT6Z1SBmCxk0On4LalYAtIu1kCLH8YluZpEVWWjXsA16yGQxu6rmSFBoMDHBfJAUMPrn62PTMwleFBKFfFfveaKMdXsJizJikLcsJrelr84sGU55kchFaHhDdsNVndnbDoew_8yHTzsQTflLMdjU1EsB7QV1djfEnWRm00]--></g></svg>