<?xml version="1.0" encoding="us-ascii" standalone="no"?><svg xmlns="http://www.w3.org/2000/svg" xmlns:xlink="http://www.w3.org/1999/xlink" contentStyleType="text/css" height="268px" preserveAspectRatio="none" style="width:671px;height:268px;background:#FFFFFF;" version="1.1" viewBox="0 0 671 268" width="671px" zoomAndPan="magnify"><defs/><g><!--class Client--><g id="elem_Client"><rect codeLine="3" fill="#F1F1F1" height="32" id="Client" rx="2.5" ry="2.5" style="stroke:#181818;stroke-width:0.5;" width="71" x="432.5" y="39.6"/><ellipse cx="447.5" cy="55.6" fill="#ADD1B2" rx="11" ry="11" style="stroke:#181818;stroke-width:1.0;"/><path d="M446.9688,62.5219 Q445.2188,62.5219 444.0781,61.7875 Q442.9531,61.0375 442.3906,59.6937 Q441.8438,58.3344 441.8438,56.5375 Q441.8438,54.5062 442.5,53.0531 Q443.1563,51.6 444.4375,50.8187 Q445.7188,50.0375 447.5938,50.0375 Q448.4844,50.0375 449.1563,50.225 Q449.8281,50.3969 450.5156,50.7406 L449.7031,52.7562 Q449.0781,52.4437 448.5313,52.3187 Q448,52.1937 447.5156,52.1937 Q446.3438,52.1937 445.6406,52.725 Q444.9375,53.2562 444.6406,54.2094 Q444.3438,55.1625 444.3438,56.4281 Q444.3438,58.4437 445.0625,59.4125 Q445.7813,60.3656 447.375,60.3656 Q447.9688,60.3656 448.5938,60.2094 Q449.2188,60.0531 450.0469,59.6781 L450.0469,61.8969 Q449.3125,62.2094 448.5156,62.3656 Q447.7344,62.5219 446.9688,62.5219 Z " fill="#000000"/><text fill="#000000" font-family="sans-serif" font-size="14" lengthAdjust="spacing" textLength="39" x="461.5" y="61.032">Client</text></g><!--class Iterator--><g id="elem_Iterator"><rect codeLine="5" fill="#F1F1F1" height="97.2038" id="Iterator" rx="2.5" ry="2.5" style="stroke:#181818;stroke-width:0.5;" width="126" x="538" y="7"/><ellipse cx="572.8" cy="23" fill="#B4A7E5" rx="11" ry="11" style="stroke:#181818;stroke-width:1.0;"/><path d="M568.8313,29.5 L568.8313,27.7969 L571.1906,27.5313 L571.1906,19.3281 L568.8313,19.0625 L568.8313,17.3594 L575.9719,17.3594 L575.9719,19.0625 L573.55,19.3281 L573.55,27.5313 L575.9719,27.7969 L575.9719,29.5 L568.8313,29.5 Z " fill="#000000"/><text fill="#000000" font-family="sans-serif" font-size="14" font-style="italic" lengthAdjust="spacing" textLength="50" x="591.2" y="28.432">Iterator</text><line style="stroke:#181818;stroke-width:0.5;" x1="539" x2="663" y1="39" y2="39"/><ellipse cx="549" cy="54.034" fill="#84BE84" rx="3" ry="3" style="stroke:#038048;stroke-width:1.0;"/><text fill="#000000" font-family="sans-serif" font-size="14" lengthAdjust="spacing" textLength="100" x="558" y="57.9659">next(): Element</text><ellipse cx="549" cy="73.1019" fill="#84BE84" rx="3" ry="3" style="stroke:#038048;stroke-width:1.0;"/><text fill="#000000" font-family="sans-serif" font-size="14" lengthAdjust="spacing" textLength="100" x="558" y="77.0339">hasNext(): Bool</text><ellipse cx="549" cy="92.1698" fill="#84BE84" rx="3" ry="3" style="stroke:#038048;stroke-width:1.0;"/><text fill="#000000" font-family="sans-serif" font-size="14" lengthAdjust="spacing" textLength="94" x="558" y="96.1018">remove(): void</text></g><!--class Aggregate--><g id="elem_Aggregate"><rect codeLine="11" fill="#F1F1F1" height="59.0679" id="Aggregate" rx="2.5" ry="2.5" style="stroke:#181818;stroke-width:0.5;" width="186" x="212" y="26.07"/><ellipse cx="268.25" cy="42.07" fill="#B4A7E5" rx="11" ry="11" style="stroke:#181818;stroke-width:1.0;"/><path d="M264.2813,48.57 L264.2813,46.8669 L266.6406,46.6012 L266.6406,38.3981 L264.2813,38.1325 L264.2813,36.4294 L271.4219,36.4294 L271.4219,38.1325 L269,38.3981 L269,46.6012 L271.4219,46.8669 L271.4219,48.57 L264.2813,48.57 Z " fill="#000000"/><text fill="#000000" font-family="sans-serif" font-size="14" font-style="italic" lengthAdjust="spacing" textLength="65" x="288.75" y="47.502">Aggregate</text><line style="stroke:#181818;stroke-width:0.5;" x1="213" x2="397" y1="58.07" y2="58.07"/><ellipse cx="223" cy="73.104" fill="#84BE84" rx="3" ry="3" style="stroke:#038048;stroke-width:1.0;"/><text fill="#000000" font-family="sans-serif" font-size="14" lengthAdjust="spacing" textLength="160" x="232" y="77.0359">createIterator(): Iterator</text></g><!--class ConcreteIterator--><g id="elem_ConcreteIterator"><rect codeLine="18" fill="#F1F1F1" height="97.2038" id="ConcreteIterator" rx="2.5" ry="2.5" style="stroke:#181818;stroke-width:0.5;" width="143" x="481.5" y="164.21"/><ellipse cx="496.5" cy="180.21" fill="#ADD1B2" rx="11" ry="11" style="stroke:#181818;stroke-width:1.0;"/><path d="M495.9688,187.1319 Q494.2188,187.1319 493.0781,186.3975 Q491.9531,185.6475 491.3906,184.3038 Q490.8438,182.9444 490.8438,181.1475 Q490.8438,179.1163 491.5,177.6631 Q492.1563,176.21 493.4375,175.4288 Q494.7188,174.6475 496.5938,174.6475 Q497.4844,174.6475 498.1563,174.835 Q498.8281,175.0069 499.5156,175.3506 L498.7031,177.3663 Q498.0781,177.0538 497.5313,176.9288 Q497,176.8038 496.5156,176.8038 Q495.3438,176.8038 494.6406,177.335 Q493.9375,177.8663 493.6406,178.8194 Q493.3438,179.7725 493.3438,181.0381 Q493.3438,183.0538 494.0625,184.0225 Q494.7813,184.9756 496.375,184.9756 Q496.9688,184.9756 497.5938,184.8194 Q498.2188,184.6631 499.0469,184.2881 L499.0469,186.5069 Q498.3125,186.8194 497.5156,186.9756 Q496.7344,187.1319 495.9688,187.1319 Z " fill="#000000"/><text fill="#000000" font-family="sans-serif" font-size="14" lengthAdjust="spacing" textLength="111" x="510.5" y="185.642">ConcreteIterator</text><line style="stroke:#181818;stroke-width:0.5;" x1="482.5" x2="623.5" y1="196.21" y2="196.21"/><ellipse cx="492.5" cy="211.244" fill="#84BE84" rx="3" ry="3" style="stroke:#038048;stroke-width:1.0;"/><text fill="#000000" font-family="sans-serif" font-size="14" lengthAdjust="spacing" textLength="100" x="501.5" y="215.1759">next(): Element</text><ellipse cx="492.5" cy="230.3119" fill="#84BE84" rx="3" ry="3" style="stroke:#038048;stroke-width:1.0;"/><text fill="#000000" font-family="sans-serif" font-size="14" lengthAdjust="spacing" textLength="100" x="501.5" y="234.2439">hasNext(): Bool</text><ellipse cx="492.5" cy="249.3798" fill="#84BE84" rx="3" ry="3" style="stroke:#038048;stroke-width:1.0;"/><text fill="#000000" font-family="sans-serif" font-size="14" lengthAdjust="spacing" textLength="94" x="501.5" y="253.3118">remove(): void</text></g><!--class ConcreteAggregate--><g id="elem_ConcreteAggregate"><rect codeLine="24" fill="#F1F1F1" height="59.0679" id="ConcreteAggregate" rx="2.5" ry="2.5" style="stroke:#181818;stroke-width:0.5;" width="186" x="261" y="183.27"/><ellipse cx="286.35" cy="199.27" fill="#ADD1B2" rx="11" ry="11" style="stroke:#181818;stroke-width:1.0;"/><path d="M285.8188,206.1919 Q284.0688,206.1919 282.9281,205.4575 Q281.8031,204.7075 281.2406,203.3638 Q280.6938,202.0044 280.6938,200.2075 Q280.6938,198.1763 281.35,196.7231 Q282.0063,195.27 283.2875,194.4888 Q284.5688,193.7075 286.4438,193.7075 Q287.3344,193.7075 288.0063,193.895 Q288.6781,194.0669 289.3656,194.4106 L288.5531,196.4263 Q287.9281,196.1138 287.3813,195.9888 Q286.85,195.8638 286.3656,195.8638 Q285.1938,195.8638 284.4906,196.395 Q283.7875,196.9263 283.4906,197.8794 Q283.1938,198.8325 283.1938,200.0981 Q283.1938,202.1138 283.9125,203.0825 Q284.6313,204.0356 286.225,204.0356 Q286.8188,204.0356 287.4438,203.8794 Q288.0688,203.7231 288.8969,203.3481 L288.8969,205.5669 Q288.1625,205.8794 287.3656,206.0356 Q286.5844,206.1919 285.8188,206.1919 Z " fill="#000000"/><text fill="#000000" font-family="sans-serif" font-size="14" lengthAdjust="spacing" textLength="131" x="302.65" y="204.702">ConcreteAggregate</text><line style="stroke:#181818;stroke-width:0.5;" x1="262" x2="446" y1="215.27" y2="215.27"/><ellipse cx="272" cy="230.304" fill="#84BE84" rx="3" ry="3" style="stroke:#038048;stroke-width:1.0;"/><text fill="#000000" font-family="sans-serif" font-size="14" lengthAdjust="spacing" textLength="160" x="281" y="234.2359">createIterator(): Iterator</text></g><path d="M6,193.96 L6,221.666 A0,0 0 0 0 6,221.666 L226,221.666 A0,0 0 0 0 226,221.666 L226,211.96 L265,228.804 L226,203.96 L226,203.96 L216,193.96 L6,193.96 A0,0 0 0 0 6,193.96 " fill="#FEFFDD" style="stroke:#181818;stroke-width:0.5;"/><path d="M216,193.96 L216,203.96 L226,203.96 L216,193.96 " fill="#FEFFDD" style="stroke:#181818;stroke-width:0.5;"/><text fill="#000000" font-family="sans-serif" font-size="13" lengthAdjust="spacing" textLength="199" x="12" y="212.857">return new ConcreteIterator(this)</text><!--reverse link Aggregate to Client--><g id="link_Aggregate_Client"><path codeLine="15" d="M404.28,55.6 C415.54,55.6 420.79,55.6 432.05,55.6 " fill="none" id="Aggregate-backto-Client" style="stroke:#181818;stroke-width:1.0;"/><polygon fill="#181818" points="398.28,55.6,407.28,59.6,403.28,55.6,407.28,51.6,398.28,55.6" style="stroke:#181818;stroke-width:1.0;"/></g><!--link Client to Iterator--><g id="link_Client_Iterator"><path codeLine="16" d="M503.85,55.6 C515.11,55.6 520.36,55.6 531.62,55.6 " fill="none" id="Client-to-Iterator" style="stroke:#181818;stroke-width:1.0;"/><polygon fill="#181818" points="537.62,55.6,528.62,51.6,532.62,55.6,528.62,59.6,537.62,55.6" style="stroke:#181818;stroke-width:1.0;"/></g><!--reverse link Iterator to ConcreteIterator--><g id="link_Iterator_ConcreteIterator"><path d="M580.8909,121.6361 C575.0509,140.5161 573.67,144.97 567.83,163.87 " fill="none" id="Iterator-backto-ConcreteIterator" style="stroke:#181818;stroke-width:1.0;stroke-dasharray:7.0,7.0;"/><polygon fill="none" points="586.21,104.44,575.1588,119.8631,586.6229,123.4092,586.21,104.44" style="stroke:#181818;stroke-width:1.0;"/></g><!--reverse link Aggregate to ConcreteAggregate--><g id="link_Aggregate_ConcreteAggregate"><path d="M319.5227,102.5937 C328.3027,130.3837 336.08,155.04 344.86,182.87 " fill="none" id="Aggregate-backto-ConcreteAggregate" style="stroke:#181818;stroke-width:1.0;stroke-dasharray:7.0,7.0;"/><polygon fill="none" points="314.1,85.43,313.8015,104.4013,325.244,100.7862,314.1,85.43" style="stroke:#181818;stroke-width:1.0;"/></g><!--link ConcreteAggregate to ConcreteIterator--><g id="link_ConcreteAggregate_ConcreteIterator"><path codeLine="32" d="M447.28,234.87 C458.57,235.19 463.9057,235.389 475.1857,233.989 " fill="none" id="ConcreteAggregate-to-ConcreteIterator" style="stroke:#181818;stroke-width:1.0;stroke-dasharray:7.0,7.0;"/><polygon fill="#181818" points="481.14,233.25,471.7159,230.389,476.1781,233.8658,472.7012,238.3281,481.14,233.25" style="stroke:#181818;stroke-width:1.0;"/></g><!--reverse link ConcreteAggregate to ConcreteIterator--><g id="link_ConcreteAggregate_ConcreteIterator"><path codeLine="33" d="M453.2777,190.5753 C464.5677,190.2653 469.86,190.97 481.14,192.37 " fill="none" id="ConcreteAggregate-backto-ConcreteIterator" style="stroke:#181818;stroke-width:1.0;"/><polygon fill="#181818" points="447.28,190.74,456.3864,194.4915,452.2781,190.6028,456.1668,186.4945,447.28,190.74" style="stroke:#181818;stroke-width:1.0;"/></g><!--SRC=[hL1B2i8m5Do_Kxob8dg08eAA2pVU8RRJDf2F9F67U7SJQwcrRWIpoSimCsycjIp0q8TmPGszX_D4kHBUyrf9c72x4qaJu4gHWxTn4C4wlX77Cp6uXD4uuus2ZkG6h8NVlV2LjQe17RGz8M4dAmlgkIwhog4I0QrjxX1VxR8aQkSaxEZpwIibDHTF5nsphM5DjElSMEf3azR_jKv_MvVnRTsFFOsDJ8Koi2s7nbdMLpyT8-Fe31kS1xr7ePP-J3059sEYOTJPOg3wmagV_icY1m00]--></g></svg>