<?xml version="1.0" encoding="us-ascii" standalone="no"?><svg xmlns="http://www.w3.org/2000/svg" xmlns:xlink="http://www.w3.org/1999/xlink" contentStyleType="text/css" height="246px" preserveAspectRatio="none" style="width:385px;height:246px;background:#FFFFFF;" version="1.1" viewBox="0 0 385 246" width="385px" zoomAndPan="magnify"><defs/><g><!--class Iterator--><g id="elem_Iterator"><rect codeLine="1" fill="#F1F1F1" height="86.1358" id="Iterator" rx="2.5" ry="2.5" style="stroke:#181818;stroke-width:0.5;" width="151" x="7" y="7"/><ellipse cx="53.25" cy="23" fill="#B4A7E5" rx="11" ry="11" style="stroke:#181818;stroke-width:1.0;"/><path d="M49.2813,29.5 L49.2813,27.7969 L51.6406,27.5313 L51.6406,19.3281 L49.2813,19.0625 L49.2813,17.3594 L56.4219,17.3594 L56.4219,19.0625 L54,19.3281 L54,27.5313 L56.4219,27.7969 L56.4219,29.5 L49.2813,29.5 Z " fill="#000000"/><text fill="#000000" font-family="sans-serif" font-size="14" font-style="italic" lengthAdjust="spacing" textLength="50" x="73.75" y="28.432">Iterator</text><line style="stroke:#181818;stroke-width:0.5;" x1="8" x2="157" y1="39" y2="39"/><line style="stroke:#181818;stroke-width:0.5;" x1="8" x2="157" y1="47" y2="47"/><ellipse cx="18" cy="62.034" fill="#84BE84" rx="3" ry="3" style="stroke:#038048;stroke-width:1.0;"/><text fill="#000000" font-family="sans-serif" font-size="14" lengthAdjust="spacing" textLength="100" x="27" y="65.9659">next(): Element</text><ellipse cx="18" cy="81.1019" fill="#84BE84" rx="3" ry="3" style="stroke:#038048;stroke-width:1.0;"/><text fill="#000000" font-family="sans-serif" font-size="14" lengthAdjust="spacing" textLength="125" x="27" y="85.0339">hasNext(): boolean</text></g><!--class Aggregate--><g id="elem_Aggregate"><rect codeLine="6" fill="#F1F1F1" height="67.0679" id="Aggregate" rx="2.5" ry="2.5" style="stroke:#181818;stroke-width:0.5;" width="186" x="192.5" y="16.53"/><ellipse cx="248.75" cy="32.53" fill="#B4A7E5" rx="11" ry="11" style="stroke:#181818;stroke-width:1.0;"/><path d="M244.7813,39.03 L244.7813,37.3269 L247.1406,37.0613 L247.1406,28.8581 L244.7813,28.5925 L244.7813,26.8894 L251.9219,26.8894 L251.9219,28.5925 L249.5,28.8581 L249.5,37.0613 L251.9219,37.3269 L251.9219,39.03 L244.7813,39.03 Z " fill="#000000"/><text fill="#000000" font-family="sans-serif" font-size="14" font-style="italic" lengthAdjust="spacing" textLength="65" x="269.25" y="37.962">Aggregate</text><line style="stroke:#181818;stroke-width:0.5;" x1="193.5" x2="377.5" y1="48.53" y2="48.53"/><line style="stroke:#181818;stroke-width:0.5;" x1="193.5" x2="377.5" y1="56.53" y2="56.53"/><ellipse cx="203.5" cy="71.564" fill="#84BE84" rx="3" ry="3" style="stroke:#038048;stroke-width:1.0;"/><text fill="#000000" font-family="sans-serif" font-size="14" lengthAdjust="spacing" textLength="160" x="212.5" y="75.4959">createIterator(): Iterator</text></g><!--class ConcreteIterator--><g id="elem_ConcreteIterator"><rect codeLine="10" fill="#F1F1F1" height="86.1358" id="ConcreteIterator" rx="2.5" ry="2.5" style="stroke:#181818;stroke-width:0.5;" width="151" x="7" y="153.13"/><ellipse cx="25.6" cy="169.13" fill="#ADD1B2" rx="11" ry="11" style="stroke:#181818;stroke-width:1.0;"/><path d="M25.0688,176.0519 Q23.3188,176.0519 22.1781,175.3175 Q21.0531,174.5675 20.4906,173.2238 Q19.9438,171.8644 19.9438,170.0675 Q19.9438,168.0363 20.6,166.5831 Q21.2563,165.13 22.5375,164.3488 Q23.8188,163.5675 25.6938,163.5675 Q26.5844,163.5675 27.2563,163.755 Q27.9281,163.9269 28.6156,164.2706 L27.8031,166.2863 Q27.1781,165.9738 26.6313,165.8488 Q26.1,165.7238 25.6156,165.7238 Q24.4438,165.7238 23.7406,166.255 Q23.0375,166.7863 22.7406,167.7394 Q22.4438,168.6925 22.4438,169.9581 Q22.4438,171.9738 23.1625,172.9425 Q23.8813,173.8956 25.475,173.8956 Q26.0688,173.8956 26.6938,173.7394 Q27.3188,173.5831 28.1469,173.2081 L28.1469,175.4269 Q27.4125,175.7394 26.6156,175.8956 Q25.8344,176.0519 25.0688,176.0519 Z " fill="#000000"/><text fill="#000000" font-family="sans-serif" font-size="14" lengthAdjust="spacing" textLength="111" x="40.4" y="174.562">ConcreteIterator</text><line style="stroke:#181818;stroke-width:0.5;" x1="8" x2="157" y1="185.13" y2="185.13"/><line style="stroke:#181818;stroke-width:0.5;" x1="8" x2="157" y1="193.13" y2="193.13"/><ellipse cx="18" cy="208.164" fill="#84BE84" rx="3" ry="3" style="stroke:#038048;stroke-width:1.0;"/><text fill="#000000" font-family="sans-serif" font-size="14" lengthAdjust="spacing" textLength="100" x="27" y="212.0959">next(): Element</text><ellipse cx="18" cy="227.2319" fill="#84BE84" rx="3" ry="3" style="stroke:#038048;stroke-width:1.0;"/><text fill="#000000" font-family="sans-serif" font-size="14" lengthAdjust="spacing" textLength="125" x="27" y="231.1639">hasNext(): boolean</text></g><!--class ConcreteAggregate--><g id="elem_ConcreteAggregate"><rect codeLine="15" fill="#F1F1F1" height="67.0679" id="ConcreteAggregate" rx="2.5" ry="2.5" style="stroke:#181818;stroke-width:0.5;" width="186" x="192.5" y="162.67"/><ellipse cx="217.85" cy="178.67" fill="#ADD1B2" rx="11" ry="11" style="stroke:#181818;stroke-width:1.0;"/><path d="M217.3188,185.5919 Q215.5688,185.5919 214.4281,184.8575 Q213.3031,184.1075 212.7406,182.7638 Q212.1938,181.4044 212.1938,179.6075 Q212.1938,177.5763 212.85,176.1231 Q213.5063,174.67 214.7875,173.8888 Q216.0688,173.1075 217.9438,173.1075 Q218.8344,173.1075 219.5063,173.295 Q220.1781,173.4669 220.8656,173.8106 L220.0531,175.8263 Q219.4281,175.5138 218.8813,175.3888 Q218.35,175.2638 217.8656,175.2638 Q216.6938,175.2638 215.9906,175.795 Q215.2875,176.3263 214.9906,177.2794 Q214.6938,178.2325 214.6938,179.4981 Q214.6938,181.5138 215.4125,182.4825 Q216.1313,183.4356 217.725,183.4356 Q218.3188,183.4356 218.9438,183.2794 Q219.5688,183.1231 220.3969,182.7481 L220.3969,184.9669 Q219.6625,185.2794 218.8656,185.4356 Q218.0844,185.5919 217.3188,185.5919 Z " fill="#000000"/><text fill="#000000" font-family="sans-serif" font-size="14" lengthAdjust="spacing" textLength="131" x="234.15" y="184.102">ConcreteAggregate</text><line style="stroke:#181818;stroke-width:0.5;" x1="193.5" x2="377.5" y1="194.67" y2="194.67"/><line style="stroke:#181818;stroke-width:0.5;" x1="193.5" x2="377.5" y1="202.67" y2="202.67"/><ellipse cx="203.5" cy="217.704" fill="#84BE84" rx="3" ry="3" style="stroke:#038048;stroke-width:1.0;"/><text fill="#000000" font-family="sans-serif" font-size="14" lengthAdjust="spacing" textLength="160" x="212.5" y="221.6359">createIterator(): Iterator</text></g><!--reverse link Iterator to ConcreteIterator--><g id="link_Iterator_ConcreteIterator"><path d="M69.0807,111.4808 C67.6907,130.2508 69.03,134.31 70.44,153.04 " fill="none" id="Iterator-backto-ConcreteIterator" style="stroke:#181818;stroke-width:1.0;stroke-dasharray:7.0,7.0;"/><polygon fill="none" points="70.41,93.53,63.097,111.0377,75.0643,111.924,70.41,93.53" style="stroke:#181818;stroke-width:1.0;"/></g><!--link ConcreteIterator to Iterator--><g id="link_ConcreteIterator_Iterator"><path codeLine="19" d="M94.56,153.04 C95.97,134.31 96.4231,118.2836 95.0331,99.5136 " fill="none" id="ConcreteIterator-to-Iterator" style="stroke:#181818;stroke-width:1.0;"/><polygon fill="#181818" points="94.59,93.53,91.2656,102.8008,94.9593,98.5163,99.2437,102.21,94.59,93.53" style="stroke:#181818;stroke-width:1.0;"/></g><!--reverse link Aggregate to ConcreteAggregate--><g id="link_Aggregate_ConcreteAggregate"><path d="M272.3505,101.6641 C269.7805,125.2541 271.73,139.07 274.31,162.62 " fill="none" id="Aggregate-backto-ConcreteAggregate" style="stroke:#181818;stroke-width:1.0;stroke-dasharray:7.0,7.0;"/><polygon fill="none" points="274.3,83.77,266.3858,101.0143,278.3152,102.3139,274.3,83.77" style="stroke:#181818;stroke-width:1.0;"/></g><!--link ConcreteAggregate to Aggregate--><g id="link_ConcreteAggregate_Aggregate"><path codeLine="20" d="M296.69,162.62 C299.27,139.07 299.9198,113.3247 297.3498,89.7347 " fill="none" id="ConcreteAggregate-to-Aggregate" style="stroke:#181818;stroke-width:1.0;"/><polygon fill="#181818" points="296.7,83.77,293.6983,93.1503,297.2415,88.7406,301.6512,92.2838,296.7,83.77" style="stroke:#181818;stroke-width:1.0;"/></g><!--SRC=[oymhIIrAIqnELV04CX9ByeiKghaKW40xBxMYH4FJIi4r9pKtDQy48fYHMEm75K_Apyz9JSpZgkNYoeGRufYUNfIQdbYI2ZCbkIWLo8EP3T87OuCq9kSa5XShEEVd0PKXL2bavXP0B2scn5MeXYDSXcGwYSx5SAYkhXr20QPD86au3m00]--></g></svg>