<?xml version="1.0" encoding="us-ascii" standalone="no"?><svg xmlns="http://www.w3.org/2000/svg" xmlns:xlink="http://www.w3.org/1999/xlink" contentStyleType="text/css" height="322px" preserveAspectRatio="none" style="width:1175px;height:322px;background:#FFFFFF;" version="1.1" viewBox="0 0 1175 322" width="1175px" zoomAndPan="magnify"><defs/><g><!--class Client--><g id="elem_Client"><rect codeLine="2" fill="#F1F1F1" height="32" id="Client" rx="2.5" ry="2.5" style="stroke:#181818;stroke-width:0.5;" width="71" x="660.5" y="30.07"/><ellipse cx="675.5" cy="46.07" fill="#ADD1B2" rx="11" ry="11" style="stroke:#181818;stroke-width:1.0;"/><path d="M674.9688,52.9919 Q673.2188,52.9919 672.0781,52.2575 Q670.9531,51.5075 670.3906,50.1637 Q669.8438,48.8044 669.8438,47.0075 Q669.8438,44.9762 670.5,43.5231 Q671.1563,42.07 672.4375,41.2887 Q673.7188,40.5075 675.5938,40.5075 Q676.4844,40.5075 677.1563,40.695 Q677.8281,40.8669 678.5156,41.2106 L677.7031,43.2262 Q677.0781,42.9137 676.5313,42.7887 Q676,42.6637 675.5156,42.6637 Q674.3438,42.6637 673.6406,43.195 Q672.9375,43.7262 672.6406,44.6794 Q672.3438,45.6325 672.3438,46.8981 Q672.3438,48.9137 673.0625,49.8825 Q673.7813,50.8356 675.375,50.8356 Q675.9688,50.8356 676.5938,50.6794 Q677.2188,50.5231 678.0469,50.1481 L678.0469,52.3669 Q677.3125,52.6794 676.5156,52.8356 Q675.7344,52.9919 674.9688,52.9919 Z " fill="#000000"/><text fill="#000000" font-family="sans-serif" font-size="14" lengthAdjust="spacing" textLength="39" x="689.5" y="51.502">Client</text></g><!--class AbstractFactory--><g id="elem_AbstractFactory"><rect codeLine="4" fill="#F1F1F1" height="78.1358" id="AbstractFactory" rx="2.5" ry="2.5" style="stroke:#181818;stroke-width:0.5;" width="262" x="322" y="7"/><ellipse cx="399.25" cy="23" fill="#B4A7E5" rx="11" ry="11" style="stroke:#181818;stroke-width:1.0;"/><path d="M395.2813,29.5 L395.2813,27.7969 L397.6406,27.5313 L397.6406,19.3281 L395.2813,19.0625 L395.2813,17.3594 L402.4219,17.3594 L402.4219,19.0625 L400,19.3281 L400,27.5313 L402.4219,27.7969 L402.4219,29.5 L395.2813,29.5 Z " fill="#000000"/><text fill="#000000" font-family="sans-serif" font-size="14" font-style="italic" lengthAdjust="spacing" textLength="99" x="419.75" y="28.432">AbstractFactory</text><line style="stroke:#181818;stroke-width:0.5;" x1="323" x2="583" y1="39" y2="39"/><ellipse cx="333" cy="54.034" fill="#84BE84" rx="3" ry="3" style="stroke:#038048;stroke-width:1.0;"/><text fill="#000000" font-family="sans-serif" font-size="14" lengthAdjust="spacing" textLength="236" x="342" y="57.9659">createProductA(): AbstractProductA</text><ellipse cx="333" cy="73.1019" fill="#84BE84" rx="3" ry="3" style="stroke:#038048;stroke-width:1.0;"/><text fill="#000000" font-family="sans-serif" font-size="14" lengthAdjust="spacing" textLength="236" x="342" y="77.0339">createProductB(): AbstractProductB</text></g><!--class AbstractProductA--><g id="elem_AbstractProductA"><rect codeLine="9" fill="#F1F1F1" height="32" id="AbstractProductA" rx="2.5" ry="2.5" style="stroke:#181818;stroke-width:0.5;" width="141" x="625.5" y="168.2"/><ellipse cx="640.5" cy="184.2" fill="#B4A7E5" rx="11" ry="11" style="stroke:#181818;stroke-width:1.0;"/><path d="M636.5313,190.7 L636.5313,188.9969 L638.8906,188.7313 L638.8906,180.5281 L636.5313,180.2625 L636.5313,178.5594 L643.6719,178.5594 L643.6719,180.2625 L641.25,180.5281 L641.25,188.7313 L643.6719,188.9969 L643.6719,190.7 L636.5313,190.7 Z " fill="#000000"/><text fill="#000000" font-family="sans-serif" font-size="14" font-style="italic" lengthAdjust="spacing" textLength="109" x="654.5" y="189.632">AbstractProductA</text></g><!--class AbstractProductB--><g id="elem_AbstractProductB"><rect codeLine="10" fill="#F1F1F1" height="32" id="AbstractProductB" rx="2.5" ry="2.5" style="stroke:#181818;stroke-width:0.5;" width="141" x="821.5" y="168.2"/><ellipse cx="836.5" cy="184.2" fill="#B4A7E5" rx="11" ry="11" style="stroke:#181818;stroke-width:1.0;"/><path d="M832.5313,190.7 L832.5313,188.9969 L834.8906,188.7313 L834.8906,180.5281 L832.5313,180.2625 L832.5313,178.5594 L839.6719,178.5594 L839.6719,180.2625 L837.25,180.5281 L837.25,188.7313 L839.6719,188.9969 L839.6719,190.7 L832.5313,190.7 Z " fill="#000000"/><text fill="#000000" font-family="sans-serif" font-size="14" font-style="italic" lengthAdjust="spacing" textLength="109" x="850.5" y="189.632">AbstractProductB</text></g><!--class ConcreteFactory1--><g id="elem_ConcreteFactory1"><rect codeLine="12" fill="#F1F1F1" height="78.1358" id="ConcreteFactory1" rx="2.5" ry="2.5" style="stroke:#181818;stroke-width:0.5;" width="274" x="7" y="145.13"/><ellipse cx="81.75" cy="161.13" fill="#ADD1B2" rx="11" ry="11" style="stroke:#181818;stroke-width:1.0;"/><path d="M81.2188,168.0519 Q79.4688,168.0519 78.3281,167.3175 Q77.2031,166.5675 76.6406,165.2238 Q76.0938,163.8644 76.0938,162.0675 Q76.0938,160.0363 76.75,158.5831 Q77.4063,157.13 78.6875,156.3488 Q79.9688,155.5675 81.8438,155.5675 Q82.7344,155.5675 83.4063,155.755 Q84.0781,155.9269 84.7656,156.2706 L83.9531,158.2863 Q83.3281,157.9738 82.7813,157.8488 Q82.25,157.7238 81.7656,157.7238 Q80.5938,157.7238 79.8906,158.255 Q79.1875,158.7863 78.8906,159.7394 Q78.5938,160.6925 78.5938,161.9581 Q78.5938,163.9738 79.3125,164.9425 Q80.0313,165.8956 81.625,165.8956 Q82.2188,165.8956 82.8438,165.7394 Q83.4688,165.5831 84.2969,165.2081 L84.2969,167.4269 Q83.5625,167.7394 82.7656,167.8956 Q81.9844,168.0519 81.2188,168.0519 Z " fill="#000000"/><text fill="#000000" font-family="sans-serif" font-size="14" lengthAdjust="spacing" textLength="116" x="102.25" y="166.562">ConcreteFactory1</text><line style="stroke:#181818;stroke-width:0.5;" x1="8" x2="280" y1="177.13" y2="177.13"/><ellipse cx="18" cy="192.164" fill="#84BE84" rx="3" ry="3" style="stroke:#038048;stroke-width:1.0;"/><text fill="#000000" font-family="sans-serif" font-size="14" lengthAdjust="spacing" textLength="248" x="27" y="196.0959">createProductA(): ConcreteProductA1</text><ellipse cx="18" cy="211.2319" fill="#84BE84" rx="3" ry="3" style="stroke:#038048;stroke-width:1.0;"/><text fill="#000000" font-family="sans-serif" font-size="14" lengthAdjust="spacing" textLength="248" x="27" y="215.1639">createProductB(): ConcreteProductB1</text></g><!--class ConcreteFactory2--><g id="elem_ConcreteFactory2"><rect codeLine="16" fill="#F1F1F1" height="78.1358" id="ConcreteFactory2" rx="2.5" ry="2.5" style="stroke:#181818;stroke-width:0.5;" width="274" x="316" y="145.13"/><ellipse cx="390.75" cy="161.13" fill="#ADD1B2" rx="11" ry="11" style="stroke:#181818;stroke-width:1.0;"/><path d="M390.2188,168.0519 Q388.4688,168.0519 387.3281,167.3175 Q386.2031,166.5675 385.6406,165.2238 Q385.0938,163.8644 385.0938,162.0675 Q385.0938,160.0363 385.75,158.5831 Q386.4063,157.13 387.6875,156.3488 Q388.9688,155.5675 390.8438,155.5675 Q391.7344,155.5675 392.4063,155.755 Q393.0781,155.9269 393.7656,156.2706 L392.9531,158.2863 Q392.3281,157.9738 391.7813,157.8488 Q391.25,157.7238 390.7656,157.7238 Q389.5938,157.7238 388.8906,158.255 Q388.1875,158.7863 387.8906,159.7394 Q387.5938,160.6925 387.5938,161.9581 Q387.5938,163.9738 388.3125,164.9425 Q389.0313,165.8956 390.625,165.8956 Q391.2188,165.8956 391.8438,165.7394 Q392.4688,165.5831 393.2969,165.2081 L393.2969,167.4269 Q392.5625,167.7394 391.7656,167.8956 Q390.9844,168.0519 390.2188,168.0519 Z " fill="#000000"/><text fill="#000000" font-family="sans-serif" font-size="14" lengthAdjust="spacing" textLength="116" x="411.25" y="166.562">ConcreteFactory2</text><line style="stroke:#181818;stroke-width:0.5;" x1="317" x2="589" y1="177.13" y2="177.13"/><ellipse cx="327" cy="192.164" fill="#84BE84" rx="3" ry="3" style="stroke:#038048;stroke-width:1.0;"/><text fill="#000000" font-family="sans-serif" font-size="14" lengthAdjust="spacing" textLength="248" x="336" y="196.0959">createProductA(): ConcreteProductA2</text><ellipse cx="327" cy="211.2319" fill="#84BE84" rx="3" ry="3" style="stroke:#038048;stroke-width:1.0;"/><text fill="#000000" font-family="sans-serif" font-size="14" lengthAdjust="spacing" textLength="248" x="336" y="215.1639">createProductB(): ConcreteProductB2</text></g><!--class ConcreteProductA1--><g id="elem_ConcreteProductA1"><rect codeLine="21" fill="#F1F1F1" height="32" id="ConcreteProductA1" rx="2.5" ry="2.5" style="stroke:#181818;stroke-width:0.5;" width="161" x="419.5" y="283.27"/><ellipse cx="434.5" cy="299.27" fill="#ADD1B2" rx="11" ry="11" style="stroke:#181818;stroke-width:1.0;"/><path d="M433.9688,306.1919 Q432.2188,306.1919 431.0781,305.4575 Q429.9531,304.7075 429.3906,303.3638 Q428.8438,302.0044 428.8438,300.2075 Q428.8438,298.1763 429.5,296.7231 Q430.1563,295.27 431.4375,294.4888 Q432.7188,293.7075 434.5938,293.7075 Q435.4844,293.7075 436.1563,293.895 Q436.8281,294.0669 437.5156,294.4106 L436.7031,296.4263 Q436.0781,296.1138 435.5313,295.9888 Q435,295.8638 434.5156,295.8638 Q433.3438,295.8638 432.6406,296.395 Q431.9375,296.9263 431.6406,297.8794 Q431.3438,298.8325 431.3438,300.0981 Q431.3438,302.1138 432.0625,303.0825 Q432.7813,304.0356 434.375,304.0356 Q434.9688,304.0356 435.5938,303.8794 Q436.2188,303.7231 437.0469,303.3481 L437.0469,305.5669 Q436.3125,305.8794 435.5156,306.0356 Q434.7344,306.1919 433.9688,306.1919 Z " fill="#000000"/><text fill="#000000" font-family="sans-serif" font-size="14" lengthAdjust="spacing" textLength="129" x="448.5" y="304.702">ConcreteProductA1</text></g><!--class ConcreteProductA2--><g id="elem_ConcreteProductA2"><rect codeLine="22" fill="#F1F1F1" height="32" id="ConcreteProductA2" rx="2.5" ry="2.5" style="stroke:#181818;stroke-width:0.5;" width="161" x="615.5" y="283.27"/><ellipse cx="630.5" cy="299.27" fill="#ADD1B2" rx="11" ry="11" style="stroke:#181818;stroke-width:1.0;"/><path d="M629.9688,306.1919 Q628.2188,306.1919 627.0781,305.4575 Q625.9531,304.7075 625.3906,303.3638 Q624.8438,302.0044 624.8438,300.2075 Q624.8438,298.1763 625.5,296.7231 Q626.1563,295.27 627.4375,294.4888 Q628.7188,293.7075 630.5938,293.7075 Q631.4844,293.7075 632.1563,293.895 Q632.8281,294.0669 633.5156,294.4106 L632.7031,296.4263 Q632.0781,296.1138 631.5313,295.9888 Q631,295.8638 630.5156,295.8638 Q629.3438,295.8638 628.6406,296.395 Q627.9375,296.9263 627.6406,297.8794 Q627.3438,298.8325 627.3438,300.0981 Q627.3438,302.1138 628.0625,303.0825 Q628.7813,304.0356 630.375,304.0356 Q630.9688,304.0356 631.5938,303.8794 Q632.2188,303.7231 633.0469,303.3481 L633.0469,305.5669 Q632.3125,305.8794 631.5156,306.0356 Q630.7344,306.1919 629.9688,306.1919 Z " fill="#000000"/><text fill="#000000" font-family="sans-serif" font-size="14" lengthAdjust="spacing" textLength="129" x="644.5" y="304.702">ConcreteProductA2</text></g><!--class ConcreteProductB1--><g id="elem_ConcreteProductB1"><rect codeLine="23" fill="#F1F1F1" height="32" id="ConcreteProductB1" rx="2.5" ry="2.5" style="stroke:#181818;stroke-width:0.5;" width="161" x="811.5" y="283.27"/><ellipse cx="826.5" cy="299.27" fill="#ADD1B2" rx="11" ry="11" style="stroke:#181818;stroke-width:1.0;"/><path d="M825.9688,306.1919 Q824.2188,306.1919 823.0781,305.4575 Q821.9531,304.7075 821.3906,303.3638 Q820.8438,302.0044 820.8438,300.2075 Q820.8438,298.1763 821.5,296.7231 Q822.1563,295.27 823.4375,294.4888 Q824.7188,293.7075 826.5938,293.7075 Q827.4844,293.7075 828.1563,293.895 Q828.8281,294.0669 829.5156,294.4106 L828.7031,296.4263 Q828.0781,296.1138 827.5313,295.9888 Q827,295.8638 826.5156,295.8638 Q825.3438,295.8638 824.6406,296.395 Q823.9375,296.9263 823.6406,297.8794 Q823.3438,298.8325 823.3438,300.0981 Q823.3438,302.1138 824.0625,303.0825 Q824.7813,304.0356 826.375,304.0356 Q826.9688,304.0356 827.5938,303.8794 Q828.2188,303.7231 829.0469,303.3481 L829.0469,305.5669 Q828.3125,305.8794 827.5156,306.0356 Q826.7344,306.1919 825.9688,306.1919 Z " fill="#000000"/><text fill="#000000" font-family="sans-serif" font-size="14" lengthAdjust="spacing" textLength="129" x="840.5" y="304.702">ConcreteProductB1</text></g><!--class ConcreteProductB2--><g id="elem_ConcreteProductB2"><rect codeLine="24" fill="#F1F1F1" height="32" id="ConcreteProductB2" rx="2.5" ry="2.5" style="stroke:#181818;stroke-width:0.5;" width="161" x="1007.5" y="283.27"/><ellipse cx="1022.5" cy="299.27" fill="#ADD1B2" rx="11" ry="11" style="stroke:#181818;stroke-width:1.0;"/><path d="M1021.9688,306.1919 Q1020.2188,306.1919 1019.0781,305.4575 Q1017.9531,304.7075 1017.3906,303.3638 Q1016.8438,302.0044 1016.8438,300.2075 Q1016.8438,298.1763 1017.5,296.7231 Q1018.1563,295.27 1019.4375,294.4888 Q1020.7188,293.7075 1022.5938,293.7075 Q1023.4844,293.7075 1024.1563,293.895 Q1024.8281,294.0669 1025.5156,294.4106 L1024.7031,296.4263 Q1024.0781,296.1138 1023.5313,295.9888 Q1023,295.8638 1022.5156,295.8638 Q1021.3438,295.8638 1020.6406,296.395 Q1019.9375,296.9263 1019.6406,297.8794 Q1019.3438,298.8325 1019.3438,300.0981 Q1019.3438,302.1138 1020.0625,303.0825 Q1020.7813,304.0356 1022.375,304.0356 Q1022.9688,304.0356 1023.5938,303.8794 Q1024.2188,303.7231 1025.0469,303.3481 L1025.0469,305.5669 Q1024.3125,305.8794 1023.5156,306.0356 Q1022.7344,306.1919 1021.9688,306.1919 Z " fill="#000000"/><text fill="#000000" font-family="sans-serif" font-size="14" lengthAdjust="spacing" textLength="129" x="1036.5" y="304.702">ConcreteProductB2</text></g><!--reverse link AbstractFactory to ConcreteFactory1--><g id="link_AbstractFactory_ConcreteFactory1"><path d="M349.2182,92.7881 C307.1882,111.3081 273.4,126.19 231.36,144.71 " fill="none" id="AbstractFactory-backto-ConcreteFactory1" style="stroke:#181818;stroke-width:1.0;stroke-dasharray:7.0,7.0;"/><polygon fill="none" points="365.69,85.53,346.7988,87.2975,351.6376,98.2787,365.69,85.53" style="stroke:#181818;stroke-width:1.0;"/></g><!--reverse link AbstractFactory to ConcreteFactory2--><g id="link_AbstractFactory_ConcreteFactory2"><path d="M453,103.35 C453,121.91 453,126.15 453,144.73 " fill="none" id="AbstractFactory-backto-ConcreteFactory2" style="stroke:#181818;stroke-width:1.0;stroke-dasharray:7.0,7.0;"/><polygon fill="none" points="453,85.35,447,103.35,459,103.35,453,85.35" style="stroke:#181818;stroke-width:1.0;"/></g><!--reverse link AbstractProductA to ConcreteProductA1--><g id="link_AbstractProductA_ConcreteProductA1"><path d="M653.5679,209.6837 C616.1379,231.2737 564.25,261.2 526.83,282.79 " fill="none" id="AbstractProductA-backto-ConcreteProductA1" style="stroke:#181818;stroke-width:1.0;stroke-dasharray:7.0,7.0;"/><polygon fill="none" points="669.16,200.69,650.57,204.4863,656.5658,214.881,669.16,200.69" style="stroke:#181818;stroke-width:1.0;"/></g><!--reverse link AbstractProductA to ConcreteProductA2--><g id="link_AbstractProductA_ConcreteProductA2"><path d="M696,218.45 C696,240.03 696,261.26 696,282.9 " fill="none" id="AbstractProductA-backto-ConcreteProductA2" style="stroke:#181818;stroke-width:1.0;stroke-dasharray:7.0,7.0;"/><polygon fill="none" points="696,200.45,690,218.45,702,218.45,696,200.45" style="stroke:#181818;stroke-width:1.0;"/></g><!--reverse link AbstractProductB to ConcreteProductB1--><g id="link_AbstractProductB_ConcreteProductB1"><path d="M892,218.45 C892,240.03 892,261.26 892,282.9 " fill="none" id="AbstractProductB-backto-ConcreteProductB1" style="stroke:#181818;stroke-width:1.0;stroke-dasharray:7.0,7.0;"/><polygon fill="none" points="892,200.45,886,218.45,898,218.45,892,200.45" style="stroke:#181818;stroke-width:1.0;"/></g><!--reverse link AbstractProductB to ConcreteProductB2--><g id="link_AbstractProductB_ConcreteProductB2"><path d="M934.4321,209.6837 C971.8621,231.2737 1023.75,261.2 1061.17,282.79 " fill="none" id="AbstractProductB-backto-ConcreteProductB2" style="stroke:#181818;stroke-width:1.0;stroke-dasharray:7.0,7.0;"/><polygon fill="none" points="918.84,200.69,931.4342,214.881,937.43,204.4863,918.84,200.69" style="stroke:#181818;stroke-width:1.0;"/></g><!--reverse link AbstractFactory to Client--><g id="link_AbstractFactory_Client"><path codeLine="26" d="M590.47,46.07 C615.74,46.07 635.01,46.07 660.27,46.07 " fill="none" id="AbstractFactory-backto-Client" style="stroke:#181818;stroke-width:1.0;"/><polygon fill="#181818" points="584.47,46.07,593.47,50.07,589.47,46.07,593.47,42.07,584.47,46.07" style="stroke:#181818;stroke-width:1.0;"/></g><!--link Client to AbstractProductA--><g id="link_Client_AbstractProductA"><path codeLine="27" d="M696,62.42 C696,88.7 696,136.01 696,162.11 " fill="none" id="Client-to-AbstractProductA" style="stroke:#181818;stroke-width:1.0;"/><polygon fill="#181818" points="696,168.11,700,159.11,696,163.11,692,159.11,696,168.11" style="stroke:#181818;stroke-width:1.0;"/></g><!--link Client to AbstractProductB--><g id="link_Client_AbstractProductB"><path codeLine="28" d="M718.1,62.42 C755.85,88.63 827.3622,138.3071 865.0522,164.4871 " fill="none" id="Client-to-AbstractProductB" style="stroke:#181818;stroke-width:1.0;"/><polygon fill="#181818" points="869.98,167.91,864.8702,159.4904,865.8735,165.0576,860.3063,166.0608,869.98,167.91" style="stroke:#181818;stroke-width:1.0;"/></g><!--SRC=[hPB12i8m38RlVOeS5TbXFOe8g-3PL-YwY8Lr6sqyZE6xMt4jEBinmK8f9F-VV0czwGe1JKSz63GbMiTKBPs3KwsneU71c6u8xLKgXA9qPAMYix-jxM5WuCzEMPI45zjMTqN5PhkFmX1Bw4H29rYoNQmocn8iKBUDxq8u4kQWJLUZyPEuzVIXI8ZbS_WJeSWzVvA3_uM3h-NWhpr-WiHPKYHnmMaF_zqZblg86GzVzB3ftWxP-4dP-u4iEtxZpUV44m00]--></g></svg>