<?xml version="1.0" encoding="us-ascii" standalone="no"?><svg xmlns="http://www.w3.org/2000/svg" xmlns:xlink="http://www.w3.org/1999/xlink" contentStyleType="text/css" height="462px" preserveAspectRatio="none" style="width:371px;height:462px;background:#FFFFFF;" version="1.1" viewBox="0 0 371 462" width="371px" zoomAndPan="magnify"><defs/><g><!--class AbstractFactory--><g id="elem_AbstractFactory"><rect codeLine="1" fill="#F1F1F1" height="86.1358" id="AbstractFactory" rx="2.5" ry="2.5" style="stroke:#181818;stroke-width:0.5;" width="262" x="54.5" y="7"/><ellipse cx="131.75" cy="23" fill="#B4A7E5" rx="11" ry="11" style="stroke:#181818;stroke-width:1.0;"/><path d="M127.7813,29.5 L127.7813,27.7969 L130.1406,27.5313 L130.1406,19.3281 L127.7813,19.0625 L127.7813,17.3594 L134.9219,17.3594 L134.9219,19.0625 L132.5,19.3281 L132.5,27.5313 L134.9219,27.7969 L134.9219,29.5 L127.7813,29.5 Z " fill="#000000"/><text fill="#000000" font-family="sans-serif" font-size="14" font-style="italic" lengthAdjust="spacing" textLength="99" x="152.25" y="28.432">AbstractFactory</text><line style="stroke:#181818;stroke-width:0.5;" x1="55.5" x2="315.5" y1="39" y2="39"/><line style="stroke:#181818;stroke-width:0.5;" x1="55.5" x2="315.5" y1="47" y2="47"/><ellipse cx="65.5" cy="62.034" fill="#84BE84" rx="3" ry="3" style="stroke:#038048;stroke-width:1.0;"/><text fill="#000000" font-family="sans-serif" font-size="14" lengthAdjust="spacing" textLength="236" x="74.5" y="65.9659">createProductA(): AbstractProductA</text><ellipse cx="65.5" cy="81.1019" fill="#84BE84" rx="3" ry="3" style="stroke:#038048;stroke-width:1.0;"/><text fill="#000000" font-family="sans-serif" font-size="14" lengthAdjust="spacing" textLength="236" x="74.5" y="85.0339">createProductB(): AbstractProductB</text></g><!--class AbstractProductA--><g id="elem_AbstractProductA"><rect codeLine="6" fill="#F1F1F1" height="48" id="AbstractProductA" rx="2.5" ry="2.5" style="stroke:#181818;stroke-width:0.5;" width="141" x="17" y="299.27"/><ellipse cx="32" cy="315.27" fill="#B4A7E5" rx="11" ry="11" style="stroke:#181818;stroke-width:1.0;"/><path d="M28.0313,321.77 L28.0313,320.0669 L30.3906,319.8013 L30.3906,311.5981 L28.0313,311.3325 L28.0313,309.6294 L35.1719,309.6294 L35.1719,311.3325 L32.75,311.5981 L32.75,319.8013 L35.1719,320.0669 L35.1719,321.77 L28.0313,321.77 Z " fill="#000000"/><text fill="#000000" font-family="sans-serif" font-size="14" font-style="italic" lengthAdjust="spacing" textLength="109" x="46" y="320.702">AbstractProductA</text><line style="stroke:#181818;stroke-width:0.5;" x1="18" x2="157" y1="331.27" y2="331.27"/><line style="stroke:#181818;stroke-width:0.5;" x1="18" x2="157" y1="339.27" y2="339.27"/></g><!--class AbstractProductB--><g id="elem_AbstractProductB"><rect codeLine="7" fill="#F1F1F1" height="48" id="AbstractProductB" rx="2.5" ry="2.5" style="stroke:#181818;stroke-width:0.5;" width="141" x="213" y="299.27"/><ellipse cx="228" cy="315.27" fill="#B4A7E5" rx="11" ry="11" style="stroke:#181818;stroke-width:1.0;"/><path d="M224.0313,321.77 L224.0313,320.0669 L226.3906,319.8013 L226.3906,311.5981 L224.0313,311.3325 L224.0313,309.6294 L231.1719,309.6294 L231.1719,311.3325 L228.75,311.5981 L228.75,319.8013 L231.1719,320.0669 L231.1719,321.77 L224.0313,321.77 Z " fill="#000000"/><text fill="#000000" font-family="sans-serif" font-size="14" font-style="italic" lengthAdjust="spacing" textLength="109" x="242" y="320.702">AbstractProductB</text><line style="stroke:#181818;stroke-width:0.5;" x1="214" x2="353" y1="331.27" y2="331.27"/><line style="stroke:#181818;stroke-width:0.5;" x1="214" x2="353" y1="339.27" y2="339.27"/></g><!--class ConcreteFactory1--><g id="elem_ConcreteFactory1"><rect codeLine="9" fill="#F1F1F1" height="86.1358" id="ConcreteFactory1" rx="2.5" ry="2.5" style="stroke:#181818;stroke-width:0.5;" width="262" x="54.5" y="153.13"/><ellipse cx="123.25" cy="169.13" fill="#ADD1B2" rx="11" ry="11" style="stroke:#181818;stroke-width:1.0;"/><path d="M122.7188,176.0519 Q120.9688,176.0519 119.8281,175.3175 Q118.7031,174.5675 118.1406,173.2238 Q117.5938,171.8644 117.5938,170.0675 Q117.5938,168.0363 118.25,166.5831 Q118.9063,165.13 120.1875,164.3488 Q121.4688,163.5675 123.3438,163.5675 Q124.2344,163.5675 124.9063,163.755 Q125.5781,163.9269 126.2656,164.2706 L125.4531,166.2863 Q124.8281,165.9738 124.2813,165.8488 Q123.75,165.7238 123.2656,165.7238 Q122.0938,165.7238 121.3906,166.255 Q120.6875,166.7863 120.3906,167.7394 Q120.0938,168.6925 120.0938,169.9581 Q120.0938,171.9738 120.8125,172.9425 Q121.5313,173.8956 123.125,173.8956 Q123.7188,173.8956 124.3438,173.7394 Q124.9688,173.5831 125.7969,173.2081 L125.7969,175.4269 Q125.0625,175.7394 124.2656,175.8956 Q123.4844,176.0519 122.7188,176.0519 Z " fill="#000000"/><text fill="#000000" font-family="sans-serif" font-size="14" lengthAdjust="spacing" textLength="116" x="143.75" y="174.562">ConcreteFactory1</text><line style="stroke:#181818;stroke-width:0.5;" x1="55.5" x2="315.5" y1="185.13" y2="185.13"/><line style="stroke:#181818;stroke-width:0.5;" x1="55.5" x2="315.5" y1="193.13" y2="193.13"/><ellipse cx="65.5" cy="208.164" fill="#84BE84" rx="3" ry="3" style="stroke:#038048;stroke-width:1.0;"/><text fill="#000000" font-family="sans-serif" font-size="14" lengthAdjust="spacing" textLength="236" x="74.5" y="212.0959">createProductA(): AbstractProductA</text><ellipse cx="65.5" cy="227.2319" fill="#84BE84" rx="3" ry="3" style="stroke:#038048;stroke-width:1.0;"/><text fill="#000000" font-family="sans-serif" font-size="14" lengthAdjust="spacing" textLength="236" x="74.5" y="231.1639">createProductB(): AbstractProductB</text></g><!--class ConcreteProductA1--><g id="elem_ConcreteProductA1"><rect codeLine="14" fill="#F1F1F1" height="48" id="ConcreteProductA1" rx="2.5" ry="2.5" style="stroke:#181818;stroke-width:0.5;" width="161" x="7" y="407.27"/><ellipse cx="22" cy="423.27" fill="#ADD1B2" rx="11" ry="11" style="stroke:#181818;stroke-width:1.0;"/><path d="M21.4688,430.1919 Q19.7188,430.1919 18.5781,429.4575 Q17.4531,428.7075 16.8906,427.3638 Q16.3438,426.0044 16.3438,424.2075 Q16.3438,422.1763 17,420.7231 Q17.6563,419.27 18.9375,418.4888 Q20.2188,417.7075 22.0938,417.7075 Q22.9844,417.7075 23.6563,417.895 Q24.3281,418.0669 25.0156,418.4106 L24.2031,420.4263 Q23.5781,420.1138 23.0313,419.9888 Q22.5,419.8638 22.0156,419.8638 Q20.8438,419.8638 20.1406,420.395 Q19.4375,420.9263 19.1406,421.8794 Q18.8438,422.8325 18.8438,424.0981 Q18.8438,426.1138 19.5625,427.0825 Q20.2813,428.0356 21.875,428.0356 Q22.4688,428.0356 23.0938,427.8794 Q23.7188,427.7231 24.5469,427.3481 L24.5469,429.5669 Q23.8125,429.8794 23.0156,430.0356 Q22.2344,430.1919 21.4688,430.1919 Z " fill="#000000"/><text fill="#000000" font-family="sans-serif" font-size="14" lengthAdjust="spacing" textLength="129" x="36" y="428.702">ConcreteProductA1</text><line style="stroke:#181818;stroke-width:0.5;" x1="8" x2="167" y1="439.27" y2="439.27"/><line style="stroke:#181818;stroke-width:0.5;" x1="8" x2="167" y1="447.27" y2="447.27"/></g><!--class ConcreteProductB1--><g id="elem_ConcreteProductB1"><rect codeLine="15" fill="#F1F1F1" height="48" id="ConcreteProductB1" rx="2.5" ry="2.5" style="stroke:#181818;stroke-width:0.5;" width="161" x="203" y="407.27"/><ellipse cx="218" cy="423.27" fill="#ADD1B2" rx="11" ry="11" style="stroke:#181818;stroke-width:1.0;"/><path d="M217.4688,430.1919 Q215.7188,430.1919 214.5781,429.4575 Q213.4531,428.7075 212.8906,427.3638 Q212.3438,426.0044 212.3438,424.2075 Q212.3438,422.1763 213,420.7231 Q213.6563,419.27 214.9375,418.4888 Q216.2188,417.7075 218.0938,417.7075 Q218.9844,417.7075 219.6563,417.895 Q220.3281,418.0669 221.0156,418.4106 L220.2031,420.4263 Q219.5781,420.1138 219.0313,419.9888 Q218.5,419.8638 218.0156,419.8638 Q216.8438,419.8638 216.1406,420.395 Q215.4375,420.9263 215.1406,421.8794 Q214.8438,422.8325 214.8438,424.0981 Q214.8438,426.1138 215.5625,427.0825 Q216.2813,428.0356 217.875,428.0356 Q218.4688,428.0356 219.0938,427.8794 Q219.7188,427.7231 220.5469,427.3481 L220.5469,429.5669 Q219.8125,429.8794 219.0156,430.0356 Q218.2344,430.1919 217.4688,430.1919 Z " fill="#000000"/><text fill="#000000" font-family="sans-serif" font-size="14" lengthAdjust="spacing" textLength="129" x="232" y="428.702">ConcreteProductB1</text><line style="stroke:#181818;stroke-width:0.5;" x1="204" x2="363" y1="439.27" y2="439.27"/><line style="stroke:#181818;stroke-width:0.5;" x1="204" x2="363" y1="447.27" y2="447.27"/></g><!--reverse link AbstractFactory to ConcreteFactory1--><g id="link_AbstractFactory_ConcreteFactory1"><path d="M185.5,111.53 C185.5,130.3 185.5,134.31 185.5,153.04 " fill="none" id="AbstractFactory-backto-ConcreteFactory1" style="stroke:#181818;stroke-width:1.0;stroke-dasharray:7.0,7.0;"/><polygon fill="none" points="185.5,93.53,179.5,111.53,191.5,111.53,185.5,93.53" style="stroke:#181818;stroke-width:1.0;"/></g><!--reverse link AbstractProductA to ConcreteProductA1--><g id="link_AbstractProductA_ConcreteProductA1"><path d="M73.6731,365.3192 C70.9431,382.9992 73.69,389.4 76.43,407.06 " fill="none" id="AbstractProductA-backto-ConcreteProductA1" style="stroke:#181818;stroke-width:1.0;stroke-dasharray:7.0,7.0;"/><polygon fill="none" points="76.42,347.53,67.7434,364.4036,79.6029,366.2348,76.42,347.53" style="stroke:#181818;stroke-width:1.0;"/></g><!--link ConcreteProductA1 to AbstractProductA--><g id="link_ConcreteProductA1_AbstractProductA"><path codeLine="19" d="M98.57,407.06 C101.31,389.4 102.2256,371.1397 99.4956,353.4597 " fill="none" id="ConcreteProductA1-to-AbstractProductA" style="stroke:#181818;stroke-width:1.0;"/><polygon fill="#181818" points="98.58,347.53,96.0003,357.035,99.343,352.4714,103.9066,355.8142,98.58,347.53" style="stroke:#181818;stroke-width:1.0;"/></g><!--reverse link AbstractProductB to ConcreteProductB1--><g id="link_AbstractProductB_ConcreteProductB1"><path d="M269.6731,365.3192 C266.9431,382.9992 269.69,389.4 272.43,407.06 " fill="none" id="AbstractProductB-backto-ConcreteProductB1" style="stroke:#181818;stroke-width:1.0;stroke-dasharray:7.0,7.0;"/><polygon fill="none" points="272.42,347.53,263.7434,364.4036,275.6029,366.2348,272.42,347.53" style="stroke:#181818;stroke-width:1.0;"/></g><!--link ConcreteProductB1 to AbstractProductB--><g id="link_ConcreteProductB1_AbstractProductB"><path codeLine="20" d="M294.57,407.06 C297.31,389.4 298.2256,371.1397 295.4956,353.4597 " fill="none" id="ConcreteProductB1-to-AbstractProductB" style="stroke:#181818;stroke-width:1.0;"/><polygon fill="#181818" points="294.58,347.53,292.0003,357.035,295.343,352.4714,299.9066,355.8142,294.58,347.53" style="stroke:#181818;stroke-width:1.0;"/></g><!--link ConcreteFactory1 to AbstractProductA--><g id="link_ConcreteFactory1_AbstractProductA"><path codeLine="17" d="M152.32,239.54 C136.77,259.39 122.5399,277.5466 109.4899,294.2066 " fill="none" id="ConcreteFactory1-to-AbstractProductA" style="stroke:#181818;stroke-width:1.0;"/><polygon fill="#181818" points="105.79,298.93,114.4888,294.3115,108.8733,294.9938,108.1909,289.3783,105.79,298.93" style="stroke:#181818;stroke-width:1.0;"/></g><!--link ConcreteFactory1 to AbstractProductB--><g id="link_ConcreteFactory1_AbstractProductB"><path codeLine="18" d="M218.68,239.54 C234.23,259.39 248.4601,277.5466 261.5101,294.2066 " fill="none" id="ConcreteFactory1-to-AbstractProductB" style="stroke:#181818;stroke-width:1.0;"/><polygon fill="#181818" points="265.21,298.93,262.8091,289.3783,262.1267,294.9938,256.5112,294.3115,265.21,298.93" style="stroke:#181818;stroke-width:1.0;"/></g><!--SRC=[oymhIIrAIqnELN1CAYufIamkSGFY_A9AXMek1I3GJYvAJIn93IZAJobDBd7KqBI2AuI9OL7dX4MT4rSj5rScXdLmKt1AEN5n9USa5XShEEVd0MqfIOMwq50XCxSW9pKtDQ-ac3wkHtK6p0Iixe0RZrMF4puzGFzY-5HNrmxJQ69KEN5XEXUlOGWNOZCD0000]--></g></svg>