<?xml version="1.0" encoding="us-ascii" standalone="no"?><svg xmlns="http://www.w3.org/2000/svg" xmlns:xlink="http://www.w3.org/1999/xlink" contentStyleType="text/css" height="257px" preserveAspectRatio="none" style="width:251px;height:257px;background:#FFFFFF;" version="1.1" viewBox="0 0 251 257" width="251px" zoomAndPan="magnify"><defs/><g><!--class ObjectPool--><g id="elem_ObjectPool"><rect codeLine="2" fill="#F1F1F1" height="124.2717" id="ObjectPool" rx="2.5" ry="2.5" style="stroke:#181818;stroke-width:0.5;" width="237" x="7" y="7"/><ellipse cx="85.25" cy="23" fill="#ADD1B2" rx="11" ry="11" style="stroke:#181818;stroke-width:1.0;"/><path d="M84.7188,29.9219 Q82.9688,29.9219 81.8281,29.1875 Q80.7031,28.4375 80.1406,27.0938 Q79.5938,25.7344 79.5938,23.9375 Q79.5938,21.9063 80.25,20.4531 Q80.9063,19 82.1875,18.2188 Q83.4688,17.4375 85.3438,17.4375 Q86.2344,17.4375 86.9063,17.625 Q87.5781,17.7969 88.2656,18.1406 L87.4531,20.1563 Q86.8281,19.8438 86.2813,19.7188 Q85.75,19.5938 85.2656,19.5938 Q84.0938,19.5938 83.3906,20.125 Q82.6875,20.6563 82.3906,21.6094 Q82.0938,22.5625 82.0938,23.8281 Q82.0938,25.8438 82.8125,26.8125 Q83.5313,27.7656 85.125,27.7656 Q85.7188,27.7656 86.3438,27.6094 Q86.9688,27.4531 87.7969,27.0781 L87.7969,29.2969 Q87.0625,29.6094 86.2656,29.7656 Q85.4844,29.9219 84.7188,29.9219 Z " fill="#000000"/><text fill="#000000" font-family="sans-serif" font-size="14" lengthAdjust="spacing" textLength="72" x="105.75" y="28.432">ObjectPool</text><line style="stroke:#181818;stroke-width:0.5;" x1="8" x2="243" y1="39" y2="39"/><rect fill="none" height="6" style="stroke:#C82930;stroke-width:1.0;" width="6" x="15" y="51.034"/><text fill="#000000" font-family="sans-serif" font-size="14" lengthAdjust="spacing" textLength="196" x="27" y="57.9659">available: List&lt;PooledObject&gt;</text><rect fill="none" height="6" style="stroke:#C82930;stroke-width:1.0;" width="6" x="15" y="70.1019"/><text fill="#000000" font-family="sans-serif" font-size="14" lengthAdjust="spacing" textLength="174" x="27" y="77.0339">inUse: List&lt;PooledObject&gt;</text><line style="stroke:#181818;stroke-width:0.5;" x1="8" x2="243" y1="85.1358" y2="85.1358"/><ellipse cx="18" cy="100.1698" fill="#84BE84" rx="3" ry="3" style="stroke:#038048;stroke-width:1.0;"/><text fill="#000000" font-family="sans-serif" font-size="14" lengthAdjust="spacing" textLength="156" x="27" y="104.1018">acquire(): PooledObject</text><ellipse cx="18" cy="119.2377" fill="#84BE84" rx="3" ry="3" style="stroke:#038048;stroke-width:1.0;"/><text fill="#000000" font-family="sans-serif" font-size="14" lengthAdjust="spacing" textLength="211" x="27" y="123.1697">release(obj: PooledObject): void</text></g><!--class PooledObject--><g id="elem_PooledObject"><rect codeLine="9" fill="#F1F1F1" height="59.0679" id="PooledObject" rx="2.5" ry="2.5" style="stroke:#181818;stroke-width:0.5;" width="121" x="65" y="191.27"/><ellipse cx="80" cy="207.27" fill="#ADD1B2" rx="11" ry="11" style="stroke:#181818;stroke-width:1.0;"/><path d="M79.4688,214.1919 Q77.7188,214.1919 76.5781,213.4575 Q75.4531,212.7075 74.8906,211.3638 Q74.3438,210.0044 74.3438,208.2075 Q74.3438,206.1763 75,204.7231 Q75.6563,203.27 76.9375,202.4888 Q78.2188,201.7075 80.0938,201.7075 Q80.9844,201.7075 81.6563,201.895 Q82.3281,202.0669 83.0156,202.4106 L82.2031,204.4263 Q81.5781,204.1138 81.0313,203.9888 Q80.5,203.8638 80.0156,203.8638 Q78.8438,203.8638 78.1406,204.395 Q77.4375,204.9263 77.1406,205.8794 Q76.8438,206.8325 76.8438,208.0981 Q76.8438,210.1138 77.5625,211.0825 Q78.2813,212.0356 79.875,212.0356 Q80.4688,212.0356 81.0938,211.8794 Q81.7188,211.7231 82.5469,211.3481 L82.5469,213.5669 Q81.8125,213.8794 81.0156,214.0356 Q80.2344,214.1919 79.4688,214.1919 Z " fill="#000000"/><text fill="#000000" font-family="sans-serif" font-size="14" lengthAdjust="spacing" textLength="89" x="94" y="212.702">PooledObject</text><line style="stroke:#181818;stroke-width:0.5;" x1="66" x2="185" y1="223.27" y2="223.27"/><ellipse cx="76" cy="238.304" fill="#84BE84" rx="3" ry="3" style="stroke:#038048;stroke-width:1.0;"/><text fill="#000000" font-family="sans-serif" font-size="14" lengthAdjust="spacing" textLength="78" x="85" y="242.2359">reset(): void</text></g><!--link ObjectPool to PooledObject--><g id="link_ObjectPool_PooledObject"><path codeLine="13" d="M125.5,131.44 C125.5,152.11 125.5,168.2 125.5,185.13 " fill="none" id="ObjectPool-to-PooledObject" style="stroke:#181818;stroke-width:1.0;"/><polygon fill="#181818" points="125.5,191.13,129.5,182.13,125.5,186.13,121.5,182.13,125.5,191.13" style="stroke:#181818;stroke-width:1.0;"/></g><!--SRC=[ROvD2i8m44RtESKi8v8B5Ea91DruWFnyO4fYD1CBHRox2LL8mUtttZ3lwXq8yLuMYeW6cOKDcfbEPe8jvvG2lGJHNjl7qsV8tK1jX5k5XZ82D4CcCsrXTUVaNNMKdhKFsWGCTFHS3hqsDi7VBlmVliKtgP_Ng0n6aRytLUogbHet5ny0]--></g></svg>