<?xml version="1.0" encoding="us-ascii" standalone="no"?><svg xmlns="http://www.w3.org/2000/svg" xmlns:xlink="http://www.w3.org/1999/xlink" contentStyleType="text/css" height="810px" preserveAspectRatio="none" style="width:2584px;height:810px;background:#FFFFFF;" version="1.1" viewBox="0 0 2584 810" width="2584px" zoomAndPan="magnify"><defs/><g><!--class Environment--><g id="elem_Environment"><rect codeLine="2" fill="#F1F1F1" height="105.2038" id="Environment" rx="2.5" ry="2.5" style="stroke:#181818;stroke-width:0.5;" width="325" x="1478.5" y="513.67"/><ellipse cx="1593.75" cy="529.67" fill="#ADD1B2" rx="11" ry="11" style="stroke:#181818;stroke-width:1.0;"/><path d="M1593.2188,536.5919 Q1591.4688,536.5919 1590.3281,535.8575 Q1589.2031,535.1075 1588.6406,533.7638 Q1588.0938,532.4044 1588.0938,530.6075 Q1588.0938,528.5763 1588.75,527.1231 Q1589.4063,525.67 1590.6875,524.8888 Q1591.9688,524.1075 1593.8438,524.1075 Q1594.7344,524.1075 1595.4063,524.295 Q1596.0781,524.4669 1596.7656,524.8106 L1595.9531,526.8263 Q1595.3281,526.5138 1594.7813,526.3888 Q1594.25,526.2638 1593.7656,526.2638 Q1592.5938,526.2638 1591.8906,526.795 Q1591.1875,527.3263 1590.8906,528.2794 Q1590.5938,529.2325 1590.5938,530.4981 Q1590.5938,532.5138 1591.3125,533.4825 Q1592.0313,534.4356 1593.625,534.4356 Q1594.2188,534.4356 1594.8438,534.2794 Q1595.4688,534.1231 1596.2969,533.7481 L1596.2969,535.9669 Q1595.5625,536.2794 1594.7656,536.4356 Q1593.9844,536.5919 1593.2188,536.5919 Z " fill="#000000"/><text fill="#000000" font-family="sans-serif" font-size="14" lengthAdjust="spacing" textLength="86" x="1614.25" y="535.102">Environment</text><line style="stroke:#181818;stroke-width:0.5;" x1="1479.5" x2="1802.5" y1="545.67" y2="545.67"/><rect fill="none" height="6" style="stroke:#C82930;stroke-width:1.0;" width="6" x="1486.5" y="557.704"/><text fill="#000000" font-family="sans-serif" font-size="14" lengthAdjust="spacing" textLength="201" x="1498.5" y="564.6359">variables: Dict&lt;String, String&gt;</text><line style="stroke:#181818;stroke-width:0.5;" x1="1479.5" x2="1802.5" y1="572.7379" y2="572.7379"/><ellipse cx="1489.5" cy="587.7719" fill="#84BE84" rx="3" ry="3" style="stroke:#038048;stroke-width:1.0;"/><text fill="#000000" font-family="sans-serif" font-size="14" lengthAdjust="spacing" textLength="299" x="1498.5" y="591.7039">setVariable(name: String, value: String): void</text><ellipse cx="1489.5" cy="606.8398" fill="#84BE84" rx="3" ry="3" style="stroke:#038048;stroke-width:1.0;"/><text fill="#000000" font-family="sans-serif" font-size="14" lengthAdjust="spacing" textLength="203" x="1498.5" y="610.7718">getValue(name: String): String</text></g><!--class Output--><g id="elem_Output"><rect codeLine="8" fill="#F1F1F1" height="124.2717" id="Output" rx="2.5" ry="2.5" style="stroke:#181818;stroke-width:0.5;" width="169" x="277.5" y="678.88"/><ellipse cx="333.75" cy="694.88" fill="#ADD1B2" rx="11" ry="11" style="stroke:#181818;stroke-width:1.0;"/><path d="M333.2188,701.8019 Q331.4688,701.8019 330.3281,701.0675 Q329.2031,700.3175 328.6406,698.9738 Q328.0938,697.6144 328.0938,695.8175 Q328.0938,693.7863 328.75,692.3331 Q329.4063,690.88 330.6875,690.0988 Q331.9688,689.3175 333.8438,689.3175 Q334.7344,689.3175 335.4063,689.505 Q336.0781,689.6769 336.7656,690.0206 L335.9531,692.0363 Q335.3281,691.7238 334.7813,691.5988 Q334.25,691.4738 333.7656,691.4738 Q332.5938,691.4738 331.8906,692.005 Q331.1875,692.5363 330.8906,693.4894 Q330.5938,694.4425 330.5938,695.7081 Q330.5938,697.7238 331.3125,698.6925 Q332.0313,699.6456 333.625,699.6456 Q334.2188,699.6456 334.8438,699.4894 Q335.4688,699.3331 336.2969,698.9581 L336.2969,701.1769 Q335.5625,701.4894 334.7656,701.6456 Q333.9844,701.8019 333.2188,701.8019 Z " fill="#000000"/><text fill="#000000" font-family="sans-serif" font-size="14" lengthAdjust="spacing" textLength="48" x="354.25" y="700.312">Output</text><line style="stroke:#181818;stroke-width:0.5;" x1="278.5" x2="445.5" y1="710.88" y2="710.88"/><rect fill="none" height="6" style="stroke:#C82930;stroke-width:1.0;" width="6" x="285.5" y="722.914"/><text fill="#000000" font-family="sans-serif" font-size="14" lengthAdjust="spacing" textLength="85" x="297.5" y="729.8459">exitCode: Int</text><rect fill="none" height="6" style="stroke:#C82930;stroke-width:1.0;" width="6" x="285.5" y="741.9819"/><text fill="#000000" font-family="sans-serif" font-size="14" lengthAdjust="spacing" textLength="94" x="297.5" y="748.9139">output: String</text><rect fill="none" height="6" style="stroke:#C82930;stroke-width:1.0;" width="6" x="285.5" y="761.0498"/><text fill="#000000" font-family="sans-serif" font-size="14" lengthAdjust="spacing" textLength="143" x="297.5" y="767.9818">errorMessage: String</text><line style="stroke:#181818;stroke-width:0.5;" x1="278.5" x2="445.5" y1="776.0838" y2="776.0838"/><ellipse cx="288.5" cy="791.1177" fill="#84BE84" rx="3" ry="3" style="stroke:#038048;stroke-width:1.0;"/><text fill="#000000" font-family="sans-serif" font-size="14" lengthAdjust="spacing" textLength="127" x="297.5" y="795.0497">getOutput(): String</text></g><!--class Command--><g id="elem_Command"><rect codeLine="15" fill="#F1F1F1" height="105.2038" id="Command" rx="2.5" ry="2.5" style="stroke:#181818;stroke-width:0.5;" width="161" x="281.5" y="513.67"/><ellipse cx="325.75" cy="529.67" fill="#A9DCDF" rx="11" ry="11" style="stroke:#181818;stroke-width:1.0;"/><path d="M320.9219,535.42 L324.2656,523.2325 L327.4063,523.2325 L330.7813,535.42 L328.3125,535.42 L327.5781,532.4044 L324.0625,532.4044 L323.3125,535.42 L320.9219,535.42 Z M325.3281,527.3731 L324.5781,530.3731 L327.0938,530.3731 L326.375,527.3731 Q326.2344,526.795 326.1094,526.2481 Q325.9844,525.6856 325.8438,525.1075 Q325.7344,525.6856 325.5938,526.2481 Q325.4531,526.795 325.3281,527.3731 Z " fill="#000000"/><text fill="#000000" font-family="sans-serif" font-size="14" font-style="italic" lengthAdjust="spacing" textLength="64" x="346.25" y="535.102">Command</text><line style="stroke:#181818;stroke-width:0.5;" x1="282.5" x2="441.5" y1="545.67" y2="545.67"/><rect fill="none" height="6" style="stroke:#C82930;stroke-width:1.0;" width="6" x="289.5" y="557.704"/><text fill="#000000" font-family="sans-serif" font-size="14" lengthAdjust="spacing" textLength="101" x="301.5" y="564.6359">args: String [*]</text><line style="stroke:#181818;stroke-width:0.5;" x1="282.5" x2="441.5" y1="572.7379" y2="572.7379"/><ellipse cx="292.5" cy="587.7719" fill="#84BE84" rx="3" ry="3" style="stroke:#038048;stroke-width:1.0;"/><text fill="#000000" font-family="sans-serif" font-size="14" lengthAdjust="spacing" textLength="116" x="301.5" y="591.7039">execute(): Output</text><ellipse cx="292.5" cy="606.8398" fill="#84BE84" rx="3" ry="3" style="stroke:#038048;stroke-width:1.0;"/><text fill="#000000" font-family="sans-serif" font-size="14" lengthAdjust="spacing" textLength="135" x="301.5" y="610.7718">addArg(String): void</text></g><!--class Cat--><g id="elem_Cat"><rect codeLine="22" fill="#F1F1F1" height="32" id="Cat" rx="2.5" ry="2.5" style="stroke:#181818;stroke-width:0.5;" width="54" x="7" y="366"/><ellipse cx="22" cy="382" fill="#ADD1B2" rx="11" ry="11" style="stroke:#181818;stroke-width:1.0;"/><path d="M21.4688,388.9219 Q19.7188,388.9219 18.5781,388.1875 Q17.4531,387.4375 16.8906,386.0938 Q16.3438,384.7344 16.3438,382.9375 Q16.3438,380.9063 17,379.4531 Q17.6563,378 18.9375,377.2188 Q20.2188,376.4375 22.0938,376.4375 Q22.9844,376.4375 23.6563,376.625 Q24.3281,376.7969 25.0156,377.1406 L24.2031,379.1563 Q23.5781,378.8438 23.0313,378.7188 Q22.5,378.5938 22.0156,378.5938 Q20.8438,378.5938 20.1406,379.125 Q19.4375,379.6563 19.1406,380.6094 Q18.8438,381.5625 18.8438,382.8281 Q18.8438,384.8438 19.5625,385.8125 Q20.2813,386.7656 21.875,386.7656 Q22.4688,386.7656 23.0938,386.6094 Q23.7188,386.4531 24.5469,386.0781 L24.5469,388.2969 Q23.8125,388.6094 23.0156,388.7656 Q22.2344,388.9219 21.4688,388.9219 Z " fill="#000000"/><text fill="#000000" font-family="sans-serif" font-size="14" lengthAdjust="spacing" textLength="22" x="36" y="387.432">Cat</text></g><!--class Pwd--><g id="elem_Pwd"><rect codeLine="23" fill="#F1F1F1" height="32" id="Pwd" rx="2.5" ry="2.5" style="stroke:#181818;stroke-width:0.5;" width="60" x="96" y="366"/><ellipse cx="111" cy="382" fill="#ADD1B2" rx="11" ry="11" style="stroke:#181818;stroke-width:1.0;"/><path d="M110.4688,388.9219 Q108.7188,388.9219 107.5781,388.1875 Q106.4531,387.4375 105.8906,386.0938 Q105.3438,384.7344 105.3438,382.9375 Q105.3438,380.9063 106,379.4531 Q106.6563,378 107.9375,377.2188 Q109.2188,376.4375 111.0938,376.4375 Q111.9844,376.4375 112.6563,376.625 Q113.3281,376.7969 114.0156,377.1406 L113.2031,379.1563 Q112.5781,378.8438 112.0313,378.7188 Q111.5,378.5938 111.0156,378.5938 Q109.8438,378.5938 109.1406,379.125 Q108.4375,379.6563 108.1406,380.6094 Q107.8438,381.5625 107.8438,382.8281 Q107.8438,384.8438 108.5625,385.8125 Q109.2813,386.7656 110.875,386.7656 Q111.4688,386.7656 112.0938,386.6094 Q112.7188,386.4531 113.5469,386.0781 L113.5469,388.2969 Q112.8125,388.6094 112.0156,388.7656 Q111.2344,388.9219 110.4688,388.9219 Z " fill="#000000"/><text fill="#000000" font-family="sans-serif" font-size="14" lengthAdjust="spacing" textLength="28" x="125" y="387.432">Pwd</text></g><!--class Echo--><g id="elem_Echo"><rect codeLine="24" fill="#F1F1F1" height="32" id="Echo" rx="2.5" ry="2.5" style="stroke:#181818;stroke-width:0.5;" width="64" x="191" y="366"/><ellipse cx="206" cy="382" fill="#ADD1B2" rx="11" ry="11" style="stroke:#181818;stroke-width:1.0;"/><path d="M205.4688,388.9219 Q203.7188,388.9219 202.5781,388.1875 Q201.4531,387.4375 200.8906,386.0938 Q200.3438,384.7344 200.3438,382.9375 Q200.3438,380.9063 201,379.4531 Q201.6563,378 202.9375,377.2188 Q204.2188,376.4375 206.0938,376.4375 Q206.9844,376.4375 207.6563,376.625 Q208.3281,376.7969 209.0156,377.1406 L208.2031,379.1563 Q207.5781,378.8438 207.0313,378.7188 Q206.5,378.5938 206.0156,378.5938 Q204.8438,378.5938 204.1406,379.125 Q203.4375,379.6563 203.1406,380.6094 Q202.8438,381.5625 202.8438,382.8281 Q202.8438,384.8438 203.5625,385.8125 Q204.2813,386.7656 205.875,386.7656 Q206.4688,386.7656 207.0938,386.6094 Q207.7188,386.4531 208.5469,386.0781 L208.5469,388.2969 Q207.8125,388.6094 207.0156,388.7656 Q206.2344,388.9219 205.4688,388.9219 Z " fill="#000000"/><text fill="#000000" font-family="sans-serif" font-size="14" lengthAdjust="spacing" textLength="32" x="220" y="387.432">Echo</text></g><!--class Wc--><g id="elem_Wc"><rect codeLine="25" fill="#F1F1F1" height="32" id="Wc" rx="2.5" ry="2.5" style="stroke:#181818;stroke-width:0.5;" width="52" x="290" y="366"/><ellipse cx="305" cy="382" fill="#ADD1B2" rx="11" ry="11" style="stroke:#181818;stroke-width:1.0;"/><path d="M304.4688,388.9219 Q302.7188,388.9219 301.5781,388.1875 Q300.4531,387.4375 299.8906,386.0938 Q299.3438,384.7344 299.3438,382.9375 Q299.3438,380.9063 300,379.4531 Q300.6563,378 301.9375,377.2188 Q303.2188,376.4375 305.0938,376.4375 Q305.9844,376.4375 306.6563,376.625 Q307.3281,376.7969 308.0156,377.1406 L307.2031,379.1563 Q306.5781,378.8438 306.0313,378.7188 Q305.5,378.5938 305.0156,378.5938 Q303.8438,378.5938 303.1406,379.125 Q302.4375,379.6563 302.1406,380.6094 Q301.8438,381.5625 301.8438,382.8281 Q301.8438,384.8438 302.5625,385.8125 Q303.2813,386.7656 304.875,386.7656 Q305.4688,386.7656 306.0938,386.6094 Q306.7188,386.4531 307.5469,386.0781 L307.5469,388.2969 Q306.8125,388.6094 306.0156,388.7656 Q305.2344,388.9219 304.4688,388.9219 Z " fill="#000000"/><text fill="#000000" font-family="sans-serif" font-size="14" lengthAdjust="spacing" textLength="20" x="319" y="387.432">Wc</text></g><!--class Bind--><g id="elem_Bind"><rect codeLine="26" fill="#F1F1F1" height="32" id="Bind" rx="2.5" ry="2.5" style="stroke:#181818;stroke-width:0.5;" width="63" x="376.5" y="366"/><ellipse cx="391.5" cy="382" fill="#ADD1B2" rx="11" ry="11" style="stroke:#181818;stroke-width:1.0;"/><path d="M390.9688,388.9219 Q389.2188,388.9219 388.0781,388.1875 Q386.9531,387.4375 386.3906,386.0938 Q385.8438,384.7344 385.8438,382.9375 Q385.8438,380.9063 386.5,379.4531 Q387.1563,378 388.4375,377.2188 Q389.7188,376.4375 391.5938,376.4375 Q392.4844,376.4375 393.1563,376.625 Q393.8281,376.7969 394.5156,377.1406 L393.7031,379.1563 Q393.0781,378.8438 392.5313,378.7188 Q392,378.5938 391.5156,378.5938 Q390.3438,378.5938 389.6406,379.125 Q388.9375,379.6563 388.6406,380.6094 Q388.3438,381.5625 388.3438,382.8281 Q388.3438,384.8438 389.0625,385.8125 Q389.7813,386.7656 391.375,386.7656 Q391.9688,386.7656 392.5938,386.6094 Q393.2188,386.4531 394.0469,386.0781 L394.0469,388.2969 Q393.3125,388.6094 392.5156,388.7656 Q391.7344,388.9219 390.9688,388.9219 Z " fill="#000000"/><text fill="#000000" font-family="sans-serif" font-size="14" lengthAdjust="spacing" textLength="31" x="405.5" y="387.432">Bind</text></g><!--class External--><g id="elem_External"><rect codeLine="27" fill="#F1F1F1" height="105.2038" id="External" rx="2.5" ry="2.5" style="stroke:#181818;stroke-width:0.5;" width="217" x="474.5" y="329.4"/><ellipse cx="551.25" cy="345.4" fill="#ADD1B2" rx="11" ry="11" style="stroke:#181818;stroke-width:1.0;"/><path d="M550.7188,352.3219 Q548.9688,352.3219 547.8281,351.5875 Q546.7031,350.8375 546.1406,349.4938 Q545.5938,348.1344 545.5938,346.3375 Q545.5938,344.3063 546.25,342.8531 Q546.9063,341.4 548.1875,340.6188 Q549.4688,339.8375 551.3438,339.8375 Q552.2344,339.8375 552.9063,340.025 Q553.5781,340.1969 554.2656,340.5406 L553.4531,342.5563 Q552.8281,342.2438 552.2813,342.1188 Q551.75,341.9938 551.2656,341.9938 Q550.0938,341.9938 549.3906,342.525 Q548.6875,343.0563 548.3906,344.0094 Q548.0938,344.9625 548.0938,346.2281 Q548.0938,348.2438 548.8125,349.2125 Q549.5313,350.1656 551.125,350.1656 Q551.7188,350.1656 552.3438,350.0094 Q552.9688,349.8531 553.7969,349.4781 L553.7969,351.6969 Q553.0625,352.0094 552.2656,352.1656 Q551.4844,352.3219 550.7188,352.3219 Z " fill="#000000"/><text fill="#000000" font-family="sans-serif" font-size="14" lengthAdjust="spacing" textLength="55" x="571.75" y="350.832">External</text><line style="stroke:#181818;stroke-width:0.5;" x1="475.5" x2="690.5" y1="361.4" y2="361.4"/><rect fill="none" height="6" style="stroke:#C82930;stroke-width:1.0;" width="6" x="482.5" y="373.434"/><text fill="#000000" font-family="sans-serif" font-size="14" lengthAdjust="spacing" textLength="112" x="494.5" y="380.3659">binFiles: Path [*]</text><rect fill="none" height="6" style="stroke:#C82930;stroke-width:1.0;" width="6" x="482.5" y="392.5019"/><text fill="#000000" font-family="sans-serif" font-size="14" lengthAdjust="spacing" textLength="191" x="494.5" y="399.4339">isFullPathToExecutable: Bool</text><line style="stroke:#181818;stroke-width:0.5;" x1="475.5" x2="690.5" y1="407.5358" y2="407.5358"/><ellipse cx="485.5" cy="422.5698" fill="#84BE84" rx="3" ry="3" style="stroke:#038048;stroke-width:1.0;"/><text fill="#000000" font-family="sans-serif" font-size="14" lengthAdjust="spacing" textLength="156" x="494.5" y="426.5018">executableExists(): Bool</text></g><!--class Exit--><g id="elem_Exit"><rect codeLine="32" fill="#F1F1F1" height="32" id="Exit" rx="2.5" ry="2.5" style="stroke:#181818;stroke-width:0.5;" width="56" x="727" y="366"/><ellipse cx="742" cy="382" fill="#ADD1B2" rx="11" ry="11" style="stroke:#181818;stroke-width:1.0;"/><path d="M741.4688,388.9219 Q739.7188,388.9219 738.5781,388.1875 Q737.4531,387.4375 736.8906,386.0938 Q736.3438,384.7344 736.3438,382.9375 Q736.3438,380.9063 737,379.4531 Q737.6563,378 738.9375,377.2188 Q740.2188,376.4375 742.0938,376.4375 Q742.9844,376.4375 743.6563,376.625 Q744.3281,376.7969 745.0156,377.1406 L744.2031,379.1563 Q743.5781,378.8438 743.0313,378.7188 Q742.5,378.5938 742.0156,378.5938 Q740.8438,378.5938 740.1406,379.125 Q739.4375,379.6563 739.1406,380.6094 Q738.8438,381.5625 738.8438,382.8281 Q738.8438,384.8438 739.5625,385.8125 Q740.2813,386.7656 741.875,386.7656 Q742.4688,386.7656 743.0938,386.6094 Q743.7188,386.4531 744.5469,386.0781 L744.5469,388.2969 Q743.8125,388.6094 743.0156,388.7656 Q742.2344,388.9219 741.4688,388.9219 Z " fill="#000000"/><text fill="#000000" font-family="sans-serif" font-size="14" lengthAdjust="spacing" textLength="24" x="756" y="387.432">Exit</text></g><!--class CommandQueue--><g id="elem_CommandQueue"><rect codeLine="42" fill="#F1F1F1" height="105.2038" id="CommandQueue" rx="2.5" ry="2.5" style="stroke:#181818;stroke-width:0.5;" width="309" x="818.5" y="329.4"/><ellipse cx="911.75" cy="345.4" fill="#ADD1B2" rx="11" ry="11" style="stroke:#181818;stroke-width:1.0;"/><path d="M911.2188,352.3219 Q909.4688,352.3219 908.3281,351.5875 Q907.2031,350.8375 906.6406,349.4938 Q906.0938,348.1344 906.0938,346.3375 Q906.0938,344.3063 906.75,342.8531 Q907.4063,341.4 908.6875,340.6188 Q909.9688,339.8375 911.8438,339.8375 Q912.7344,339.8375 913.4063,340.025 Q914.0781,340.1969 914.7656,340.5406 L913.9531,342.5563 Q913.3281,342.2438 912.7813,342.1188 Q912.25,341.9938 911.7656,341.9938 Q910.5938,341.9938 909.8906,342.525 Q909.1875,343.0563 908.8906,344.0094 Q908.5938,344.9625 908.5938,346.2281 Q908.5938,348.2438 909.3125,349.2125 Q910.0313,350.1656 911.625,350.1656 Q912.2188,350.1656 912.8438,350.0094 Q913.4688,349.8531 914.2969,349.4781 L914.2969,351.6969 Q913.5625,352.0094 912.7656,352.1656 Q911.9844,352.3219 911.2188,352.3219 Z " fill="#000000"/><text fill="#000000" font-family="sans-serif" font-size="14" lengthAdjust="spacing" textLength="114" x="932.25" y="350.832">CommandQueue</text><line style="stroke:#181818;stroke-width:0.5;" x1="819.5" x2="1126.5" y1="361.4" y2="361.4"/><rect fill="none" height="6" style="stroke:#C82930;stroke-width:1.0;" width="6" x="826.5" y="373.434"/><text fill="#000000" font-family="sans-serif" font-size="14" lengthAdjust="spacing" textLength="173" x="838.5" y="380.3659">commands: Command [*]</text><line style="stroke:#181818;stroke-width:0.5;" x1="819.5" x2="1126.5" y1="388.4679" y2="388.4679"/><ellipse cx="829.5" cy="403.5019" fill="#84BE84" rx="3" ry="3" style="stroke:#038048;stroke-width:1.0;"/><text fill="#000000" font-family="sans-serif" font-size="14" lengthAdjust="spacing" textLength="283" x="838.5" y="407.4339">addCommand(command: Command): void</text><ellipse cx="829.5" cy="422.5698" fill="#84BE84" rx="3" ry="3" style="stroke:#038048;stroke-width:1.0;"/><text fill="#000000" font-family="sans-serif" font-size="14" lengthAdjust="spacing" textLength="180" x="838.5" y="426.5018">popCommand(): Command</text></g><!--class CommandRunner--><g id="elem_CommandRunner"><rect codeLine="49" fill="#F1F1F1" height="105.2038" id="CommandRunner" rx="2.5" ry="2.5" style="stroke:#181818;stroke-width:0.5;" width="267" x="839.5" y="135.6"/><ellipse cx="909.25" cy="151.6" fill="#ADD1B2" rx="11" ry="11" style="stroke:#181818;stroke-width:1.0;"/><path d="M908.7188,158.5219 Q906.9688,158.5219 905.8281,157.7875 Q904.7031,157.0375 904.1406,155.6938 Q903.5938,154.3344 903.5938,152.5375 Q903.5938,150.5063 904.25,149.0531 Q904.9063,147.6 906.1875,146.8188 Q907.4688,146.0375 909.3438,146.0375 Q910.2344,146.0375 910.9063,146.225 Q911.5781,146.3969 912.2656,146.7406 L911.4531,148.7563 Q910.8281,148.4438 910.2813,148.3188 Q909.75,148.1938 909.2656,148.1938 Q908.0938,148.1938 907.3906,148.725 Q906.6875,149.2563 906.3906,150.2094 Q906.0938,151.1625 906.0938,152.4281 Q906.0938,154.4438 906.8125,155.4125 Q907.5313,156.3656 909.125,156.3656 Q909.7188,156.3656 910.3438,156.2094 Q910.9688,156.0531 911.7969,155.6781 L911.7969,157.8969 Q911.0625,158.2094 910.2656,158.3656 Q909.4844,158.5219 908.7188,158.5219 Z " fill="#000000"/><text fill="#000000" font-family="sans-serif" font-size="14" lengthAdjust="spacing" textLength="119" x="929.75" y="157.032">CommandRunner</text><line style="stroke:#181818;stroke-width:0.5;" x1="840.5" x2="1105.5" y1="167.6" y2="167.6"/><rect fill="none" height="6" style="stroke:#C82930;stroke-width:1.0;" width="6" x="847.5" y="179.634"/><text fill="#000000" font-family="sans-serif" font-size="14" lengthAdjust="spacing" textLength="241" x="859.5" y="186.5659">commandsQueue: CommandQueue</text><rect fill="none" height="6" style="stroke:#C82930;stroke-width:1.0;" width="6" x="847.5" y="198.7019"/><text fill="#000000" font-family="sans-serif" font-size="14" lengthAdjust="spacing" textLength="118" x="859.5" y="205.6339">env: Environment</text><line style="stroke:#181818;stroke-width:0.5;" x1="840.5" x2="1105.5" y1="213.7358" y2="213.7358"/><ellipse cx="850.5" cy="228.7698" fill="#84BE84" rx="3" ry="3" style="stroke:#038048;stroke-width:1.0;"/><text fill="#000000" font-family="sans-serif" font-size="14" lengthAdjust="spacing" textLength="192" x="859.5" y="232.7018">executeCommands(): Output</text></g><!--class Main--><g id="elem_Main"><rect codeLine="58" fill="#F1F1F1" height="59.0679" id="Main" rx="2.5" ry="2.5" style="stroke:#181818;stroke-width:0.5;" width="169" x="1176.5" y="7"/><ellipse cx="1239.75" cy="23" fill="#ADD1B2" rx="11" ry="11" style="stroke:#181818;stroke-width:1.0;"/><path d="M1239.2188,29.9219 Q1237.4688,29.9219 1236.3281,29.1875 Q1235.2031,28.4375 1234.6406,27.0938 Q1234.0938,25.7344 1234.0938,23.9375 Q1234.0938,21.9063 1234.75,20.4531 Q1235.4063,19 1236.6875,18.2188 Q1237.9688,17.4375 1239.8438,17.4375 Q1240.7344,17.4375 1241.4063,17.625 Q1242.0781,17.7969 1242.7656,18.1406 L1241.9531,20.1563 Q1241.3281,19.8438 1240.7813,19.7188 Q1240.25,19.5938 1239.7656,19.5938 Q1238.5938,19.5938 1237.8906,20.125 Q1237.1875,20.6563 1236.8906,21.6094 Q1236.5938,22.5625 1236.5938,23.8281 Q1236.5938,25.8438 1237.3125,26.8125 Q1238.0313,27.7656 1239.625,27.7656 Q1240.2188,27.7656 1240.8438,27.6094 Q1241.4688,27.4531 1242.2969,27.0781 L1242.2969,29.2969 Q1241.5625,29.6094 1240.7656,29.7656 Q1239.9844,29.9219 1239.2188,29.9219 Z " fill="#000000"/><text fill="#000000" font-family="sans-serif" font-size="14" lengthAdjust="spacing" textLength="34" x="1260.25" y="28.432">Main</text><line style="stroke:#181818;stroke-width:0.5;" x1="1177.5" x2="1344.5" y1="39" y2="39"/><ellipse cx="1187.5" cy="54.034" fill="#84BE84" rx="3" ry="3" style="stroke:#038048;stroke-width:1.0;"/><text fill="#000000" font-family="sans-serif" font-size="14" lengthAdjust="spacing" textLength="143" x="1196.5" y="57.9659">runInterpreter(): void</text></g><!--class CommandLine--><g id="elem_CommandLine"><rect codeLine="64" fill="#F1F1F1" height="124.2717" id="CommandLine" rx="2.5" ry="2.5" style="stroke:#181818;stroke-width:0.5;" width="238" x="1142" y="126.06"/><ellipse cx="1208.25" cy="142.06" fill="#ADD1B2" rx="11" ry="11" style="stroke:#181818;stroke-width:1.0;"/><path d="M1207.7188,148.9819 Q1205.9688,148.9819 1204.8281,148.2475 Q1203.7031,147.4975 1203.1406,146.1537 Q1202.5938,144.7944 1202.5938,142.9975 Q1202.5938,140.9662 1203.25,139.5131 Q1203.9063,138.06 1205.1875,137.2787 Q1206.4688,136.4975 1208.3438,136.4975 Q1209.2344,136.4975 1209.9063,136.685 Q1210.5781,136.8569 1211.2656,137.2006 L1210.4531,139.2162 Q1209.8281,138.9037 1209.2813,138.7787 Q1208.75,138.6537 1208.2656,138.6537 Q1207.0938,138.6537 1206.3906,139.185 Q1205.6875,139.7162 1205.3906,140.6694 Q1205.0938,141.6225 1205.0938,142.8881 Q1205.0938,144.9037 1205.8125,145.8725 Q1206.5313,146.8256 1208.125,146.8256 Q1208.7188,146.8256 1209.3438,146.6694 Q1209.9688,146.5131 1210.7969,146.1381 L1210.7969,148.3569 Q1210.0625,148.6694 1209.2656,148.8256 Q1208.4844,148.9819 1207.7188,148.9819 Z " fill="#000000"/><text fill="#000000" font-family="sans-serif" font-size="14" lengthAdjust="spacing" textLength="97" x="1228.75" y="147.492">CommandLine</text><line style="stroke:#181818;stroke-width:0.5;" x1="1143" x2="1379" y1="158.06" y2="158.06"/><rect fill="none" height="6" style="stroke:#C82930;stroke-width:1.0;" width="6" x="1150" y="170.094"/><text fill="#000000" font-family="sans-serif" font-size="14" lengthAdjust="spacing" textLength="99" x="1162" y="177.0259">prompt: String</text><line style="stroke:#181818;stroke-width:0.5;" x1="1143" x2="1379" y1="185.1279" y2="185.1279"/><ellipse cx="1153" cy="200.1619" fill="#84BE84" rx="3" ry="3" style="stroke:#038048;stroke-width:1.0;"/><text fill="#000000" font-family="sans-serif" font-size="14" lengthAdjust="spacing" textLength="88" x="1162" y="204.0939">read(): String</text><ellipse cx="1153" cy="219.2298" fill="#84BE84" rx="3" ry="3" style="stroke:#038048;stroke-width:1.0;"/><text fill="#000000" font-family="sans-serif" font-size="14" lengthAdjust="spacing" textLength="179" x="1162" y="223.1618">write(output: Output): void</text><ellipse cx="1153" cy="238.2977" fill="#84BE84" rx="3" ry="3" style="stroke:#038048;stroke-width:1.0;"/><text fill="#000000" font-family="sans-serif" font-size="14" lengthAdjust="spacing" textLength="212" x="1162" y="242.2297">setPrompt(prompt: String): void</text></g><!--class Token--><g id="elem_Token"><rect codeLine="73" fill="#F1F1F1" height="86.1358" id="Token" rx="2.5" ry="2.5" style="stroke:#181818;stroke-width:0.5;" width="142" x="2199" y="523.21"/><ellipse cx="2247.25" cy="539.21" fill="#B4A7E5" rx="11" ry="11" style="stroke:#181818;stroke-width:1.0;"/><path d="M2243.2813,545.71 L2243.2813,544.0069 L2245.6406,543.7412 L2245.6406,535.5381 L2243.2813,535.2725 L2243.2813,533.5694 L2250.4219,533.5694 L2250.4219,535.2725 L2248,535.5381 L2248,543.7412 L2250.4219,544.0069 L2250.4219,545.71 L2243.2813,545.71 Z " fill="#000000"/><text fill="#000000" font-family="sans-serif" font-size="14" font-style="italic" lengthAdjust="spacing" textLength="37" x="2267.75" y="544.642">Token</text><line style="stroke:#181818;stroke-width:0.5;" x1="2200" x2="2340" y1="555.21" y2="555.21"/><rect fill="none" height="6" style="stroke:#C82930;stroke-width:1.0;" width="6" x="2207" y="567.244"/><text fill="#000000" font-family="sans-serif" font-size="14" lengthAdjust="spacing" textLength="85" x="2219" y="574.1759">value: String</text><line style="stroke:#181818;stroke-width:0.5;" x1="2200" x2="2340" y1="582.2779" y2="582.2779"/><ellipse cx="2210" cy="597.3119" fill="#84BE84" rx="3" ry="3" style="stroke:#038048;stroke-width:1.0;"/><text fill="#000000" font-family="sans-serif" font-size="14" lengthAdjust="spacing" textLength="116" x="2219" y="601.2439">getValue(): String</text></g><!--class QuotedString--><g id="elem_QuotedString"><rect codeLine="78" fill="#F1F1F1" height="32" id="QuotedString" rx="2.5" ry="2.5" style="stroke:#181818;stroke-width:0.5;" width="123" x="2061.5" y="366"/><ellipse cx="2076.5" cy="382" fill="#ADD1B2" rx="11" ry="11" style="stroke:#181818;stroke-width:1.0;"/><path d="M2075.9688,388.9219 Q2074.2188,388.9219 2073.0781,388.1875 Q2071.9531,387.4375 2071.3906,386.0938 Q2070.8438,384.7344 2070.8438,382.9375 Q2070.8438,380.9063 2071.5,379.4531 Q2072.1563,378 2073.4375,377.2188 Q2074.7188,376.4375 2076.5938,376.4375 Q2077.4844,376.4375 2078.1563,376.625 Q2078.8281,376.7969 2079.5156,377.1406 L2078.7031,379.1563 Q2078.0781,378.8438 2077.5313,378.7188 Q2077,378.5938 2076.5156,378.5938 Q2075.3438,378.5938 2074.6406,379.125 Q2073.9375,379.6563 2073.6406,380.6094 Q2073.3438,381.5625 2073.3438,382.8281 Q2073.3438,384.8438 2074.0625,385.8125 Q2074.7813,386.7656 2076.375,386.7656 Q2076.9688,386.7656 2077.5938,386.6094 Q2078.2188,386.4531 2079.0469,386.0781 L2079.0469,388.2969 Q2078.3125,388.6094 2077.5156,388.7656 Q2076.7344,388.9219 2075.9688,388.9219 Z " fill="#000000"/><text fill="#000000" font-family="sans-serif" font-size="14" lengthAdjust="spacing" textLength="91" x="2090.5" y="387.432">QuotedString</text></g><!--class PlainWord--><g id="elem_PlainWord"><rect codeLine="79" fill="#F1F1F1" height="32" id="PlainWord" rx="2.5" ry="2.5" style="stroke:#181818;stroke-width:0.5;" width="101" x="2219.5" y="366"/><ellipse cx="2234.5" cy="382" fill="#ADD1B2" rx="11" ry="11" style="stroke:#181818;stroke-width:1.0;"/><path d="M2233.9688,388.9219 Q2232.2188,388.9219 2231.0781,388.1875 Q2229.9531,387.4375 2229.3906,386.0938 Q2228.8438,384.7344 2228.8438,382.9375 Q2228.8438,380.9063 2229.5,379.4531 Q2230.1563,378 2231.4375,377.2188 Q2232.7188,376.4375 2234.5938,376.4375 Q2235.4844,376.4375 2236.1563,376.625 Q2236.8281,376.7969 2237.5156,377.1406 L2236.7031,379.1563 Q2236.0781,378.8438 2235.5313,378.7188 Q2235,378.5938 2234.5156,378.5938 Q2233.3438,378.5938 2232.6406,379.125 Q2231.9375,379.6563 2231.6406,380.6094 Q2231.3438,381.5625 2231.3438,382.8281 Q2231.3438,384.8438 2232.0625,385.8125 Q2232.7813,386.7656 2234.375,386.7656 Q2234.9688,386.7656 2235.5938,386.6094 Q2236.2188,386.4531 2237.0469,386.0781 L2237.0469,388.2969 Q2236.3125,388.6094 2235.5156,388.7656 Q2234.7344,388.9219 2233.9688,388.9219 Z " fill="#000000"/><text fill="#000000" font-family="sans-serif" font-size="14" lengthAdjust="spacing" textLength="69" x="2248.5" y="387.432">PlainWord</text></g><!--class Pipe--><g id="elem_Pipe"><rect codeLine="80" fill="#F1F1F1" height="32" id="Pipe" rx="2.5" ry="2.5" style="stroke:#181818;stroke-width:0.5;" width="61" x="2355.5" y="366"/><ellipse cx="2370.5" cy="382" fill="#ADD1B2" rx="11" ry="11" style="stroke:#181818;stroke-width:1.0;"/><path d="M2369.9688,388.9219 Q2368.2188,388.9219 2367.0781,388.1875 Q2365.9531,387.4375 2365.3906,386.0938 Q2364.8438,384.7344 2364.8438,382.9375 Q2364.8438,380.9063 2365.5,379.4531 Q2366.1563,378 2367.4375,377.2188 Q2368.7188,376.4375 2370.5938,376.4375 Q2371.4844,376.4375 2372.1563,376.625 Q2372.8281,376.7969 2373.5156,377.1406 L2372.7031,379.1563 Q2372.0781,378.8438 2371.5313,378.7188 Q2371,378.5938 2370.5156,378.5938 Q2369.3438,378.5938 2368.6406,379.125 Q2367.9375,379.6563 2367.6406,380.6094 Q2367.3438,381.5625 2367.3438,382.8281 Q2367.3438,384.8438 2368.0625,385.8125 Q2368.7813,386.7656 2370.375,386.7656 Q2370.9688,386.7656 2371.5938,386.6094 Q2372.2188,386.4531 2373.0469,386.0781 L2373.0469,388.2969 Q2372.3125,388.6094 2371.5156,388.7656 Q2370.7344,388.9219 2369.9688,388.9219 Z " fill="#000000"/><text fill="#000000" font-family="sans-serif" font-size="14" lengthAdjust="spacing" textLength="29" x="2384.5" y="387.432">Pipe</text></g><!--class EqualsSymbol--><g id="elem_EqualsSymbol"><rect codeLine="81" fill="#F1F1F1" height="32" id="EqualsSymbol" rx="2.5" ry="2.5" style="stroke:#181818;stroke-width:0.5;" width="126" x="2451" y="366"/><ellipse cx="2466" cy="382" fill="#ADD1B2" rx="11" ry="11" style="stroke:#181818;stroke-width:1.0;"/><path d="M2465.4688,388.9219 Q2463.7188,388.9219 2462.5781,388.1875 Q2461.4531,387.4375 2460.8906,386.0938 Q2460.3438,384.7344 2460.3438,382.9375 Q2460.3438,380.9063 2461,379.4531 Q2461.6563,378 2462.9375,377.2188 Q2464.2188,376.4375 2466.0938,376.4375 Q2466.9844,376.4375 2467.6563,376.625 Q2468.3281,376.7969 2469.0156,377.1406 L2468.2031,379.1563 Q2467.5781,378.8438 2467.0313,378.7188 Q2466.5,378.5938 2466.0156,378.5938 Q2464.8438,378.5938 2464.1406,379.125 Q2463.4375,379.6563 2463.1406,380.6094 Q2462.8438,381.5625 2462.8438,382.8281 Q2462.8438,384.8438 2463.5625,385.8125 Q2464.2813,386.7656 2465.875,386.7656 Q2466.4688,386.7656 2467.0938,386.6094 Q2467.7188,386.4531 2468.5469,386.0781 L2468.5469,388.2969 Q2467.8125,388.6094 2467.0156,388.7656 Q2466.2344,388.9219 2465.4688,388.9219 Z " fill="#000000"/><text fill="#000000" font-family="sans-serif" font-size="14" lengthAdjust="spacing" textLength="94" x="2480" y="387.432">EqualsSymbol</text></g><!--class TokenizerState--><g id="elem_TokenizerState"><rect codeLine="89" fill="#F1F1F1" height="143.3396" id="TokenizerState" rx="2.5" ry="2.5" style="stroke:#181818;stroke-width:0.5;" width="270" x="1757" y="310.34"/><ellipse cx="1841.75" cy="326.34" fill="#A9DCDF" rx="11" ry="11" style="stroke:#181818;stroke-width:1.0;"/><path d="M1836.9219,332.09 L1840.2656,319.9025 L1843.4063,319.9025 L1846.7813,332.09 L1844.3125,332.09 L1843.5781,329.0744 L1840.0625,329.0744 L1839.3125,332.09 L1836.9219,332.09 Z M1841.3281,324.0431 L1840.5781,327.0431 L1843.0938,327.0431 L1842.375,324.0431 Q1842.2344,323.465 1842.1094,322.9181 Q1841.9844,322.3556 1841.8438,321.7775 Q1841.7344,322.3556 1841.5938,322.9181 Q1841.4531,323.465 1841.3281,324.0431 Z " fill="#000000"/><text fill="#000000" font-family="sans-serif" font-size="14" font-style="italic" lengthAdjust="spacing" textLength="92" x="1862.25" y="331.772">TokenizerState</text><line style="stroke:#181818;stroke-width:0.5;" x1="1758" x2="2026" y1="342.34" y2="342.34"/><rect fill="none" height="6" style="stroke:#C82930;stroke-width:1.0;" width="6" x="1765" y="354.374"/><text fill="#000000" font-family="sans-serif" font-size="14" lengthAdjust="spacing" textLength="118" x="1777" y="361.3059">env: Environment</text><rect fill="none" height="6" style="stroke:#C82930;stroke-width:1.0;" width="6" x="1765" y="373.4419"/><text fill="#000000" font-family="sans-serif" font-size="14" lengthAdjust="spacing" textLength="136" x="1777" y="380.3739">accumulated: String</text><rect fill="none" height="6" style="stroke:#C82930;stroke-width:1.0;" width="6" x="1765" y="392.5098"/><text fill="#000000" font-family="sans-serif" font-size="14" lengthAdjust="spacing" textLength="126" x="1777" y="399.4418">splitters: String [*]</text><line style="stroke:#181818;stroke-width:0.5;" x1="1758" x2="2026" y1="407.5438" y2="407.5438"/><ellipse cx="1768" cy="422.5777" fill="#84BE84" rx="3" ry="3" style="stroke:#038048;stroke-width:1.0;"/><text fill="#000000" font-family="sans-serif" font-size="14" lengthAdjust="spacing" textLength="112" x="1777" y="426.5097">tokenize(): Token</text><ellipse cx="1768" cy="441.6456" fill="#84BE84" rx="3" ry="3" style="stroke:#038048;stroke-width:1.0;"/><text fill="#000000" font-family="sans-serif" font-size="14" lengthAdjust="spacing" textLength="244" x="1777" y="445.5776">addToAccumulated(char: Char): void</text></g><!--class TokenizerNormal--><g id="elem_TokenizerNormal"><rect codeLine="99" fill="#F1F1F1" height="32" id="TokenizerNormal" rx="2.5" ry="2.5" style="stroke:#181818;stroke-width:0.5;" width="147" x="1713.5" y="172.2"/><ellipse cx="1728.5" cy="188.2" fill="#ADD1B2" rx="11" ry="11" style="stroke:#181818;stroke-width:1.0;"/><path d="M1727.9688,195.1219 Q1726.2188,195.1219 1725.0781,194.3875 Q1723.9531,193.6375 1723.3906,192.2937 Q1722.8438,190.9344 1722.8438,189.1375 Q1722.8438,187.1062 1723.5,185.6531 Q1724.1563,184.2 1725.4375,183.4187 Q1726.7188,182.6375 1728.5938,182.6375 Q1729.4844,182.6375 1730.1563,182.825 Q1730.8281,182.9969 1731.5156,183.3406 L1730.7031,185.3562 Q1730.0781,185.0437 1729.5313,184.9187 Q1729,184.7937 1728.5156,184.7937 Q1727.3438,184.7937 1726.6406,185.325 Q1725.9375,185.8562 1725.6406,186.8094 Q1725.3438,187.7625 1725.3438,189.0281 Q1725.3438,191.0437 1726.0625,192.0125 Q1726.7813,192.9656 1728.375,192.9656 Q1728.9688,192.9656 1729.5938,192.8094 Q1730.2188,192.6531 1731.0469,192.2781 L1731.0469,194.4969 Q1730.3125,194.8094 1729.5156,194.9656 Q1728.7344,195.1219 1727.9688,195.1219 Z " fill="#000000"/><text fill="#000000" font-family="sans-serif" font-size="14" lengthAdjust="spacing" textLength="115" x="1742.5" y="193.632">TokenizerNormal</text></g><!--class TokenizerStronglyQuoted--><g id="elem_TokenizerStronglyQuoted"><rect codeLine="103" fill="#F1F1F1" height="32" id="TokenizerStronglyQuoted" rx="2.5" ry="2.5" style="stroke:#181818;stroke-width:0.5;" width="203" x="1895.5" y="172.2"/><ellipse cx="1910.5" cy="188.2" fill="#ADD1B2" rx="11" ry="11" style="stroke:#181818;stroke-width:1.0;"/><path d="M1909.9688,195.1219 Q1908.2188,195.1219 1907.0781,194.3875 Q1905.9531,193.6375 1905.3906,192.2937 Q1904.8438,190.9344 1904.8438,189.1375 Q1904.8438,187.1062 1905.5,185.6531 Q1906.1563,184.2 1907.4375,183.4187 Q1908.7188,182.6375 1910.5938,182.6375 Q1911.4844,182.6375 1912.1563,182.825 Q1912.8281,182.9969 1913.5156,183.3406 L1912.7031,185.3562 Q1912.0781,185.0437 1911.5313,184.9187 Q1911,184.7937 1910.5156,184.7937 Q1909.3438,184.7937 1908.6406,185.325 Q1907.9375,185.8562 1907.6406,186.8094 Q1907.3438,187.7625 1907.3438,189.0281 Q1907.3438,191.0437 1908.0625,192.0125 Q1908.7813,192.9656 1910.375,192.9656 Q1910.9688,192.9656 1911.5938,192.8094 Q1912.2188,192.6531 1913.0469,192.2781 L1913.0469,194.4969 Q1912.3125,194.8094 1911.5156,194.9656 Q1910.7344,195.1219 1909.9688,195.1219 Z " fill="#000000"/><text fill="#000000" font-family="sans-serif" font-size="14" lengthAdjust="spacing" textLength="171" x="1924.5" y="193.632">TokenizerStronglyQuoted</text></g><!--class TokenizerWeaklyQuoted--><g id="elem_TokenizerWeaklyQuoted"><rect codeLine="105" fill="#F1F1F1" height="32" id="TokenizerWeaklyQuoted" rx="2.5" ry="2.5" style="stroke:#181818;stroke-width:0.5;" width="194" x="2133" y="172.2"/><ellipse cx="2148" cy="188.2" fill="#ADD1B2" rx="11" ry="11" style="stroke:#181818;stroke-width:1.0;"/><path d="M2147.4688,195.1219 Q2145.7188,195.1219 2144.5781,194.3875 Q2143.4531,193.6375 2142.8906,192.2937 Q2142.3438,190.9344 2142.3438,189.1375 Q2142.3438,187.1062 2143,185.6531 Q2143.6563,184.2 2144.9375,183.4187 Q2146.2188,182.6375 2148.0938,182.6375 Q2148.9844,182.6375 2149.6563,182.825 Q2150.3281,182.9969 2151.0156,183.3406 L2150.2031,185.3562 Q2149.5781,185.0437 2149.0313,184.9187 Q2148.5,184.7937 2148.0156,184.7937 Q2146.8438,184.7937 2146.1406,185.325 Q2145.4375,185.8562 2145.1406,186.8094 Q2144.8438,187.7625 2144.8438,189.0281 Q2144.8438,191.0437 2145.5625,192.0125 Q2146.2813,192.9656 2147.875,192.9656 Q2148.4688,192.9656 2149.0938,192.8094 Q2149.7188,192.6531 2150.5469,192.2781 L2150.5469,194.4969 Q2149.8125,194.8094 2149.0156,194.9656 Q2148.2344,195.1219 2147.4688,195.1219 Z " fill="#000000"/><text fill="#000000" font-family="sans-serif" font-size="14" lengthAdjust="spacing" textLength="162" x="2162" y="193.632">TokenizerWeaklyQuoted</text></g><!--class TokenizerVariable--><g id="elem_TokenizerVariable"><rect codeLine="109" fill="#F1F1F1" height="32" id="TokenizerVariable" rx="2.5" ry="2.5" style="stroke:#181818;stroke-width:0.5;" width="152" x="2362" y="172.2"/><ellipse cx="2377" cy="188.2" fill="#ADD1B2" rx="11" ry="11" style="stroke:#181818;stroke-width:1.0;"/><path d="M2376.4688,195.1219 Q2374.7188,195.1219 2373.5781,194.3875 Q2372.4531,193.6375 2371.8906,192.2937 Q2371.3438,190.9344 2371.3438,189.1375 Q2371.3438,187.1062 2372,185.6531 Q2372.6563,184.2 2373.9375,183.4187 Q2375.2188,182.6375 2377.0938,182.6375 Q2377.9844,182.6375 2378.6563,182.825 Q2379.3281,182.9969 2380.0156,183.3406 L2379.2031,185.3562 Q2378.5781,185.0437 2378.0313,184.9187 Q2377.5,184.7937 2377.0156,184.7937 Q2375.8438,184.7937 2375.1406,185.325 Q2374.4375,185.8562 2374.1406,186.8094 Q2373.8438,187.7625 2373.8438,189.0281 Q2373.8438,191.0437 2374.5625,192.0125 Q2375.2813,192.9656 2376.875,192.9656 Q2377.4688,192.9656 2378.0938,192.8094 Q2378.7188,192.6531 2379.5469,192.2781 L2379.5469,194.4969 Q2378.8125,194.8094 2378.0156,194.9656 Q2377.2344,195.1219 2376.4688,195.1219 Z " fill="#000000"/><text fill="#000000" font-family="sans-serif" font-size="14" lengthAdjust="spacing" textLength="120" x="2391" y="193.632">TokenizerVariable</text></g><!--class Parser--><g id="elem_Parser"><rect codeLine="118" fill="#F1F1F1" height="124.2717" id="Parser" rx="2.5" ry="2.5" style="stroke:#181818;stroke-width:0.5;" width="263" x="1415.5" y="126.06"/><ellipse cx="1521.25" cy="142.06" fill="#ADD1B2" rx="11" ry="11" style="stroke:#181818;stroke-width:1.0;"/><path d="M1520.7188,148.9819 Q1518.9688,148.9819 1517.8281,148.2475 Q1516.7031,147.4975 1516.1406,146.1537 Q1515.5938,144.7944 1515.5938,142.9975 Q1515.5938,140.9662 1516.25,139.5131 Q1516.9063,138.06 1518.1875,137.2787 Q1519.4688,136.4975 1521.3438,136.4975 Q1522.2344,136.4975 1522.9063,136.685 Q1523.5781,136.8569 1524.2656,137.2006 L1523.4531,139.2162 Q1522.8281,138.9037 1522.2813,138.7787 Q1521.75,138.6537 1521.2656,138.6537 Q1520.0938,138.6537 1519.3906,139.185 Q1518.6875,139.7162 1518.3906,140.6694 Q1518.0938,141.6225 1518.0938,142.8881 Q1518.0938,144.9037 1518.8125,145.8725 Q1519.5313,146.8256 1521.125,146.8256 Q1521.7188,146.8256 1522.3438,146.6694 Q1522.9688,146.5131 1523.7969,146.1381 L1523.7969,148.3569 Q1523.0625,148.6694 1522.2656,148.8256 Q1521.4844,148.9819 1520.7188,148.9819 Z " fill="#000000"/><text fill="#000000" font-family="sans-serif" font-size="14" lengthAdjust="spacing" textLength="43" x="1541.75" y="147.492">Parser</text><line style="stroke:#181818;stroke-width:0.5;" x1="1416.5" x2="1677.5" y1="158.06" y2="158.06"/><rect fill="none" height="6" style="stroke:#C82930;stroke-width:1.0;" width="6" x="1423.5" y="170.094"/><text fill="#000000" font-family="sans-serif" font-size="14" lengthAdjust="spacing" textLength="85" x="1435.5" y="177.0259">input: String</text><rect fill="none" height="6" style="stroke:#C82930;stroke-width:1.0;" width="6" x="1423.5" y="189.1619"/><text fill="#000000" font-family="sans-serif" font-size="14" lengthAdjust="spacing" textLength="237" x="1435.5" y="196.0939">startTokenizerState: TokenizerState</text><line style="stroke:#181818;stroke-width:0.5;" x1="1416.5" x2="1677.5" y1="204.1958" y2="204.1958"/><rect fill="#F24D5C" height="6" style="stroke:#C82930;stroke-width:1.0;" width="6" x="1423.5" y="216.2298"/><text fill="#000000" font-family="sans-serif" font-size="14" lengthAdjust="spacing" textLength="134" x="1435.5" y="223.1618">tokenize(): Token [*]</text><ellipse cx="1426.5" cy="238.2977" fill="#84BE84" rx="3" ry="3" style="stroke:#038048;stroke-width:1.0;"/><text fill="#000000" font-family="sans-serif" font-size="14" lengthAdjust="spacing" textLength="168" x="1435.5" y="242.2297">parse(): CommandQueue</text></g><!--link Command to Output--><g id="link_Command_Output"><path codeLine="21" d="M362,619.1 C362,637.79 362,653.05 362,672.48 " fill="none" id="Command-to-Output" style="stroke:#181818;stroke-width:1.0;"/><polygon fill="#181818" points="362,678.48,366,669.48,362,673.48,358,669.48,362,678.48" style="stroke:#181818;stroke-width:1.0;"/></g><!--link Cat to Command--><g id="link_Cat_Command"><path codeLine="34" d="M40.26,398.24 C47.47,414.06 60.71,438.59 79,453.67 C137.87,502.24 203.0654,526.8634 263.8254,543.1734 " fill="none" id="Cat-to-Command" style="stroke:#181818;stroke-width:1.0;"/><polygon fill="none" points="281.21,547.84,265.381,537.3786,262.2699,548.9683,281.21,547.84" style="stroke:#181818;stroke-width:1.0;"/></g><!--link Pwd to Command--><g id="link_Pwd_Command"><path codeLine="35" d="M133.5,398.24 C141.63,413.61 155.78,437.35 173,453.67 C204.53,483.56 229.5666,500.5102 265.2666,519.4902 " fill="none" id="Pwd-to-Command" style="stroke:#181818;stroke-width:1.0;"/><polygon fill="none" points="281.16,527.94,268.0832,514.1924,262.45,524.788,281.16,527.94" style="stroke:#181818;stroke-width:1.0;"/></g><!--link Echo to Command--><g id="link_Echo_Command"><path codeLine="36" d="M233.48,398.35 C243.43,412.79 258.91,434.93 273,453.67 C287.81,473.39 293.2999,480.5869 308.2299,499.2069 " fill="none" id="Echo-to-Command" style="stroke:#181818;stroke-width:1.0;"/><polygon fill="none" points="319.49,513.25,312.9109,495.4535,303.5488,502.9603,319.49,513.25" style="stroke:#181818;stroke-width:1.0;"/></g><!--link Wc to Command--><g id="link_Wc_Command"><path codeLine="37" d="M319.84,398.23 C326.17,423.3 334.6566,456.9269 344.5266,496.0469 " fill="none" id="Wc-to-Command" style="stroke:#181818;stroke-width:1.0;"/><polygon fill="none" points="348.93,513.5,350.3443,494.5791,338.7089,497.5147,348.93,513.5" style="stroke:#181818;stroke-width:1.0;"/></g><!--link Bind to Command--><g id="link_Bind_Command"><path codeLine="38" d="M404.16,398.23 C397.83,423.3 389.3434,456.9269 379.4734,496.0469 " fill="none" id="Bind-to-Command" style="stroke:#181818;stroke-width:1.0;"/><polygon fill="none" points="375.07,513.5,385.2911,497.5147,373.6557,494.5791,375.07,513.5" style="stroke:#181818;stroke-width:1.0;"/></g><!--link External to Command--><g id="link_External_Command"><path codeLine="39" d="M519.97,434.99 C490.24,459.51 468.7341,477.2343 439.0041,501.7643 " fill="none" id="External-to-Command" style="stroke:#181818;stroke-width:1.0;"/><polygon fill="none" points="425.12,513.22,442.8226,506.3924,435.1855,497.1363,425.12,513.22" style="stroke:#181818;stroke-width:1.0;"/></g><!--link Exit to Command--><g id="link_Exit_Command"><path codeLine="40" d="M748.71,398.47 C741.42,414.5 727.96,439.19 709,453.67 C630.31,513.81 535.89,539.0715 460.59,552.0115 " fill="none" id="Exit-to-Command" style="stroke:#181818;stroke-width:1.0;"/><polygon fill="none" points="442.85,555.06,461.6061,557.9248,459.5738,546.0981,442.85,555.06" style="stroke:#181818;stroke-width:1.0;"/></g><!--link CommandQueue to Command--><g id="link_CommandQueue_Command"><path codeLine="47" d="M852.58,434.98 C835.41,441.66 817.86,448.1 801,453.67 C677.99,494.35 537.3511,527.6164 448.5411,547.0664 " fill="none" id="CommandQueue-to-Command" style="stroke:#181818;stroke-width:1.0;"/><polygon fill="#181818" points="442.68,548.35,452.3274,550.332,447.5642,547.2803,450.6159,542.5172,442.68,548.35" style="stroke:#181818;stroke-width:1.0;"/></g><!--link CommandRunner to CommandQueue--><g id="link_CommandRunner_CommandQueue"><path codeLine="55" d="M973,241.1 C973,268.4 973,295.76 973,323.06 " fill="none" id="CommandRunner-to-CommandQueue" style="stroke:#181818;stroke-width:1.0;"/><polygon fill="#181818" points="973,329.06,977,320.06,973,324.06,969,320.06,973,329.06" style="stroke:#181818;stroke-width:1.0;"/></g><!--link CommandRunner to Environment--><g id="link_CommandRunner_Environment"><path codeLine="56" d="M1065.53,241.29 C1192.96,313.04 1415.9017,438.5463 1543.3017,510.2763 " fill="none" id="CommandRunner-to-Environment" style="stroke:#181818;stroke-width:1.0;"/><polygon fill="#181818" points="1548.53,513.22,1542.65,505.319,1544.1731,510.7669,1538.7251,512.29,1548.53,513.22" style="stroke:#181818;stroke-width:1.0;"/></g><!--link Main to CommandRunner--><g id="link_Main_CommandRunner"><path codeLine="62" d="M1205.47,66.39 C1168.04,85.84 1122.9141,109.2935 1078.5741,132.3335 " fill="none" id="Main-to-CommandRunner" style="stroke:#181818;stroke-width:1.0;"/><polygon fill="#181818" points="1073.25,135.1,1083.0805,134.4996,1077.6868,132.7946,1079.3918,127.4008,1073.25,135.1" style="stroke:#181818;stroke-width:1.0;"/></g><!--link Main to CommandLine--><g id="link_Main_CommandLine"><path codeLine="71" d="M1261,66.39 C1261,83.21 1261,99.08 1261,119.59 " fill="none" id="Main-to-CommandLine" style="stroke:#181818;stroke-width:1.0;"/><polygon fill="#181818" points="1261,125.59,1265,116.59,1261,120.59,1257,116.59,1261,125.59" style="stroke:#181818;stroke-width:1.0;"/></g><!--link QuotedString to Token--><g id="link_QuotedString_Token"><path codeLine="83" d="M2135.28,398.23 C2157.15,425.35 2192.2895,468.9193 2224.4795,508.8293 " fill="none" id="QuotedString-to-Token" style="stroke:#181818;stroke-width:1.0;"/><polygon fill="none" points="2235.78,522.84,2229.1497,505.0625,2219.8093,512.5962,2235.78,522.84" style="stroke:#181818;stroke-width:1.0;"/></g><!--link PlainWord to Token--><g id="link_PlainWord_Token"><path codeLine="84" d="M2270,398.23 C2270,425.35 2270,464.93 2270,504.84 " fill="none" id="PlainWord-to-Token" style="stroke:#181818;stroke-width:1.0;"/><polygon fill="none" points="2270,522.84,2276,504.84,2264,504.84,2270,522.84" style="stroke:#181818;stroke-width:1.0;"/></g><!--link Pipe to Token--><g id="link_Pipe_Token"><path codeLine="85" d="M2376.31,398.23 C2359.05,425.35 2332.0772,467.7463 2306.6672,507.6563 " fill="none" id="Pipe-to-Token" style="stroke:#181818;stroke-width:1.0;"/><polygon fill="none" points="2297,522.84,2311.7284,510.8787,2301.606,504.4339,2297,522.84" style="stroke:#181818;stroke-width:1.0;"/></g><!--link EqualsSymbol to Token--><g id="link_EqualsSymbol_Token"><path codeLine="86" d="M2497.97,398.25 C2482.18,413 2457.12,435.71 2434,453.67 C2402.86,477.87 2381.781,492.8167 2351.391,512.9267 " fill="none" id="EqualsSymbol-to-Token" style="stroke:#181818;stroke-width:1.0;"/><polygon fill="none" points="2336.38,522.86,2354.7021,517.9304,2348.0799,507.9231,2336.38,522.86" style="stroke:#181818;stroke-width:1.0;"/></g><!--link TokenizerState to Token--><g id="link_TokenizerState_Token"><path codeLine="97" d="M2027.4,448.29 C2085.23,476.18 2144.9552,504.9846 2193.1652,528.2246 " fill="none" id="TokenizerState-to-Token" style="stroke:#181818;stroke-width:1.0;"/><polygon fill="#181818" points="2198.57,530.83,2192.1998,523.3187,2194.066,528.6588,2188.7259,530.5251,2198.57,530.83" style="stroke:#181818;stroke-width:1.0;"/></g><!--link TokenizerNormal to TokenizerState--><g id="link_TokenizerNormal_TokenizerState"><path codeLine="111" d="M1795.42,204.57 C1807.87,227.33 1823.3773,255.6506 1844.4073,294.0706 " fill="none" id="TokenizerNormal-to-TokenizerState" style="stroke:#181818;stroke-width:1.0;"/><polygon fill="none" points="1853.05,309.86,1849.6705,291.1897,1839.1442,296.9515,1853.05,309.86" style="stroke:#181818;stroke-width:1.0;"/></g><!--link TokenizerStronglyQuoted to TokenizerState--><g id="link_TokenizerStronglyQuoted_TokenizerState"><path codeLine="112" d="M1988.58,204.57 C1976.13,227.33 1960.6227,255.6506 1939.5927,294.0706 " fill="none" id="TokenizerStronglyQuoted-to-TokenizerState" style="stroke:#181818;stroke-width:1.0;"/><polygon fill="none" points="1930.95,309.86,1944.8558,296.9515,1934.3295,291.1897,1930.95,309.86" style="stroke:#181818;stroke-width:1.0;"/></g><!--link TokenizerWeaklyQuoted to TokenizerState--><g id="link_TokenizerWeaklyQuoted_TokenizerState"><path codeLine="113" d="M2202.91,204.57 C2162.81,227.33 2100.7348,262.5559 2033.0348,300.9759 " fill="none" id="TokenizerWeaklyQuoted-to-TokenizerState" style="stroke:#181818;stroke-width:1.0;"/><polygon fill="none" points="2017.38,309.86,2035.9962,306.1941,2030.0734,295.7576,2017.38,309.86" style="stroke:#181818;stroke-width:1.0;"/></g><!--link TokenizerVariable to TokenizerState--><g id="link_TokenizerVariable_TokenizerState"><path codeLine="114" d="M2419.05,204.65 C2400.88,218.68 2372.12,238.87 2344,250.34 C2218.08,301.66 2173.23,268.04 2044,310.34 C2038.47,312.15 2049.7473,307.8425 2044.1373,309.9225 " fill="none" id="TokenizerVariable-to-TokenizerState" style="stroke:#181818;stroke-width:1.0;"/><polygon fill="none" points="2027.26,316.18,2046.2231,315.5482,2042.0515,304.2967,2027.26,316.18" style="stroke:#181818;stroke-width:1.0;"/></g><!--link TokenizerState to Environment--><g id="link_TokenizerState_Environment"><path codeLine="115" d="M1794.24,454 C1766.98,473.79 1742.7456,491.3953 1717.3156,509.8553 " fill="none" id="TokenizerState-to-Environment" style="stroke:#181818;stroke-width:1.0;"/><polygon fill="#181818" points="1712.46,513.38,1722.0931,511.33,1716.5063,510.4427,1717.3935,504.8559,1712.46,513.38" style="stroke:#181818;stroke-width:1.0;"/></g><!--link Parser to TokenizerState--><g id="link_Parser_TokenizerState"><path codeLine="125" d="M1657.58,250.68 C1691.48,269.53 1723.8156,287.5053 1758.7756,306.9353 " fill="none" id="Parser-to-TokenizerState" style="stroke:#181818;stroke-width:1.0;"/><polygon fill="#181818" points="1764.02,309.85,1758.0965,301.9816,1759.6496,307.421,1754.2102,308.9742,1764.02,309.85" style="stroke:#181818;stroke-width:1.0;"/></g><!--link Main to Parser--><g id="link_Main_Parser"><path codeLine="127" d="M1316.14,66.39 C1348.28,83.21 1384.774,102.2979 1423.964,122.8079 " fill="none" id="Main-to-Parser" style="stroke:#181818;stroke-width:1.0;"/><polygon fill="#181818" points="1429.28,125.59,1423.1607,117.8728,1424.85,123.2716,1419.4513,124.9608,1429.28,125.59" style="stroke:#181818;stroke-width:1.0;"/></g><!--SRC=[fLNBRjD05DtxAsQ70-G7B5IfBQc4H26b5LaW5XFxaengpvXvf2cX_ywyVISfPS4ciU-SEVVSfxUi0mB3g1_90CCQfAhQdYf55dp7fE03S4qE5I5pigEIqNKFgY7lMQlVtMh9-EOj2Vzd5lE6AD1V8wpcT8269DIEzYQ_pXgo4wppLpRkYZqhyBFqK3rLKT1deqUZWnJOCtqfEWl_mBMt27-QRtcGb49UWr9q0-Z0UmnaTU66hfMMjDNaKWm3vLrmHUL69HJvzlgxPu0zj4Q3kn-Ol9LstRdSr6M8bZZoaVdyBC53I9TK7vxYy_AXoy-BTYloowhDZnUC8z1UW-Iq3pBNZ5ynNvibrTieT4wOkZ9zxqntOk55kz8qv4A87aNYZ8izKrgvaFpXv8OvaPNLQWFuVPQoKrd1fS6fBYshjdnt-e_kn22EhUp8MKfOUBqnO234tGQBZJjbETN8LYEQwWZA6Dn-enWJR9O1DdhiobVkUIbV3ESWIId6NseAjQ4Z-Qx1WuLxAO8LwgcfTQ8N92EGdXvZzgZqcZ9-yAwauNPUG8uIx6-DMjHXC7rWF8hr8-CnwwCKTcKKGoM1TcYUdEb1CZiZQJ93K3ZrTbaiFL5TyhsWoqceAkQ2-45R87VY7dXQJsZ1b9ibooBJEhanGaCNpDCGzjRVIiXfofPiX6daVXhQgzl7OIrwDnEO8_IhrrDbci9ecV0x9iDsj8YyWVq2UQkfZgb_feViacfRCvZUWhfY1QgnPzhcwdI3wKZjSXFynfcv4-SJMTrkgRIDR7zHKKfPlZnHUaXJFlyav10Mr2llCdqQ_BtisI7JoLGVvCH6kkaVGx8Ffu0LqFjy_7- -qj41HncYG2NAeLT_4Vao5kjz6Pda_Cjtga8n_Ac1gLGWG-ymVloDL9fANJ8rnuuSxgHTSYEDZX-jph2ORFw2uwax9i9fgWEc-WC0]--></g></svg>