<?xml version="1.0" encoding="us-ascii" standalone="no"?><svg xmlns="http://www.w3.org/2000/svg" xmlns:xlink="http://www.w3.org/1999/xlink" contentStyleType="text/css" height="208px" preserveAspectRatio="none" style="width:337px;height:208px;background:#FFFFFF;" version="1.1" viewBox="0 0 337 208" width="337px" zoomAndPan="magnify"><defs/><g><!--class Facade--><g id="elem_Facade"><rect codeLine="1" fill="#F1F1F1" height="67.0679" id="Facade" rx="2.5" ry="2.5" style="stroke:#181818;stroke-width:0.5;" width="135" x="100.5" y="7"/><ellipse cx="140.7" cy="23" fill="#ADD1B2" rx="11" ry="11" style="stroke:#181818;stroke-width:1.0;"/><path d="M140.1688,29.9219 Q138.4188,29.9219 137.2781,29.1875 Q136.1531,28.4375 135.5906,27.0938 Q135.0438,25.7344 135.0438,23.9375 Q135.0438,21.9063 135.7,20.4531 Q136.3563,19 137.6375,18.2188 Q138.9188,17.4375 140.7938,17.4375 Q141.6844,17.4375 142.3563,17.625 Q143.0281,17.7969 143.7156,18.1406 L142.9031,20.1563 Q142.2781,19.8438 141.7313,19.7188 Q141.2,19.5938 140.7156,19.5938 Q139.5438,19.5938 138.8406,20.125 Q138.1375,20.6563 137.8406,21.6094 Q137.5438,22.5625 137.5438,23.8281 Q137.5438,25.8438 138.2625,26.8125 Q138.9813,27.7656 140.575,27.7656 Q141.1688,27.7656 141.7938,27.6094 Q142.4188,27.4531 143.2469,27.0781 L143.2469,29.2969 Q142.5125,29.6094 141.7156,29.7656 Q140.9344,29.9219 140.1688,29.9219 Z " fill="#000000"/><text fill="#000000" font-family="sans-serif" font-size="14" lengthAdjust="spacing" textLength="47" x="160.3" y="28.432">Facade</text><line style="stroke:#181818;stroke-width:0.5;" x1="101.5" x2="234.5" y1="39" y2="39"/><line style="stroke:#181818;stroke-width:0.5;" x1="101.5" x2="234.5" y1="47" y2="47"/><ellipse cx="111.5" cy="62.034" fill="#84BE84" rx="3" ry="3" style="stroke:#038048;stroke-width:1.0;"/><text fill="#000000" font-family="sans-serif" font-size="14" lengthAdjust="spacing" textLength="109" x="120.5" y="65.9659">operation(): void</text></g><!--class SubsystemA--><g id="elem_SubsystemA"><rect codeLine="5" fill="#F1F1F1" height="67.0679" id="SubsystemA" rx="2.5" ry="2.5" style="stroke:#181818;stroke-width:0.5;" width="144" x="7" y="134.07"/><ellipse cx="35.5" cy="150.07" fill="#ADD1B2" rx="11" ry="11" style="stroke:#181818;stroke-width:1.0;"/><path d="M34.9688,156.9919 Q33.2188,156.9919 32.0781,156.2575 Q30.9531,155.5075 30.3906,154.1638 Q29.8438,152.8044 29.8438,151.0075 Q29.8438,148.9763 30.5,147.5231 Q31.1563,146.07 32.4375,145.2888 Q33.7188,144.5075 35.5938,144.5075 Q36.4844,144.5075 37.1563,144.695 Q37.8281,144.8669 38.5156,145.2106 L37.7031,147.2263 Q37.0781,146.9138 36.5313,146.7888 Q36,146.6638 35.5156,146.6638 Q34.3438,146.6638 33.6406,147.195 Q32.9375,147.7263 32.6406,148.6794 Q32.3438,149.6325 32.3438,150.8981 Q32.3438,152.9138 33.0625,153.8825 Q33.7813,154.8356 35.375,154.8356 Q35.9688,154.8356 36.5938,154.6794 Q37.2188,154.5231 38.0469,154.1481 L38.0469,156.3669 Q37.3125,156.6794 36.5156,156.8356 Q35.7344,156.9919 34.9688,156.9919 Z " fill="#000000"/><text fill="#000000" font-family="sans-serif" font-size="14" lengthAdjust="spacing" textLength="82" x="52.5" y="155.502">SubsystemA</text><line style="stroke:#181818;stroke-width:0.5;" x1="8" x2="150" y1="166.07" y2="166.07"/><line style="stroke:#181818;stroke-width:0.5;" x1="8" x2="150" y1="174.07" y2="174.07"/><ellipse cx="18" cy="189.104" fill="#84BE84" rx="3" ry="3" style="stroke:#038048;stroke-width:1.0;"/><text fill="#000000" font-family="sans-serif" font-size="14" lengthAdjust="spacing" textLength="118" x="27" y="193.0359">operationA(): void</text></g><!--class SubsystemB--><g id="elem_SubsystemB"><rect codeLine="9" fill="#F1F1F1" height="67.0679" id="SubsystemB" rx="2.5" ry="2.5" style="stroke:#181818;stroke-width:0.5;" width="144" x="186" y="134.07"/><ellipse cx="214.5" cy="150.07" fill="#ADD1B2" rx="11" ry="11" style="stroke:#181818;stroke-width:1.0;"/><path d="M213.9688,156.9919 Q212.2188,156.9919 211.0781,156.2575 Q209.9531,155.5075 209.3906,154.1638 Q208.8438,152.8044 208.8438,151.0075 Q208.8438,148.9763 209.5,147.5231 Q210.1563,146.07 211.4375,145.2888 Q212.7188,144.5075 214.5938,144.5075 Q215.4844,144.5075 216.1563,144.695 Q216.8281,144.8669 217.5156,145.2106 L216.7031,147.2263 Q216.0781,146.9138 215.5313,146.7888 Q215,146.6638 214.5156,146.6638 Q213.3438,146.6638 212.6406,147.195 Q211.9375,147.7263 211.6406,148.6794 Q211.3438,149.6325 211.3438,150.8981 Q211.3438,152.9138 212.0625,153.8825 Q212.7813,154.8356 214.375,154.8356 Q214.9688,154.8356 215.5938,154.6794 Q216.2188,154.5231 217.0469,154.1481 L217.0469,156.3669 Q216.3125,156.6794 215.5156,156.8356 Q214.7344,156.9919 213.9688,156.9919 Z " fill="#000000"/><text fill="#000000" font-family="sans-serif" font-size="14" lengthAdjust="spacing" textLength="82" x="231.5" y="155.502">SubsystemB</text><line style="stroke:#181818;stroke-width:0.5;" x1="187" x2="329" y1="166.07" y2="166.07"/><line style="stroke:#181818;stroke-width:0.5;" x1="187" x2="329" y1="174.07" y2="174.07"/><ellipse cx="197" cy="189.104" fill="#84BE84" rx="3" ry="3" style="stroke:#038048;stroke-width:1.0;"/><text fill="#000000" font-family="sans-serif" font-size="14" lengthAdjust="spacing" textLength="118" x="206" y="193.0359">operationB(): void</text></g><!--link Facade to SubsystemA--><g id="link_Facade_SubsystemA"><path codeLine="13" d="M144.62,74.4 C131.53,92.78 118.7573,110.7304 105.7073,129.0804 " fill="none" id="Facade-to-SubsystemA" style="stroke:#181818;stroke-width:1.0;"/><polygon fill="#181818" points="102.23,133.97,110.7057,128.9538,105.1278,129.8953,104.1863,124.3174,102.23,133.97" style="stroke:#181818;stroke-width:1.0;"/></g><!--link Facade to SubsystemB--><g id="link_Facade_SubsystemB"><path codeLine="14" d="M191.65,74.4 C204.88,92.78 217.8063,110.7493 231.0063,129.0993 " fill="none" id="Facade-to-SubsystemB" style="stroke:#181818;stroke-width:1.0;"/><polygon fill="#181818" points="234.51,133.97,232.5015,124.3281,231.5902,129.9111,226.0073,128.9997,234.51,133.97" style="stroke:#181818;stroke-width:1.0;"/></g><!--SRC=[Iyv9B2vMS4jCJan9LQZcKW02xVo2rAB4aipyF0rDAuMo_CmKhbekhcImmk3IfEBAufBKN4SCnOvuL3jXg7P2LWsrNbVN3ia2hA9E0000]--></g></svg>