<?xml version="1.0" encoding="us-ascii" standalone="no"?><svg xmlns="http://www.w3.org/2000/svg" xmlns:xlink="http://www.w3.org/1999/xlink" contentStyleType="text/css" height="245px" preserveAspectRatio="none" style="width:457px;height:245px;background:#FFFFFF;" version="1.1" viewBox="0 0 457 245" width="457px" zoomAndPan="magnify"><defs/><g><!--cluster Subsystem--><g id="cluster_Subsystem"><path d="M8.5,6.602 L85.5,6.602 A3.75,3.75 0 0 1 88,9.102 L95,31.6699 L447.5,31.6699 A2.5,2.5 0 0 1 450,34.1699 L450,236.242 A2.5,2.5 0 0 1 447.5,238.742 L8.5,238.742 A2.5,2.5 0 0 1 6,236.242 L6,9.102 A2.5,2.5 0 0 1 8.5,6.602 " fill="none" style="stroke:#000000;stroke-width:1.5;"/><line style="stroke:#000000;stroke-width:1.5;" x1="6" x2="95" y1="31.6699" y2="31.6699"/><text fill="#000000" font-family="sans-serif" font-size="14" font-weight="bold" lengthAdjust="spacing" textLength="76" x="10" y="23.5679">Subsystem</text></g><!--class Facade--><g id="elem_Facade"><rect codeLine="3" fill="#F1F1F1" height="59.0679" id="Facade" rx="2.5" ry="2.5" style="stroke:#181818;stroke-width:0.5;" width="99" x="178.5" y="44.602"/><ellipse cx="202.5" cy="60.602" fill="#ADD1B2" rx="11" ry="11" style="stroke:#181818;stroke-width:1.0;"/><path d="M201.9688,67.5239 Q200.2188,67.5239 199.0781,66.7895 Q197.9531,66.0395 197.3906,64.6957 Q196.8438,63.3364 196.8438,61.5395 Q196.8438,59.5082 197.5,58.0551 Q198.1563,56.602 199.4375,55.8207 Q200.7188,55.0395 202.5938,55.0395 Q203.4844,55.0395 204.1563,55.227 Q204.8281,55.3989 205.5156,55.7426 L204.7031,57.7582 Q204.0781,57.4457 203.5313,57.3207 Q203,57.1957 202.5156,57.1957 Q201.3438,57.1957 200.6406,57.727 Q199.9375,58.2582 199.6406,59.2114 Q199.3438,60.1645 199.3438,61.4301 Q199.3438,63.4457 200.0625,64.4145 Q200.7813,65.3676 202.375,65.3676 Q202.9688,65.3676 203.5938,65.2114 Q204.2188,65.0551 205.0469,64.6801 L205.0469,66.8989 Q204.3125,67.2114 203.5156,67.3676 Q202.7344,67.5239 201.9688,67.5239 Z " fill="#000000"/><text fill="#000000" font-family="sans-serif" font-size="14" lengthAdjust="spacing" textLength="47" x="218.5" y="66.034">Facade</text><line style="stroke:#181818;stroke-width:0.5;" x1="179.5" x2="276.5" y1="76.602" y2="76.602"/><ellipse cx="189.5" cy="91.6359" fill="#84BE84" rx="3" ry="3" style="stroke:#038048;stroke-width:1.0;"/><text fill="#000000" font-family="sans-serif" font-size="14" lengthAdjust="spacing" textLength="73" x="198.5" y="95.5679">operation()</text></g><!--class SubsystemA--><g id="elem_SubsystemA"><rect codeLine="7" fill="#F1F1F1" height="59.0679" id="SubsystemA" rx="2.5" ry="2.5" style="stroke:#181818;stroke-width:0.5;" width="114" x="22" y="163.672"/><ellipse cx="37" cy="179.672" fill="#ADD1B2" rx="11" ry="11" style="stroke:#181818;stroke-width:1.0;"/><path d="M36.4688,186.5939 Q34.7188,186.5939 33.5781,185.8595 Q32.4531,185.1095 31.8906,183.7657 Q31.3438,182.4064 31.3438,180.6095 Q31.3438,178.5782 32,177.1251 Q32.6563,175.672 33.9375,174.8907 Q35.2188,174.1095 37.0938,174.1095 Q37.9844,174.1095 38.6563,174.297 Q39.3281,174.4689 40.0156,174.8126 L39.2031,176.8282 Q38.5781,176.5157 38.0313,176.3907 Q37.5,176.2657 37.0156,176.2657 Q35.8438,176.2657 35.1406,176.797 Q34.4375,177.3282 34.1406,178.2814 Q33.8438,179.2345 33.8438,180.5001 Q33.8438,182.5157 34.5625,183.4845 Q35.2813,184.4376 36.875,184.4376 Q37.4688,184.4376 38.0938,184.2814 Q38.7188,184.1251 39.5469,183.7501 L39.5469,185.9689 Q38.8125,186.2814 38.0156,186.4376 Q37.2344,186.5939 36.4688,186.5939 Z " fill="#000000"/><text fill="#000000" font-family="sans-serif" font-size="14" lengthAdjust="spacing" textLength="82" x="51" y="185.104">SubsystemA</text><line style="stroke:#181818;stroke-width:0.5;" x1="23" x2="135" y1="195.672" y2="195.672"/><ellipse cx="33" cy="210.7059" fill="#84BE84" rx="3" ry="3" style="stroke:#038048;stroke-width:1.0;"/><text fill="#000000" font-family="sans-serif" font-size="14" lengthAdjust="spacing" textLength="82" x="42" y="214.6379">operationA()</text></g><!--class SubsystemB--><g id="elem_SubsystemB"><rect codeLine="11" fill="#F1F1F1" height="59.0679" id="SubsystemB" rx="2.5" ry="2.5" style="stroke:#181818;stroke-width:0.5;" width="114" x="171" y="163.672"/><ellipse cx="186" cy="179.672" fill="#ADD1B2" rx="11" ry="11" style="stroke:#181818;stroke-width:1.0;"/><path d="M185.4688,186.5939 Q183.7188,186.5939 182.5781,185.8595 Q181.4531,185.1095 180.8906,183.7657 Q180.3438,182.4064 180.3438,180.6095 Q180.3438,178.5782 181,177.1251 Q181.6563,175.672 182.9375,174.8907 Q184.2188,174.1095 186.0938,174.1095 Q186.9844,174.1095 187.6563,174.297 Q188.3281,174.4689 189.0156,174.8126 L188.2031,176.8282 Q187.5781,176.5157 187.0313,176.3907 Q186.5,176.2657 186.0156,176.2657 Q184.8438,176.2657 184.1406,176.797 Q183.4375,177.3282 183.1406,178.2814 Q182.8438,179.2345 182.8438,180.5001 Q182.8438,182.5157 183.5625,183.4845 Q184.2813,184.4376 185.875,184.4376 Q186.4688,184.4376 187.0938,184.2814 Q187.7188,184.1251 188.5469,183.7501 L188.5469,185.9689 Q187.8125,186.2814 187.0156,186.4376 Q186.2344,186.5939 185.4688,186.5939 Z " fill="#000000"/><text fill="#000000" font-family="sans-serif" font-size="14" lengthAdjust="spacing" textLength="82" x="200" y="185.104">SubsystemB</text><line style="stroke:#181818;stroke-width:0.5;" x1="172" x2="284" y1="195.672" y2="195.672"/><ellipse cx="182" cy="210.7059" fill="#84BE84" rx="3" ry="3" style="stroke:#038048;stroke-width:1.0;"/><text fill="#000000" font-family="sans-serif" font-size="14" lengthAdjust="spacing" textLength="82" x="191" y="214.6379">operationB()</text></g><!--class SubsystemC--><g id="elem_SubsystemC"><rect codeLine="15" fill="#F1F1F1" height="59.0679" id="SubsystemC" rx="2.5" ry="2.5" style="stroke:#181818;stroke-width:0.5;" width="114" x="320" y="163.672"/><ellipse cx="335" cy="179.672" fill="#ADD1B2" rx="11" ry="11" style="stroke:#181818;stroke-width:1.0;"/><path d="M334.4688,186.5939 Q332.7188,186.5939 331.5781,185.8595 Q330.4531,185.1095 329.8906,183.7657 Q329.3438,182.4064 329.3438,180.6095 Q329.3438,178.5782 330,177.1251 Q330.6563,175.672 331.9375,174.8907 Q333.2188,174.1095 335.0938,174.1095 Q335.9844,174.1095 336.6563,174.297 Q337.3281,174.4689 338.0156,174.8126 L337.2031,176.8282 Q336.5781,176.5157 336.0313,176.3907 Q335.5,176.2657 335.0156,176.2657 Q333.8438,176.2657 333.1406,176.797 Q332.4375,177.3282 332.1406,178.2814 Q331.8438,179.2345 331.8438,180.5001 Q331.8438,182.5157 332.5625,183.4845 Q333.2813,184.4376 334.875,184.4376 Q335.4688,184.4376 336.0938,184.2814 Q336.7188,184.1251 337.5469,183.7501 L337.5469,185.9689 Q336.8125,186.2814 336.0156,186.4376 Q335.2344,186.5939 334.4688,186.5939 Z " fill="#000000"/><text fill="#000000" font-family="sans-serif" font-size="14" lengthAdjust="spacing" textLength="82" x="349" y="185.104">SubsystemC</text><line style="stroke:#181818;stroke-width:0.5;" x1="321" x2="433" y1="195.672" y2="195.672"/><ellipse cx="331" cy="210.7059" fill="#84BE84" rx="3" ry="3" style="stroke:#038048;stroke-width:1.0;"/><text fill="#000000" font-family="sans-serif" font-size="14" lengthAdjust="spacing" textLength="82" x="340" y="214.6379">operationC()</text></g><!--link Facade to SubsystemA--><g id="link_Facade_SubsystemA"><path codeLine="19" d="M191.17,104.082 C168.25,122.092 143.5773,141.4643 120.6373,159.4943 " fill="none" id="Facade-to-SubsystemA" style="stroke:#181818;stroke-width:1.0;"/><polygon fill="#181818" points="115.92,163.202,125.4678,160.7854,119.8511,160.1123,120.5242,154.4956,115.92,163.202" style="stroke:#181818;stroke-width:1.0;"/></g><!--link Facade to SubsystemB--><g id="link_Facade_SubsystemB"><path codeLine="20" d="M228,104.082 C228,122.092 228,139.172 228,157.202 " fill="none" id="Facade-to-SubsystemB" style="stroke:#181818;stroke-width:1.0;"/><polygon fill="#181818" points="228,163.202,232,154.202,228,158.202,224,154.202,228,163.202" style="stroke:#181818;stroke-width:1.0;"/></g><!--link Facade to SubsystemC--><g id="link_Facade_SubsystemC"><path codeLine="21" d="M264.83,104.082 C287.75,122.092 312.4227,141.4643 335.3627,159.4943 " fill="none" id="Facade-to-SubsystemC" style="stroke:#181818;stroke-width:1.0;"/><polygon fill="#181818" points="340.08,163.202,335.4758,154.4956,336.1489,160.1123,330.5322,160.7854,340.08,163.202" style="stroke:#181818;stroke-width:1.0;"/></g><!--SRC=[RSvH2a1040RWzpd5F99SGTaj5t22iQOemsRMW-Jk54diFFvzV_zqVSl8uiEAmjBmh32Ii7foZFNIwAg1PGCta2fMvEZq6-1vsUHvfj1FOvB23ZTvEkMFbL5dViv4dVqoUx7xfpmlNjlHr4HJ2_i1]--></g></svg>