<?xml version="1.0" encoding="us-ascii" standalone="no"?><svg xmlns="http://www.w3.org/2000/svg" xmlns:xlink="http://www.w3.org/1999/xlink" contentStyleType="text/css" height="303px" preserveAspectRatio="none" style="width:519px;height:303px;background:#FFFFFF;" version="1.1" viewBox="0 0 519 303" width="519px" zoomAndPan="magnify"><defs/><g><!--class Observer--><g id="elem_Observer"><rect codeLine="3" fill="#F1F1F1" height="59.0679" id="Observer" rx="2.5" ry="2.5" style="stroke:#181818;stroke-width:0.5;" width="225" x="287" y="39.61"/><ellipse cx="366.75" cy="55.61" fill="#B4A7E5" rx="11" ry="11" style="stroke:#181818;stroke-width:1.0;"/><path d="M362.7813,62.11 L362.7813,60.4069 L365.1406,60.1413 L365.1406,51.9381 L362.7813,51.6725 L362.7813,49.9694 L369.9219,49.9694 L369.9219,51.6725 L367.5,51.9381 L367.5,60.1413 L369.9219,60.4069 L369.9219,62.11 L362.7813,62.11 Z " fill="#000000"/><text fill="#000000" font-family="sans-serif" font-size="14" font-style="italic" lengthAdjust="spacing" textLength="57" x="387.25" y="61.042">Observer</text><line style="stroke:#181818;stroke-width:0.5;" x1="288" x2="511" y1="71.61" y2="71.61"/><ellipse cx="298" cy="86.644" fill="#84BE84" rx="3" ry="3" style="stroke:#038048;stroke-width:1.0;"/><text fill="#000000" font-family="sans-serif" font-size="14" lengthAdjust="spacing" textLength="199" x="307" y="90.5759">update(subject: Subject): void</text></g><!--class ConcreteObserver--><g id="elem_ConcreteObserver"><rect codeLine="7" fill="#F1F1F1" height="105.2038" id="ConcreteObserver" rx="2.5" ry="2.5" style="stroke:#181818;stroke-width:0.5;" width="225" x="274" y="191.28"/><ellipse cx="321.25" cy="207.28" fill="#ADD1B2" rx="11" ry="11" style="stroke:#181818;stroke-width:1.0;"/><path d="M320.7188,214.2019 Q318.9688,214.2019 317.8281,213.4675 Q316.7031,212.7175 316.1406,211.3738 Q315.5938,210.0144 315.5938,208.2175 Q315.5938,206.1863 316.25,204.7331 Q316.9063,203.28 318.1875,202.4988 Q319.4688,201.7175 321.3438,201.7175 Q322.2344,201.7175 322.9063,201.905 Q323.5781,202.0769 324.2656,202.4206 L323.4531,204.4363 Q322.8281,204.1238 322.2813,203.9988 Q321.75,203.8738 321.2656,203.8738 Q320.0938,203.8738 319.3906,204.405 Q318.6875,204.9363 318.3906,205.8894 Q318.0938,206.8425 318.0938,208.1081 Q318.0938,210.1238 318.8125,211.0925 Q319.5313,212.0456 321.125,212.0456 Q321.7188,212.0456 322.3438,211.8894 Q322.9688,211.7331 323.7969,211.3581 L323.7969,213.5769 Q323.0625,213.8894 322.2656,214.0456 Q321.4844,214.2019 320.7188,214.2019 Z " fill="#000000"/><text fill="#000000" font-family="sans-serif" font-size="14" lengthAdjust="spacing" textLength="122" x="341.75" y="212.712">ConcreteObserver</text><line style="stroke:#181818;stroke-width:0.5;" x1="275" x2="498" y1="223.28" y2="223.28"/><rect fill="none" height="6" style="stroke:#C82930;stroke-width:1.0;" width="6" x="282" y="235.314"/><text fill="#000000" font-family="sans-serif" font-size="14" lengthAdjust="spacing" textLength="93" x="294" y="242.2459">observerState</text><rect fill="none" height="6" style="stroke:#C82930;stroke-width:1.0;" width="6" x="282" y="254.3819"/><text fill="#000000" font-family="sans-serif" font-size="14" lengthAdjust="spacing" textLength="107" x="294" y="261.3139">subject: Subject</text><line style="stroke:#181818;stroke-width:0.5;" x1="275" x2="498" y1="269.4158" y2="269.4158"/><ellipse cx="285" cy="284.4498" fill="#84BE84" rx="3" ry="3" style="stroke:#038048;stroke-width:1.0;"/><text fill="#000000" font-family="sans-serif" font-size="14" lengthAdjust="spacing" textLength="199" x="294" y="288.3818">update(subject: Subject): void</text></g><!--class Subject--><g id="elem_Subject"><rect codeLine="12" fill="#F1F1F1" height="124.2717" id="Subject" rx="2.5" ry="2.5" style="stroke:#181818;stroke-width:0.5;" width="245" x="7" y="7"/><ellipse cx="102.75" cy="23" fill="#A9DCDF" rx="11" ry="11" style="stroke:#181818;stroke-width:1.0;"/><path d="M97.9219,28.75 L101.2656,16.5625 L104.4063,16.5625 L107.7813,28.75 L105.3125,28.75 L104.5781,25.7344 L101.0625,25.7344 L100.3125,28.75 L97.9219,28.75 Z M102.3281,20.7031 L101.5781,23.7031 L104.0938,23.7031 L103.375,20.7031 Q103.2344,20.125 103.1094,19.5781 Q102.9844,19.0156 102.8438,18.4375 Q102.7344,19.0156 102.5938,19.5781 Q102.4531,20.125 102.3281,20.7031 Z " fill="#000000"/><text fill="#000000" font-family="sans-serif" font-size="14" font-style="italic" lengthAdjust="spacing" textLength="45" x="123.25" y="28.432">Subject</text><line style="stroke:#181818;stroke-width:0.5;" x1="8" x2="251" y1="39" y2="39"/><rect fill="none" height="6" style="stroke:#C82930;stroke-width:1.0;" width="6" x="15" y="51.034"/><text fill="#000000" font-family="sans-serif" font-size="14" lengthAdjust="spacing" textLength="158" x="27" y="57.9659">observers: Observer [*]</text><line style="stroke:#181818;stroke-width:0.5;" x1="8" x2="251" y1="66.0679" y2="66.0679"/><ellipse cx="18" cy="81.1019" fill="#84BE84" rx="3" ry="3" style="stroke:#038048;stroke-width:1.0;"/><text fill="#000000" font-family="sans-serif" font-size="14" lengthAdjust="spacing" textLength="215" x="27" y="85.0339">attach(observer: Observer): void</text><ellipse cx="18" cy="100.1698" fill="#84BE84" rx="3" ry="3" style="stroke:#038048;stroke-width:1.0;"/><text fill="#000000" font-family="sans-serif" font-size="14" lengthAdjust="spacing" textLength="219" x="27" y="104.1018">detach(observer: Observer): void</text><ellipse cx="18" cy="119.2377" fill="#84BE84" rx="3" ry="3" style="stroke:#038048;stroke-width:1.0;"/><text fill="#000000" font-family="sans-serif" font-size="14" lengthAdjust="spacing" textLength="82" x="27" y="123.1697">notify(): void</text></g><!--class ConcreteSubject--><g id="elem_ConcreteSubject"><rect codeLine="19" fill="#F1F1F1" height="105.2038" id="ConcreteSubject" rx="2.5" ry="2.5" style="stroke:#181818;stroke-width:0.5;" width="142" x="71.5" y="191.28"/><ellipse cx="86.5" cy="207.28" fill="#ADD1B2" rx="11" ry="11" style="stroke:#181818;stroke-width:1.0;"/><path d="M85.9688,214.2019 Q84.2188,214.2019 83.0781,213.4675 Q81.9531,212.7175 81.3906,211.3738 Q80.8438,210.0144 80.8438,208.2175 Q80.8438,206.1863 81.5,204.7331 Q82.1563,203.28 83.4375,202.4988 Q84.7188,201.7175 86.5938,201.7175 Q87.4844,201.7175 88.1563,201.905 Q88.8281,202.0769 89.5156,202.4206 L88.7031,204.4363 Q88.0781,204.1238 87.5313,203.9988 Q87,203.8738 86.5156,203.8738 Q85.3438,203.8738 84.6406,204.405 Q83.9375,204.9363 83.6406,205.8894 Q83.3438,206.8425 83.3438,208.1081 Q83.3438,210.1238 84.0625,211.0925 Q84.7813,212.0456 86.375,212.0456 Q86.9688,212.0456 87.5938,211.8894 Q88.2188,211.7331 89.0469,211.3581 L89.0469,213.5769 Q88.3125,213.8894 87.5156,214.0456 Q86.7344,214.2019 85.9688,214.2019 Z " fill="#000000"/><text fill="#000000" font-family="sans-serif" font-size="14" lengthAdjust="spacing" textLength="110" x="100.5" y="212.712">ConcreteSubject</text><line style="stroke:#181818;stroke-width:0.5;" x1="72.5" x2="212.5" y1="223.28" y2="223.28"/><rect fill="none" height="6" style="stroke:#C82930;stroke-width:1.0;" width="6" x="79.5" y="235.314"/><text fill="#000000" font-family="sans-serif" font-size="14" lengthAdjust="spacing" textLength="83" x="91.5" y="242.2459">subjectState</text><line style="stroke:#181818;stroke-width:0.5;" x1="72.5" x2="212.5" y1="250.3479" y2="250.3479"/><ellipse cx="82.5" cy="265.3819" fill="#84BE84" rx="3" ry="3" style="stroke:#038048;stroke-width:1.0;"/><text fill="#000000" font-family="sans-serif" font-size="14" lengthAdjust="spacing" textLength="64" x="91.5" y="269.3139">getState()</text><ellipse cx="82.5" cy="284.4498" fill="#84BE84" rx="3" ry="3" style="stroke:#038048;stroke-width:1.0;"/><text fill="#000000" font-family="sans-serif" font-size="14" lengthAdjust="spacing" textLength="62" x="91.5" y="288.3818">setState()</text></g><!--reverse link Observer to ConcreteObserver--><g id="link_Observer_ConcreteObserver"><path d="M395.9686,116.9992 C394.0886,141.9692 392.68,160.72 390.42,190.8 " fill="none" id="Observer-backto-ConcreteObserver" style="stroke:#181818;stroke-width:1.0;stroke-dasharray:7.0,7.0;"/><polygon fill="none" points="397.32,99.05,389.9855,116.5487,401.9517,117.4497,397.32,99.05" style="stroke:#181818;stroke-width:1.0;"/></g><!--reverse link Subject to ConcreteSubject--><g id="link_Subject_ConcreteSubject"><path d="M135.4715,149.4792 C136.9315,168.8692 137.18,172.16 138.58,190.83 " fill="none" id="Subject-backto-ConcreteSubject" style="stroke:#181818;stroke-width:1.0;"/><polygon fill="none" points="134.12,131.53,129.4884,149.9297,141.4546,149.0287,134.12,131.53" style="stroke:#181818;stroke-width:1.0;"/></g><!--link Subject to Observer--><g id="link_Subject_Observer"><path codeLine="26" d="M264.37,69.14 C275.77,69.14 269.17,69.14 280.57,69.14 " fill="none" id="Subject-Observer" style="stroke:#181818;stroke-width:1.0;"/><polygon fill="none" points="252.37,69.14,258.37,73.14,264.37,69.14,258.37,65.14,252.37,69.14" style="stroke:#181818;stroke-width:1.0;"/><polygon fill="#181818" points="286.57,69.14,277.57,65.14,281.57,69.14,277.57,73.14,286.57,69.14" style="stroke:#181818;stroke-width:1.0;"/></g><!--reverse link ConcreteSubject to ConcreteObserver--><g id="link_ConcreteSubject_ConcreteObserver"><path codeLine="27" d="M219.98,243.88 C239.86,243.88 253.74,243.88 273.62,243.88 " fill="none" id="ConcreteSubject-backto-ConcreteObserver" style="stroke:#181818;stroke-width:1.0;"/><polygon fill="#181818" points="213.98,243.88,222.98,247.88,218.98,243.88,222.98,239.88,213.98,243.88" style="stroke:#181818;stroke-width:1.0;"/></g><!--SRC=[ZP513i8W44Ntd89brVG2ZN7Z0LouD2ue_2f6e656ep7UtKQAJJ0cikB3d_U7uMWD95pFT-dWMaGImdf6x9I6tBI4U4MK3o67jRZqHZ4gkhGdQ6xaDcrcZRm6QyHJ27rMH78Tl8vWVEgjwyzmy4mbimwZtlA0JaSb_yzmrH97fJdVb0dKJE6x-JvH5RFInofx9alclbq6_xXyODlTgv_Zo7tXnl26oZx7bqs3M1oGL3LBcYOzm4Mk3_Ngqv0emvRrrtUy0000]--></g></svg>