<?xml version="1.0" encoding="us-ascii" standalone="no"?><svg xmlns="http://www.w3.org/2000/svg" xmlns:xlink="http://www.w3.org/1999/xlink" contentStyleType="text/css" height="373px" preserveAspectRatio="none" style="width:332px;height:373px;background:#FFFFFF;" version="1.1" viewBox="0 0 332 373" width="332px" zoomAndPan="magnify"><defs/><g><!--class Observer--><g id="elem_Observer"><rect codeLine="1" fill="#F1F1F1" height="67.0679" id="Observer" rx="2.5" ry="2.5" style="stroke:#181818;stroke-width:0.5;" width="225" x="90" y="7"/><ellipse cx="169.75" cy="23" fill="#B4A7E5" rx="11" ry="11" style="stroke:#181818;stroke-width:1.0;"/><path d="M165.7813,29.5 L165.7813,27.7969 L168.1406,27.5313 L168.1406,19.3281 L165.7813,19.0625 L165.7813,17.3594 L172.9219,17.3594 L172.9219,19.0625 L170.5,19.3281 L170.5,27.5313 L172.9219,27.7969 L172.9219,29.5 L165.7813,29.5 Z " fill="#000000"/><text fill="#000000" font-family="sans-serif" font-size="14" font-style="italic" lengthAdjust="spacing" textLength="57" x="190.25" y="28.432">Observer</text><line style="stroke:#181818;stroke-width:0.5;" x1="91" x2="314" y1="39" y2="39"/><line style="stroke:#181818;stroke-width:0.5;" x1="91" x2="314" y1="47" y2="47"/><ellipse cx="101" cy="62.034" fill="#84BE84" rx="3" ry="3" style="stroke:#038048;stroke-width:1.0;"/><text fill="#000000" font-family="sans-serif" font-size="14" lengthAdjust="spacing" textLength="199" x="110" y="65.9659">update(subject: Subject): void</text></g><!--class Subject--><g id="elem_Subject"><rect codeLine="5" fill="#F1F1F1" height="105.2038" id="Subject" rx="2.5" ry="2.5" style="stroke:#181818;stroke-width:0.5;" width="245" x="80" y="261.14"/><ellipse cx="173.25" cy="277.14" fill="#ADD1B2" rx="11" ry="11" style="stroke:#181818;stroke-width:1.0;"/><path d="M172.7188,284.0619 Q170.9688,284.0619 169.8281,283.3275 Q168.7031,282.5775 168.1406,281.2338 Q167.5938,279.8744 167.5938,278.0775 Q167.5938,276.0463 168.25,274.5931 Q168.9063,273.14 170.1875,272.3588 Q171.4688,271.5775 173.3438,271.5775 Q174.2344,271.5775 174.9063,271.765 Q175.5781,271.9369 176.2656,272.2806 L175.4531,274.2963 Q174.8281,273.9838 174.2813,273.8588 Q173.75,273.7338 173.2656,273.7338 Q172.0938,273.7338 171.3906,274.265 Q170.6875,274.7963 170.3906,275.7494 Q170.0938,276.7025 170.0938,277.9681 Q170.0938,279.9838 170.8125,280.9525 Q171.5313,281.9056 173.125,281.9056 Q173.7188,281.9056 174.3438,281.7494 Q174.9688,281.5931 175.7969,281.2181 L175.7969,283.4369 Q175.0625,283.7494 174.2656,283.9056 Q173.4844,284.0619 172.7188,284.0619 Z " fill="#000000"/><text fill="#000000" font-family="sans-serif" font-size="14" lengthAdjust="spacing" textLength="50" x="193.75" y="282.572">Subject</text><line style="stroke:#181818;stroke-width:0.5;" x1="81" x2="324" y1="293.14" y2="293.14"/><line style="stroke:#181818;stroke-width:0.5;" x1="81" x2="324" y1="301.14" y2="301.14"/><ellipse cx="91" cy="316.174" fill="#84BE84" rx="3" ry="3" style="stroke:#038048;stroke-width:1.0;"/><text fill="#000000" font-family="sans-serif" font-size="14" lengthAdjust="spacing" textLength="215" x="100" y="320.1059">attach(observer: Observer): void</text><ellipse cx="91" cy="335.2419" fill="#84BE84" rx="3" ry="3" style="stroke:#038048;stroke-width:1.0;"/><text fill="#000000" font-family="sans-serif" font-size="14" lengthAdjust="spacing" textLength="219" x="100" y="339.1739">detach(observer: Observer): void</text><ellipse cx="91" cy="354.3098" fill="#84BE84" rx="3" ry="3" style="stroke:#038048;stroke-width:1.0;"/><text fill="#000000" font-family="sans-serif" font-size="14" lengthAdjust="spacing" textLength="82" x="100" y="358.2418">notify(): void</text></g><!--class ConcreteObserver--><g id="elem_ConcreteObserver"><rect codeLine="11" fill="#F1F1F1" height="67.0679" id="ConcreteObserver" rx="2.5" ry="2.5" style="stroke:#181818;stroke-width:0.5;" width="225" x="7" y="134.07"/><ellipse cx="54.25" cy="150.07" fill="#ADD1B2" rx="11" ry="11" style="stroke:#181818;stroke-width:1.0;"/><path d="M53.7188,156.9919 Q51.9688,156.9919 50.8281,156.2575 Q49.7031,155.5075 49.1406,154.1637 Q48.5938,152.8044 48.5938,151.0075 Q48.5938,148.9762 49.25,147.5231 Q49.9063,146.07 51.1875,145.2887 Q52.4688,144.5075 54.3438,144.5075 Q55.2344,144.5075 55.9063,144.695 Q56.5781,144.8669 57.2656,145.2106 L56.4531,147.2262 Q55.8281,146.9137 55.2813,146.7887 Q54.75,146.6637 54.2656,146.6637 Q53.0938,146.6637 52.3906,147.195 Q51.6875,147.7262 51.3906,148.6794 Q51.0938,149.6325 51.0938,150.8981 Q51.0938,152.9137 51.8125,153.8825 Q52.5313,154.8356 54.125,154.8356 Q54.7188,154.8356 55.3438,154.6794 Q55.9688,154.5231 56.7969,154.1481 L56.7969,156.3669 Q56.0625,156.6794 55.2656,156.8356 Q54.4844,156.9919 53.7188,156.9919 Z " fill="#000000"/><text fill="#000000" font-family="sans-serif" font-size="14" lengthAdjust="spacing" textLength="122" x="74.75" y="155.502">ConcreteObserver</text><line style="stroke:#181818;stroke-width:0.5;" x1="8" x2="231" y1="166.07" y2="166.07"/><line style="stroke:#181818;stroke-width:0.5;" x1="8" x2="231" y1="174.07" y2="174.07"/><ellipse cx="18" cy="189.104" fill="#84BE84" rx="3" ry="3" style="stroke:#038048;stroke-width:1.0;"/><text fill="#000000" font-family="sans-serif" font-size="14" lengthAdjust="spacing" textLength="199" x="27" y="193.0359">update(subject: Subject): void</text></g><!--reverse link Observer to ConcreteObserver--><g id="link_Observer_ConcreteObserver"><path d="M170.7393,89.3895 C158.5393,107.7795 153.34,115.61 141.16,133.96 " fill="none" id="Observer-backto-ConcreteObserver" style="stroke:#181818;stroke-width:1.0;stroke-dasharray:7.0,7.0;"/><polygon fill="none" points="180.69,74.39,165.7395,86.0726,175.7391,92.7064,180.69,74.39" style="stroke:#181818;stroke-width:1.0;"/></g><!--link Subject to Observer--><g id="link_Subject_Observer"><path codeLine="15" d="M229.45,260.76 C237.58,242.42 245.42,221.33 249.5,201.14 C255.4,171.92 256.44,163.06 249.5,134.07 C244.47,113.04 236.8269,96.5821 226.9469,79.5221 " fill="none" id="Subject-to-Observer" style="stroke:#181818;stroke-width:1.0;"/><polygon fill="#181818" points="223.94,74.33,224.989,84.1228,226.4458,78.6568,231.9118,80.1136,223.94,74.33" style="stroke:#181818;stroke-width:1.0;"/></g><!--link ConcreteObserver to Subject--><g id="link_ConcreteObserver_Subject"><path codeLine="16" d="M138.33,201.31 C148.43,218.83 158.1065,235.6401 169.5165,255.4601 " fill="none" id="ConcreteObserver-to-Subject" style="stroke:#181818;stroke-width:1.0;"/><polygon fill="#181818" points="172.51,260.66,171.4864,250.8645,170.0154,256.3267,164.5532,254.8558,172.51,260.66" style="stroke:#181818;stroke-width:1.0;"/></g><!--SRC=[dKyx3i8m3DrzYen1g1V8q8K3C702DtaLGMrI9MubXBWx59eiNH2UBFjzVH2adYtKkSj82v9wa7hFSPuS2tIUknki67NvBWUZbkWTFOdim3cNUw6n2DkhZfkQgRg5-44v_88AKNn_rplBKmmsGL0Z-t4QC298_gD6AT0qRMNJpcBzRiWN]--></g></svg>