<?xml version="1.0" encoding="us-ascii" standalone="no"?><svg xmlns="http://www.w3.org/2000/svg" xmlns:xlink="http://www.w3.org/1999/xlink" contentStyleType="text/css" height="238px" preserveAspectRatio="none" style="width:452px;height:238px;background:#FFFFFF;" version="1.1" viewBox="0 0 452 238" width="452px" zoomAndPan="magnify"><defs/><g><!--class Builder--><g id="elem_Builder"><rect codeLine="3" fill="#F1F1F1" height="59.0679" id="Builder" rx="2.5" ry="2.5" style="stroke:#181818;stroke-width:0.5;" width="96" x="199.5" y="20.53"/><ellipse cx="223.05" cy="36.53" fill="#B4A7E5" rx="11" ry="11" style="stroke:#181818;stroke-width:1.0;"/><path d="M219.0813,43.03 L219.0813,41.3269 L221.4406,41.0613 L221.4406,32.8581 L219.0813,32.5925 L219.0813,30.8894 L226.2219,30.8894 L226.2219,32.5925 L223.8,32.8581 L223.8,41.0613 L226.2219,41.3269 L226.2219,43.03 L219.0813,43.03 Z " fill="#000000"/><text fill="#000000" font-family="sans-serif" font-size="14" font-style="italic" lengthAdjust="spacing" textLength="45" x="238.95" y="41.962">Builder</text><line style="stroke:#181818;stroke-width:0.5;" x1="200.5" x2="294.5" y1="52.53" y2="52.53"/><ellipse cx="210.5" cy="67.564" fill="#84BE84" rx="3" ry="3" style="stroke:#038048;stroke-width:1.0;"/><text fill="#000000" font-family="sans-serif" font-size="14" lengthAdjust="spacing" textLength="70" x="219.5" y="71.4959">buildPart()</text></g><!--class ConcreteBuilder--><g id="elem_ConcreteBuilder"><rect codeLine="7" fill="#F1F1F1" height="78.1358" id="ConcreteBuilder" rx="2.5" ry="2.5" style="stroke:#181818;stroke-width:0.5;" width="158" x="168.5" y="153.13"/><ellipse cx="191.15" cy="169.13" fill="#ADD1B2" rx="11" ry="11" style="stroke:#181818;stroke-width:1.0;"/><path d="M190.6188,176.0519 Q188.8688,176.0519 187.7281,175.3175 Q186.6031,174.5675 186.0406,173.2238 Q185.4938,171.8644 185.4938,170.0675 Q185.4938,168.0363 186.15,166.5831 Q186.8063,165.13 188.0875,164.3488 Q189.3688,163.5675 191.2438,163.5675 Q192.1344,163.5675 192.8063,163.755 Q193.4781,163.9269 194.1656,164.2706 L193.3531,166.2863 Q192.7281,165.9738 192.1813,165.8488 Q191.65,165.7238 191.1656,165.7238 Q189.9938,165.7238 189.2906,166.255 Q188.5875,166.7863 188.2906,167.7394 Q187.9938,168.6925 187.9938,169.9581 Q187.9938,171.9738 188.7125,172.9425 Q189.4313,173.8956 191.025,173.8956 Q191.6188,173.8956 192.2438,173.7394 Q192.8688,173.5831 193.6969,173.2081 L193.6969,175.4269 Q192.9625,175.7394 192.1656,175.8956 Q191.3844,176.0519 190.6188,176.0519 Z " fill="#000000"/><text fill="#000000" font-family="sans-serif" font-size="14" lengthAdjust="spacing" textLength="109" x="206.85" y="174.562">ConcreteBuilder</text><line style="stroke:#181818;stroke-width:0.5;" x1="169.5" x2="325.5" y1="185.13" y2="185.13"/><ellipse cx="179.5" cy="200.164" fill="#84BE84" rx="3" ry="3" style="stroke:#038048;stroke-width:1.0;"/><text fill="#000000" font-family="sans-serif" font-size="14" lengthAdjust="spacing" textLength="70" x="188.5" y="204.0959">buildPart()</text><ellipse cx="179.5" cy="219.2319" fill="#84BE84" rx="3" ry="3" style="stroke:#038048;stroke-width:1.0;"/><text fill="#000000" font-family="sans-serif" font-size="14" lengthAdjust="spacing" textLength="132" x="188.5" y="223.1639">getResult(): Product</text></g><!--class Director--><g id="elem_Director"><rect codeLine="12" fill="#F1F1F1" height="86.1358" id="Director" rx="2.5" ry="2.5" style="stroke:#181818;stroke-width:0.5;" width="157" x="7" y="7"/><ellipse cx="54.25" cy="23" fill="#ADD1B2" rx="11" ry="11" style="stroke:#181818;stroke-width:1.0;"/><path d="M53.7188,29.9219 Q51.9688,29.9219 50.8281,29.1875 Q49.7031,28.4375 49.1406,27.0938 Q48.5938,25.7344 48.5938,23.9375 Q48.5938,21.9063 49.25,20.4531 Q49.9063,19 51.1875,18.2188 Q52.4688,17.4375 54.3438,17.4375 Q55.2344,17.4375 55.9063,17.625 Q56.5781,17.7969 57.2656,18.1406 L56.4531,20.1563 Q55.8281,19.8438 55.2813,19.7188 Q54.75,19.5938 54.2656,19.5938 Q53.0938,19.5938 52.3906,20.125 Q51.6875,20.6563 51.3906,21.6094 Q51.0938,22.5625 51.0938,23.8281 Q51.0938,25.8438 51.8125,26.8125 Q52.5313,27.7656 54.125,27.7656 Q54.7188,27.7656 55.3438,27.6094 Q55.9688,27.4531 56.7969,27.0781 L56.7969,29.2969 Q56.0625,29.6094 55.2656,29.7656 Q54.4844,29.9219 53.7188,29.9219 Z " fill="#000000"/><text fill="#000000" font-family="sans-serif" font-size="14" lengthAdjust="spacing" textLength="54" x="74.75" y="28.432">Director</text><line style="stroke:#181818;stroke-width:0.5;" x1="8" x2="163" y1="39" y2="39"/><rect fill="none" height="6" style="stroke:#C82930;stroke-width:1.0;" width="6" x="15" y="51.034"/><text fill="#000000" font-family="sans-serif" font-size="14" lengthAdjust="spacing" textLength="106" x="27" y="57.9659">builder: Builder</text><line style="stroke:#181818;stroke-width:0.5;" x1="8" x2="163" y1="66.0679" y2="66.0679"/><ellipse cx="18" cy="81.1019" fill="#84BE84" rx="3" ry="3" style="stroke:#038048;stroke-width:1.0;"/><text fill="#000000" font-family="sans-serif" font-size="14" lengthAdjust="spacing" textLength="131" x="27" y="85.0339">construct(): Product</text></g><!--class Product--><g id="elem_Product"><rect codeLine="17" fill="#F1F1F1" height="32" id="Product" rx="2.5" ry="2.5" style="stroke:#181818;stroke-width:0.5;" width="84" x="361.5" y="176.2"/><ellipse cx="376.5" cy="192.2" fill="#ADD1B2" rx="11" ry="11" style="stroke:#181818;stroke-width:1.0;"/><path d="M375.9688,199.1219 Q374.2188,199.1219 373.0781,198.3875 Q371.9531,197.6375 371.3906,196.2938 Q370.8438,194.9344 370.8438,193.1375 Q370.8438,191.1063 371.5,189.6531 Q372.1563,188.2 373.4375,187.4188 Q374.7188,186.6375 376.5938,186.6375 Q377.4844,186.6375 378.1563,186.825 Q378.8281,186.9969 379.5156,187.3406 L378.7031,189.3563 Q378.0781,189.0438 377.5313,188.9188 Q377,188.7938 376.5156,188.7938 Q375.3438,188.7938 374.6406,189.325 Q373.9375,189.8563 373.6406,190.8094 Q373.3438,191.7625 373.3438,193.0281 Q373.3438,195.0438 374.0625,196.0125 Q374.7813,196.9656 376.375,196.9656 Q376.9688,196.9656 377.5938,196.8094 Q378.2188,196.6531 379.0469,196.2781 L379.0469,198.4969 Q378.3125,198.8094 377.5156,198.9656 Q376.7344,199.1219 375.9688,199.1219 Z " fill="#000000"/><text fill="#000000" font-family="sans-serif" font-size="14" lengthAdjust="spacing" textLength="52" x="390.5" y="197.632">Product</text></g><!--reverse link Builder to ConcreteBuilder--><g id="link_Builder_ConcreteBuilder"><path d="M247.5,97.76 C247.5,118.82 247.5,129.65 247.5,152.71 " fill="none" id="Builder-backto-ConcreteBuilder" style="stroke:#181818;stroke-width:1.0;stroke-dasharray:7.0,7.0;"/><polygon fill="none" points="247.5,79.76,241.5,97.76,253.5,97.76,247.5,79.76" style="stroke:#181818;stroke-width:1.0;"/></g><!--link Director to Builder--><g id="link_Director_Builder"><path codeLine="19" d="M176.29,50.07 C187.88,50.07 181.47,50.07 193.07,50.07 " fill="none" id="Director-Builder" style="stroke:#181818;stroke-width:1.0;"/><polygon fill="none" points="164.29,50.07,170.29,54.07,176.29,50.07,170.29,46.07,164.29,50.07" style="stroke:#181818;stroke-width:1.0;"/><polygon fill="#181818" points="199.07,50.07,190.07,46.07,194.07,50.07,190.07,54.07,199.07,50.07" style="stroke:#181818;stroke-width:1.0;"/></g><!--link ConcreteBuilder to Product--><g id="link_ConcreteBuilder_Product"><path codeLine="20" d="M326.72,192.2 C338.22,192.2 343.71,192.2 355.21,192.2 " fill="none" id="ConcreteBuilder-to-Product" style="stroke:#181818;stroke-width:1.0;"/><polygon fill="#181818" points="361.21,192.2,352.21,188.2,356.21,192.2,352.21,196.2,361.21,192.2" style="stroke:#181818;stroke-width:1.0;"/></g><!--SRC=[TOux3i8m44Hxds9B4Ce5Kb001uYuWMCFOCcVQBqkKCJTSPGF4e9oPkSzxSDP4C8WJme8FJWhvQA0Rzg0JiLv2wPH4HtwANIQPRTNBwMCrpdJEKN34AnB5mQFW2ZvFrpZ7N95Bhx6bZfEjXZvI2-EOIJDQDFFddOLJhn9CGjNw2U_53JMPdEbvhWPlh-kfuLv0m00]--></g></svg>