<?xml version="1.0" encoding="us-ascii" standalone="no"?><svg xmlns="http://www.w3.org/2000/svg" xmlns:xlink="http://www.w3.org/1999/xlink" contentStyleType="text/css" height="335px" preserveAspectRatio="none" style="width:289px;height:335px;background:#FFFFFF;" version="1.1" viewBox="0 0 289 335" width="289px" zoomAndPan="magnify"><defs/><g><!--class Flyweight--><g id="elem_Flyweight"><rect codeLine="1" fill="#F1F1F1" height="67.0679" id="Flyweight" rx="2.5" ry="2.5" style="stroke:#181818;stroke-width:0.5;" width="275" x="7" y="134.06"/><ellipse cx="108.25" cy="150.06" fill="#ADD1B2" rx="11" ry="11" style="stroke:#181818;stroke-width:1.0;"/><path d="M107.7188,156.9819 Q105.9688,156.9819 104.8281,156.2475 Q103.7031,155.4975 103.1406,154.1538 Q102.5938,152.7944 102.5938,150.9975 Q102.5938,148.9663 103.25,147.5131 Q103.9063,146.06 105.1875,145.2788 Q106.4688,144.4975 108.3438,144.4975 Q109.2344,144.4975 109.9063,144.685 Q110.5781,144.8569 111.2656,145.2006 L110.4531,147.2163 Q109.8281,146.9038 109.2813,146.7788 Q108.75,146.6538 108.2656,146.6538 Q107.0938,146.6538 106.3906,147.185 Q105.6875,147.7163 105.3906,148.6694 Q105.0938,149.6225 105.0938,150.8881 Q105.0938,152.9038 105.8125,153.8725 Q106.5313,154.8256 108.125,154.8256 Q108.7188,154.8256 109.3438,154.6694 Q109.9688,154.5131 110.7969,154.1381 L110.7969,156.3569 Q110.0625,156.6694 109.2656,156.8256 Q108.4844,156.9819 107.7188,156.9819 Z " fill="#000000"/><text fill="#000000" font-family="sans-serif" font-size="14" lengthAdjust="spacing" textLength="64" x="128.75" y="155.492">Flyweight</text><line style="stroke:#181818;stroke-width:0.5;" x1="8" x2="281" y1="166.06" y2="166.06"/><line style="stroke:#181818;stroke-width:0.5;" x1="8" x2="281" y1="174.06" y2="174.06"/><ellipse cx="18" cy="189.094" fill="#84BE84" rx="3" ry="3" style="stroke:#038048;stroke-width:1.0;"/><text fill="#000000" font-family="sans-serif" font-size="14" lengthAdjust="spacing" textLength="249" x="27" y="193.0259">operation(extrinsicState: String): void</text></g><!--class ConcreteFlyweight--><g id="elem_ConcreteFlyweight"><rect codeLine="5" fill="#F1F1F1" height="67.0679" id="ConcreteFlyweight" rx="2.5" ry="2.5" style="stroke:#181818;stroke-width:0.5;" width="275" x="7" y="261.13"/><ellipse cx="78.25" cy="277.13" fill="#ADD1B2" rx="11" ry="11" style="stroke:#181818;stroke-width:1.0;"/><path d="M77.7188,284.0519 Q75.9688,284.0519 74.8281,283.3175 Q73.7031,282.5675 73.1406,281.2238 Q72.5938,279.8644 72.5938,278.0675 Q72.5938,276.0363 73.25,274.5831 Q73.9063,273.13 75.1875,272.3488 Q76.4688,271.5675 78.3438,271.5675 Q79.2344,271.5675 79.9063,271.755 Q80.5781,271.9269 81.2656,272.2706 L80.4531,274.2863 Q79.8281,273.9738 79.2813,273.8488 Q78.75,273.7238 78.2656,273.7238 Q77.0938,273.7238 76.3906,274.255 Q75.6875,274.7863 75.3906,275.7394 Q75.0938,276.6925 75.0938,277.9581 Q75.0938,279.9738 75.8125,280.9425 Q76.5313,281.8956 78.125,281.8956 Q78.7188,281.8956 79.3438,281.7394 Q79.9688,281.5831 80.7969,281.2081 L80.7969,283.4269 Q80.0625,283.7394 79.2656,283.8956 Q78.4844,284.0519 77.7188,284.0519 Z " fill="#000000"/><text fill="#000000" font-family="sans-serif" font-size="14" lengthAdjust="spacing" textLength="124" x="98.75" y="282.562">ConcreteFlyweight</text><line style="stroke:#181818;stroke-width:0.5;" x1="8" x2="281" y1="293.13" y2="293.13"/><line style="stroke:#181818;stroke-width:0.5;" x1="8" x2="281" y1="301.13" y2="301.13"/><ellipse cx="18" cy="316.164" fill="#84BE84" rx="3" ry="3" style="stroke:#038048;stroke-width:1.0;"/><text fill="#000000" font-family="sans-serif" font-size="14" lengthAdjust="spacing" textLength="249" x="27" y="320.0959">operation(extrinsicState: String): void</text></g><!--class FlyweightFactory--><g id="elem_FlyweightFactory"><rect codeLine="9" fill="#F1F1F1" height="67.0679" id="FlyweightFactory" rx="2.5" ry="2.5" style="stroke:#181818;stroke-width:0.5;" width="263" x="13" y="7"/><ellipse cx="84.25" cy="23" fill="#ADD1B2" rx="11" ry="11" style="stroke:#181818;stroke-width:1.0;"/><path d="M83.7188,29.9219 Q81.9688,29.9219 80.8281,29.1875 Q79.7031,28.4375 79.1406,27.0938 Q78.5938,25.7344 78.5938,23.9375 Q78.5938,21.9063 79.25,20.4531 Q79.9063,19 81.1875,18.2188 Q82.4688,17.4375 84.3438,17.4375 Q85.2344,17.4375 85.9063,17.625 Q86.5781,17.7969 87.2656,18.1406 L86.4531,20.1563 Q85.8281,19.8438 85.2813,19.7188 Q84.75,19.5938 84.2656,19.5938 Q83.0938,19.5938 82.3906,20.125 Q81.6875,20.6563 81.3906,21.6094 Q81.0938,22.5625 81.0938,23.8281 Q81.0938,25.8438 81.8125,26.8125 Q82.5313,27.7656 84.125,27.7656 Q84.7188,27.7656 85.3438,27.6094 Q85.9688,27.4531 86.7969,27.0781 L86.7969,29.2969 Q86.0625,29.6094 85.2656,29.7656 Q84.4844,29.9219 83.7188,29.9219 Z " fill="#000000"/><text fill="#000000" font-family="sans-serif" font-size="14" lengthAdjust="spacing" textLength="112" x="104.75" y="28.432">FlyweightFactory</text><line style="stroke:#181818;stroke-width:0.5;" x1="14" x2="275" y1="39" y2="39"/><line style="stroke:#181818;stroke-width:0.5;" x1="14" x2="275" y1="47" y2="47"/><ellipse cx="24" cy="62.034" fill="#84BE84" rx="3" ry="3" style="stroke:#038048;stroke-width:1.0;"/><text fill="#000000" font-family="sans-serif" font-size="14" lengthAdjust="spacing" textLength="237" x="33" y="65.9659">getFlyweight(key: String): Flyweight</text></g><!--reverse link Flyweight to ConcreteFlyweight--><g id="link_Flyweight_ConcreteFlyweight"><path d="M130.9488,219.3656 C129.0588,237.7456 130.9,242.68 132.81,261.03 " fill="none" id="Flyweight-backto-ConcreteFlyweight" style="stroke:#181818;stroke-width:1.0;stroke-dasharray:7.0,7.0;"/><polygon fill="none" points="132.79,201.46,124.9803,218.7518,136.9173,219.9793,132.79,201.46" style="stroke:#181818;stroke-width:1.0;"/></g><!--link ConcreteFlyweight to Flyweight--><g id="link_ConcreteFlyweight_Flyweight"><path codeLine="14" d="M156.19,261.03 C158.1,242.68 158.7137,225.8085 156.8237,207.4285 " fill="none" id="ConcreteFlyweight-to-Flyweight" style="stroke:#181818;stroke-width:1.0;"/><polygon fill="#181818" points="156.21,201.46,153.1516,210.822,156.7214,206.4338,161.1096,210.0036,156.21,201.46" style="stroke:#181818;stroke-width:1.0;"/></g><!--link FlyweightFactory to Flyweight--><g id="link_FlyweightFactory_Flyweight"><path codeLine="13" d="M144.5,74.39 C144.5,92.77 144.5,109.61 144.5,127.96 " fill="none" id="FlyweightFactory-to-Flyweight" style="stroke:#181818;stroke-width:1.0;"/><polygon fill="#181818" points="144.5,133.96,148.5,124.96,144.5,128.96,140.5,124.96,144.5,133.96" style="stroke:#181818;stroke-width:1.0;"/></g><!--SRC=[Iyv9B2vMSCkfB4_DJCyeKQZcKW02xVo2rAB4aipyF8tKYfAYpBpYpEJWaiIIL2k5O10tNTDAeIm_CuMhbeih6Mo2StvUSb5gIIh2fCpSWfpKtDIy4ceO3pV1BJ6v9B-e4cPGUce9N4eZExKIoG2uECWK3FswkdP8AZ1TZo8F0000]--></g></svg>