<?xml version="1.0" encoding="us-ascii" standalone="no"?><svg xmlns="http://www.w3.org/2000/svg" xmlns:xlink="http://www.w3.org/1999/xlink" contentStyleType="text/css" height="219px" preserveAspectRatio="none" style="width:694px;height:219px;background:#FFFFFF;" version="1.1" viewBox="0 0 694 219" width="694px" zoomAndPan="magnify"><defs/><g><!--class Client--><g id="elem_Client"><rect codeLine="3" fill="#F1F1F1" height="32" id="Client" rx="2.5" ry="2.5" style="stroke:#181818;stroke-width:0.5;" width="71" x="7" y="20.53"/><ellipse cx="22" cy="36.53" fill="#ADD1B2" rx="11" ry="11" style="stroke:#181818;stroke-width:1.0;"/><path d="M21.4688,43.4519 Q19.7188,43.4519 18.5781,42.7175 Q17.4531,41.9675 16.8906,40.6238 Q16.3438,39.2644 16.3438,37.4675 Q16.3438,35.4363 17,33.9831 Q17.6563,32.53 18.9375,31.7488 Q20.2188,30.9675 22.0938,30.9675 Q22.9844,30.9675 23.6563,31.155 Q24.3281,31.3269 25.0156,31.6706 L24.2031,33.6863 Q23.5781,33.3738 23.0313,33.2488 Q22.5,33.1238 22.0156,33.1238 Q20.8438,33.1238 20.1406,33.655 Q19.4375,34.1863 19.1406,35.1394 Q18.8438,36.0925 18.8438,37.3581 Q18.8438,39.3738 19.5625,40.3425 Q20.2813,41.2956 21.875,41.2956 Q22.4688,41.2956 23.0938,41.1394 Q23.7188,40.9831 24.5469,40.6081 L24.5469,42.8269 Q23.8125,43.1394 23.0156,43.2956 Q22.2344,43.4519 21.4688,43.4519 Z " fill="#000000"/><text fill="#000000" font-family="sans-serif" font-size="14" lengthAdjust="spacing" textLength="39" x="36" y="41.962">Client</text></g><!--class Flyweight--><g id="elem_Flyweight"><rect codeLine="5" fill="#F1F1F1" height="59.0679" id="Flyweight" rx="2.5" ry="2.5" style="stroke:#181818;stroke-width:0.5;" width="190" x="361.5" y="7"/><ellipse cx="420.25" cy="23" fill="#ADD1B2" rx="11" ry="11" style="stroke:#181818;stroke-width:1.0;"/><path d="M419.7188,29.9219 Q417.9688,29.9219 416.8281,29.1875 Q415.7031,28.4375 415.1406,27.0938 Q414.5938,25.7344 414.5938,23.9375 Q414.5938,21.9063 415.25,20.4531 Q415.9063,19 417.1875,18.2188 Q418.4688,17.4375 420.3438,17.4375 Q421.2344,17.4375 421.9063,17.625 Q422.5781,17.7969 423.2656,18.1406 L422.4531,20.1563 Q421.8281,19.8438 421.2813,19.7188 Q420.75,19.5938 420.2656,19.5938 Q419.0938,19.5938 418.3906,20.125 Q417.6875,20.6563 417.3906,21.6094 Q417.0938,22.5625 417.0938,23.8281 Q417.0938,25.8438 417.8125,26.8125 Q418.5313,27.7656 420.125,27.7656 Q420.7188,27.7656 421.3438,27.6094 Q421.9688,27.4531 422.7969,27.0781 L422.7969,29.2969 Q422.0625,29.6094 421.2656,29.7656 Q420.4844,29.9219 419.7188,29.9219 Z " fill="#000000"/><text fill="#000000" font-family="sans-serif" font-size="14" lengthAdjust="spacing" textLength="64" x="440.75" y="28.432">Flyweight</text><line style="stroke:#181818;stroke-width:0.5;" x1="362.5" x2="550.5" y1="39" y2="39"/><ellipse cx="372.5" cy="54.034" fill="#84BE84" rx="3" ry="3" style="stroke:#038048;stroke-width:1.0;"/><text fill="#000000" font-family="sans-serif" font-size="14" lengthAdjust="spacing" textLength="164" x="381.5" y="57.9659">operation(extrinsicState)</text></g><!--class FlyweightFactory--><g id="elem_FlyweightFactory"><rect codeLine="10" fill="#F1F1F1" height="59.0679" id="FlyweightFactory" rx="2.5" ry="2.5" style="stroke:#181818;stroke-width:0.5;" width="214" x="112.5" y="7"/><ellipse cx="159.25" cy="23" fill="#ADD1B2" rx="11" ry="11" style="stroke:#181818;stroke-width:1.0;"/><path d="M158.7188,29.9219 Q156.9688,29.9219 155.8281,29.1875 Q154.7031,28.4375 154.1406,27.0938 Q153.5938,25.7344 153.5938,23.9375 Q153.5938,21.9063 154.25,20.4531 Q154.9063,19 156.1875,18.2188 Q157.4688,17.4375 159.3438,17.4375 Q160.2344,17.4375 160.9063,17.625 Q161.5781,17.7969 162.2656,18.1406 L161.4531,20.1563 Q160.8281,19.8438 160.2813,19.7188 Q159.75,19.5938 159.2656,19.5938 Q158.0938,19.5938 157.3906,20.125 Q156.6875,20.6563 156.3906,21.6094 Q156.0938,22.5625 156.0938,23.8281 Q156.0938,25.8438 156.8125,26.8125 Q157.5313,27.7656 159.125,27.7656 Q159.7188,27.7656 160.3438,27.6094 Q160.9688,27.4531 161.7969,27.0781 L161.7969,29.2969 Q161.0625,29.6094 160.2656,29.7656 Q159.4844,29.9219 158.7188,29.9219 Z " fill="#000000"/><text fill="#000000" font-family="sans-serif" font-size="14" lengthAdjust="spacing" textLength="112" x="179.75" y="28.432">FlyweightFactory</text><line style="stroke:#181818;stroke-width:0.5;" x1="113.5" x2="325.5" y1="39" y2="39"/><ellipse cx="123.5" cy="54.034" fill="#84BE84" rx="3" ry="3" style="stroke:#038048;stroke-width:1.0;"/><text fill="#000000" font-family="sans-serif" font-size="14" lengthAdjust="spacing" textLength="188" x="132.5" y="57.9659">getFlyweight(key): Flyweight</text></g><!--class ConcreteFlyweight--><g id="elem_ConcreteFlyweight"><rect codeLine="14" fill="#F1F1F1" height="86.1358" id="ConcreteFlyweight" rx="2.5" ry="2.5" style="stroke:#181818;stroke-width:0.5;" width="190" x="240.5" y="126.06"/><ellipse cx="270.8" cy="142.06" fill="#ADD1B2" rx="11" ry="11" style="stroke:#181818;stroke-width:1.0;"/><path d="M270.2688,148.9819 Q268.5188,148.9819 267.3781,148.2475 Q266.2531,147.4975 265.6906,146.1538 Q265.1438,144.7944 265.1438,142.9975 Q265.1438,140.9663 265.8,139.5131 Q266.4563,138.06 267.7375,137.2788 Q269.0188,136.4975 270.8938,136.4975 Q271.7844,136.4975 272.4563,136.685 Q273.1281,136.8569 273.8156,137.2006 L273.0031,139.2163 Q272.3781,138.9038 271.8313,138.7788 Q271.3,138.6538 270.8156,138.6538 Q269.6438,138.6538 268.9406,139.185 Q268.2375,139.7163 267.9406,140.6694 Q267.6438,141.6225 267.6438,142.8881 Q267.6438,144.9038 268.3625,145.8725 Q269.0813,146.8256 270.675,146.8256 Q271.2688,146.8256 271.8938,146.6694 Q272.5188,146.5131 273.3469,146.1381 L273.3469,148.3569 Q272.6125,148.6694 271.8156,148.8256 Q271.0344,148.9819 270.2688,148.9819 Z " fill="#000000"/><text fill="#000000" font-family="sans-serif" font-size="14" lengthAdjust="spacing" textLength="124" x="288.2" y="147.492">ConcreteFlyweight</text><line style="stroke:#181818;stroke-width:0.5;" x1="241.5" x2="429.5" y1="158.06" y2="158.06"/><rect fill="none" height="6" style="stroke:#C82930;stroke-width:1.0;" width="6" x="248.5" y="170.094"/><text fill="#000000" font-family="sans-serif" font-size="14" lengthAdjust="spacing" textLength="89" x="260.5" y="177.0259">intrinsicState</text><line style="stroke:#181818;stroke-width:0.5;" x1="241.5" x2="429.5" y1="185.1279" y2="185.1279"/><ellipse cx="251.5" cy="200.1619" fill="#84BE84" rx="3" ry="3" style="stroke:#038048;stroke-width:1.0;"/><text fill="#000000" font-family="sans-serif" font-size="14" lengthAdjust="spacing" textLength="164" x="260.5" y="204.0939">operation(extrinsicState)</text></g><!--class UnsharedConcreteFlyweight--><g id="elem_UnsharedConcreteFlyweight"><rect codeLine="19" fill="#F1F1F1" height="86.1358" id="UnsharedConcreteFlyweight" rx="2.5" ry="2.5" style="stroke:#181818;stroke-width:0.5;" width="222" x="465.5" y="126.06"/><ellipse cx="480.5" cy="142.06" fill="#ADD1B2" rx="11" ry="11" style="stroke:#181818;stroke-width:1.0;"/><path d="M479.9688,148.9819 Q478.2188,148.9819 477.0781,148.2475 Q475.9531,147.4975 475.3906,146.1538 Q474.8438,144.7944 474.8438,142.9975 Q474.8438,140.9663 475.5,139.5131 Q476.1563,138.06 477.4375,137.2788 Q478.7188,136.4975 480.5938,136.4975 Q481.4844,136.4975 482.1563,136.685 Q482.8281,136.8569 483.5156,137.2006 L482.7031,139.2163 Q482.0781,138.9038 481.5313,138.7788 Q481,138.6538 480.5156,138.6538 Q479.3438,138.6538 478.6406,139.185 Q477.9375,139.7163 477.6406,140.6694 Q477.3438,141.6225 477.3438,142.8881 Q477.3438,144.9038 478.0625,145.8725 Q478.7813,146.8256 480.375,146.8256 Q480.9688,146.8256 481.5938,146.6694 Q482.2188,146.5131 483.0469,146.1381 L483.0469,148.3569 Q482.3125,148.6694 481.5156,148.8256 Q480.7344,148.9819 479.9688,148.9819 Z " fill="#000000"/><text fill="#000000" font-family="sans-serif" font-size="14" lengthAdjust="spacing" textLength="190" x="494.5" y="147.492">UnsharedConcreteFlyweight</text><line style="stroke:#181818;stroke-width:0.5;" x1="466.5" x2="686.5" y1="158.06" y2="158.06"/><rect fill="none" height="6" style="stroke:#C82930;stroke-width:1.0;" width="6" x="473.5" y="170.094"/><text fill="#000000" font-family="sans-serif" font-size="14" lengthAdjust="spacing" textLength="56" x="485.5" y="177.0259">fullState</text><line style="stroke:#181818;stroke-width:0.5;" x1="466.5" x2="686.5" y1="185.1279" y2="185.1279"/><ellipse cx="476.5" cy="200.1619" fill="#84BE84" rx="3" ry="3" style="stroke:#038048;stroke-width:1.0;"/><text fill="#000000" font-family="sans-serif" font-size="14" lengthAdjust="spacing" textLength="164" x="485.5" y="204.0939">operation(extrinsicState)</text></g><!--reverse link Flyweight to ConcreteFlyweight--><g id="link_Flyweight_ConcreteFlyweight"><path d="M417.4141,79.7117 C401.3241,97.0717 392.83,106.25 374.91,125.59 " fill="none" id="Flyweight-backto-ConcreteFlyweight" style="stroke:#181818;stroke-width:1.0;stroke-dasharray:7.0,7.0;"/><polygon fill="none" points="429.65,66.51,413.0136,75.633,421.8147,83.7903,429.65,66.51" style="stroke:#181818;stroke-width:1.0;"/></g><!--reverse link Flyweight to UnsharedConcreteFlyweight--><g id="link_Flyweight_UnsharedConcreteFlyweight"><path d="M495.3082,79.7648 C511.2582,97.1248 519.65,106.25 537.41,125.59 " fill="none" id="Flyweight-backto-UnsharedConcreteFlyweight" style="stroke:#181818;stroke-width:1.0;stroke-dasharray:7.0,7.0;"/><polygon fill="none" points="483.13,66.51,490.89,83.8242,499.7265,75.7054,483.13,66.51" style="stroke:#181818;stroke-width:1.0;"/></g><!--link Client to FlyweightFactory--><g id="link_Client_FlyweightFactory"><path codeLine="24" d="M78.45,36.53 C89.66,36.53 94.86,36.53 106.06,36.53 " fill="none" id="Client-to-FlyweightFactory" style="stroke:#181818;stroke-width:1.0;"/><polygon fill="#181818" points="112.06,36.53,103.06,32.53,107.06,36.53,103.06,40.53,112.06,36.53" style="stroke:#181818;stroke-width:1.0;"/></g><!--link FlyweightFactory to Flyweight--><g id="link_FlyweightFactory_Flyweight"><path codeLine="25" d="M338.89,36.53 C350.28,36.53 343.67,36.53 355.06,36.53 " fill="none" id="FlyweightFactory-Flyweight" style="stroke:#181818;stroke-width:1.0;"/><polygon fill="#181818" points="326.89,36.53,332.89,40.53,338.89,36.53,332.89,32.53,326.89,36.53" style="stroke:#181818;stroke-width:1.0;"/><polygon fill="#181818" points="361.06,36.53,352.06,32.53,356.06,36.53,352.06,40.53,361.06,36.53" style="stroke:#181818;stroke-width:1.0;"/><text fill="#000000" font-family="sans-serif" font-size="13" lengthAdjust="spacing" textLength="7" x="334.3404" y="32.8794">*</text></g><!--SRC=[ZP1D3e8m48NtFKNZ2Z1Sm8KR4YvWF40jJvZO5jAEqOPuTqcGdyY6sKrcNhulhw4A4hRZA2ti3Ju8eOqAGHQ6uBZ_J7jfuWjKDonx8OSvjXsyOcfTWZTxSe7qXHKZ5KFcFrGgpQsFKxO6pwVaWPYUbbSn8ulMQG_6WYRR6TZ1Q-kJarjRx70S8LSN6kLHxOFzMFUdCNinOv4oFs_Q49jw3jaXMpz-0G00]--></g></svg>