<?xml version="1.0" encoding="us-ascii" standalone="no"?><svg xmlns="http://www.w3.org/2000/svg" xmlns:xlink="http://www.w3.org/1999/xlink" contentStyleType="text/css" height="265px" preserveAspectRatio="none" style="width:220px;height:265px;background:#FFFFFF;" version="1.1" viewBox="0 0 220 265" width="220px" zoomAndPan="magnify"><defs/><g><!--class AbstractClass--><g id="elem_AbstractClass"><rect codeLine="1" fill="#F1F1F1" height="105.2038" id="AbstractClass" rx="2.5" ry="2.5" style="stroke:#181818;stroke-width:0.5;" width="206" x="7" y="7"/><ellipse cx="63.75" cy="23" fill="#A9DCDF" rx="11" ry="11" style="stroke:#181818;stroke-width:1.0;"/><path d="M58.9219,28.75 L62.2656,16.5625 L65.4063,16.5625 L68.7813,28.75 L66.3125,28.75 L65.5781,25.7344 L62.0625,25.7344 L61.3125,28.75 L58.9219,28.75 Z M63.3281,20.7031 L62.5781,23.7031 L65.0938,23.7031 L64.375,20.7031 Q64.2344,20.125 64.1094,19.5781 Q63.9844,19.0156 63.8438,18.4375 Q63.7344,19.0156 63.5938,19.5781 Q63.4531,20.125 63.3281,20.7031 Z " fill="#000000"/><text fill="#000000" font-family="sans-serif" font-size="14" font-style="italic" lengthAdjust="spacing" textLength="84" x="84.25" y="28.432">AbstractClass</text><line style="stroke:#181818;stroke-width:0.5;" x1="8" x2="212" y1="39" y2="39"/><line style="stroke:#181818;stroke-width:0.5;" x1="8" x2="212" y1="47" y2="47"/><ellipse cx="18" cy="62.034" fill="#84BE84" rx="3" ry="3" style="stroke:#038048;stroke-width:1.0;"/><text fill="#000000" font-family="sans-serif" font-size="14" lengthAdjust="spacing" textLength="156" x="27" y="65.9659">templateMethod(): void</text><ellipse cx="18" cy="81.1019" fill="#84BE84" rx="3" ry="3" style="stroke:#038048;stroke-width:1.0;"/><text fill="#000000" font-family="sans-serif" font-size="14" lengthAdjust="spacing" textLength="180" x="27" y="85.0339">primitiveOperation1(): void</text><ellipse cx="18" cy="100.1698" fill="#84BE84" rx="3" ry="3" style="stroke:#038048;stroke-width:1.0;"/><text fill="#000000" font-family="sans-serif" font-size="14" lengthAdjust="spacing" textLength="180" x="27" y="104.1018">primitiveOperation2(): void</text></g><!--class ConcreteClass--><g id="elem_ConcreteClass"><rect codeLine="7" fill="#F1F1F1" height="86.1358" id="ConcreteClass" rx="2.5" ry="2.5" style="stroke:#181818;stroke-width:0.5;" width="206" x="7" y="172.2"/><ellipse cx="58.25" cy="188.2" fill="#ADD1B2" rx="11" ry="11" style="stroke:#181818;stroke-width:1.0;"/><path d="M57.7188,195.1219 Q55.9688,195.1219 54.8281,194.3875 Q53.7031,193.6375 53.1406,192.2938 Q52.5938,190.9344 52.5938,189.1375 Q52.5938,187.1063 53.25,185.6531 Q53.9063,184.2 55.1875,183.4188 Q56.4688,182.6375 58.3438,182.6375 Q59.2344,182.6375 59.9063,182.825 Q60.5781,182.9969 61.2656,183.3406 L60.4531,185.3563 Q59.8281,185.0438 59.2813,184.9188 Q58.75,184.7938 58.2656,184.7938 Q57.0938,184.7938 56.3906,185.325 Q55.6875,185.8563 55.3906,186.8094 Q55.0938,187.7625 55.0938,189.0281 Q55.0938,191.0438 55.8125,192.0125 Q56.5313,192.9656 58.125,192.9656 Q58.7188,192.9656 59.3438,192.8094 Q59.9688,192.6531 60.7969,192.2781 L60.7969,194.4969 Q60.0625,194.8094 59.2656,194.9656 Q58.4844,195.1219 57.7188,195.1219 Z " fill="#000000"/><text fill="#000000" font-family="sans-serif" font-size="14" lengthAdjust="spacing" textLength="95" x="78.75" y="193.632">ConcreteClass</text><line style="stroke:#181818;stroke-width:0.5;" x1="8" x2="212" y1="204.2" y2="204.2"/><line style="stroke:#181818;stroke-width:0.5;" x1="8" x2="212" y1="212.2" y2="212.2"/><ellipse cx="18" cy="227.234" fill="#84BE84" rx="3" ry="3" style="stroke:#038048;stroke-width:1.0;"/><text fill="#000000" font-family="sans-serif" font-size="14" lengthAdjust="spacing" textLength="180" x="27" y="231.1659">primitiveOperation1(): void</text><ellipse cx="18" cy="246.3019" fill="#84BE84" rx="3" ry="3" style="stroke:#038048;stroke-width:1.0;"/><text fill="#000000" font-family="sans-serif" font-size="14" lengthAdjust="spacing" textLength="180" x="27" y="250.2339">primitiveOperation2(): void</text></g><!--reverse link AbstractClass to ConcreteClass--><g id="link_AbstractClass_ConcreteClass"><path d="M96.5608,130.6055 C95.5508,149.9355 96.7,153.63 98.13,171.99 " fill="none" id="AbstractClass-backto-ConcreteClass" style="stroke:#181818;stroke-width:1.0;"/><polygon fill="none" points="97.5,112.63,90.5689,130.2924,102.5526,130.9186,97.5,112.63" style="stroke:#181818;stroke-width:1.0;"/></g><!--reverse link AbstractClass to ConcreteClass--><g id="link_AbstractClass_ConcreteClass"><path codeLine="12" d="M123.4392,130.6055 C124.4492,149.9355 123.3,153.63 121.87,171.99 " fill="none" id="AbstractClass-backto-ConcreteClass-1" style="stroke:#181818;stroke-width:1.0;"/><polygon fill="none" points="122.5,112.63,117.4474,130.9186,129.4311,130.2924,122.5,112.63" style="stroke:#181818;stroke-width:1.0;"/></g><!--SRC=[IqmgBYbAJ2vHICv9B2vMS8HodS6yQYu58D0kISqjo4aiIVLDBSd8Jz7Gj58eoyzCWSWL56NcPfPabgNw5wGM9PPavkSP4b9W15TGoyK5iTOvFo-vABKa5M9jQaL9QbuA3iTGQY6geJOrkhgejWC0]--></g></svg>