<?xml version="1.0" encoding="us-ascii" standalone="no"?><svg xmlns="http://www.w3.org/2000/svg" xmlns:xlink="http://www.w3.org/1999/xlink" contentStyleType="text/css" height="246px" preserveAspectRatio="none" style="width:781px;height:246px;background:#FFFFFF;" version="1.1" viewBox="0 0 781 246" width="781px" zoomAndPan="magnify"><defs/><g><!--class Visitor--><g id="elem_Visitor"><rect codeLine="1" fill="#F1F1F1" height="86.1358" id="Visitor" rx="2.5" ry="2.5" style="stroke:#181818;stroke-width:0.5;" width="288" x="7" y="7"/><ellipse cx="126.25" cy="23" fill="#B4A7E5" rx="11" ry="11" style="stroke:#181818;stroke-width:1.0;"/><path d="M122.2813,29.5 L122.2813,27.7969 L124.6406,27.5313 L124.6406,19.3281 L122.2813,19.0625 L122.2813,17.3594 L129.4219,17.3594 L129.4219,19.0625 L127,19.3281 L127,27.5313 L129.4219,27.7969 L129.4219,29.5 L122.2813,29.5 Z " fill="#000000"/><text fill="#000000" font-family="sans-serif" font-size="14" font-style="italic" lengthAdjust="spacing" textLength="41" x="146.75" y="28.432">Visitor</text><line style="stroke:#181818;stroke-width:0.5;" x1="8" x2="294" y1="39" y2="39"/><line style="stroke:#181818;stroke-width:0.5;" x1="8" x2="294" y1="47" y2="47"/><ellipse cx="18" cy="62.034" fill="#84BE84" rx="3" ry="3" style="stroke:#038048;stroke-width:1.0;"/><text fill="#000000" font-family="sans-serif" font-size="14" lengthAdjust="spacing" textLength="262" x="27" y="65.9659">visitElementA(element: ElementA): void</text><ellipse cx="18" cy="81.1019" fill="#84BE84" rx="3" ry="3" style="stroke:#038048;stroke-width:1.0;"/><text fill="#000000" font-family="sans-serif" font-size="14" lengthAdjust="spacing" textLength="262" x="27" y="85.0339">visitElementB(element: ElementB): void</text></g><!--class Element--><g id="elem_Element"><rect codeLine="6" fill="#F1F1F1" height="67.0679" id="Element" rx="2.5" ry="2.5" style="stroke:#181818;stroke-width:0.5;" width="205" x="449.5" y="16.53"/><ellipse cx="522.75" cy="32.53" fill="#B4A7E5" rx="11" ry="11" style="stroke:#181818;stroke-width:1.0;"/><path d="M518.7813,39.03 L518.7813,37.3269 L521.1406,37.0613 L521.1406,28.8581 L518.7813,28.5925 L518.7813,26.8894 L525.9219,26.8894 L525.9219,28.5925 L523.5,28.8581 L523.5,37.0613 L525.9219,37.3269 L525.9219,39.03 L518.7813,39.03 Z " fill="#000000"/><text fill="#000000" font-family="sans-serif" font-size="14" font-style="italic" lengthAdjust="spacing" textLength="50" x="543.25" y="37.962">Element</text><line style="stroke:#181818;stroke-width:0.5;" x1="450.5" x2="653.5" y1="48.53" y2="48.53"/><line style="stroke:#181818;stroke-width:0.5;" x1="450.5" x2="653.5" y1="56.53" y2="56.53"/><ellipse cx="460.5" cy="71.564" fill="#84BE84" rx="3" ry="3" style="stroke:#038048;stroke-width:1.0;"/><text fill="#000000" font-family="sans-serif" font-size="14" lengthAdjust="spacing" textLength="179" x="469.5" y="75.4959">accept(visitor: Visitor): void</text></g><!--class ConcreteVisitor--><g id="elem_ConcreteVisitor"><rect codeLine="10" fill="#F1F1F1" height="86.1358" id="ConcreteVisitor" rx="2.5" ry="2.5" style="stroke:#181818;stroke-width:0.5;" width="288" x="7" y="153.13"/><ellipse cx="95.75" cy="169.13" fill="#ADD1B2" rx="11" ry="11" style="stroke:#181818;stroke-width:1.0;"/><path d="M95.2188,176.0519 Q93.4688,176.0519 92.3281,175.3175 Q91.2031,174.5675 90.6406,173.2238 Q90.0938,171.8644 90.0938,170.0675 Q90.0938,168.0363 90.75,166.5831 Q91.4063,165.13 92.6875,164.3488 Q93.9688,163.5675 95.8438,163.5675 Q96.7344,163.5675 97.4063,163.755 Q98.0781,163.9269 98.7656,164.2706 L97.9531,166.2863 Q97.3281,165.9738 96.7813,165.8488 Q96.25,165.7238 95.7656,165.7238 Q94.5938,165.7238 93.8906,166.255 Q93.1875,166.7863 92.8906,167.7394 Q92.5938,168.6925 92.5938,169.9581 Q92.5938,171.9738 93.3125,172.9425 Q94.0313,173.8956 95.625,173.8956 Q96.2188,173.8956 96.8438,173.7394 Q97.4688,173.5831 98.2969,173.2081 L98.2969,175.4269 Q97.5625,175.7394 96.7656,175.8956 Q95.9844,176.0519 95.2188,176.0519 Z " fill="#000000"/><text fill="#000000" font-family="sans-serif" font-size="14" lengthAdjust="spacing" textLength="102" x="116.25" y="174.562">ConcreteVisitor</text><line style="stroke:#181818;stroke-width:0.5;" x1="8" x2="294" y1="185.13" y2="185.13"/><line style="stroke:#181818;stroke-width:0.5;" x1="8" x2="294" y1="193.13" y2="193.13"/><ellipse cx="18" cy="208.164" fill="#84BE84" rx="3" ry="3" style="stroke:#038048;stroke-width:1.0;"/><text fill="#000000" font-family="sans-serif" font-size="14" lengthAdjust="spacing" textLength="262" x="27" y="212.0959">visitElementA(element: ElementA): void</text><ellipse cx="18" cy="227.2319" fill="#84BE84" rx="3" ry="3" style="stroke:#038048;stroke-width:1.0;"/><text fill="#000000" font-family="sans-serif" font-size="14" lengthAdjust="spacing" textLength="262" x="27" y="231.1639">visitElementB(element: ElementB): void</text></g><!--class ElementA--><g id="elem_ElementA"><rect codeLine="15" fill="#F1F1F1" height="67.0679" id="ElementA" rx="2.5" ry="2.5" style="stroke:#181818;stroke-width:0.5;" width="205" x="329.5" y="162.67"/><ellipse cx="395.75" cy="178.67" fill="#ADD1B2" rx="11" ry="11" style="stroke:#181818;stroke-width:1.0;"/><path d="M395.2188,185.5919 Q393.4688,185.5919 392.3281,184.8575 Q391.2031,184.1075 390.6406,182.7638 Q390.0938,181.4044 390.0938,179.6075 Q390.0938,177.5763 390.75,176.1231 Q391.4063,174.67 392.6875,173.8888 Q393.9688,173.1075 395.8438,173.1075 Q396.7344,173.1075 397.4063,173.295 Q398.0781,173.4669 398.7656,173.8106 L397.9531,175.8263 Q397.3281,175.5138 396.7813,175.3888 Q396.25,175.2638 395.7656,175.2638 Q394.5938,175.2638 393.8906,175.795 Q393.1875,176.3263 392.8906,177.2794 Q392.5938,178.2325 392.5938,179.4981 Q392.5938,181.5138 393.3125,182.4825 Q394.0313,183.4356 395.625,183.4356 Q396.2188,183.4356 396.8438,183.2794 Q397.4688,183.1231 398.2969,182.7481 L398.2969,184.9669 Q397.5625,185.2794 396.7656,185.4356 Q395.9844,185.5919 395.2188,185.5919 Z " fill="#000000"/><text fill="#000000" font-family="sans-serif" font-size="14" lengthAdjust="spacing" textLength="64" x="416.25" y="184.102">ElementA</text><line style="stroke:#181818;stroke-width:0.5;" x1="330.5" x2="533.5" y1="194.67" y2="194.67"/><line style="stroke:#181818;stroke-width:0.5;" x1="330.5" x2="533.5" y1="202.67" y2="202.67"/><ellipse cx="340.5" cy="217.704" fill="#84BE84" rx="3" ry="3" style="stroke:#038048;stroke-width:1.0;"/><text fill="#000000" font-family="sans-serif" font-size="14" lengthAdjust="spacing" textLength="179" x="349.5" y="221.6359">accept(visitor: Visitor): void</text></g><!--class ElementB--><g id="elem_ElementB"><rect codeLine="19" fill="#F1F1F1" height="67.0679" id="ElementB" rx="2.5" ry="2.5" style="stroke:#181818;stroke-width:0.5;" width="205" x="569.5" y="162.67"/><ellipse cx="635.75" cy="178.67" fill="#ADD1B2" rx="11" ry="11" style="stroke:#181818;stroke-width:1.0;"/><path d="M635.2188,185.5919 Q633.4688,185.5919 632.3281,184.8575 Q631.2031,184.1075 630.6406,182.7638 Q630.0938,181.4044 630.0938,179.6075 Q630.0938,177.5763 630.75,176.1231 Q631.4063,174.67 632.6875,173.8888 Q633.9688,173.1075 635.8438,173.1075 Q636.7344,173.1075 637.4063,173.295 Q638.0781,173.4669 638.7656,173.8106 L637.9531,175.8263 Q637.3281,175.5138 636.7813,175.3888 Q636.25,175.2638 635.7656,175.2638 Q634.5938,175.2638 633.8906,175.795 Q633.1875,176.3263 632.8906,177.2794 Q632.5938,178.2325 632.5938,179.4981 Q632.5938,181.5138 633.3125,182.4825 Q634.0313,183.4356 635.625,183.4356 Q636.2188,183.4356 636.8438,183.2794 Q637.4688,183.1231 638.2969,182.7481 L638.2969,184.9669 Q637.5625,185.2794 636.7656,185.4356 Q635.9844,185.5919 635.2188,185.5919 Z " fill="#000000"/><text fill="#000000" font-family="sans-serif" font-size="14" lengthAdjust="spacing" textLength="64" x="656.25" y="184.102">ElementB</text><line style="stroke:#181818;stroke-width:0.5;" x1="570.5" x2="773.5" y1="194.67" y2="194.67"/><line style="stroke:#181818;stroke-width:0.5;" x1="570.5" x2="773.5" y1="202.67" y2="202.67"/><ellipse cx="580.5" cy="217.704" fill="#84BE84" rx="3" ry="3" style="stroke:#038048;stroke-width:1.0;"/><text fill="#000000" font-family="sans-serif" font-size="14" lengthAdjust="spacing" textLength="179" x="589.5" y="221.6359">accept(visitor: Visitor): void</text></g><!--reverse link Visitor to ConcreteVisitor--><g id="link_Visitor_ConcreteVisitor"><path d="M137.5807,111.4808 C136.1907,130.2508 137.53,134.31 138.94,153.04 " fill="none" id="Visitor-backto-ConcreteVisitor" style="stroke:#181818;stroke-width:1.0;stroke-dasharray:7.0,7.0;"/><polygon fill="none" points="138.91,93.53,131.597,111.0377,143.5643,111.924,138.91,93.53" style="stroke:#181818;stroke-width:1.0;"/></g><!--link ConcreteVisitor to Visitor--><g id="link_ConcreteVisitor_Visitor"><path codeLine="25" d="M163.06,153.04 C164.47,134.31 164.9231,118.2836 163.5331,99.5136 " fill="none" id="ConcreteVisitor-to-Visitor" style="stroke:#181818;stroke-width:1.0;"/><polygon fill="#181818" points="163.09,93.53,159.7656,102.8008,163.4593,98.5163,167.7437,102.21,163.09,93.53" style="stroke:#181818;stroke-width:1.0;"/></g><!--reverse link Element to ElementA--><g id="link_Element_ElementA"><path d="M501.2312,96.8755 C479.0212,120.4655 464.97,139.07 447.93,162.62 " fill="none" id="Element-backto-ElementA" style="stroke:#181818;stroke-width:1.0;stroke-dasharray:7.0,7.0;"/><polygon fill="none" points="513.57,83.77,496.8627,92.7625,505.5997,100.9884,513.57,83.77" style="stroke:#181818;stroke-width:1.0;"/></g><!--link ElementA to Element--><g id="link_ElementA_Element"><path codeLine="23" d="M470.31,162.62 C492.5,139.07 515.3826,112.2209 532.4526,88.6309 " fill="none" id="ElementA-to-Element" style="stroke:#181818;stroke-width:1.0;"/><polygon fill="#181818" points="535.97,83.77,527.4534,88.7164,533.0388,87.8207,533.9345,93.4062,535.97,83.77" style="stroke:#181818;stroke-width:1.0;"/></g><!--reverse link Element to ElementB--><g id="link_Element_ElementB"><path d="M578.5821,98.3526 C595.6521,121.9426 611.5,139.07 633.69,162.62 " fill="none" id="Element-backto-ElementB" style="stroke:#181818;stroke-width:1.0;stroke-dasharray:7.0,7.0;"/><polygon fill="none" points="568.03,83.77,573.7213,101.87,583.443,94.8352,568.03,83.77" style="stroke:#181818;stroke-width:1.0;"/></g><!--link ElementB to Element--><g id="link_ElementB_Element"><path codeLine="24" d="M656.07,162.62 C639.03,139.07 616.7529,111.7285 594.5429,88.1385 " fill="none" id="ElementB-to-Element" style="stroke:#181818;stroke-width:1.0;"/><polygon fill="#181818" points="590.43,83.77,593.6871,93.0647,593.8574,87.4104,599.5117,87.5808,590.43,83.77" style="stroke:#181818;stroke-width:1.0;"/></g><!--SRC=[oymhIIrAIqnELGZBBCuioIzIgEPI00BjCX3NDISrDpMln54Z5SAmKe29Q5efbELdfc2gTS9GwmHJMyl5bGct3Ye9iounEJcre4IZ3E88AvXhaBGcvoGM5oiuv-Sb5wMMfC9ScvbR036ec3uUWBW2PWYozMHw26O7HKR1tQEhQmVJpGKt6LaGFVn0Sb0s0000]--></g></svg>