<?xml version="1.0" encoding="us-ascii" standalone="no"?><svg xmlns="http://www.w3.org/2000/svg" xmlns:xlink="http://www.w3.org/1999/xlink" contentStyleType="text/css" height="349px" preserveAspectRatio="none" style="width:1158px;height:349px;background:#FFFFFF;" version="1.1" viewBox="0 0 1158 349" width="1158px" zoomAndPan="magnify"><defs/><g><!--class Visitor--><g id="elem_Visitor"><rect codeLine="3" fill="#F1F1F1" height="78.1358" id="Visitor" rx="2.5" ry="2.5" style="stroke:#181818;stroke-width:0.5;" width="288" x="450.5" y="7"/><ellipse cx="569.75" cy="23" fill="#B4A7E5" rx="11" ry="11" style="stroke:#181818;stroke-width:1.0;"/><path d="M565.7813,29.5 L565.7813,27.7969 L568.1406,27.5313 L568.1406,19.3281 L565.7813,19.0625 L565.7813,17.3594 L572.9219,17.3594 L572.9219,19.0625 L570.5,19.3281 L570.5,27.5313 L572.9219,27.7969 L572.9219,29.5 L565.7813,29.5 Z " fill="#000000"/><text fill="#000000" font-family="sans-serif" font-size="14" font-style="italic" lengthAdjust="spacing" textLength="41" x="590.25" y="28.432">Visitor</text><line style="stroke:#181818;stroke-width:0.5;" x1="451.5" x2="737.5" y1="39" y2="39"/><ellipse cx="461.5" cy="54.034" fill="#84BE84" rx="3" ry="3" style="stroke:#038048;stroke-width:1.0;"/><text fill="#000000" font-family="sans-serif" font-size="14" lengthAdjust="spacing" textLength="262" x="470.5" y="57.9659">visitElementA(element: ElementA): void</text><ellipse cx="461.5" cy="73.1019" fill="#84BE84" rx="3" ry="3" style="stroke:#038048;stroke-width:1.0;"/><text fill="#000000" font-family="sans-serif" font-size="14" lengthAdjust="spacing" textLength="262" x="470.5" y="77.0339">visitElementB(element: ElementB): void</text></g><!--class Element--><g id="elem_Element"><rect codeLine="8" fill="#F1F1F1" height="59.0679" id="Element" rx="2.5" ry="2.5" style="stroke:#181818;stroke-width:0.5;" width="205" x="181" y="154.67"/><ellipse cx="254.25" cy="170.67" fill="#B4A7E5" rx="11" ry="11" style="stroke:#181818;stroke-width:1.0;"/><path d="M250.2813,177.17 L250.2813,175.4669 L252.6406,175.2013 L252.6406,166.9981 L250.2813,166.7325 L250.2813,165.0294 L257.4219,165.0294 L257.4219,166.7325 L255,166.9981 L255,175.2013 L257.4219,175.4669 L257.4219,177.17 L250.2813,177.17 Z " fill="#000000"/><text fill="#000000" font-family="sans-serif" font-size="14" font-style="italic" lengthAdjust="spacing" textLength="50" x="274.75" y="176.102">Element</text><line style="stroke:#181818;stroke-width:0.5;" x1="182" x2="385" y1="186.67" y2="186.67"/><ellipse cx="192" cy="201.704" fill="#84BE84" rx="3" ry="3" style="stroke:#038048;stroke-width:1.0;"/><text fill="#000000" font-family="sans-serif" font-size="14" lengthAdjust="spacing" textLength="179" x="201" y="205.6359">accept(visitor: Visitor): void</text></g><!--class ConcreteVisitor1--><g id="elem_ConcreteVisitor1"><rect codeLine="12" fill="#F1F1F1" height="78.1358" id="ConcreteVisitor1" rx="2.5" ry="2.5" style="stroke:#181818;stroke-width:0.5;" width="348" x="420.5" y="145.14"/><ellipse cx="535.25" cy="161.14" fill="#ADD1B2" rx="11" ry="11" style="stroke:#181818;stroke-width:1.0;"/><path d="M534.7188,168.0619 Q532.9688,168.0619 531.8281,167.3275 Q530.7031,166.5775 530.1406,165.2338 Q529.5938,163.8744 529.5938,162.0775 Q529.5938,160.0463 530.25,158.5931 Q530.9063,157.14 532.1875,156.3588 Q533.4688,155.5775 535.3438,155.5775 Q536.2344,155.5775 536.9063,155.765 Q537.5781,155.9369 538.2656,156.2806 L537.4531,158.2963 Q536.8281,157.9838 536.2813,157.8588 Q535.75,157.7338 535.2656,157.7338 Q534.0938,157.7338 533.3906,158.265 Q532.6875,158.7963 532.3906,159.7494 Q532.0938,160.7025 532.0938,161.9681 Q532.0938,163.9838 532.8125,164.9525 Q533.5313,165.9056 535.125,165.9056 Q535.7188,165.9056 536.3438,165.7494 Q536.9688,165.5931 537.7969,165.2181 L537.7969,167.4369 Q537.0625,167.7494 536.2656,167.9056 Q535.4844,168.0619 534.7188,168.0619 Z " fill="#000000"/><text fill="#000000" font-family="sans-serif" font-size="14" lengthAdjust="spacing" textLength="110" x="555.75" y="166.572">ConcreteVisitor1</text><line style="stroke:#181818;stroke-width:0.5;" x1="421.5" x2="767.5" y1="177.14" y2="177.14"/><ellipse cx="431.5" cy="192.174" fill="#84BE84" rx="3" ry="3" style="stroke:#038048;stroke-width:1.0;"/><text fill="#000000" font-family="sans-serif" font-size="14" lengthAdjust="spacing" textLength="322" x="440.5" y="196.1059">visitElementA(element: ConcreteElementA): void</text><ellipse cx="431.5" cy="211.2419" fill="#84BE84" rx="3" ry="3" style="stroke:#038048;stroke-width:1.0;"/><text fill="#000000" font-family="sans-serif" font-size="14" lengthAdjust="spacing" textLength="322" x="440.5" y="215.1739">visitElementB(element: ConcreteElementB): void</text></g><!--class ConcreteVisitor2--><g id="elem_ConcreteVisitor2"><rect codeLine="16" fill="#F1F1F1" height="78.1358" id="ConcreteVisitor2" rx="2.5" ry="2.5" style="stroke:#181818;stroke-width:0.5;" width="348" x="803.5" y="145.14"/><ellipse cx="918.25" cy="161.14" fill="#ADD1B2" rx="11" ry="11" style="stroke:#181818;stroke-width:1.0;"/><path d="M917.7188,168.0619 Q915.9688,168.0619 914.8281,167.3275 Q913.7031,166.5775 913.1406,165.2338 Q912.5938,163.8744 912.5938,162.0775 Q912.5938,160.0463 913.25,158.5931 Q913.9063,157.14 915.1875,156.3588 Q916.4688,155.5775 918.3438,155.5775 Q919.2344,155.5775 919.9063,155.765 Q920.5781,155.9369 921.2656,156.2806 L920.4531,158.2963 Q919.8281,157.9838 919.2813,157.8588 Q918.75,157.7338 918.2656,157.7338 Q917.0938,157.7338 916.3906,158.265 Q915.6875,158.7963 915.3906,159.7494 Q915.0938,160.7025 915.0938,161.9681 Q915.0938,163.9838 915.8125,164.9525 Q916.5313,165.9056 918.125,165.9056 Q918.7188,165.9056 919.3438,165.7494 Q919.9688,165.5931 920.7969,165.2181 L920.7969,167.4369 Q920.0625,167.7494 919.2656,167.9056 Q918.4844,168.0619 917.7188,168.0619 Z " fill="#000000"/><text fill="#000000" font-family="sans-serif" font-size="14" lengthAdjust="spacing" textLength="110" x="938.75" y="166.572">ConcreteVisitor2</text><line style="stroke:#181818;stroke-width:0.5;" x1="804.5" x2="1150.5" y1="177.14" y2="177.14"/><ellipse cx="814.5" cy="192.174" fill="#84BE84" rx="3" ry="3" style="stroke:#038048;stroke-width:1.0;"/><text fill="#000000" font-family="sans-serif" font-size="14" lengthAdjust="spacing" textLength="322" x="823.5" y="196.1059">visitElementA(element: ConcreteElementA): void</text><ellipse cx="814.5" cy="211.2419" fill="#84BE84" rx="3" ry="3" style="stroke:#038048;stroke-width:1.0;"/><text fill="#000000" font-family="sans-serif" font-size="14" lengthAdjust="spacing" textLength="322" x="823.5" y="215.1739">visitElementB(element: ConcreteElementB): void</text></g><!--class ConcreteElementA--><g id="elem_ConcreteElementA"><rect codeLine="21" fill="#F1F1F1" height="59.0679" id="ConcreteElementA" rx="2.5" ry="2.5" style="stroke:#181818;stroke-width:0.5;" width="205" x="61" y="283.27"/><ellipse cx="98.05" cy="299.27" fill="#ADD1B2" rx="11" ry="11" style="stroke:#181818;stroke-width:1.0;"/><path d="M97.5188,306.1919 Q95.7688,306.1919 94.6281,305.4575 Q93.5031,304.7075 92.9406,303.3638 Q92.3938,302.0044 92.3938,300.2075 Q92.3938,298.1763 93.05,296.7231 Q93.7063,295.27 94.9875,294.4888 Q96.2688,293.7075 98.1438,293.7075 Q99.0344,293.7075 99.7063,293.895 Q100.3781,294.0669 101.0656,294.4106 L100.2531,296.4263 Q99.6281,296.1138 99.0813,295.9888 Q98.55,295.8638 98.0656,295.8638 Q96.8938,295.8638 96.1906,296.395 Q95.4875,296.9263 95.1906,297.8794 Q94.8938,298.8325 94.8938,300.0981 Q94.8938,302.1138 95.6125,303.0825 Q96.3313,304.0356 97.925,304.0356 Q98.5188,304.0356 99.1438,303.8794 Q99.7688,303.7231 100.5969,303.3481 L100.5969,305.5669 Q99.8625,305.8794 99.0656,306.0356 Q98.2844,306.1919 97.5188,306.1919 Z " fill="#000000"/><text fill="#000000" font-family="sans-serif" font-size="14" lengthAdjust="spacing" textLength="124" x="116.95" y="304.702">ConcreteElementA</text><line style="stroke:#181818;stroke-width:0.5;" x1="62" x2="265" y1="315.27" y2="315.27"/><ellipse cx="72" cy="330.304" fill="#84BE84" rx="3" ry="3" style="stroke:#038048;stroke-width:1.0;"/><text fill="#000000" font-family="sans-serif" font-size="14" lengthAdjust="spacing" textLength="179" x="81" y="334.2359">accept(visitor: Visitor): void</text></g><!--class ConcreteElementB--><g id="elem_ConcreteElementB"><rect codeLine="25" fill="#F1F1F1" height="59.0679" id="ConcreteElementB" rx="2.5" ry="2.5" style="stroke:#181818;stroke-width:0.5;" width="205" x="301" y="283.27"/><ellipse cx="338.05" cy="299.27" fill="#ADD1B2" rx="11" ry="11" style="stroke:#181818;stroke-width:1.0;"/><path d="M337.5188,306.1919 Q335.7688,306.1919 334.6281,305.4575 Q333.5031,304.7075 332.9406,303.3638 Q332.3938,302.0044 332.3938,300.2075 Q332.3938,298.1763 333.05,296.7231 Q333.7063,295.27 334.9875,294.4888 Q336.2688,293.7075 338.1438,293.7075 Q339.0344,293.7075 339.7063,293.895 Q340.3781,294.0669 341.0656,294.4106 L340.2531,296.4263 Q339.6281,296.1138 339.0813,295.9888 Q338.55,295.8638 338.0656,295.8638 Q336.8938,295.8638 336.1906,296.395 Q335.4875,296.9263 335.1906,297.8794 Q334.8938,298.8325 334.8938,300.0981 Q334.8938,302.1138 335.6125,303.0825 Q336.3313,304.0356 337.925,304.0356 Q338.5188,304.0356 339.1438,303.8794 Q339.7688,303.7231 340.5969,303.3481 L340.5969,305.5669 Q339.8625,305.8794 339.0656,306.0356 Q338.2844,306.1919 337.5188,306.1919 Z " fill="#000000"/><text fill="#000000" font-family="sans-serif" font-size="14" lengthAdjust="spacing" textLength="124" x="356.95" y="304.702">ConcreteElementB</text><line style="stroke:#181818;stroke-width:0.5;" x1="302" x2="505" y1="315.27" y2="315.27"/><ellipse cx="312" cy="330.304" fill="#84BE84" rx="3" ry="3" style="stroke:#038048;stroke-width:1.0;"/><text fill="#000000" font-family="sans-serif" font-size="14" lengthAdjust="spacing" textLength="179" x="321" y="334.2359">accept(visitor: Visitor): void</text></g><!--class ObjectStructure--><g id="elem_ObjectStructure"><rect codeLine="28" fill="#F1F1F1" height="32" id="ObjectStructure" rx="2.5" ry="2.5" style="stroke:#181818;stroke-width:0.5;" width="139" x="7" y="168.2"/><ellipse cx="22" cy="184.2" fill="#ADD1B2" rx="11" ry="11" style="stroke:#181818;stroke-width:1.0;"/><path d="M21.4688,191.1219 Q19.7188,191.1219 18.5781,190.3875 Q17.4531,189.6375 16.8906,188.2938 Q16.3438,186.9344 16.3438,185.1375 Q16.3438,183.1063 17,181.6531 Q17.6563,180.2 18.9375,179.4188 Q20.2188,178.6375 22.0938,178.6375 Q22.9844,178.6375 23.6563,178.825 Q24.3281,178.9969 25.0156,179.3406 L24.2031,181.3563 Q23.5781,181.0438 23.0313,180.9188 Q22.5,180.7938 22.0156,180.7938 Q20.8438,180.7938 20.1406,181.325 Q19.4375,181.8563 19.1406,182.8094 Q18.8438,183.7625 18.8438,185.0281 Q18.8438,187.0438 19.5625,188.0125 Q20.2813,188.9656 21.875,188.9656 Q22.4688,188.9656 23.0938,188.8094 Q23.7188,188.6531 24.5469,188.2781 L24.5469,190.4969 Q23.8125,190.8094 23.0156,190.9656 Q22.2344,191.1219 21.4688,191.1219 Z " fill="#000000"/><text fill="#000000" font-family="sans-serif" font-size="14" lengthAdjust="spacing" textLength="107" x="36" y="189.632">ObjectStructure</text></g><!--class Client--><g id="elem_Client"><rect codeLine="31" fill="#F1F1F1" height="32" id="Client" rx="2.5" ry="2.5" style="stroke:#181818;stroke-width:0.5;" width="71" x="193" y="30.07"/><ellipse cx="208" cy="46.07" fill="#ADD1B2" rx="11" ry="11" style="stroke:#181818;stroke-width:1.0;"/><path d="M207.4688,52.9919 Q205.7188,52.9919 204.5781,52.2575 Q203.4531,51.5075 202.8906,50.1637 Q202.3438,48.8044 202.3438,47.0075 Q202.3438,44.9762 203,43.5231 Q203.6563,42.07 204.9375,41.2887 Q206.2188,40.5075 208.0938,40.5075 Q208.9844,40.5075 209.6563,40.695 Q210.3281,40.8669 211.0156,41.2106 L210.2031,43.2262 Q209.5781,42.9137 209.0313,42.7887 Q208.5,42.6637 208.0156,42.6637 Q206.8438,42.6637 206.1406,43.195 Q205.4375,43.7262 205.1406,44.6794 Q204.8438,45.6325 204.8438,46.8981 Q204.8438,48.9137 205.5625,49.8825 Q206.2813,50.8356 207.875,50.8356 Q208.4688,50.8356 209.0938,50.6794 Q209.7188,50.5231 210.5469,50.1481 L210.5469,52.3669 Q209.8125,52.6794 209.0156,52.8356 Q208.2344,52.9919 207.4688,52.9919 Z " fill="#000000"/><text fill="#000000" font-family="sans-serif" font-size="14" lengthAdjust="spacing" textLength="39" x="222" y="51.502">Client</text></g><!--reverse link Visitor to ConcreteVisitor1--><g id="link_Visitor_ConcreteVisitor1"><path d="M594.5,103.35 C594.5,121.91 594.5,126.15 594.5,144.74 " fill="none" id="Visitor-backto-ConcreteVisitor1" style="stroke:#181818;stroke-width:1.0;stroke-dasharray:7.0,7.0;"/><polygon fill="none" points="594.5,85.35,588.5,103.35,600.5,103.35,594.5,85.35" style="stroke:#181818;stroke-width:1.0;"/></g><!--reverse link Visitor to ConcreteVisitor2--><g id="link_Visitor_ConcreteVisitor2"><path d="M719.93,91.6497 C771.91,110.1297 817.05,126.17 869.03,144.65 " fill="none" id="Visitor-backto-ConcreteVisitor2" style="stroke:#181818;stroke-width:1.0;stroke-dasharray:7.0,7.0;"/><polygon fill="none" points="702.97,85.62,717.9202,97.303,721.9399,85.9963,702.97,85.62" style="stroke:#181818;stroke-width:1.0;"/></g><!--reverse link Element to ConcreteElementA--><g id="link_Element_ConcreteElementA"><path d="M243.8871,226.9938 C224.2471,247.7138 210.24,262.5 190.62,283.19 " fill="none" id="Element-backto-ConcreteElementA" style="stroke:#181818;stroke-width:1.0;stroke-dasharray:7.0,7.0;"/><polygon fill="none" points="256.27,213.93,239.5325,222.8662,248.2417,231.1215,256.27,213.93" style="stroke:#181818;stroke-width:1.0;"/></g><!--reverse link Element to ConcreteElementB--><g id="link_Element_ConcreteElementB"><path d="M323.1129,226.9938 C342.7529,247.7138 356.76,262.5 376.38,283.19 " fill="none" id="Element-backto-ConcreteElementB" style="stroke:#181818;stroke-width:1.0;stroke-dasharray:7.0,7.0;"/><polygon fill="none" points="310.73,213.93,318.7583,231.1215,327.4675,222.8662,310.73,213.93" style="stroke:#181818;stroke-width:1.0;"/></g><!--link ObjectStructure to Element--><g id="link_ObjectStructure_Element"><path codeLine="30" d="M146.44,184.2 C157.86,184.2 163.29,184.2 174.71,184.2 " fill="none" id="ObjectStructure-to-Element" style="stroke:#181818;stroke-width:1.0;"/><polygon fill="#181818" points="180.71,184.2,171.71,180.2,175.71,184.2,171.71,188.2,180.71,184.2" style="stroke:#181818;stroke-width:1.0;"/></g><!--link Client to Visitor--><g id="link_Client_Visitor"><path codeLine="32" d="M264.24,46.07 C326.17,46.07 382.09,46.07 444.01,46.07 " fill="none" id="Client-to-Visitor" style="stroke:#181818;stroke-width:1.0;"/><polygon fill="#181818" points="450.01,46.07,441.01,42.07,445.01,46.07,441.01,50.07,450.01,46.07" style="stroke:#181818;stroke-width:1.0;"/></g><!--link Client to ObjectStructure--><g id="link_Client_ObjectStructure"><path codeLine="33" d="M211.36,62.42 C182.01,88.71 126.9586,138.006 97.8186,164.116 " fill="none" id="Client-to-ObjectStructure" style="stroke:#181818;stroke-width:1.0;"/><polygon fill="#181818" points="93.35,168.12,102.7222,165.0931,97.0738,164.7834,97.3836,159.135,93.35,168.12" style="stroke:#181818;stroke-width:1.0;"/></g><!--SRC=[nL2n2i8m4Dtp5JSgug1Z1y6AiuFWtgOdHfgs9DU25F_TbFGaf0vA1pFTlNltthlSL860kg47QDGv6Yk4gWZDDPC85sKLrGPw0Uwjkg4zbgYnelq2VP408yi4kbeLKsuwuQRCVOPsuv3jCYcneKNdGoIS9bYLPMOj7EfA6YGSvnjGkl5AziiBME6NIwATuAAFgRR_JXN5Oj4mrip_PyyvabxnbDzHqfbCAwars3kh28BrZhKvHQbSuwY-60YZ-XjnK2GZNW00]--></g></svg>