<svg xmlns="http://www.w3.org/2000/svg" xmlns:xlink="http://www.w3.org/1999/xlink" contentStyleType="text/css" height="841px" preserveAspectRatio="none" style="width:4870px;height:841px;background:#FFFFFF;" version="1.1" viewBox="0 0 4870 841" width="4870px" zoomAndPan="magnify"><defs/><g><!--cluster Command--><g id="cluster_Command"><path d="M23.02,295.55 L95.3917,295.55 A3.75,3.75 0 0 1 97.8917,298.05 L104.8917,320.6179 L906.02,320.6179 A2.5,2.5 0 0 1 908.52,323.1179 L908.52,641.99 A2.5,2.5 0 0 1 906.02,644.49 L23.02,644.49 A2.5,2.5 0 0 1 20.52,641.99 L20.52,298.05 A2.5,2.5 0 0 1 23.02,295.55 " fill="none" style="stroke:#000000;stroke-width:1.5;"/><line style="stroke:#000000;stroke-width:1.5;" x1="20.52" x2="104.8917" y1="320.6179" y2="320.6179"/><text fill="#000000" font-family="sans-serif" font-size="14" font-weight="bold" lengthAdjust="spacing" textLength="71.3717" x="24.52" y="312.5159">Command</text></g><!--cluster Substituter--><g id="cluster_Substituter"><path d="M2189.02,122.6 L2268.8397,122.6 A3.75,3.75 0 0 1 2271.3397,125.1 L2278.3397,147.6679 L3142.02,147.6679 A2.5,2.5 0 0 1 3144.52,150.1679 L3144.52,448.25 A2.5,2.5 0 0 1 3142.02,450.75 L2189.02,450.75 A2.5,2.5 0 0 1 2186.52,448.25 L2186.52,125.1 A2.5,2.5 0 0 1 2189.02,122.6 " fill="none" style="stroke:#000000;stroke-width:1.5;"/><line style="stroke:#000000;stroke-width:1.5;" x1="2186.52" x2="2278.3397" y1="147.6679" y2="147.6679"/><text fill="#000000" font-family="sans-serif" font-size="14" font-weight="bold" lengthAdjust="spacing" textLength="78.8197" x="2190.52" y="139.5659">Substituter</text></g><!--cluster Parser--><g id="cluster_Parser"><path d="M3171.02,113.07 L3217.0018,113.07 A3.75,3.75 0 0 1 3219.5018,115.57 L3226.5018,138.1379 L4352.02,138.1379 A2.5,2.5 0 0 1 4354.52,140.6379 L4354.52,632.46 A2.5,2.5 0 0 1 4352.02,634.96 L3171.02,634.96 A2.5,2.5 0 0 1 3168.52,632.46 L3168.52,115.57 A2.5,2.5 0 0 1 3171.02,113.07 " fill="none" style="stroke:#000000;stroke-width:1.5;"/><line style="stroke:#000000;stroke-width:1.5;" x1="3168.52" x2="3226.5018" y1="138.1379" y2="138.1379"/><text fill="#000000" font-family="sans-serif" font-size="14" font-weight="bold" lengthAdjust="spacing" textLength="44.9818" x="3172.52" y="130.0359">Parser</text></g><!--class Command--><g id="elem_Command"><rect codeLine="29" fill="#F1F1F1" height="105.2038" id="Command" rx="2.5" ry="2.5" style="stroke:#181818;stroke-width:0.5;" width="260.5411" x="500.25" y="523.29"/><ellipse cx="593.8887" cy="539.29" fill="#A9DCDF" rx="11" ry="11" style="stroke:#181818;stroke-width:1;"/><path d="M589.0606,545.04 L592.4043,532.8525 L595.5449,532.8525 L598.9199,545.04 L596.4512,545.04 L595.7168,542.0244 L592.2012,542.0244 L591.4512,545.04 L589.0606,545.04 Z M593.4668,536.9931 L592.7168,539.9931 L595.2324,539.9931 L594.5137,536.9931 Q594.3731,536.415 594.2481,535.8681 Q594.1231,535.3056 593.9824,534.7275 Q593.8731,535.3056 593.7324,535.8681 Q593.5918,536.415 593.4668,536.9931 Z " fill="#000000"/><text fill="#000000" font-family="sans-serif" font-size="14" font-style="italic" lengthAdjust="spacing" textLength="64.7638" x="614.3887" y="544.722">Command</text><line style="stroke:#181818;stroke-width:0.5;" x1="501.25" x2="759.7911" y1="555.29" y2="555.29"/><rect fill="none" height="6" style="stroke:#C82930;stroke-width:1;" width="6" x="508.25" y="567.324"/><text fill="#000000" font-family="sans-serif" font-size="14" lengthAdjust="spacing" textLength="96.3057" x="520.25" y="574.2559">args: String [*]</text><line style="stroke:#181818;stroke-width:0.5;" x1="501.25" x2="759.7911" y1="582.3579" y2="582.3579"/><ellipse cx="511.25" cy="597.3919" fill="#84BE84" rx="3" ry="3" style="stroke:#038048;stroke-width:1;"/><text fill="#000000" font-family="sans-serif" font-size="14" lengthAdjust="spacing" textLength="234.5411" x="520.25" y="601.3239">&#171;Create&#187; Command(args: String [*])</text><ellipse cx="511.25" cy="616.4598" fill="#84BE84" rx="3" ry="3" style="stroke:#038048;stroke-width:1;"/><text fill="#000000" font-family="sans-serif" font-size="14" lengthAdjust="spacing" textLength="114.2675" x="520.25" y="620.3918">execute(): Output</text></g><!--class Cat--><g id="elem_Cat"><rect codeLine="37" fill="#F1F1F1" height="32" id="Cat" rx="2.5" ry="2.5" style="stroke:#181818;stroke-width:0.5;" width="53.7559" x="557.64" y="366.15"/><ellipse cx="572.64" cy="382.15" fill="#ADD1B2" rx="11" ry="11" style="stroke:#181818;stroke-width:1;"/><path d="M572.1088,389.0719 Q570.3588,389.0719 569.2181,388.3375 Q568.0931,387.5875 567.5306,386.2438 Q566.9838,384.8844 566.9838,383.0875 Q566.9838,381.0563 567.64,379.6031 Q568.2963,378.15 569.5775,377.3688 Q570.8588,376.5875 572.7338,376.5875 Q573.6244,376.5875 574.2963,376.775 Q574.9681,376.9469 575.6556,377.2906 L574.8431,379.3063 Q574.2181,378.9938 573.6713,378.8688 Q573.14,378.7438 572.6556,378.7438 Q571.4838,378.7438 570.7806,379.275 Q570.0775,379.8063 569.7806,380.7594 Q569.4838,381.7125 569.4838,382.9781 Q569.4838,384.9938 570.2025,385.9625 Q570.9213,386.9156 572.515,386.9156 Q573.1088,386.9156 573.7338,386.7594 Q574.3588,386.6031 575.1869,386.2281 L575.1869,388.4469 Q574.4525,388.7594 573.6556,388.9156 Q572.8744,389.0719 572.1088,389.0719 Z " fill="#000000"/><text fill="#000000" font-family="sans-serif" font-size="14" lengthAdjust="spacing" textLength="21.7559" x="586.64" y="387.582">Cat</text></g><!--class Pwd--><g id="elem_Pwd"><rect codeLine="38" fill="#F1F1F1" height="32" id="Pwd" rx="2.5" ry="2.5" style="stroke:#181818;stroke-width:0.5;" width="60.0839" x="646.48" y="366.15"/><ellipse cx="661.48" cy="382.15" fill="#ADD1B2" rx="11" ry="11" style="stroke:#181818;stroke-width:1;"/><path d="M660.9488,389.0719 Q659.1988,389.0719 658.0581,388.3375 Q656.9331,387.5875 656.3706,386.2438 Q655.8238,384.8844 655.8238,383.0875 Q655.8238,381.0563 656.48,379.6031 Q657.1363,378.15 658.4175,377.3688 Q659.6988,376.5875 661.5738,376.5875 Q662.4644,376.5875 663.1363,376.775 Q663.8081,376.9469 664.4956,377.2906 L663.6831,379.3063 Q663.0581,378.9938 662.5113,378.8688 Q661.98,378.7438 661.4956,378.7438 Q660.3238,378.7438 659.6206,379.275 Q658.9175,379.8063 658.6206,380.7594 Q658.3238,381.7125 658.3238,382.9781 Q658.3238,384.9938 659.0425,385.9625 Q659.7613,386.9156 661.355,386.9156 Q661.9488,386.9156 662.5738,386.7594 Q663.1988,386.6031 664.0269,386.2281 L664.0269,388.4469 Q663.2925,388.7594 662.4956,388.9156 Q661.7144,389.0719 660.9488,389.0719 Z " fill="#000000"/><text fill="#000000" font-family="sans-serif" font-size="14" lengthAdjust="spacing" textLength="28.0839" x="675.48" y="387.582">Pwd</text></g><!--class Echo--><g id="elem_Echo"><rect codeLine="39" fill="#F1F1F1" height="32" id="Echo" rx="2.5" ry="2.5" style="stroke:#181818;stroke-width:0.5;" width="63.6259" x="741.71" y="366.15"/><ellipse cx="756.71" cy="382.15" fill="#ADD1B2" rx="11" ry="11" style="stroke:#181818;stroke-width:1;"/><path d="M756.1788,389.0719 Q754.4288,389.0719 753.2881,388.3375 Q752.1631,387.5875 751.6006,386.2438 Q751.0538,384.8844 751.0538,383.0875 Q751.0538,381.0563 751.71,379.6031 Q752.3663,378.15 753.6475,377.3688 Q754.9288,376.5875 756.8038,376.5875 Q757.6944,376.5875 758.3663,376.775 Q759.0381,376.9469 759.7256,377.2906 L758.9131,379.3063 Q758.2881,378.9938 757.7413,378.8688 Q757.21,378.7438 756.7256,378.7438 Q755.5538,378.7438 754.8506,379.275 Q754.1475,379.8063 753.8506,380.7594 Q753.5538,381.7125 753.5538,382.9781 Q753.5538,384.9938 754.2725,385.9625 Q754.9913,386.9156 756.585,386.9156 Q757.1788,386.9156 757.8038,386.7594 Q758.4288,386.6031 759.2569,386.2281 L759.2569,388.4469 Q758.5225,388.7594 757.7256,388.9156 Q756.9444,389.0719 756.1788,389.0719 Z " fill="#000000"/><text fill="#000000" font-family="sans-serif" font-size="14" lengthAdjust="spacing" textLength="31.6259" x="770.71" y="387.582">Echo</text></g><!--class Wc--><g id="elem_Wc"><rect codeLine="40" fill="#F1F1F1" height="32" id="Wc" rx="2.5" ry="2.5" style="stroke:#181818;stroke-width:0.5;" width="51.7399" x="840.65" y="366.15"/><ellipse cx="855.65" cy="382.15" fill="#ADD1B2" rx="11" ry="11" style="stroke:#181818;stroke-width:1;"/><path d="M855.1188,389.0719 Q853.3688,389.0719 852.2281,388.3375 Q851.1031,387.5875 850.5406,386.2438 Q849.9938,384.8844 849.9938,383.0875 Q849.9938,381.0563 850.65,379.6031 Q851.3063,378.15 852.5875,377.3688 Q853.8688,376.5875 855.7438,376.5875 Q856.6344,376.5875 857.3063,376.775 Q857.9781,376.9469 858.6656,377.2906 L857.8531,379.3063 Q857.2281,378.9938 856.6813,378.8688 Q856.15,378.7438 855.6656,378.7438 Q854.4938,378.7438 853.7906,379.275 Q853.0875,379.8063 852.7906,380.7594 Q852.4938,381.7125 852.4938,382.9781 Q852.4938,384.9938 853.2125,385.9625 Q853.9313,386.9156 855.525,386.9156 Q856.1188,386.9156 856.7438,386.7594 Q857.3688,386.6031 858.1969,386.2281 L858.1969,388.4469 Q857.4625,388.7594 856.6656,388.9156 Q855.8844,389.0719 855.1188,389.0719 Z " fill="#000000"/><text fill="#000000" font-family="sans-serif" font-size="14" lengthAdjust="spacing" textLength="19.7399" x="869.65" y="387.582">Wc</text></g><!--class Bind--><g id="elem_Bind"><rect codeLine="41" fill="#F1F1F1" height="32" id="Bind" rx="2.5" ry="2.5" style="stroke:#181818;stroke-width:0.5;" width="61.9739" x="460.53" y="366.15"/><ellipse cx="475.53" cy="382.15" fill="#ADD1B2" rx="11" ry="11" style="stroke:#181818;stroke-width:1;"/><path d="M474.9988,389.0719 Q473.2488,389.0719 472.1081,388.3375 Q470.9831,387.5875 470.4206,386.2438 Q469.8738,384.8844 469.8738,383.0875 Q469.8738,381.0563 470.53,379.6031 Q471.1863,378.15 472.4675,377.3688 Q473.7488,376.5875 475.6238,376.5875 Q476.5144,376.5875 477.1863,376.775 Q477.8581,376.9469 478.5456,377.2906 L477.7331,379.3063 Q477.1081,378.9938 476.5613,378.8688 Q476.03,378.7438 475.5456,378.7438 Q474.3738,378.7438 473.6706,379.275 Q472.9675,379.8063 472.6706,380.7594 Q472.3738,381.7125 472.3738,382.9781 Q472.3738,384.9938 473.0925,385.9625 Q473.8113,386.9156 475.405,386.9156 Q475.9988,386.9156 476.6238,386.7594 Q477.2488,386.6031 478.0769,386.2281 L478.0769,388.4469 Q477.3425,388.7594 476.5456,388.9156 Q475.7644,389.0719 474.9988,389.0719 Z " fill="#000000"/><text fill="#000000" font-family="sans-serif" font-size="14" lengthAdjust="spacing" textLength="29.9739" x="489.53" y="387.582">Bind</text></g><!--class Exit--><g id="elem_Exit"><rect codeLine="43" fill="#F1F1F1" height="32" id="Exit" rx="2.5" ry="2.5" style="stroke:#181818;stroke-width:0.5;" width="55.8559" x="36.59" y="366.15"/><ellipse cx="51.59" cy="382.15" fill="#ADD1B2" rx="11" ry="11" style="stroke:#181818;stroke-width:1;"/><path d="M51.0588,389.0719 Q49.3088,389.0719 48.1681,388.3375 Q47.0431,387.5875 46.4806,386.2438 Q45.9338,384.8844 45.9338,383.0875 Q45.9338,381.0563 46.59,379.6031 Q47.2463,378.15 48.5275,377.3688 Q49.8088,376.5875 51.6838,376.5875 Q52.5744,376.5875 53.2463,376.775 Q53.9181,376.9469 54.6056,377.2906 L53.7931,379.3063 Q53.1681,378.9938 52.6213,378.8688 Q52.09,378.7438 51.6056,378.7438 Q50.4338,378.7438 49.7306,379.275 Q49.0275,379.8063 48.7306,380.7594 Q48.4338,381.7125 48.4338,382.9781 Q48.4338,384.9938 49.1525,385.9625 Q49.8713,386.9156 51.465,386.9156 Q52.0588,386.9156 52.6838,386.7594 Q53.3088,386.6031 54.1369,386.2281 L54.1369,388.4469 Q53.4025,388.7594 52.6056,388.9156 Q51.8244,389.0719 51.0588,389.0719 Z " fill="#000000"/><text fill="#000000" font-family="sans-serif" font-size="14" lengthAdjust="spacing" textLength="23.8559" x="65.59" y="387.582">Exit</text></g><!--class External--><g id="elem_External"><rect codeLine="45" fill="#F1F1F1" height="97.2038" id="External" rx="2.5" ry="2.5" style="stroke:#181818;stroke-width:0.5;" width="297.8089" x="127.62" y="333.55"/><ellipse cx="245.2546" cy="349.55" fill="#ADD1B2" rx="11" ry="11" style="stroke:#181818;stroke-width:1;"/><path d="M244.7233,356.4719 Q242.9733,356.4719 241.8327,355.7375 Q240.7077,354.9875 240.1452,353.6438 Q239.5983,352.2844 239.5983,350.4875 Q239.5983,348.4563 240.2546,347.0031 Q240.9108,345.55 242.1921,344.7688 Q243.4733,343.9875 245.3483,343.9875 Q246.2389,343.9875 246.9108,344.175 Q247.5827,344.3469 248.2702,344.6906 L247.4577,346.7063 Q246.8327,346.3938 246.2858,346.2688 Q245.7546,346.1438 245.2702,346.1438 Q244.0983,346.1438 243.3952,346.675 Q242.6921,347.2063 242.3952,348.1594 Q242.0983,349.1125 242.0983,350.3781 Q242.0983,352.3938 242.8171,353.3625 Q243.5358,354.3156 245.1296,354.3156 Q245.7233,354.3156 246.3483,354.1594 Q246.9733,354.0031 247.8014,353.6281 L247.8014,355.8469 Q247.0671,356.1594 246.2702,356.3156 Q245.4889,356.4719 244.7233,356.4719 Z " fill="#000000"/><text fill="#000000" font-family="sans-serif" font-size="14" lengthAdjust="spacing" textLength="54.0398" x="265.7546" y="354.982">External</text><line style="stroke:#181818;stroke-width:0.5;" x1="128.62" x2="424.4289" y1="365.55" y2="365.55"/><rect fill="#F24D5C" height="6" style="stroke:#C82930;stroke-width:1;" width="6" x="135.62" y="377.584"/><text fill="#000000" font-family="sans-serif" font-size="14" lengthAdjust="spacing" textLength="179.4653" x="147.62" y="384.5159">needsPathExtension(): Bool</text><rect fill="#F24D5C" height="6" style="stroke:#C82930;stroke-width:1;" width="6" x="135.62" y="396.6519"/><text fill="#000000" font-family="sans-serif" font-size="14" lengthAdjust="spacing" textLength="271.8089" x="147.62" y="403.5839">findExecutable(env: Environment) : String</text><ellipse cx="138.62" cy="418.7198" fill="#84BE84" rx="3" ry="3" style="stroke:#038048;stroke-width:1;"/><text fill="#000000" font-family="sans-serif" font-size="14" lengthAdjust="spacing" textLength="270.1149" x="147.62" y="422.6518">executableExists(env: Environment): Bool</text></g><!--class Substituter--><g id="elem_Substituter"><rect codeLine="102" fill="#F1F1F1" height="59.0679" id="Substituter" rx="2.5" ry="2.5" style="stroke:#181818;stroke-width:0.5;" width="203.0433" x="2203" y="160.6"/><ellipse cx="2263.8928" cy="176.6" fill="#ADD1B2" rx="11" ry="11" style="stroke:#181818;stroke-width:1;"/><path d="M2263.3615,183.5219 Q2261.6115,183.5219 2260.4709,182.7875 Q2259.3459,182.0375 2258.7834,180.6938 Q2258.2365,179.3344 2258.2365,177.5375 Q2258.2365,175.5063 2258.8928,174.0531 Q2259.549,172.6 2260.8303,171.8188 Q2262.1115,171.0375 2263.9865,171.0375 Q2264.8772,171.0375 2265.549,171.225 Q2266.2209,171.3969 2266.9084,171.7406 L2266.0959,173.7563 Q2265.4709,173.4438 2264.924,173.3188 Q2264.3928,173.1938 2263.9084,173.1938 Q2262.7365,173.1938 2262.0334,173.725 Q2261.3303,174.2563 2261.0334,175.2094 Q2260.7365,176.1625 2260.7365,177.4281 Q2260.7365,179.4438 2261.4553,180.4125 Q2262.174,181.3656 2263.7678,181.3656 Q2264.3615,181.3656 2264.9865,181.2094 Q2265.6115,181.0531 2266.4397,180.6781 L2266.4397,182.8969 Q2265.7053,183.2094 2264.9084,183.3656 Q2264.1272,183.5219 2263.3615,183.5219 Z " fill="#000000"/><text fill="#000000" font-family="sans-serif" font-size="14" lengthAdjust="spacing" textLength="72.7577" x="2284.3928" y="182.032">Substituter</text><line style="stroke:#181818;stroke-width:0.5;" x1="2204" x2="2405.0433" y1="192.6" y2="192.6"/><ellipse cx="2214" cy="207.634" fill="#84BE84" rx="3" ry="3" style="stroke:#038048;stroke-width:1;"/><text fill="#000000" font-family="sans-serif" font-size="14" lengthAdjust="spacing" textLength="177.0433" x="2223" y="211.5659">parse(input: String) : String</text></g><!--class SubstituterState--><g id="elem_SubstituterState"><rect codeLine="111" fill="#F1F1F1" height="105.2038" id="SubstituterState" rx="2.5" ry="2.5" style="stroke:#181818;stroke-width:0.5;" width="230.0773" x="2600.48" y="329.55"/><ellipse cx="2661.8418" cy="345.55" fill="#A9DCDF" rx="11" ry="11" style="stroke:#181818;stroke-width:1;"/><path d="M2657.0137,351.3 L2660.3574,339.1125 L2663.4981,339.1125 L2666.8731,351.3 L2664.4043,351.3 L2663.6699,348.2844 L2660.1543,348.2844 L2659.4043,351.3 L2657.0137,351.3 Z M2661.4199,343.2531 L2660.6699,346.2531 L2663.1856,346.2531 L2662.4668,343.2531 Q2662.3262,342.675 2662.2012,342.1281 Q2662.0762,341.5656 2661.9356,340.9875 Q2661.8262,341.5656 2661.6856,342.1281 Q2661.5449,342.675 2661.4199,343.2531 Z " fill="#000000"/><text fill="#000000" font-family="sans-serif" font-size="14" font-style="italic" lengthAdjust="spacing" textLength="98.8536" x="2682.3418" y="350.982">SubstituterState</text><line style="stroke:#181818;stroke-width:0.5;" x1="2601.48" x2="2829.5573" y1="361.55" y2="361.55"/><rect fill="none" height="6" style="stroke:#C82930;stroke-width:1;" width="6" x="2608.48" y="373.584"/><text fill="#000000" font-family="sans-serif" font-size="14" lengthAdjust="spacing" textLength="131.5015" x="2620.48" y="380.5159">accumulated: String</text><rect fill="none" height="6" style="stroke:#C82930;stroke-width:1;" width="6" x="2608.48" y="392.6519"/><text fill="#000000" font-family="sans-serif" font-size="14" lengthAdjust="spacing" textLength="204.0773" x="2620.48" y="399.5839">previousState: SubstituterState</text><line style="stroke:#181818;stroke-width:0.5;" x1="2601.48" x2="2829.5573" y1="407.6858" y2="407.6858"/><ellipse cx="2611.48" cy="422.7198" fill="#84BE84" rx="3" ry="3" style="stroke:#038048;stroke-width:1;"/><text fill="#000000" font-family="sans-serif" font-size="14" lengthAdjust="spacing" textLength="174.9573" x="2620.48" y="426.6518">consume(char: Char) : void</text></g><!--class S_DefaultState--><g id="elem_S_DefaultState"><rect codeLine="117" fill="#F1F1F1" height="32" id="S_DefaultState" rx="2.5" ry="2.5" style="stroke:#181818;stroke-width:0.5;" width="127.5496" x="3000.75" y="174.14"/><ellipse cx="3015.75" cy="190.14" fill="#ADD1B2" rx="11" ry="11" style="stroke:#181818;stroke-width:1;"/><path d="M3015.2188,197.0619 Q3013.4688,197.0619 3012.3281,196.3275 Q3011.2031,195.5775 3010.6406,194.2338 Q3010.0938,192.8744 3010.0938,191.0775 Q3010.0938,189.0463 3010.75,187.5931 Q3011.4063,186.14 3012.6875,185.3588 Q3013.9688,184.5775 3015.8438,184.5775 Q3016.7344,184.5775 3017.4063,184.765 Q3018.0781,184.9369 3018.7656,185.2806 L3017.9531,187.2963 Q3017.3281,186.9838 3016.7813,186.8588 Q3016.25,186.7338 3015.7656,186.7338 Q3014.5938,186.7338 3013.8906,187.265 Q3013.1875,187.7963 3012.8906,188.7494 Q3012.5938,189.7025 3012.5938,190.9681 Q3012.5938,192.9838 3013.3125,193.9525 Q3014.0313,194.9056 3015.625,194.9056 Q3016.2188,194.9056 3016.8438,194.7494 Q3017.4688,194.5931 3018.2969,194.2181 L3018.2969,196.4369 Q3017.5625,196.7494 3016.7656,196.9056 Q3015.9844,197.0619 3015.2188,197.0619 Z " fill="#000000"/><text fill="#000000" font-family="sans-serif" font-size="14" lengthAdjust="spacing" textLength="95.5496" x="3029.75" y="195.572">S_DefaultState</text></g><!--class S_WeakQuoteState--><g id="elem_S_WeakQuoteState"><rect codeLine="122" fill="#F1F1F1" height="32" id="S_WeakQuoteState" rx="2.5" ry="2.5" style="stroke:#181818;stroke-width:0.5;" width="156.6975" x="2441.17" y="174.14"/><ellipse cx="2456.17" cy="190.14" fill="#ADD1B2" rx="11" ry="11" style="stroke:#181818;stroke-width:1;"/><path d="M2455.6388,197.0619 Q2453.8888,197.0619 2452.7481,196.3275 Q2451.6231,195.5775 2451.0606,194.2338 Q2450.5138,192.8744 2450.5138,191.0775 Q2450.5138,189.0463 2451.17,187.5931 Q2451.8263,186.14 2453.1075,185.3588 Q2454.3888,184.5775 2456.2638,184.5775 Q2457.1544,184.5775 2457.8263,184.765 Q2458.4981,184.9369 2459.1856,185.2806 L2458.3731,187.2963 Q2457.7481,186.9838 2457.2013,186.8588 Q2456.67,186.7338 2456.1856,186.7338 Q2455.0138,186.7338 2454.3106,187.265 Q2453.6075,187.7963 2453.3106,188.7494 Q2453.0138,189.7025 2453.0138,190.9681 Q2453.0138,192.9838 2453.7325,193.9525 Q2454.4513,194.9056 2456.045,194.9056 Q2456.6388,194.9056 2457.2638,194.7494 Q2457.8888,194.5931 2458.7169,194.2181 L2458.7169,196.4369 Q2457.9825,196.7494 2457.1856,196.9056 Q2456.4044,197.0619 2455.6388,197.0619 Z " fill="#000000"/><text fill="#000000" font-family="sans-serif" font-size="14" lengthAdjust="spacing" textLength="124.6975" x="2470.17" y="195.572">S_WeakQuoteState</text></g><!--class S_StrongQuoteState--><g id="elem_S_StrongQuoteState"><rect codeLine="127" fill="#F1F1F1" height="32" id="S_StrongQuoteState" rx="2.5" ry="2.5" style="stroke:#181818;stroke-width:0.5;" width="164.7055" x="2633.17" y="174.14"/><ellipse cx="2648.17" cy="190.14" fill="#ADD1B2" rx="11" ry="11" style="stroke:#181818;stroke-width:1;"/><path d="M2647.6388,197.0619 Q2645.8888,197.0619 2644.7481,196.3275 Q2643.6231,195.5775 2643.0606,194.2338 Q2642.5138,192.8744 2642.5138,191.0775 Q2642.5138,189.0463 2643.17,187.5931 Q2643.8263,186.14 2645.1075,185.3588 Q2646.3888,184.5775 2648.2638,184.5775 Q2649.1544,184.5775 2649.8263,184.765 Q2650.4981,184.9369 2651.1856,185.2806 L2650.3731,187.2963 Q2649.7481,186.9838 2649.2013,186.8588 Q2648.67,186.7338 2648.1856,186.7338 Q2647.0138,186.7338 2646.3106,187.265 Q2645.6075,187.7963 2645.3106,188.7494 Q2645.0138,189.7025 2645.0138,190.9681 Q2645.0138,192.9838 2645.7325,193.9525 Q2646.4513,194.9056 2648.045,194.9056 Q2648.6388,194.9056 2649.2638,194.7494 Q2649.8888,194.5931 2650.7169,194.2181 L2650.7169,196.4369 Q2649.9825,196.7494 2649.1856,196.9056 Q2648.4044,197.0619 2647.6388,197.0619 Z " fill="#000000"/><text fill="#000000" font-family="sans-serif" font-size="14" lengthAdjust="spacing" textLength="132.7055" x="2662.17" y="195.572">S_StrongQuoteState</text></g><!--class S_VariableState--><g id="elem_S_VariableState"><rect codeLine="132" fill="#F1F1F1" height="59.0679" id="S_VariableState" rx="2.5" ry="2.5" style="stroke:#181818;stroke-width:0.5;" width="133.0656" x="2832.99" y="160.6"/><ellipse cx="2847.99" cy="176.6" fill="#ADD1B2" rx="11" ry="11" style="stroke:#181818;stroke-width:1;"/><path d="M2847.4588,183.5219 Q2845.7088,183.5219 2844.5681,182.7875 Q2843.4431,182.0375 2842.8806,180.6938 Q2842.3338,179.3344 2842.3338,177.5375 Q2842.3338,175.5063 2842.99,174.0531 Q2843.6463,172.6 2844.9275,171.8188 Q2846.2088,171.0375 2848.0838,171.0375 Q2848.9744,171.0375 2849.6463,171.225 Q2850.3181,171.3969 2851.0056,171.7406 L2850.1931,173.7563 Q2849.5681,173.4438 2849.0213,173.3188 Q2848.49,173.1938 2848.0056,173.1938 Q2846.8338,173.1938 2846.1306,173.725 Q2845.4275,174.2563 2845.1306,175.2094 Q2844.8338,176.1625 2844.8338,177.4281 Q2844.8338,179.4438 2845.5525,180.4125 Q2846.2713,181.3656 2847.865,181.3656 Q2848.4588,181.3656 2849.0838,181.2094 Q2849.7088,181.0531 2850.5369,180.6781 L2850.5369,182.8969 Q2849.8025,183.2094 2849.0056,183.3656 Q2848.2244,183.5219 2847.4588,183.5219 Z " fill="#000000"/><text fill="#000000" font-family="sans-serif" font-size="14" lengthAdjust="spacing" textLength="101.0656" x="2861.99" y="182.032">S_VariableState</text><line style="stroke:#181818;stroke-width:0.5;" x1="2833.99" x2="2965.0556" y1="192.6" y2="192.6"/><rect fill="#F24D5C" height="6" style="stroke:#C82930;stroke-width:1;" width="6" x="2840.99" y="204.634"/><text fill="#000000" font-family="sans-serif" font-size="14" lengthAdjust="spacing" textLength="74.3957" x="2852.99" y="211.5659">substitute()</text></g><!--class Token--><g id="elem_Token"><rect codeLine="145" fill="#F1F1F1" height="86.1358" id="Token" rx="2.5" ry="2.5" style="stroke:#181818;stroke-width:0.5;" width="139.1616" x="3406.94" y="532.82"/><ellipse cx="3453.8118" cy="548.82" fill="#B4A7E5" rx="11" ry="11" style="stroke:#181818;stroke-width:1;"/><path d="M3449.8431,555.32 L3449.8431,553.6169 L3452.2025,553.3513 L3452.2025,545.1481 L3449.8431,544.8825 L3449.8431,543.1794 L3456.9837,543.1794 L3456.9837,544.8825 L3454.5618,545.1481 L3454.5618,553.3513 L3456.9837,553.6169 L3456.9837,555.32 L3449.8431,555.32 Z " fill="#000000"/><text fill="#000000" font-family="sans-serif" font-size="14" font-style="italic" lengthAdjust="spacing" textLength="36.9179" x="3474.3118" y="554.252">Token</text><line style="stroke:#181818;stroke-width:0.5;" x1="3407.94" x2="3545.1016" y1="564.82" y2="564.82"/><rect fill="none" height="6" style="stroke:#C82930;stroke-width:1;" width="6" x="3414.94" y="576.854"/><text fill="#000000" font-family="sans-serif" font-size="14" lengthAdjust="spacing" textLength="81.9137" x="3426.94" y="583.7859">value: String</text><line style="stroke:#181818;stroke-width:0.5;" x1="3407.94" x2="3545.1016" y1="591.8879" y2="591.8879"/><ellipse cx="3417.94" cy="606.9219" fill="#84BE84" rx="3" ry="3" style="stroke:#038048;stroke-width:1;"/><text fill="#000000" font-family="sans-serif" font-size="14" lengthAdjust="spacing" textLength="113.1616" x="3426.94" y="610.8539">getValue(): String</text></g><!--class QuotedString--><g id="elem_QuotedString"><rect codeLine="150" fill="#F1F1F1" height="32" id="QuotedString" rx="2.5" ry="2.5" style="stroke:#181818;stroke-width:0.5;" width="121.0117" x="3573.01" y="366.15"/><ellipse cx="3588.01" cy="382.15" fill="#ADD1B2" rx="11" ry="11" style="stroke:#181818;stroke-width:1;"/><path d="M3587.4787,389.0719 Q3585.7287,389.0719 3584.5881,388.3375 Q3583.4631,387.5875 3582.9006,386.2438 Q3582.3537,384.8844 3582.3537,383.0875 Q3582.3537,381.0563 3583.01,379.6031 Q3583.6662,378.15 3584.9475,377.3688 Q3586.2287,376.5875 3588.1037,376.5875 Q3588.9944,376.5875 3589.6662,376.775 Q3590.3381,376.9469 3591.0256,377.2906 L3590.2131,379.3063 Q3589.5881,378.9938 3589.0412,378.8688 Q3588.51,378.7438 3588.0256,378.7438 Q3586.8537,378.7438 3586.1506,379.275 Q3585.4475,379.8063 3585.1506,380.7594 Q3584.8537,381.7125 3584.8537,382.9781 Q3584.8537,384.9938 3585.5725,385.9625 Q3586.2912,386.9156 3587.885,386.9156 Q3588.4787,386.9156 3589.1037,386.7594 Q3589.7287,386.6031 3590.5569,386.2281 L3590.5569,388.4469 Q3589.8225,388.7594 3589.0256,388.9156 Q3588.2444,389.0719 3587.4787,389.0719 Z " fill="#000000"/><text fill="#000000" font-family="sans-serif" font-size="14" lengthAdjust="spacing" textLength="89.0117" x="3602.01" y="387.582">QuotedString</text></g><!--class PlainWord--><g id="elem_PlainWord"><rect codeLine="151" fill="#F1F1F1" height="32" id="PlainWord" rx="2.5" ry="2.5" style="stroke:#181818;stroke-width:0.5;" width="100.0817" x="3184.48" y="366.15"/><ellipse cx="3199.48" cy="382.15" fill="#ADD1B2" rx="11" ry="11" style="stroke:#181818;stroke-width:1;"/><path d="M3198.9488,389.0719 Q3197.1988,389.0719 3196.0581,388.3375 Q3194.9331,387.5875 3194.3706,386.2438 Q3193.8238,384.8844 3193.8238,383.0875 Q3193.8238,381.0563 3194.48,379.6031 Q3195.1363,378.15 3196.4175,377.3688 Q3197.6988,376.5875 3199.5738,376.5875 Q3200.4644,376.5875 3201.1363,376.775 Q3201.8081,376.9469 3202.4956,377.2906 L3201.6831,379.3063 Q3201.0581,378.9938 3200.5113,378.8688 Q3199.98,378.7438 3199.4956,378.7438 Q3198.3238,378.7438 3197.6206,379.275 Q3196.9175,379.8063 3196.6206,380.7594 Q3196.3238,381.7125 3196.3238,382.9781 Q3196.3238,384.9938 3197.0425,385.9625 Q3197.7613,386.9156 3199.355,386.9156 Q3199.9488,386.9156 3200.5738,386.7594 Q3201.1988,386.6031 3202.0269,386.2281 L3202.0269,388.4469 Q3201.2925,388.7594 3200.4956,388.9156 Q3199.7144,389.0719 3198.9488,389.0719 Z " fill="#000000"/><text fill="#000000" font-family="sans-serif" font-size="14" lengthAdjust="spacing" textLength="68.0817" x="3213.48" y="387.582">PlainWord</text></g><!--class Pipe--><g id="elem_Pipe"><rect codeLine="152" fill="#F1F1F1" height="32" id="Pipe" rx="2.5" ry="2.5" style="stroke:#181818;stroke-width:0.5;" width="60.5879" x="3319.23" y="366.15"/><ellipse cx="3334.23" cy="382.15" fill="#ADD1B2" rx="11" ry="11" style="stroke:#181818;stroke-width:1;"/><path d="M3333.6988,389.0719 Q3331.9488,389.0719 3330.8081,388.3375 Q3329.6831,387.5875 3329.1206,386.2438 Q3328.5738,384.8844 3328.5738,383.0875 Q3328.5738,381.0563 3329.23,379.6031 Q3329.8863,378.15 3331.1675,377.3688 Q3332.4488,376.5875 3334.3238,376.5875 Q3335.2144,376.5875 3335.8863,376.775 Q3336.5581,376.9469 3337.2456,377.2906 L3336.4331,379.3063 Q3335.8081,378.9938 3335.2613,378.8688 Q3334.73,378.7438 3334.2456,378.7438 Q3333.0738,378.7438 3332.3706,379.275 Q3331.6675,379.8063 3331.3706,380.7594 Q3331.0738,381.7125 3331.0738,382.9781 Q3331.0738,384.9938 3331.7925,385.9625 Q3332.5113,386.9156 3334.105,386.9156 Q3334.6988,386.9156 3335.3238,386.7594 Q3335.9488,386.6031 3336.7769,386.2281 L3336.7769,388.4469 Q3336.0425,388.7594 3335.2456,388.9156 Q3334.4644,389.0719 3333.6988,389.0719 Z " fill="#000000"/><text fill="#000000" font-family="sans-serif" font-size="14" lengthAdjust="spacing" textLength="28.5879" x="3348.23" y="387.582">Pipe</text></g><!--class EqualsSymbol--><g id="elem_EqualsSymbol"><rect codeLine="153" fill="#F1F1F1" height="32" id="EqualsSymbol" rx="2.5" ry="2.5" style="stroke:#181818;stroke-width:0.5;" width="123.8257" x="3414.61" y="366.15"/><ellipse cx="3429.61" cy="382.15" fill="#ADD1B2" rx="11" ry="11" style="stroke:#181818;stroke-width:1;"/><path d="M3429.0788,389.0719 Q3427.3288,389.0719 3426.1881,388.3375 Q3425.0631,387.5875 3424.5006,386.2438 Q3423.9538,384.8844 3423.9538,383.0875 Q3423.9538,381.0563 3424.61,379.6031 Q3425.2663,378.15 3426.5475,377.3688 Q3427.8288,376.5875 3429.7038,376.5875 Q3430.5944,376.5875 3431.2663,376.775 Q3431.9381,376.9469 3432.6256,377.2906 L3431.8131,379.3063 Q3431.1881,378.9938 3430.6413,378.8688 Q3430.11,378.7438 3429.6256,378.7438 Q3428.4538,378.7438 3427.7506,379.275 Q3427.0475,379.8063 3426.7506,380.7594 Q3426.4538,381.7125 3426.4538,382.9781 Q3426.4538,384.9938 3427.1725,385.9625 Q3427.8913,386.9156 3429.485,386.9156 Q3430.0788,386.9156 3430.7038,386.7594 Q3431.3288,386.6031 3432.1569,386.2281 L3432.1569,388.4469 Q3431.4225,388.7594 3430.6256,388.9156 Q3429.8444,389.0719 3429.0788,389.0719 Z " fill="#000000"/><text fill="#000000" font-family="sans-serif" font-size="14" lengthAdjust="spacing" textLength="91.8257" x="3443.61" y="387.582">EqualsSymbol</text></g><!--class TokenizerState--><g id="elem_TokenizerState"><rect codeLine="160" fill="#F1F1F1" height="59.0679" id="TokenizerState" rx="2.5" ry="2.5" style="stroke:#181818;stroke-width:0.5;" width="137.7055" x="4022.67" y="546.35"/><ellipse cx="4044.4577" cy="562.35" fill="#A9DCDF" rx="11" ry="11" style="stroke:#181818;stroke-width:1;"/><path d="M4039.6296,568.1 L4042.9734,555.9125 L4046.114,555.9125 L4049.489,568.1 L4047.0202,568.1 L4046.2859,565.0844 L4042.7702,565.0844 L4042.0202,568.1 L4039.6296,568.1 Z M4044.0359,560.0531 L4043.2859,563.0531 L4045.8015,563.0531 L4045.0827,560.0531 Q4044.9421,559.475 4044.8171,558.9281 Q4044.6921,558.3656 4044.5515,557.7875 Q4044.4421,558.3656 4044.3015,558.9281 Q4044.1609,559.475 4044.0359,560.0531 Z " fill="#000000"/><text fill="#000000" font-family="sans-serif" font-size="14" font-style="italic" lengthAdjust="spacing" textLength="90.6217" x="4059.9661" y="567.782">TokenizerState</text><line style="stroke:#181818;stroke-width:0.5;" x1="4023.67" x2="4159.3755" y1="578.35" y2="578.35"/><ellipse cx="4033.67" cy="593.384" fill="#84BE84" rx="3" ry="3" style="stroke:#038048;stroke-width:1;"/><text fill="#000000" font-family="sans-serif" font-size="14" lengthAdjust="spacing" textLength="111.7055" x="4042.67" y="597.3159">tokenize(): Token</text></g><!--class T_DefaultState--><g id="elem_T_DefaultState"><rect codeLine="164" fill="#F1F1F1" height="32" id="T_DefaultState" rx="2.5" ry="2.5" style="stroke:#181818;stroke-width:0.5;" width="127.6476" x="4210.7" y="366.15"/><ellipse cx="4225.7" cy="382.15" fill="#ADD1B2" rx="11" ry="11" style="stroke:#181818;stroke-width:1;"/><path d="M4225.1688,389.0719 Q4223.4188,389.0719 4222.2781,388.3375 Q4221.1531,387.5875 4220.5906,386.2438 Q4220.0438,384.8844 4220.0438,383.0875 Q4220.0438,381.0563 4220.7,379.6031 Q4221.3563,378.15 4222.6375,377.3688 Q4223.9188,376.5875 4225.7938,376.5875 Q4226.6844,376.5875 4227.3563,376.775 Q4228.0281,376.9469 4228.7156,377.2906 L4227.9031,379.3063 Q4227.2781,378.9938 4226.7313,378.8688 Q4226.2,378.7438 4225.7156,378.7438 Q4224.5438,378.7438 4223.8406,379.275 Q4223.1375,379.8063 4222.8406,380.7594 Q4222.5438,381.7125 4222.5438,382.9781 Q4222.5438,384.9938 4223.2625,385.9625 Q4223.9813,386.9156 4225.575,386.9156 Q4226.1688,386.9156 4226.7938,386.7594 Q4227.4188,386.6031 4228.2469,386.2281 L4228.2469,388.4469 Q4227.5125,388.7594 4226.7156,388.9156 Q4225.9344,389.0719 4225.1688,389.0719 Z " fill="#000000"/><text fill="#000000" font-family="sans-serif" font-size="14" lengthAdjust="spacing" textLength="95.6476" x="4239.7" y="387.582">T_DefaultState</text></g><!--class T_QuotedStringState--><g id="elem_T_QuotedStringState"><rect codeLine="170" fill="#F1F1F1" height="32" id="T_QuotedStringState" rx="2.5" ry="2.5" style="stroke:#181818;stroke-width:0.5;" width="168.5555" x="4007.24" y="366.15"/><ellipse cx="4022.24" cy="382.15" fill="#ADD1B2" rx="11" ry="11" style="stroke:#181818;stroke-width:1;"/><path d="M4021.7088,389.0719 Q4019.9588,389.0719 4018.8181,388.3375 Q4017.6931,387.5875 4017.1306,386.2438 Q4016.5838,384.8844 4016.5838,383.0875 Q4016.5838,381.0563 4017.24,379.6031 Q4017.8963,378.15 4019.1775,377.3688 Q4020.4588,376.5875 4022.3338,376.5875 Q4023.2244,376.5875 4023.8963,376.775 Q4024.5681,376.9469 4025.2556,377.2906 L4024.4431,379.3063 Q4023.8181,378.9938 4023.2713,378.8688 Q4022.74,378.7438 4022.2556,378.7438 Q4021.0838,378.7438 4020.3806,379.275 Q4019.6775,379.8063 4019.3806,380.7594 Q4019.0838,381.7125 4019.0838,382.9781 Q4019.0838,384.9938 4019.8025,385.9625 Q4020.5213,386.9156 4022.115,386.9156 Q4022.7088,386.9156 4023.3338,386.7594 Q4023.9588,386.6031 4024.7869,386.2281 L4024.7869,388.4469 Q4024.0525,388.7594 4023.2556,388.9156 Q4022.4744,389.0719 4021.7088,389.0719 Z " fill="#000000"/><text fill="#000000" font-family="sans-serif" font-size="14" lengthAdjust="spacing" textLength="136.5555" x="4036.24" y="387.582">T_QuotedStringState</text></g><!--class Parser--><g id="elem_Parser"><rect codeLine="179" fill="#F1F1F1" height="78.1358" id="Parser" rx="2.5" ry="2.5" style="stroke:#181818;stroke-width:0.5;" width="272.651" x="3487.19" y="151.07"/><ellipse cx="3598.0206" cy="167.07" fill="#ADD1B2" rx="11" ry="11" style="stroke:#181818;stroke-width:1;"/><path d="M3597.4893,173.9919 Q3595.7393,173.9919 3594.5987,173.2575 Q3593.4737,172.5075 3592.9112,171.1638 Q3592.3643,169.8044 3592.3643,168.0075 Q3592.3643,165.9763 3593.0206,164.5231 Q3593.6768,163.07 3594.9581,162.2888 Q3596.2393,161.5075 3598.1143,161.5075 Q3599.005,161.5075 3599.6768,161.695 Q3600.3487,161.8669 3601.0362,162.2106 L3600.2237,164.2263 Q3599.5987,163.9138 3599.0518,163.7888 Q3598.5206,163.6638 3598.0362,163.6638 Q3596.8643,163.6638 3596.1612,164.195 Q3595.4581,164.7263 3595.1612,165.6794 Q3594.8643,166.6325 3594.8643,167.8981 Q3594.8643,169.9138 3595.5831,170.8825 Q3596.3018,171.8356 3597.8956,171.8356 Q3598.4893,171.8356 3599.1143,171.6794 Q3599.7393,171.5231 3600.5675,171.1481 L3600.5675,173.3669 Q3599.8331,173.6794 3599.0362,173.8356 Q3598.255,173.9919 3597.4893,173.9919 Z " fill="#000000"/><text fill="#000000" font-family="sans-serif" font-size="14" lengthAdjust="spacing" textLength="42.4899" x="3618.5206" y="172.502">Parser</text><line style="stroke:#181818;stroke-width:0.5;" x1="3488.19" x2="3758.841" y1="183.07" y2="183.07"/><rect fill="#F24D5C" height="6" style="stroke:#C82930;stroke-width:1;" width="6" x="3495.19" y="195.104"/><text fill="#000000" font-family="sans-serif" font-size="14" lengthAdjust="spacing" textLength="132.2715" x="3507.19" y="202.0359">tokenize(): Token [*]</text><ellipse cx="3498.19" cy="217.1719" fill="#84BE84" rx="3" ry="3" style="stroke:#038048;stroke-width:1;"/><text fill="#000000" font-family="sans-serif" font-size="14" lengthAdjust="spacing" textLength="246.651" x="3507.19" y="221.1039">parse(input: String): CommandQueue</text></g><!--class Tokenizer--><g id="elem_Tokenizer"><rect codeLine="187" fill="#F1F1F1" height="59.0679" id="Tokenizer" rx="2.5" ry="2.5" style="stroke:#181818;stroke-width:0.5;" width="243.2791" x="3728.88" y="352.62"/><ellipse cx="3814.1957" cy="368.62" fill="#ADD1B2" rx="11" ry="11" style="stroke:#181818;stroke-width:1;"/><path d="M3813.6645,375.5419 Q3811.9145,375.5419 3810.7738,374.8075 Q3809.6488,374.0575 3809.0863,372.7138 Q3808.5395,371.3544 3808.5395,369.5575 Q3808.5395,367.5263 3809.1957,366.0731 Q3809.852,364.62 3811.1332,363.8388 Q3812.4145,363.0575 3814.2895,363.0575 Q3815.1801,363.0575 3815.852,363.245 Q3816.5238,363.4169 3817.2113,363.7606 L3816.3988,365.7763 Q3815.7738,365.4638 3815.227,365.3388 Q3814.6957,365.2138 3814.2113,365.2138 Q3813.0395,365.2138 3812.3363,365.745 Q3811.6332,366.2763 3811.3363,367.2294 Q3811.0395,368.1825 3811.0395,369.4481 Q3811.0395,371.4638 3811.7582,372.4325 Q3812.477,373.3856 3814.0707,373.3856 Q3814.6645,373.3856 3815.2895,373.2294 Q3815.9145,373.0731 3816.7426,372.6981 L3816.7426,374.9169 Q3816.0082,375.2294 3815.2113,375.3856 Q3814.4301,375.5419 3813.6645,375.5419 Z " fill="#000000"/><text fill="#000000" font-family="sans-serif" font-size="14" lengthAdjust="spacing" textLength="64.1477" x="3834.6957" y="374.052">Tokenizer</text><line style="stroke:#181818;stroke-width:0.5;" x1="3729.88" x2="3971.1591" y1="384.62" y2="384.62"/><ellipse cx="3739.88" cy="399.654" fill="#84BE84" rx="3" ry="3" style="stroke:#038048;stroke-width:1;"/><text fill="#000000" font-family="sans-serif" font-size="14" lengthAdjust="spacing" textLength="217.2791" x="3748.88" y="403.5859">tokenize(input: String) : Token [*]</text></g><!--class Environment--><g id="elem_Environment"><rect codeLine="4" fill="#F1F1F1" height="105.2038" id="Environment" rx="2.5" ry="2.5" style="stroke:#181818;stroke-width:0.5;" width="316.4569" x="1854.29" y="329.55"/><ellipse cx="1965.8906" cy="345.55" fill="#ADD1B2" rx="11" ry="11" style="stroke:#181818;stroke-width:1;"/><path d="M1965.3594,352.4719 Q1963.6094,352.4719 1962.4687,351.7375 Q1961.3437,350.9875 1960.7812,349.6438 Q1960.2344,348.2844 1960.2344,346.4875 Q1960.2344,344.4563 1960.8906,343.0031 Q1961.5469,341.55 1962.8281,340.7688 Q1964.1094,339.9875 1965.9844,339.9875 Q1966.875,339.9875 1967.5469,340.175 Q1968.2187,340.3469 1968.9062,340.6906 L1968.0937,342.7063 Q1967.4687,342.3938 1966.9219,342.2688 Q1966.3906,342.1438 1965.9062,342.1438 Q1964.7344,342.1438 1964.0312,342.675 Q1963.3281,343.2063 1963.0312,344.1594 Q1962.7344,345.1125 1962.7344,346.3781 Q1962.7344,348.3938 1963.4531,349.3625 Q1964.1719,350.3156 1965.7656,350.3156 Q1966.3594,350.3156 1966.9844,350.1594 Q1967.6094,350.0031 1968.4375,349.6281 L1968.4375,351.8469 Q1967.7031,352.1594 1966.9062,352.3156 Q1966.125,352.4719 1965.3594,352.4719 Z " fill="#000000"/><text fill="#000000" font-family="sans-serif" font-size="14" lengthAdjust="spacing" textLength="84.7557" x="1986.3906" y="350.982">Environment</text><line style="stroke:#181818;stroke-width:0.5;" x1="1855.29" x2="2169.7469" y1="361.55" y2="361.55"/><rect fill="none" height="6" style="stroke:#C82930;stroke-width:1;" width="6" x="1862.29" y="373.584"/><text fill="#000000" font-family="sans-serif" font-size="14" lengthAdjust="spacing" textLength="194.2353" x="1874.29" y="380.5159">variables: Dict&lt;String, String&gt;</text><line style="stroke:#181818;stroke-width:0.5;" x1="1855.29" x2="2169.7469" y1="388.6179" y2="388.6179"/><ellipse cx="1865.29" cy="403.6519" fill="#84BE84" rx="3" ry="3" style="stroke:#038048;stroke-width:1;"/><text fill="#000000" font-family="sans-serif" font-size="14" lengthAdjust="spacing" textLength="290.4569" x="1874.29" y="407.5839">setVariable(name: String, value: String): void</text><ellipse cx="1865.29" cy="422.7198" fill="#84BE84" rx="3" ry="3" style="stroke:#038048;stroke-width:1;"/><text fill="#000000" font-family="sans-serif" font-size="14" lengthAdjust="spacing" textLength="197.4412" x="1874.29" y="426.6518">getValue(name: String): String</text></g><g id="elem_GMN3"><path d="M1857.49,544.33 L1857.49,607.448 A0,0 0 0 0 1857.49,607.448 L2167.5453,607.448 A0,0 0 0 0 2167.5453,607.448 L2167.5453,554.33 L2157.5453,544.33 L2016.52,544.33 L2012.52,435.04 L2008.52,544.33 L1857.49,544.33 A0,0 0 0 0 1857.49,544.33 " fill="#FEFFDD" style="stroke:#181818;stroke-width:0.5;"/><path d="M2157.5453,544.33 L2157.5453,554.33 L2167.5453,554.33 L2157.5453,544.33 " fill="#FEFFDD" style="stroke:#181818;stroke-width:0.5;"/><text fill="#000000" font-family="sans-serif" font-size="13" lengthAdjust="spacing" textLength="289.0553" x="1863.49" y="563.227">&#1085;&#1072;&#1089;&#1083;&#1077;&#1076;&#1091;&#1077;&#1090; &#1089;&#1074;&#1086;&#1105; &#1089;&#1086;&#1076;&#1077;&#1088;&#1078;&#1072;&#1085;&#1080;&#1077; &#1086;&#1090; &#1079;&#1072;&#1087;&#1091;&#1089;&#1090;&#1080;&#1074;&#1096;&#1077;&#1075;&#1086;;</text><text fill="#000000" font-family="sans-serif" font-size="13" lengthAdjust="spacing" textLength="199.9792" x="1863.49" y="580.933">PATH &#1086;&#1073;&#1103;&#1079;&#1072;&#1090;&#1077;&#1083;&#1077;&#1085;, &#1077;&#1089;&#1083;&#1080; &#1085;&#1077; &#1073;&#1099;&#1083;&#1086;</text><text fill="#000000" font-family="sans-serif" font-size="13" lengthAdjust="spacing" textLength="202.7872" x="1863.49" y="598.639">&#1079;&#1072;&#1087;&#1086;&#1083;&#1085;&#1103;&#1077;&#1090;&#1089;&#1103; &#1095;&#1077;&#1084;-&#1090;&#1086; &#1076;&#1077;&#1092;&#1086;&#1083;&#1090;&#1085;&#1099;&#1084;</text></g><!--class Output--><g id="elem_Output"><rect codeLine="15" fill="#F1F1F1" height="143.3396" id="Output" rx="2.5" ry="2.5" style="stroke:#181818;stroke-width:0.5;" width="319.0469" x="471" y="691.49"/><ellipse cx="602.7955" cy="707.49" fill="#ADD1B2" rx="11" ry="11" style="stroke:#181818;stroke-width:1;"/><path d="M602.2643,714.4119 Q600.5143,714.4119 599.3737,713.6775 Q598.2487,712.9275 597.6862,711.5838 Q597.1393,710.2244 597.1393,708.4275 Q597.1393,706.3963 597.7955,704.9431 Q598.4518,703.49 599.733,702.7088 Q601.0143,701.9275 602.8893,701.9275 Q603.7799,701.9275 604.4518,702.115 Q605.1237,702.2869 605.8112,702.6306 L604.9987,704.6463 Q604.3737,704.3338 603.8268,704.2088 Q603.2955,704.0838 602.8112,704.0838 Q601.6393,704.0838 600.9362,704.615 Q600.233,705.1463 599.9362,706.0994 Q599.6393,707.0525 599.6393,708.3181 Q599.6393,710.3338 600.358,711.3025 Q601.0768,712.2556 602.6705,712.2556 Q603.2643,712.2556 603.8893,712.0994 Q604.5143,711.9431 605.3424,711.5681 L605.3424,713.7869 Q604.608,714.0994 603.8112,714.2556 Q603.0299,714.4119 602.2643,714.4119 Z " fill="#000000"/><text fill="#000000" font-family="sans-serif" font-size="14" lengthAdjust="spacing" textLength="46.9558" x="623.2955" y="712.922">Output</text><line style="stroke:#181818;stroke-width:0.5;" x1="472" x2="789.0469" y1="723.49" y2="723.49"/><rect fill="none" height="6" style="stroke:#C82930;stroke-width:1;" width="6" x="479" y="735.524"/><text fill="#000000" font-family="sans-serif" font-size="14" lengthAdjust="spacing" textLength="83.6357" x="491" y="742.4559">exitCode: Int</text><rect fill="none" height="6" style="stroke:#C82930;stroke-width:1;" width="6" x="479" y="754.5919"/><text fill="#000000" font-family="sans-serif" font-size="14" lengthAdjust="spacing" textLength="91.2797" x="491" y="761.5239">output: String</text><rect fill="none" height="6" style="stroke:#C82930;stroke-width:1;" width="6" x="479" y="773.6598"/><text fill="#000000" font-family="sans-serif" font-size="14" lengthAdjust="spacing" textLength="138.8655" x="491" y="780.5918">errorMessage: String</text><line style="stroke:#181818;stroke-width:0.5;" x1="472" x2="789.0469" y1="788.6938" y2="788.6938"/><ellipse cx="482" cy="803.7277" fill="#84BE84" rx="3" ry="3" style="stroke:#038048;stroke-width:1;"/><text fill="#000000" font-family="sans-serif" font-size="14" lengthAdjust="spacing" textLength="293.0469" x="491" y="807.6597">Output(stdout: String, stderr: String): Output</text><ellipse cx="482" cy="822.7956" fill="#84BE84" rx="3" ry="3" style="stroke:#038048;stroke-width:1;"/><text fill="#000000" font-family="sans-serif" font-size="14" lengthAdjust="spacing" textLength="123.7035" x="491" y="826.7276">getOutput(): String</text></g><g id="elem_GMN7"><path d="M147.39,731.6 L147.39,794.718 A0,0 0 0 0 147.39,794.718 L435.6442,794.718 A0,0 0 0 0 435.6442,794.718 L435.6442,767.16 L470.84,763.16 L435.6442,759.16 L435.6442,741.6 L425.6442,731.6 L147.39,731.6 A0,0 0 0 0 147.39,731.6 " fill="#FEFFDD" style="stroke:#181818;stroke-width:0.5;"/><path d="M425.6442,731.6 L425.6442,741.6 L435.6442,741.6 L425.6442,731.6 " fill="#FEFFDD" style="stroke:#181818;stroke-width:0.5;"/><text fill="#000000" font-family="sans-serif" font-size="13" lengthAdjust="spacing" textLength="255.4632" x="153.39" y="750.497">&#1054;&#1073;&#1088;&#1072;&#1073;&#1086;&#1090;&#1082;&#1072; &#1088;&#1077;&#1079;&#1091;&#1083;&#1100;&#1090;&#1072;&#1090;&#1072; &#1088;&#1072;&#1073;&#1086;&#1090;&#1099; &#1082;&#1086;&#1084;&#1072;&#1085;&#1076;&#1099;.</text><text fill="#000000" font-family="sans-serif" font-size="13" lengthAdjust="spacing" textLength="210.2492" x="153.39" y="768.203">&#1052;&#1086;&#1078;&#1077;&#1090; &#1073;&#1099;&#1090;&#1100; &#1076;&#1086;&#1089;&#1090;&#1072;&#1090;&#1086;&#1095;&#1085;&#1086; &#1089;&#1083;&#1086;&#1078;&#1085;&#1072;&#1103;</text><text fill="#000000" font-family="sans-serif" font-size="13" lengthAdjust="spacing" textLength="267.2542" x="153.39" y="785.909">&#1086;&#1073;&#1088;&#1072;&#1073;&#1086;&#1090;&#1082;&#1072;  stdout &#1080; stderr &#1074; &#1082;&#1086;&#1085;&#1089;&#1090;&#1088;&#1091;&#1082;&#1090;&#1086;&#1088;&#1077;.</text></g><g id="elem_GMN18"><path d="M435.83,176.28 L435.83,203.986 A0,0 0 0 0 435.83,203.986 L555.5,203.986 L497.37,365.91 L563.5,203.986 L693.2093,203.986 A0,0 0 0 0 693.2093,203.986 L693.2093,186.28 L683.2093,176.28 L435.83,176.28 A0,0 0 0 0 435.83,176.28 " fill="#FEFFDD" style="stroke:#181818;stroke-width:0.5;"/><path d="M683.2093,176.28 L683.2093,186.28 L693.2093,186.28 L683.2093,176.28 " fill="#FEFFDD" style="stroke:#181818;stroke-width:0.5;"/><text fill="#000000" font-family="sans-serif" font-size="13" lengthAdjust="spacing" textLength="236.3793" x="441.83" y="195.177">&#1087;&#1088;&#1080;&#1089;&#1074;&#1072;&#1080;&#1074;&#1072;&#1085;&#1080;&#1077; &#1079;&#1085;&#1072;&#1095;&#1077;&#1085;&#1080;&#1103; &#1087;&#1077;&#1088;&#1077;&#1084;&#1077;&#1085;&#1085;&#1086;&#1081;</text></g><g id="elem_GMN23"><path d="M6,149.72 L6,230.5441 A0,0 0 0 0 6,230.5441 L214.82,230.5441 L258.14,333.3 L222.82,230.5441 L401.0493,230.5441 A0,0 0 0 0 401.0493,230.5441 L401.0493,159.72 L391.0493,149.72 L6,149.72 A0,0 0 0 0 6,149.72 " fill="#FEFFDD" style="stroke:#181818;stroke-width:0.5;"/><path d="M391.0493,149.72 L391.0493,159.72 L401.0493,159.72 L391.0493,149.72 " fill="#FEFFDD" style="stroke:#181818;stroke-width:0.5;"/><text fill="#000000" font-family="sans-serif" font-size="13" lengthAdjust="spacing" textLength="374.0493" x="12" y="168.617">executableExists() &#1087;&#1088;&#1086;&#1074;&#1077;&#1088;&#1103;&#1077;&#1090; &#1085;&#1072;&#1083;&#1080;&#1095;&#1080;&#1077; &#1080;&#1089;&#1087;&#1086;&#1083;&#1085;&#1103;&#1077;&#1084;&#1086;&#1075;&#1086; &#1092;&#1072;&#1081;&#1083;&#1072;</text><text fill="#000000" font-family="sans-serif" font-size="13" lengthAdjust="spacing" textLength="317.8503" x="12" y="186.323">&#1074; &#1079;&#1072;&#1074;&#1080;&#1089;&#1080;&#1084;&#1086;&#1089;&#1090;&#1080; &#1086;&#1090; &#1088;&#1077;&#1079;&#1091;&#1083;&#1100;&#1090;&#1072;&#1090;&#1072; needsPathExtension()</text><text fill="#000000" font-family="sans-serif" font-size="13" lengthAdjust="spacing" textLength="271.3753" x="12" y="204.029">True -&gt; &#1080;&#1097;&#1077;&#1084; &#1074; PATH &#1095;&#1077;&#1088;&#1077;&#1079; findExecutable()</text><text fill="#000000" font-family="sans-serif" font-size="13" lengthAdjust="spacing" textLength="273.4423" x="12" y="221.7351">False -&gt; &#1087;&#1088;&#1086;&#1074;&#1077;&#1088;&#1103;&#1077;&#1084; &#1089;&#1091;&#1097;&#1077;&#1089;&#1090;&#1074;&#1086;&#1074;&#1072;&#1085;&#1080;&#1077; &#1080; &#1092;&#1083;&#1072;&#1075;&#1080;</text></g><!--class CommandQueue--><g id="elem_CommandQueue"><rect codeLine="66" fill="#F1F1F1" height="105.2038" id="CommandQueue" rx="2.5" ry="2.5" style="stroke:#181818;stroke-width:0.5;" width="305.775" x="927.63" y="329.55"/><ellipse cx="1019.9457" cy="345.55" fill="#ADD1B2" rx="11" ry="11" style="stroke:#181818;stroke-width:1;"/><path d="M1019.4145,352.4719 Q1017.6645,352.4719 1016.5238,351.7375 Q1015.3988,350.9875 1014.8363,349.6438 Q1014.2895,348.2844 1014.2895,346.4875 Q1014.2895,344.4563 1014.9457,343.0031 Q1015.602,341.55 1016.8832,340.7688 Q1018.1645,339.9875 1020.0395,339.9875 Q1020.9301,339.9875 1021.602,340.175 Q1022.2738,340.3469 1022.9613,340.6906 L1022.1488,342.7063 Q1021.5238,342.3938 1020.977,342.2688 Q1020.4457,342.1438 1019.9613,342.1438 Q1018.7895,342.1438 1018.0863,342.675 Q1017.3832,343.2063 1017.0863,344.1594 Q1016.7895,345.1125 1016.7895,346.3781 Q1016.7895,348.3938 1017.5082,349.3625 Q1018.227,350.3156 1019.8207,350.3156 Q1020.4145,350.3156 1021.0395,350.1594 Q1021.6645,350.0031 1022.4926,349.6281 L1022.4926,351.8469 Q1021.7582,352.1594 1020.9613,352.3156 Q1020.1801,352.4719 1019.4145,352.4719 Z " fill="#000000"/><text fill="#000000" font-family="sans-serif" font-size="14" lengthAdjust="spacing" textLength="112.6436" x="1040.4457" y="350.982">CommandQueue</text><line style="stroke:#181818;stroke-width:0.5;" x1="928.63" x2="1232.405" y1="361.55" y2="361.55"/><rect fill="none" height="6" style="stroke:#C82930;stroke-width:1;" width="6" x="935.63" y="373.584"/><text fill="#000000" font-family="sans-serif" font-size="14" lengthAdjust="spacing" textLength="169.7634" x="947.63" y="380.5159">commands: Command [*]</text><line style="stroke:#181818;stroke-width:0.5;" x1="928.63" x2="1232.405" y1="388.6179" y2="388.6179"/><ellipse cx="938.63" cy="403.6519" fill="#84BE84" rx="3" ry="3" style="stroke:#038048;stroke-width:1;"/><text fill="#000000" font-family="sans-serif" font-size="14" lengthAdjust="spacing" textLength="279.775" x="947.63" y="407.5839">addCommand(command: Command): void</text><ellipse cx="938.63" cy="422.7198" fill="#84BE84" rx="3" ry="3" style="stroke:#038048;stroke-width:1;"/><text fill="#000000" font-family="sans-serif" font-size="14" lengthAdjust="spacing" textLength="178.7093" x="947.63" y="426.6518">popCommand(): Command</text></g><g id="elem_GMN34"><path d="M987.4,176.28 L987.4,203.986 A0,0 0 0 0 987.4,203.986 L1076.52,203.986 L1080.52,329.47 L1084.52,203.986 L1173.6301,203.986 A0,0 0 0 0 1173.6301,203.986 L1173.6301,186.28 L1163.6301,176.28 L987.4,176.28 A0,0 0 0 0 987.4,176.28 " fill="#FEFFDD" style="stroke:#181818;stroke-width:0.5;"/><path d="M1163.6301,176.28 L1163.6301,186.28 L1173.6301,186.28 L1163.6301,176.28 " fill="#FEFFDD" style="stroke:#181818;stroke-width:0.5;"/><text fill="#000000" font-family="sans-serif" font-size="13" lengthAdjust="spacing" textLength="165.2301" x="993.4" y="195.177">&#1086;&#1073;&#1105;&#1088;&#1090;&#1082;&#1072; &#1085;&#1072;&#1076; &#1082;&#1086;&#1085;&#1090;&#1077;&#1081;&#1085;&#1077;&#1088;&#1086;&#1084;</text></g><!--class CommandRunner--><g id="elem_CommandRunner"><rect codeLine="75" fill="#F1F1F1" height="59.0679" id="CommandRunner" rx="2.5" ry="2.5" style="stroke:#181818;stroke-width:0.5;" width="215.5873" x="1835.73" y="160.6"/><ellipse cx="1880.7959" cy="176.6" fill="#ADD1B2" rx="11" ry="11" style="stroke:#181818;stroke-width:1;"/><path d="M1880.2646,183.5219 Q1878.5146,183.5219 1877.374,182.7875 Q1876.249,182.0375 1875.6865,180.6938 Q1875.1396,179.3344 1875.1396,177.5375 Q1875.1396,175.5063 1875.7959,174.0531 Q1876.4521,172.6 1877.7334,171.8188 Q1879.0146,171.0375 1880.8896,171.0375 Q1881.7802,171.0375 1882.4521,171.225 Q1883.124,171.3969 1883.8115,171.7406 L1882.999,173.7563 Q1882.374,173.4438 1881.8271,173.3188 Q1881.2959,173.1938 1880.8115,173.1938 Q1879.6396,173.1938 1878.9365,173.725 Q1878.2334,174.2563 1877.9365,175.2094 Q1877.6396,176.1625 1877.6396,177.4281 Q1877.6396,179.4438 1878.3584,180.4125 Q1879.0771,181.3656 1880.6709,181.3656 Q1881.2646,181.3656 1881.8896,181.2094 Q1882.5146,181.0531 1883.3427,180.6781 L1883.3427,182.8969 Q1882.6084,183.2094 1881.8115,183.3656 Q1881.0302,183.5219 1880.2646,183.5219 Z " fill="#000000"/><text fill="#000000" font-family="sans-serif" font-size="14" lengthAdjust="spacing" textLength="116.9555" x="1901.2959" y="182.032">CommandRunner</text><line style="stroke:#181818;stroke-width:0.5;" x1="1836.73" x2="2050.3173" y1="192.6" y2="192.6"/><ellipse cx="1846.73" cy="207.634" fill="#84BE84" rx="3" ry="3" style="stroke:#038048;stroke-width:1;"/><text fill="#000000" font-family="sans-serif" font-size="14" lengthAdjust="spacing" textLength="189.5873" x="1855.73" y="211.5659">executeCommands(): Output</text></g><!--class Main--><g id="elem_Main"><rect codeLine="82" fill="#F1F1F1" height="59.0679" id="Main" rx="2.5" ry="2.5" style="stroke:#181818;stroke-width:0.5;" width="165.8315" x="1899.6" y="7"/><ellipse cx="1961.8578" cy="23" fill="#ADD1B2" rx="11" ry="11" style="stroke:#181818;stroke-width:1;"/><path d="M1961.3265,29.9219 Q1959.5765,29.9219 1958.4359,29.1875 Q1957.3109,28.4375 1956.7484,27.0938 Q1956.2015,25.7344 1956.2015,23.9375 Q1956.2015,21.9063 1956.8578,20.4531 Q1957.514,19 1958.7953,18.2188 Q1960.0765,17.4375 1961.9515,17.4375 Q1962.8422,17.4375 1963.514,17.625 Q1964.1859,17.7969 1964.8734,18.1406 L1964.0609,20.1563 Q1963.4359,19.8438 1962.889,19.7188 Q1962.3578,19.5938 1961.8734,19.5938 Q1960.7015,19.5938 1959.9984,20.125 Q1959.2953,20.6563 1958.9984,21.6094 Q1958.7015,22.5625 1958.7015,23.8281 Q1958.7015,25.8438 1959.4203,26.8125 Q1960.139,27.7656 1961.7328,27.7656 Q1962.3265,27.7656 1962.9515,27.6094 Q1963.5765,27.4531 1964.4047,27.0781 L1964.4047,29.2969 Q1963.6703,29.6094 1962.8734,29.7656 Q1962.0922,29.9219 1961.3265,29.9219 Z " fill="#000000"/><text fill="#000000" font-family="sans-serif" font-size="14" lengthAdjust="spacing" textLength="32.8159" x="1982.3578" y="28.432">Main</text><line style="stroke:#181818;stroke-width:0.5;" x1="1900.6" x2="2064.4315" y1="39" y2="39"/><ellipse cx="1910.6" cy="54.034" fill="#84BE84" rx="3" ry="3" style="stroke:#038048;stroke-width:1;"/><text fill="#000000" font-family="sans-serif" font-size="14" lengthAdjust="spacing" textLength="139.8315" x="1919.6" y="57.9659">runInterpreter(): void</text></g><!--class CommandLine--><g id="elem_CommandLine"><rect codeLine="88" fill="#F1F1F1" height="124.2717" id="CommandLine" rx="2.5" ry="2.5" style="stroke:#181818;stroke-width:0.5;" width="235.1312" x="1583.95" y="320.02"/><ellipse cx="1649.2108" cy="336.02" fill="#ADD1B2" rx="11" ry="11" style="stroke:#181818;stroke-width:1;"/><path d="M1648.6796,342.9419 Q1646.9296,342.9419 1645.7889,342.2075 Q1644.6639,341.4575 1644.1014,340.1138 Q1643.5546,338.7544 1643.5546,336.9575 Q1643.5546,334.9263 1644.2108,333.4731 Q1644.8671,332.02 1646.1483,331.2388 Q1647.4296,330.4575 1649.3046,330.4575 Q1650.1952,330.4575 1650.8671,330.645 Q1651.5389,330.8169 1652.2264,331.1606 L1651.4139,333.1763 Q1650.7889,332.8638 1650.2421,332.7388 Q1649.7108,332.6138 1649.2264,332.6138 Q1648.0546,332.6138 1647.3514,333.145 Q1646.6483,333.6763 1646.3514,334.6294 Q1646.0546,335.5825 1646.0546,336.8481 Q1646.0546,338.8638 1646.7733,339.8325 Q1647.4921,340.7856 1649.0858,340.7856 Q1649.6796,340.7856 1650.3046,340.6294 Q1650.9296,340.4731 1651.7577,340.0981 L1651.7577,342.3169 Q1651.0233,342.6294 1650.2264,342.7856 Q1649.4452,342.9419 1648.6796,342.9419 Z " fill="#000000"/><text fill="#000000" font-family="sans-serif" font-size="14" lengthAdjust="spacing" textLength="96.1096" x="1669.7108" y="341.452">CommandLine</text><line style="stroke:#181818;stroke-width:0.5;" x1="1584.95" x2="1818.0812" y1="352.02" y2="352.02"/><rect fill="none" height="6" style="stroke:#C82930;stroke-width:1;" width="6" x="1591.95" y="364.054"/><text fill="#000000" font-family="sans-serif" font-size="14" lengthAdjust="spacing" textLength="96.4037" x="1603.95" y="370.9859">prompt: String</text><line style="stroke:#181818;stroke-width:0.5;" x1="1584.95" x2="1818.0812" y1="379.0879" y2="379.0879"/><ellipse cx="1594.95" cy="394.1219" fill="#84BE84" rx="3" ry="3" style="stroke:#038048;stroke-width:1;"/><text fill="#000000" font-family="sans-serif" font-size="14" lengthAdjust="spacing" text-decoration="underline" textLength="85.3297" x="1603.95" y="398.0539">read(): String</text><ellipse cx="1594.95" cy="413.1898" fill="#84BE84" rx="3" ry="3" style="stroke:#038048;stroke-width:1;"/><text fill="#000000" font-family="sans-serif" font-size="14" lengthAdjust="spacing" text-decoration="underline" textLength="175.7833" x="1603.95" y="417.1218">write(output: Output): void</text><ellipse cx="1594.95" cy="432.2577" fill="#84BE84" rx="3" ry="3" style="stroke:#038048;stroke-width:1;"/><text fill="#000000" font-family="sans-serif" font-size="14" lengthAdjust="spacing" textLength="209.1312" x="1603.95" y="436.1897">setPrompt(prompt: String): void</text></g><g id="elem_GMN44"><path d="M1595.19,562.04 L1595.19,589.746 A0,0 0 0 0 1595.19,589.746 L1807.8492,589.746 A0,0 0 0 0 1807.8492,589.746 L1807.8492,572.04 L1797.8492,562.04 L1705.52,562.04 L1701.52,444.61 L1697.52,562.04 L1595.19,562.04 A0,0 0 0 0 1595.19,562.04 " fill="#FEFFDD" style="stroke:#181818;stroke-width:0.5;"/><path d="M1797.8492,562.04 L1797.8492,572.04 L1807.8492,572.04 L1797.8492,562.04 " fill="#FEFFDD" style="stroke:#181818;stroke-width:0.5;"/><text fill="#000000" font-family="sans-serif" font-size="13" lengthAdjust="spacing" textLength="191.6592" x="1601.19" y="580.937">&#1082;&#1083;&#1072;&#1089;&#1089; &#1080;&#1079; &#1074;&#1085;&#1077;&#1096;&#1085;&#1077;&#1081; &#1073;&#1080;&#1073;&#1083;&#1080;&#1086;&#1090;&#1077;&#1082;&#1080;</text></g><path d="M1268.18,363.3 L1268.18,391.006 A0,0 0 0 0 1268.18,391.006 L1548.8552,391.006 A0,0 0 0 0 1548.8552,391.006 L1548.8552,381.3 L1587.95,430.7577 L1548.8552,373.3 L1548.8552,373.3 L1538.8552,363.3 L1268.18,363.3 A0,0 0 0 0 1268.18,363.3 " fill="#FEFFDD" style="stroke:#181818;stroke-width:0.5;"/><path d="M1538.8552,363.3 L1538.8552,373.3 L1548.8552,373.3 L1538.8552,363.3 " fill="#FEFFDD" style="stroke:#181818;stroke-width:0.5;"/><text fill="#000000" font-family="sans-serif" font-size="13" lengthAdjust="spacing" textLength="259.6752" x="1274.18" y="382.197">&#1091;&#1089;&#1090;&#1072;&#1085;&#1072;&#1074;&#1083;&#1080;&#1074;&#1072;&#1077;&#1090; &#1074;&#1080;&#1076; &#1087;&#1088;&#1080;&#1075;&#1083;&#1072;&#1096;&#1077;&#1085;&#1080;&#1103; &#1082; &#1074;&#1074;&#1086;&#1076;&#1091;</text><g id="elem_GMN53"><path d="M2111.41,22.68 L2111.41,50.386 A0,0 0 0 0 2111.41,50.386 L2227.48,50.386 L2289.24,160.19 L2235.48,50.386 L2337.6282,50.386 A0,0 0 0 0 2337.6282,50.386 L2337.6282,32.68 L2327.6282,22.68 L2111.41,22.68 A0,0 0 0 0 2111.41,22.68 " fill="#FEFFDD" style="stroke:#181818;stroke-width:0.5;"/><path d="M2327.6282,22.68 L2327.6282,32.68 L2337.6282,32.68 L2327.6282,22.68 " fill="#FEFFDD" style="stroke:#181818;stroke-width:0.5;"/><text fill="#000000" font-family="sans-serif" font-size="13" lengthAdjust="spacing" textLength="205.2182" x="2117.41" y="41.577">&#1087;&#1086; &#1089;&#1091;&#1090;&#1080; &#1089;&#1080;&#1089;&#1090;&#1077;&#1084;&#1072; &#1087;&#1077;&#1088;&#1077;&#1087;&#1080;&#1089;&#1099;&#1074;&#1072;&#1085;&#1080;&#1081;</text></g><g id="elem_GMN61"><path d="M3088.92,13.83 L3088.92,59.242 A0,0 0 0 0 3088.92,59.242 L3149.4,59.242 L3074.93,173.97 L3157.4,59.242 L3248.1101,59.242 A0,0 0 0 0 3248.1101,59.242 L3248.1101,23.83 L3238.1101,13.83 L3088.92,13.83 A0,0 0 0 0 3088.92,13.83 " fill="#FEFFDD" style="stroke:#181818;stroke-width:0.5;"/><path d="M3238.1101,13.83 L3238.1101,23.83 L3248.1101,23.83 L3238.1101,13.83 " fill="#FEFFDD" style="stroke:#181818;stroke-width:0.5;"/><text fill="#000000" font-family="sans-serif" font-size="13" lengthAdjust="spacing" textLength="138.1901" x="3094.92" y="32.727">&#1087;&#1088;&#1086;&#1089;&#1090;&#1086; &#1095;&#1080;&#1090;&#1072;&#1077;&#1084; &#1089;&#1090;&#1088;&#1086;&#1082;&#1091;</text><text fill="#000000" font-family="sans-serif" font-size="13" lengthAdjust="spacing" textLength="103.6101" x="3094.92" y="50.433">&#1085;&#1080;&#1095;&#1077;&#1075;&#1086; &#1085;&#1077; &#1076;&#1077;&#1083;&#1072;&#1103;</text></g><g id="elem_GMN65"><path d="M2372.3,13.83 L2372.3,59.242 A0,0 0 0 0 2372.3,59.242 L2476.21,59.242 L2514.92,173.97 L2484.21,59.242 L2574.7411,59.242 A0,0 0 0 0 2574.7411,59.242 L2574.7411,23.83 L2564.7411,13.83 L2372.3,13.83 A0,0 0 0 0 2372.3,13.83 " fill="#FEFFDD" style="stroke:#181818;stroke-width:0.5;"/><path d="M2564.7411,13.83 L2564.7411,23.83 L2574.7411,23.83 L2564.7411,13.83 " fill="#FEFFDD" style="stroke:#181818;stroke-width:0.5;"/><text fill="#000000" font-family="sans-serif" font-size="13" lengthAdjust="spacing" textLength="181.4411" x="2378.3" y="32.727">&#1086;&#1090;&#1089;&#1102;&#1076;&#1072; &#1084;&#1086;&#1078;&#1077;&#1084; &#1087;&#1077;&#1088;&#1077;&#1093;&#1086;&#1076;&#1080;&#1090;&#1100; &#1074;</text><text fill="#000000" font-family="sans-serif" font-size="13" lengthAdjust="spacing" textLength="93.8471" x="2378.3" y="50.433">S_VariableState</text></g><g id="elem_GMN69"><path d="M2609.52,13.83 L2609.52,59.242 A0,0 0 0 0 2609.52,59.242 L2711.52,59.242 L2715.52,173.97 L2719.52,59.242 L2821.5162,59.242 A0,0 0 0 0 2821.5162,59.242 L2821.5162,23.83 L2811.5162,13.83 L2609.52,13.83 A0,0 0 0 0 2609.52,13.83 " fill="#FEFFDD" style="stroke:#181818;stroke-width:0.5;"/><path d="M2811.5162,13.83 L2811.5162,23.83 L2821.5162,23.83 L2811.5162,13.83 " fill="#FEFFDD" style="stroke:#181818;stroke-width:0.5;"/><text fill="#000000" font-family="sans-serif" font-size="13" lengthAdjust="spacing" textLength="190.9962" x="2615.52" y="32.727">&#1086;&#1090;&#1089;&#1102;&#1076;&#1072; &#1053;&#1045; &#1084;&#1086;&#1078;&#1077;&#1084; &#1087;&#1077;&#1088;&#1077;&#1093;&#1086;&#1076;&#1080;&#1090;&#1100;</text><text fill="#000000" font-family="sans-serif" font-size="13" lengthAdjust="spacing" textLength="104.5591" x="2615.52" y="50.433">&#1074; S_VariableState</text></g><g id="elem_GMN73"><path d="M2856.7,13.83 L2856.7,59.242 A0,0 0 0 0 2856.7,59.242 L2943.38,59.242 L2910.16,160.32 L2951.38,59.242 L3054.3312,59.242 A0,0 0 0 0 3054.3312,59.242 L3054.3312,23.83 L3044.3312,13.83 L2856.7,13.83 A0,0 0 0 0 2856.7,13.83 " fill="#FEFFDD" style="stroke:#181818;stroke-width:0.5;"/><path d="M3044.3312,13.83 L3044.3312,23.83 L3054.3312,23.83 L3044.3312,13.83 " fill="#FEFFDD" style="stroke:#181818;stroke-width:0.5;"/><text fill="#000000" font-family="sans-serif" font-size="13" lengthAdjust="spacing" textLength="143.2601" x="2862.7" y="32.727">&#1074;&#1099;&#1095;&#1080;&#1090;&#1099;&#1074;&#1072;&#1077;&#1084; &#1085;&#1072;&#1079;&#1074;&#1072;&#1085;&#1080;&#1077;</text><text fill="#000000" font-family="sans-serif" font-size="13" lengthAdjust="spacing" textLength="176.6312" x="2862.7" y="50.433">&#1087;&#1077;&#1088;&#1077;&#1084;&#1077;&#1085;&#1085;&#1086;&#1081; &#1080; &#1087;&#1086;&#1076;&#1089;&#1090;&#1072;&#1074;&#1083;&#1103;&#1077;&#1084;</text></g><g id="elem_GMN92"><path d="M4669.3,553.18 L4669.3,598.592 L4863.7331,598.592 L4863.7331,563.18 L4853.7331,553.18 L4669.3,553.18 " fill="#FEFFDD" style="stroke:#181818;stroke-width:0.5;"/><path d="M4853.7331,553.18 L4853.7331,563.18 L4863.7331,563.18 L4853.7331,553.18 " fill="#FEFFDD" style="stroke:#181818;stroke-width:1;"/><text fill="#000000" font-family="sans-serif" font-size="13" lengthAdjust="spacing" textLength="173.4331" x="4675.3" y="572.077">&#1087;&#1088;&#1086;&#1089;&#1090;&#1086; &#1074;&#1099;&#1095;&#1080;&#1090;&#1072;&#1074;&#1072;&#1077;&#1084; &#1089;&#1090;&#1088;&#1086;&#1082;&#1091;,</text><text fill="#000000" font-family="sans-serif" font-size="13" lengthAdjust="spacing" textLength="136.6691" x="4675.3" y="589.783">&#1088;&#1072;&#1079;&#1073;&#1080;&#1074;&#1072;&#1077;&#1084; &#1085;&#1072; &#1090;&#1086;&#1082;&#1077;&#1085;&#1099;</text></g><g id="elem_GMN96"><path d="M4370.95,553.18 L4370.95,598.592 L4634.0882,598.592 L4634.0882,563.18 L4624.0882,553.18 L4370.95,553.18 " fill="#FEFFDD" style="stroke:#181818;stroke-width:0.5;"/><path d="M4624.0882,553.18 L4624.0882,563.18 L4634.0882,563.18 L4624.0882,553.18 " fill="#FEFFDD" style="stroke:#181818;stroke-width:1;"/><text fill="#000000" font-family="sans-serif" font-size="13" lengthAdjust="spacing" textLength="242.1382" x="4376.95" y="572.077">&#1089;&#1086;&#1073;&#1080;&#1088;&#1072;&#1077;&#1084; &#1074;&#1089;&#1105;, &#1095;&#1090;&#1086; &#1074; &#1082;&#1072;&#1074;&#1099;&#1095;&#1082;&#1072;&#1093; (&#1083;&#1102;&#1073;&#1099;&#1093;)</text><text fill="#000000" font-family="sans-serif" font-size="13" lengthAdjust="spacing" textLength="104.3771" x="4376.95" y="589.783">&#1074; &#1086;&#1076;&#1080;&#1085; &#1072;&#1088;&#1075;&#1091;&#1084;&#1077;&#1085;&#1090;</text></g><g id="elem_GMN102"><path d="M3508.91,22.68 L3508.91,50.386 A0,0 0 0 0 3508.91,50.386 L3619.52,50.386 L3623.52,150.65 L3627.52,50.386 L3738.1312,50.386 A0,0 0 0 0 3738.1312,50.386 L3738.1312,32.68 L3728.1312,22.68 L3508.91,22.68 A0,0 0 0 0 3508.91,22.68 " fill="#FEFFDD" style="stroke:#181818;stroke-width:0.5;"/><path d="M3728.1312,22.68 L3728.1312,32.68 L3738.1312,32.68 L3728.1312,22.68 " fill="#FEFFDD" style="stroke:#181818;stroke-width:0.5;"/><text fill="#000000" font-family="sans-serif" font-size="13" lengthAdjust="spacing" textLength="208.2212" x="3514.91" y="41.577">&#1087;&#1088;&#1086;&#1089;&#1090;&#1086;&#1081;, &#1085;&#1086; &#1089;&#1090;&#1072;&#1085;&#1076;&#1072;&#1088;&#1090;&#1085;&#1099;&#1081; &#1087;&#1072;&#1088;&#1089;&#1077;&#1088;</text></g><!--link Command to Output--><g id="link_Command_Output"><path codeLine="35" d="M630.52,628.99 C630.52,648.26 630.52,664.43 630.52,685.1 " fill="none" id="Command-to-Output" style="stroke:#181818;stroke-width:1;"/><polygon fill="#181818" points="630.52,691.1,634.52,682.1,630.52,686.1,626.52,682.1,630.52,691.1" style="stroke:#181818;stroke-width:1;"/></g><!--link Cat to Command--><g id="link_Cat_Command"><path codeLine="57" d="M588.21,398.52 C594.6,425.18 603.8321,463.6463 613.8521,505.4263 " fill="none" id="Cat-to-Command" style="stroke:#181818;stroke-width:1;"/><polygon fill="none" points="618.05,522.93,619.6867,504.0271,608.0176,506.8256,618.05,522.93" style="stroke:#181818;stroke-width:1;"/></g><!--link Pwd to Command--><g id="link_Pwd_Command"><path codeLine="58" d="M672.83,398.52 C666.44,425.18 657.2079,463.6463 647.1879,505.4263 " fill="none" id="Pwd-to-Command" style="stroke:#181818;stroke-width:1;"/><polygon fill="none" points="642.99,522.93,653.0224,506.8256,641.3533,504.0271,642.99,522.93" style="stroke:#181818;stroke-width:1;"/></g><!--link Echo to Command--><g id="link_Echo_Command"><path codeLine="59" d="M764.22,398.53 C754.68,414.03 739.22,438.5 724.52,458.75 C708.9,480.27 702.134,489.2617 685.954,508.9917 " fill="none" id="Echo-to-Command" style="stroke:#181818;stroke-width:1;"/><polygon fill="none" points="674.54,522.91,690.5935,512.7963,681.3146,505.187,674.54,522.91" style="stroke:#181818;stroke-width:1;"/></g><!--link Wc to Command--><g id="link_Wc_Command"><path codeLine="60" d="M860.32,398.54 C853.13,414.96 839.98,440.99 822.52,458.75 C798.08,483.61 782.736,496.098 752.986,513.768 " fill="none" id="Wc-to-Command" style="stroke:#181818;stroke-width:1;"/><polygon fill="none" points="737.51,522.96,756.05,518.9267,749.922,508.6093,737.51,522.96" style="stroke:#181818;stroke-width:1;"/></g><!--link Bind to Command--><g id="link_Bind_Command"><path codeLine="61" d="M500.91,398.46 C510.52,413.91 526.04,438.34 540.52,458.75 C555.73,480.18 562.1537,488.9949 577.6937,508.8149 " fill="none" id="Bind-to-Command" style="stroke:#181818;stroke-width:1;"/><polygon fill="none" points="588.8,522.98,582.4154,505.1128,572.972,512.517,588.8,522.98" style="stroke:#181818;stroke-width:1;"/></g><!--link Exit to Command--><g id="link_Exit_Command"><path codeLine="62" d="M69.65,398.48 C76.29,415.85 89.54,443.71 110.52,458.75 C171.98,502.81 349.2335,535.328 482.1735,554.978 " fill="none" id="Exit-to-Command" style="stroke:#181818;stroke-width:1;"/><polygon fill="none" points="499.98,557.61,483.0508,549.0425,481.2961,560.9135,499.98,557.61" style="stroke:#181818;stroke-width:1;"/></g><!--link External to Command--><g id="link_External_Command"><path codeLine="64" d="M364.94,431.04 C416.54,458.99 465.8619,485.7085 518.7119,514.3285 " fill="none" id="External-to-Command" style="stroke:#181818;stroke-width:1;"/><polygon fill="none" points="534.54,522.9,521.569,509.0525,515.8547,519.6046,534.54,522.9" style="stroke:#181818;stroke-width:1;"/></g><!--link CommandQueue to Command--><g id="link_CommandQueue_Command"><path codeLine="72" d="M963.14,435.09 C944.88,443.07 926.21,451.17 908.52,458.75 C858.88,480.03 809.5991,500.7239 761.8491,520.6039 " fill="none" id="CommandQueue-to-Command" style="stroke:#181818;stroke-width:1;"/><polygon fill="#181818" points="756.31,522.91,766.1561,523.1436,760.9259,520.9882,763.0813,515.7581,756.31,522.91" style="stroke:#181818;stroke-width:1;"/></g><!--link CommandRunner to CommandQueue--><g id="link_CommandRunner_CommandQueue"><path codeLine="79" d="M1835.41,194.06 C1696.67,200.53 1450.09,221.24 1250.52,287.55 C1219.83,297.75 1193.4634,310.4901 1165.9734,326.1501 " fill="none" id="CommandRunner-to-CommandQueue" style="stroke:#181818;stroke-width:1;"/><polygon fill="#181818" points="1160.76,329.12,1170.5601,328.1408,1165.1045,326.6451,1166.6002,321.1896,1160.76,329.12" style="stroke:#181818;stroke-width:1;"/></g><!--link CommandRunner to Environment--><g id="link_CommandRunner_Environment"><path codeLine="80" d="M1954,220 C1964.52,248.96 1978.9019,288.5704 1991.6819,323.7604 " fill="none" id="CommandRunner-to-Environment" style="stroke:#181818;stroke-width:1;"/><polygon fill="#181818" points="1993.73,329.4,1994.4175,319.5752,1992.0232,324.7003,1986.8981,322.306,1993.73,329.4" style="stroke:#181818;stroke-width:1;"/></g><!--link Main to CommandRunner--><g id="link_Main_CommandRunner"><path codeLine="86" d="M1975.09,66.41 C1968.18,93.3 1959.4153,127.3693 1952.4853,154.2993 " fill="none" id="Main-to-CommandRunner" style="stroke:#181818;stroke-width:1;"/><polygon fill="#181818" points="1950.99,160.11,1957.1067,152.3908,1952.2361,155.2678,1949.3591,150.3971,1950.99,160.11" style="stroke:#181818;stroke-width:1;"/></g><!--link Main to CommandLine--><g id="link_Main_CommandLine"><path codeLine="99" d="M1899.27,57.77 C1870.81,68.06 1840.62,83.19 1818.52,105.07 C1758.95,164.03 1729.4254,252.1945 1714.6854,313.8345 " fill="none" id="Main-to-CommandLine" style="stroke:#181818;stroke-width:1;"/><polygon fill="#181818" points="1713.29,319.67,1719.2735,311.8471,1714.4529,314.8071,1711.4928,309.9865,1713.29,319.67" style="stroke:#181818;stroke-width:1;"/></g><!--link CommandRunner to CommandLine--><g id="link_CommandRunner_CommandLine"><path codeLine="100" d="M1907.37,220.12 C1885.71,237.44 1857.6,259.83 1832.52,279.55 C1816,292.53 1802.9872,302.6877 1786.0572,315.8477 " fill="none" id="CommandRunner-to-CommandLine" style="stroke:#181818;stroke-width:1;"/><polygon fill="#181818" points="1781.32,319.53,1790.8806,317.1647,1785.2676,316.4614,1785.9709,310.8485,1781.32,319.53" style="stroke:#181818;stroke-width:1;"/></g><!--link Main to Substituter--><g id="link_Main_Substituter"><path codeLine="107" d="M2043.84,66.41 C2100.96,93.3 2180.2312,130.625 2237.4512,157.555 " fill="none" id="Main-to-Substituter" style="stroke:#181818;stroke-width:1;"/><polygon fill="#181818" points="2242.88,160.11,2236.4401,152.6583,2238.356,157.9808,2233.0335,159.8967,2242.88,160.11" style="stroke:#181818;stroke-width:1;"/></g><!--link Substituter to SubstituterState--><g id="link_Substituter_SubstituterState"><path codeLine="108" d="M2366.94,220 C2429.48,248.91 2521.6739,291.5321 2597.7239,326.6921 " fill="none" id="Substituter-to-SubstituterState" style="stroke:#181818;stroke-width:1;"/><polygon fill="#181818" points="2603.17,329.21,2596.6794,321.8024,2598.6316,327.1118,2593.3222,329.0639,2603.17,329.21" style="stroke:#181818;stroke-width:1;"/><text fill="#000000" font-family="sans-serif" font-size="13" lengthAdjust="spacing" textLength="30.238" x="2486.41" y="275.447">state</text></g><!--link Substituter to Environment--><g id="link_Substituter_Environment"><path codeLine="109" d="M2260.17,220 C2215.74,248.91 2151.3989,290.7774 2097.3689,325.9374 " fill="none" id="Substituter-to-Environment" style="stroke:#181818;stroke-width:1;"/><polygon fill="#181818" points="2092.34,329.21,2102.0651,327.6538,2096.5308,326.4829,2097.7017,320.9485,2092.34,329.21" style="stroke:#181818;stroke-width:1;"/></g><!--link S_DefaultState to SubstituterState--><g id="link_S_DefaultState_SubstituterState"><path codeLine="140" d="M3036.26,206.53 C2987.82,232.9 2902.6483,279.2619 2826.8583,320.5319 " fill="none" id="S_DefaultState-to-SubstituterState" style="stroke:#181818;stroke-width:1;"/><polygon fill="none" points="2811.05,329.14,2829.7276,325.8013,2823.9889,315.2625,2811.05,329.14" style="stroke:#181818;stroke-width:1;"/></g><!--link S_WeakQuoteState to SubstituterState--><g id="link_S_WeakQuoteState_SubstituterState"><path codeLine="141" d="M2535.23,206.37 C2562.39,232.7 2606.3852,275.352 2649.0552,316.712 " fill="none" id="S_WeakQuoteState-to-SubstituterState" style="stroke:#181818;stroke-width:1;"/><polygon fill="none" points="2661.98,329.24,2653.2312,312.4038,2644.8792,321.0203,2661.98,329.24" style="stroke:#181818;stroke-width:1;"/></g><!--link S_StrongQuoteState to SubstituterState--><g id="link_S_StrongQuoteState_SubstituterState"><path codeLine="142" d="M2715.52,206.37 C2715.52,232.7 2715.52,269.88 2715.52,311.24 " fill="none" id="S_StrongQuoteState-to-SubstituterState" style="stroke:#181818;stroke-width:1;"/><polygon fill="none" points="2715.52,329.24,2721.52,311.24,2709.52,311.24,2715.52,329.24" style="stroke:#181818;stroke-width:1;"/></g><!--link S_VariableState to SubstituterState--><g id="link_S_VariableState_SubstituterState"><path codeLine="143" d="M2871.57,220 C2843.53,248.96 2812.2324,281.2798 2778.1524,316.4698 " fill="none" id="S_VariableState-to-SubstituterState" style="stroke:#181818;stroke-width:1;"/><polygon fill="none" points="2765.63,329.4,2782.4624,320.6439,2773.8423,312.2957,2765.63,329.4" style="stroke:#181818;stroke-width:1;"/></g><!--link QuotedString to Token--><g id="link_QuotedString_Token"><path codeLine="155" d="M3620.94,398.52 C3597.36,427.31 3557.1929,476.3626 3522.5029,518.7326 " fill="none" id="QuotedString-to-Token" style="stroke:#181818;stroke-width:1;"/><polygon fill="none" points="3511.1,532.66,3527.1454,522.5336,3517.8605,514.9316,3511.1,532.66" style="stroke:#181818;stroke-width:1;"/></g><!--link PlainWord to Token--><g id="link_PlainWord_Token"><path codeLine="156" d="M3246.08,398.41 C3258.68,414.47 3279.95,439.99 3301.52,458.75 C3333.85,486.87 3358.0911,504.124 3391.3911,524.864 " fill="none" id="PlainWord-to-Token" style="stroke:#181818;stroke-width:1;"/><polygon fill="none" points="3406.67,534.38,3394.5631,519.771,3388.2191,529.9569,3406.67,534.38" style="stroke:#181818;stroke-width:1;"/></g><!--link Pipe to Token--><g id="link_Pipe_Token"><path codeLine="157" d="M3359.12,398.59 C3368.71,413.93 3383.94,438.1 3397.52,458.75 C3413.66,483.31 3421.9275,495.637 3436.9375,517.517 " fill="none" id="Pipe-to-Token" style="stroke:#181818;stroke-width:1;"/><polygon fill="none" points="3447.12,532.36,3441.8851,514.1228,3431.9898,520.9111,3447.12,532.36" style="stroke:#181818;stroke-width:1;"/></g><!--link EqualsSymbol to Token--><g id="link_EqualsSymbol_Token"><path codeLine="158" d="M3476.52,398.52 C3476.52,427.31 3476.52,472.29 3476.52,514.66 " fill="none" id="EqualsSymbol-to-Token" style="stroke:#181818;stroke-width:1;"/><polygon fill="none" points="3476.52,532.66,3482.52,514.66,3470.52,514.66,3476.52,532.66" style="stroke:#181818;stroke-width:1;"/></g><!--link T_DefaultState to GMN92--><g id="link_T_DefaultState_GMN92"><path d="M4319,398.61 C4389.89,423.49 4532.63,474.58 4651.52,523.29 C4673.9,532.45 4698.38,543.32 4718.99,552.71 " fill="none" id="T_DefaultState-GMN92" style="stroke:#181818;stroke-width:1;stroke-dasharray:7.0,7.0;"/></g><!--link T_QuotedStringState to GMN96--><g id="link_T_QuotedStringState_GMN96"><path d="M4108.91,398.42 C4128.44,414.98 4161.58,441.36 4193.52,458.75 C4215.98,470.98 4357.35,522.62 4440.88,552.76 " fill="none" id="T_QuotedStringState-GMN96" style="stroke:#181818;stroke-width:1;stroke-dasharray:7.0,7.0;"/></g><!--link T_DefaultState to TokenizerState--><g id="link_T_DefaultState_TokenizerState"><path codeLine="176" d="M4259.85,398.52 C4229.32,430.51 4170.9276,491.6887 4131.5776,532.9187 " fill="none" id="T_DefaultState-to-TokenizerState" style="stroke:#181818;stroke-width:1;"/><polygon fill="none" points="4119.15,545.94,4135.918,537.0612,4127.2371,528.7761,4119.15,545.94" style="stroke:#181818;stroke-width:1;"/></g><!--link T_QuotedStringState to TokenizerState--><g id="link_T_QuotedStringState_TokenizerState"><path codeLine="177" d="M4091.52,398.52 C4091.52,430.51 4091.52,486.71 4091.52,527.94 " fill="none" id="T_QuotedStringState-to-TokenizerState" style="stroke:#181818;stroke-width:1;"/><polygon fill="none" points="4091.52,545.94,4097.52,527.94,4085.52,527.94,4091.52,545.94" style="stroke:#181818;stroke-width:1;"/></g><!--link Parser to Tokenizer--><g id="link_Parser_Tokenizer"><path codeLine="191" d="M3669.46,229.59 C3712.86,265.92 3772.3795,315.7383 3811.5195,348.5083 " fill="none" id="Parser-to-Tokenizer" style="stroke:#181818;stroke-width:1;"/><polygon fill="#181818" points="3816.12,352.36,3811.7871,343.5154,3812.2863,349.1502,3806.6515,349.6494,3816.12,352.36" style="stroke:#181818;stroke-width:1;"/></g><!--link Tokenizer to Token--><g id="link_Tokenizer_Token"><path codeLine="192" d="M3798.3,412.18 C3772.34,426.45 3740.42,443.76 3711.52,458.75 C3656.48,487.31 3598.8559,515.7362 3551.9459,538.5462 " fill="none" id="Tokenizer-to-Token" style="stroke:#181818;stroke-width:1;"/><polygon fill="#181818" points="3546.55,541.17,3556.393,540.8316,3551.0466,538.9835,3552.8947,533.6371,3546.55,541.17" style="stroke:#181818;stroke-width:1;"/></g><!--link Tokenizer to TokenizerState--><g id="link_Tokenizer_TokenizerState"><path codeLine="193" d="M3886.86,412.06 C3932.36,448.26 4005.1347,506.1544 4050.5847,542.3144 " fill="none" id="Tokenizer-to-TokenizerState" style="stroke:#181818;stroke-width:1;"/><polygon fill="#181818" points="4055.28,546.05,4050.7275,537.3165,4051.3673,542.937,4045.7467,543.5768,4055.28,546.05" style="stroke:#181818;stroke-width:1;"/><text fill="#000000" font-family="sans-serif" font-size="13" lengthAdjust="spacing" textLength="30.238" x="3986.45" y="489.187">state</text></g><!--link Main to Parser--><g id="link_Main_Parser"><path codeLine="195" d="M2065.77,60.98 C2075.08,62.99 2084.46,64.75 2093.52,66.07 C2556.09,133.31 2679.68,55.89 3144.52,105.07 C3260.81,117.37 3385.5863,139.7945 3481.0363,158.8645 " fill="none" id="Main-to-Parser" style="stroke:#181818;stroke-width:1;"/><polygon fill="#181818" points="3486.92,160.04,3478.8781,154.3543,3482.0169,159.0604,3477.3107,162.1992,3486.92,160.04" style="stroke:#181818;stroke-width:1;"/></g><!--SRC=[bLZRRjj647tdLsoVAZMsFq0D33IEYnPeKASsweUY26XfRHEHI9KN9wbhm7OQD8M317deMzjla1KfbXnB-ONb7_NCx99QNkIWBv8uEpCxbpCNwdFnMJzq3tgkwBhFWYGMKK_6hkywXrv72jdhnyz4J_RsP1WvJhlhHf7Oz8-yCF1xqe_5iIF4gZXoGy_Twyge9UvxxVZkTXnw_i6AqD_huBaZ8Xd_QDWQljkJBP5n7RdT97zijiHHu7LOv814S5RWRsO_d1F73s8fze8u3deYsBSDWxoQgK5wfZweiHgbpzKuFHTu7Afv-fP-pDK8j5FrNWt0EL5ZWPDpeQxm_35zdfwbvw0EqvUGVwVcNqBZrbSxtu1BNQPlY0qCOrO_Mn5GHLTDw5Pekamly3GdArWVX3we6SHW1JI_4UaVaBjPXOgvO4D-9nOypY1vuqY_8yYvBEJV9t4_oQ8jdthnHj11HBvbHrT5mCTvO9Wf38FmWOmYzq1Q1tUCgaOKTuA5o8h0CqIi86k-B0z6oWw-ZdvNxiSK-vnT_GllJ-7q9SLJNQk1mEDONI477z9N857Wc6XuqWi1jhcwuKoCqeirKlCtAEyvQnHDSBsYGCqvBwHXZX3E43sEEx5Ikj-GvBnYWD3U2kH7-odKKDyv8ttfAMoxPfsmTCsAlhiNnQ7RZiL6qEkvVcVDVEj4kE51b0L4_FJ5pnoiktStGkd6Sdqz4sgK-PhCA9_ATXBBnYBMY6df7h6wkfwT6YZa76vyV5AYRJtfL6YRxSEWGjnjLqZtF9-4EQbnqAUS4acq1ChXL4suTWPK4ek2kUAW4vH10Ae1z34d-uP9I8-Qbiq1U75DXHhBq7UxEgw-b9reouqFYUn7Nk1JaEu5GPUFzs7M9WUFcudqZrfswJT50UyovyJLKHnL-Otgek-PHT1HqT3K8PaZ571NLpMt6-e020V7XW9crJr2CgS-8b3f0pK5UK1O7Ue6CMJs2J7fngERKMtXr4K7gdR2H0gW1Ph-fEj8DpSioezML8uSYNtjTYCjLt896c3ASrB69WtvC4_zX1o14_1fOXKCK0dC_hPUBXW7qAm_87pMd-osw-aCotfT05VzYPFbSybn0OuF4vb83SMsfg1yiuhCwjpjTBBwDamvZpt3-a4_Oslc32MisTTIlL43UuiiwER5m1fbxOfcpfI636VhnYd8KhUek5RqxOV4zsN8aoHlGUOegcr5Hi1IpNVL7DlZrrpwmFLyVLMO-9XMCko74f-DB4IuXtXizLfZoUplFDzaf1y6M4eA9NuSnMxijKy46c_7cb65ioUXXsQRJKhjffqex2TRhBfHl65XQMdRi2oZf5rJDQ1Ipb0RA3NK2YNf9NsgAMOOg9VK7tWeZS4-AGvGIrshbHi3qymkCc0S35a5rI7t7FGDWWOtQ5GYMV1oqOslYO7g5lkFLQFbWDELoxFDfoOPsmdceHS3Ck6QzTkWgU-6aMnulhMAMBsu2FbbccZQy527rzG6gIko-zH01ui1yv795tb7cbfkBT7jBBlp5fbjW8UoIo2IjoeeW3zV6svLQvQ8TZlf9LqGEeK53eLov0L9nBmjKPRcYBS3Fqfwij4-TB6wRU2J0fuLLatE7jsN-sxIZLd5yIqfAJ3IeEBfm9cOqqIPC2BDa3ZdNdGDaF7MFU6DW6QTNeP7l2RJSfPZiCwqNUa-VfZWzDF65Lbvv-Ez-ZNk0aXkzEf8Cz3W9Nt1-_v4hv53I6m_ojv6j8vRJKDQ0lzWkN4LXef9_wY_FcMNNWV-brq5LWsdA6V0UByjXiLhw6visPnOKrPi9_MSgyNSPoHKTpnQ1tZP6PbMXJQbTmYhxHGnfUTm1TNbt2vbAqTyAMF1poLSZaUZQTzjIx55JInSsmaUIpzxkRLUJullfONN8PqW8y-6TVHXlcgRiwqkEjLk47Og1rvVbccRloJOqBQVzVQ2BktDjcBj3Plgv4eBH2YqdsrbDdtHi6ptlLzDV7HxZmsDlDPYPQTtQjlBOcBMifMRomA7ZADgarcXcNZAkBpCPg61gY0D6ArZUeskl4Jdrzin_9If5LwwdVuzmDriXLwrOU3R5JH6umAj0mFZ2NwbBqG35V6QtsHVDCtYpvMlPWBdf-eTjdokgFJSCdodfcQAkN5gJApbAq6DlpJ0AudDTzowYTughe755bFGNigicgu8yyPkrfaHUMx-yvXI0w77CselItEN-LI2P6NfMFW1a1QiuccTwt7oNmjw7IsFOxuCBFQDWlh_0000]--></g></svg>