<svg xmlns="http://www.w3.org/2000/svg" xmlns:xlink="http://www.w3.org/1999/xlink" contentStyleType="text/css" data-diagram-type="CLASS" height="763px" preserveAspectRatio="none" style="width:2664px;height:763px;background:#FFFFFF;" version="1.1" viewBox="0 0 2664 763" width="2664px" zoomAndPan="magnify"><defs/><g><!--class Environment--><g id="elem_Environment"><rect codeLine="2" fill="#F1F1F1" height="96.8906" id="Environment" rx="2.5" ry="2.5" style="stroke:#181818;stroke-width:0.5;" width="343.625" x="1522.11" y="485.97"/><ellipse cx="1644.8219" cy="501.97" fill="#ADD1B2" rx="11" ry="11" style="stroke:#181818;stroke-width:1;"/><path d="M1647.7907,507.6106 Q1647.2125,507.9075 1646.5719,508.0481 Q1645.9313,508.2044 1645.2282,508.2044 Q1642.7282,508.2044 1641.4,506.5637 Q1640.0875,504.9075 1640.0875,501.7825 Q1640.0875,498.6575 1641.4,497.0012 Q1642.7282,495.345 1645.2282,495.345 Q1645.9313,495.345 1646.5719,495.5012 Q1647.2282,495.6575 1647.7907,495.9544 L1647.7907,498.6731 Q1647.1657,498.095 1646.5719,497.8294 Q1645.9782,497.5481 1645.3532,497.5481 Q1644.0094,497.5481 1643.3219,498.6262 Q1642.6344,499.6887 1642.6344,501.7825 Q1642.6344,503.8762 1643.3219,504.9544 Q1644.0094,506.0169 1645.3532,506.0169 Q1645.9782,506.0169 1646.5719,505.7512 Q1647.1657,505.47 1647.7907,504.8919 L1647.7907,507.6106 Z " fill="#000000"/><text fill="#000000" font-family="sans-serif" font-size="14" lengthAdjust="spacing" textLength="89.7012" x="1665.3219" y="506.8167">Environment</text><line style="stroke:#181818;stroke-width:0.5;" x1="1523.11" x2="1864.735" y1="517.97" y2="517.97"/><rect fill="transparent" height="6" style="stroke:#C82930;stroke-width:1;" width="6" x="1530.11" y="528.6184"/><text fill="#000000" font-family="sans-serif" font-size="14" lengthAdjust="spacing" textLength="216.7197" x="1542.11" y="534.9651">variables: Dict&lt;String, String&gt;</text><line style="stroke:#181818;stroke-width:0.5;" x1="1523.11" x2="1864.735" y1="542.2669" y2="542.2669"/><ellipse cx="1533.11" cy="555.9153" fill="#84BE84" rx="3" ry="3" style="stroke:#038048;stroke-width:1;"/><text fill="#000000" font-family="sans-serif" font-size="14" lengthAdjust="spacing" textLength="317.625" x="1542.11" y="559.262">setVariable(name: String, value: String): void</text><ellipse cx="1533.11" cy="572.2122" fill="#84BE84" rx="3" ry="3" style="stroke:#038048;stroke-width:1;"/><text fill="#000000" font-family="sans-serif" font-size="14" lengthAdjust="spacing" textLength="215.0449" x="1542.11" y="575.5589">getValue(name: String): String</text></g><!--class Output--><g id="elem_Output"><rect codeLine="8" fill="#F1F1F1" height="113.1875" id="Output" rx="2.5" ry="2.5" style="stroke:#181818;stroke-width:0.5;" width="172.7539" x="281.54" y="642.86"/><ellipse cx="339.3515" cy="658.86" fill="#ADD1B2" rx="11" ry="11" style="stroke:#181818;stroke-width:1;"/><path d="M342.3203,664.5006 Q341.7421,664.7975 341.1015,664.9381 Q340.4609,665.0944 339.7578,665.0944 Q337.2578,665.0944 335.9296,663.4537 Q334.6171,661.7975 334.6171,658.6725 Q334.6171,655.5475 335.9296,653.8912 Q337.2578,652.235 339.7578,652.235 Q340.4609,652.235 341.1015,652.3912 Q341.7578,652.5475 342.3203,652.8444 L342.3203,655.5631 Q341.6953,654.985 341.1015,654.7194 Q340.5078,654.4381 339.8828,654.4381 Q338.539,654.4381 337.8515,655.5162 Q337.164,656.5787 337.164,658.6725 Q337.164,660.7662 337.8515,661.8444 Q338.539,662.9069 339.8828,662.9069 Q340.5078,662.9069 341.1015,662.6412 Q341.6953,662.36 342.3203,661.7819 L342.3203,664.5006 Z " fill="#000000"/><text fill="#000000" font-family="sans-serif" font-size="14" lengthAdjust="spacing" textLength="48.6309" x="359.8515" y="663.7067">Output</text><line style="stroke:#181818;stroke-width:0.5;" x1="282.54" x2="453.2939" y1="674.86" y2="674.86"/><rect fill="transparent" height="6" style="stroke:#C82930;stroke-width:1;" width="6" x="289.54" y="685.5084"/><text fill="#000000" font-family="sans-serif" font-size="14" lengthAdjust="spacing" textLength="89.7764" x="301.54" y="691.8551">exitCode: Int</text><rect fill="transparent" height="6" style="stroke:#C82930;stroke-width:1;" width="6" x="289.54" y="701.8053"/><text fill="#000000" font-family="sans-serif" font-size="14" lengthAdjust="spacing" textLength="97.125" x="301.54" y="708.152">output: String</text><rect fill="transparent" height="6" style="stroke:#C82930;stroke-width:1;" width="6" x="289.54" y="718.1022"/><text fill="#000000" font-family="sans-serif" font-size="14" lengthAdjust="spacing" textLength="146.7539" x="301.54" y="724.4489">errorMessage: String</text><line style="stroke:#181818;stroke-width:0.5;" x1="282.54" x2="453.2939" y1="731.7506" y2="731.7506"/><ellipse cx="292.54" cy="745.3991" fill="#84BE84" rx="3" ry="3" style="stroke:#038048;stroke-width:1;"/><text fill="#000000" font-family="sans-serif" font-size="14" lengthAdjust="spacing" textLength="133.4922" x="301.54" y="748.7457">getOutput(): String</text></g><!--class Command--><g id="elem_Command"><rect codeLine="15" fill="#F1F1F1" height="96.8906" id="Command" rx="2.5" ry="2.5" style="stroke:#181818;stroke-width:0.5;" width="168.0713" x="283.89" y="485.97"/><ellipse cx="327.7423" cy="501.97" fill="#A9DCDF" rx="11" ry="11" style="stroke:#181818;stroke-width:1;"/><path d="M327.8517,497.3137 L326.6954,502.3919 L329.0235,502.3919 L327.8517,497.3137 Z M326.3673,495.0794 L329.3517,495.0794 L332.711,507.47 L330.2579,507.47 L329.4923,504.4075 L326.211,504.4075 L325.461,507.47 L323.0235,507.47 L326.3673,495.0794 Z " fill="#000000"/><text fill="#000000" font-family="sans-serif" font-size="14" font-style="italic" lengthAdjust="spacing" textLength="71.9551" x="348.1539" y="506.8167">Command</text><line style="stroke:#181818;stroke-width:0.5;" x1="284.89" x2="450.9613" y1="517.97" y2="517.97"/><rect fill="transparent" height="6" style="stroke:#C82930;stroke-width:1;" width="6" x="291.89" y="528.6184"/><text fill="#000000" font-family="sans-serif" font-size="14" lengthAdjust="spacing" textLength="103.8379" x="303.89" y="534.9651">args: String [*]</text><line style="stroke:#181818;stroke-width:0.5;" x1="284.89" x2="450.9613" y1="542.2669" y2="542.2669"/><ellipse cx="294.89" cy="555.9153" fill="#84BE84" rx="3" ry="3" style="stroke:#038048;stroke-width:1;"/><text fill="#000000" font-family="sans-serif" font-size="14" lengthAdjust="spacing" textLength="124.9063" x="303.89" y="559.262">execute(): Output</text><ellipse cx="294.89" cy="572.2122" fill="#84BE84" rx="3" ry="3" style="stroke:#038048;stroke-width:1;"/><text fill="#000000" font-family="sans-serif" font-size="14" lengthAdjust="spacing" textLength="142.0713" x="303.89" y="575.5589">addArg(String): void</text></g><!--class Cat--><g id="elem_Cat"><rect codeLine="22" fill="#F1F1F1" height="32" id="Cat" rx="2.5" ry="2.5" style="stroke:#181818;stroke-width:0.5;" width="55.8438" x="7" y="345.23"/><ellipse cx="22" cy="361.23" fill="#ADD1B2" rx="11" ry="11" style="stroke:#181818;stroke-width:1;"/><path d="M24.9688,366.8706 Q24.3906,367.1675 23.75,367.3081 Q23.1094,367.4644 22.4063,367.4644 Q19.9063,367.4644 18.5781,365.8237 Q17.2656,364.1675 17.2656,361.0425 Q17.2656,357.9175 18.5781,356.2612 Q19.9063,354.605 22.4063,354.605 Q23.1094,354.605 23.75,354.7612 Q24.4063,354.9175 24.9688,355.2144 L24.9688,357.9331 Q24.3438,357.355 23.75,357.0894 Q23.1563,356.8081 22.5313,356.8081 Q21.1875,356.8081 20.5,357.8862 Q19.8125,358.9487 19.8125,361.0425 Q19.8125,363.1362 20.5,364.2144 Q21.1875,365.2769 22.5313,365.2769 Q23.1563,365.2769 23.75,365.0112 Q24.3438,364.73 24.9688,364.1519 L24.9688,366.8706 Z " fill="#000000"/><text fill="#000000" font-family="sans-serif" font-size="14" lengthAdjust="spacing" textLength="23.8438" x="36" y="366.0767">Cat</text></g><!--class Pwd--><g id="elem_Pwd"><rect codeLine="23" fill="#F1F1F1" height="32" id="Pwd" rx="2.5" ry="2.5" style="stroke:#181818;stroke-width:0.5;" width="60.7793" x="97.53" y="345.23"/><ellipse cx="112.53" cy="361.23" fill="#ADD1B2" rx="11" ry="11" style="stroke:#181818;stroke-width:1;"/><path d="M115.4988,366.8706 Q114.9206,367.1675 114.28,367.3081 Q113.6394,367.4644 112.9363,367.4644 Q110.4363,367.4644 109.1081,365.8237 Q107.7956,364.1675 107.7956,361.0425 Q107.7956,357.9175 109.1081,356.2612 Q110.4363,354.605 112.9363,354.605 Q113.6394,354.605 114.28,354.7612 Q114.9363,354.9175 115.4988,355.2144 L115.4988,357.9331 Q114.8738,357.355 114.28,357.0894 Q113.6863,356.8081 113.0613,356.8081 Q111.7175,356.8081 111.03,357.8862 Q110.3425,358.9487 110.3425,361.0425 Q110.3425,363.1362 111.03,364.2144 Q111.7175,365.2769 113.0613,365.2769 Q113.6863,365.2769 114.28,365.0112 Q114.8738,364.73 115.4988,364.1519 L115.4988,366.8706 Z " fill="#000000"/><text fill="#000000" font-family="sans-serif" font-size="14" lengthAdjust="spacing" textLength="28.7793" x="126.53" y="366.0767">Pwd</text></g><!--class Echo--><g id="elem_Echo"><rect codeLine="24" fill="#F1F1F1" height="32" id="Echo" rx="2.5" ry="2.5" style="stroke:#181818;stroke-width:0.5;" width="65.9814" x="192.93" y="345.23"/><ellipse cx="207.93" cy="361.23" fill="#ADD1B2" rx="11" ry="11" style="stroke:#181818;stroke-width:1;"/><path d="M210.8988,366.8706 Q210.3206,367.1675 209.68,367.3081 Q209.0394,367.4644 208.3363,367.4644 Q205.8363,367.4644 204.5081,365.8237 Q203.1956,364.1675 203.1956,361.0425 Q203.1956,357.9175 204.5081,356.2612 Q205.8363,354.605 208.3363,354.605 Q209.0394,354.605 209.68,354.7612 Q210.3363,354.9175 210.8988,355.2144 L210.8988,357.9331 Q210.2738,357.355 209.68,357.0894 Q209.0863,356.8081 208.4613,356.8081 Q207.1175,356.8081 206.43,357.8862 Q205.7425,358.9487 205.7425,361.0425 Q205.7425,363.1362 206.43,364.2144 Q207.1175,365.2769 208.4613,365.2769 Q209.0863,365.2769 209.68,365.0112 Q210.2738,364.73 210.8988,364.1519 L210.8988,366.8706 Z " fill="#000000"/><text fill="#000000" font-family="sans-serif" font-size="14" lengthAdjust="spacing" textLength="33.9814" x="221.93" y="366.0767">Echo</text></g><!--class Wc--><g id="elem_Wc"><rect codeLine="25" fill="#F1F1F1" height="32" id="Wc" rx="2.5" ry="2.5" style="stroke:#181818;stroke-width:0.5;" width="53.54" x="294.15" y="345.23"/><ellipse cx="309.15" cy="361.23" fill="#ADD1B2" rx="11" ry="11" style="stroke:#181818;stroke-width:1;"/><path d="M312.1188,366.8706 Q311.5406,367.1675 310.9,367.3081 Q310.2594,367.4644 309.5563,367.4644 Q307.0563,367.4644 305.7281,365.8237 Q304.4156,364.1675 304.4156,361.0425 Q304.4156,357.9175 305.7281,356.2612 Q307.0563,354.605 309.5563,354.605 Q310.2594,354.605 310.9,354.7612 Q311.5563,354.9175 312.1188,355.2144 L312.1188,357.9331 Q311.4938,357.355 310.9,357.0894 Q310.3063,356.8081 309.6813,356.8081 Q308.3375,356.8081 307.65,357.8862 Q306.9625,358.9487 306.9625,361.0425 Q306.9625,363.1362 307.65,364.2144 Q308.3375,365.2769 309.6813,365.2769 Q310.3063,365.2769 310.9,365.0112 Q311.4938,364.73 312.1188,364.1519 L312.1188,366.8706 Z " fill="#000000"/><text fill="#000000" font-family="sans-serif" font-size="14" lengthAdjust="spacing" textLength="21.54" x="323.15" y="366.0767">Wc</text></g><!--class Bind--><g id="elem_Bind"><rect codeLine="26" fill="#F1F1F1" height="32" id="Bind" rx="2.5" ry="2.5" style="stroke:#181818;stroke-width:0.5;" width="63.2539" x="382.29" y="345.23"/><ellipse cx="397.29" cy="361.23" fill="#ADD1B2" rx="11" ry="11" style="stroke:#181818;stroke-width:1;"/><path d="M400.2588,366.8706 Q399.6806,367.1675 399.04,367.3081 Q398.3994,367.4644 397.6963,367.4644 Q395.1963,367.4644 393.8681,365.8237 Q392.5556,364.1675 392.5556,361.0425 Q392.5556,357.9175 393.8681,356.2612 Q395.1963,354.605 397.6963,354.605 Q398.3994,354.605 399.04,354.7612 Q399.6963,354.9175 400.2588,355.2144 L400.2588,357.9331 Q399.6338,357.355 399.04,357.0894 Q398.4463,356.8081 397.8213,356.8081 Q396.4775,356.8081 395.79,357.8862 Q395.1025,358.9487 395.1025,361.0425 Q395.1025,363.1362 395.79,364.2144 Q396.4775,365.2769 397.8213,365.2769 Q398.4463,365.2769 399.04,365.0112 Q399.6338,364.73 400.2588,364.1519 L400.2588,366.8706 Z " fill="#000000"/><text fill="#000000" font-family="sans-serif" font-size="14" lengthAdjust="spacing" textLength="31.2539" x="411.29" y="366.0767">Bind</text></g><!--class External--><g id="elem_External"><rect codeLine="27" fill="#F1F1F1" height="96.8906" id="External" rx="2.5" ry="2.5" style="stroke:#181818;stroke-width:0.5;" width="227.9541" x="480.94" y="312.78"/><ellipse cx="561.5015" cy="328.78" fill="#ADD1B2" rx="11" ry="11" style="stroke:#181818;stroke-width:1;"/><path d="M564.4703,334.4206 Q563.8921,334.7175 563.2515,334.8581 Q562.6109,335.0144 561.9078,335.0144 Q559.4078,335.0144 558.0796,333.3738 Q556.7671,331.7175 556.7671,328.5925 Q556.7671,325.4675 558.0796,323.8113 Q559.4078,322.155 561.9078,322.155 Q562.6109,322.155 563.2515,322.3113 Q563.9078,322.4675 564.4703,322.7644 L564.4703,325.4831 Q563.8453,324.905 563.2515,324.6394 Q562.6578,324.3581 562.0328,324.3581 Q560.689,324.3581 560.0015,325.4363 Q559.314,326.4988 559.314,328.5925 Q559.314,330.6863 560.0015,331.7644 Q560.689,332.8269 562.0328,332.8269 Q562.6578,332.8269 563.2515,332.5613 Q563.8453,332.28 564.4703,331.7019 L564.4703,334.4206 Z " fill="#000000"/><text fill="#000000" font-family="sans-serif" font-size="14" lengthAdjust="spacing" textLength="58.3311" x="582.0015" y="333.6267">External</text><line style="stroke:#181818;stroke-width:0.5;" x1="481.94" x2="707.8941" y1="344.78" y2="344.78"/><rect fill="transparent" height="6" style="stroke:#C82930;stroke-width:1;" width="6" x="488.94" y="355.4284"/><text fill="#000000" font-family="sans-serif" font-size="14" lengthAdjust="spacing" textLength="116.3135" x="500.94" y="361.7751">binFiles: Path [*]</text><rect fill="transparent" height="6" style="stroke:#C82930;stroke-width:1;" width="6" x="488.94" y="371.7253"/><text fill="#000000" font-family="sans-serif" font-size="14" lengthAdjust="spacing" textLength="201.9541" x="500.94" y="378.072">isFullPathToExecutable: Bool</text><line style="stroke:#181818;stroke-width:0.5;" x1="481.94" x2="707.8941" y1="385.3738" y2="385.3738"/><ellipse cx="491.94" cy="399.0222" fill="#84BE84" rx="3" ry="3" style="stroke:#038048;stroke-width:1;"/><text fill="#000000" font-family="sans-serif" font-size="14" lengthAdjust="spacing" textLength="169.3535" x="500.94" y="402.3689">executableExists(): Bool</text></g><!--class Exit--><g id="elem_Exit"><rect codeLine="32" fill="#F1F1F1" height="32" id="Exit" rx="2.5" ry="2.5" style="stroke:#181818;stroke-width:0.5;" width="58.5098" x="743.67" y="345.23"/><ellipse cx="758.67" cy="361.23" fill="#ADD1B2" rx="11" ry="11" style="stroke:#181818;stroke-width:1;"/><path d="M761.6388,366.8706 Q761.0606,367.1675 760.42,367.3081 Q759.7794,367.4644 759.0763,367.4644 Q756.5763,367.4644 755.2481,365.8237 Q753.9356,364.1675 753.9356,361.0425 Q753.9356,357.9175 755.2481,356.2612 Q756.5763,354.605 759.0763,354.605 Q759.7794,354.605 760.42,354.7612 Q761.0763,354.9175 761.6388,355.2144 L761.6388,357.9331 Q761.0138,357.355 760.42,357.0894 Q759.8263,356.8081 759.2013,356.8081 Q757.8575,356.8081 757.17,357.8862 Q756.4825,358.9487 756.4825,361.0425 Q756.4825,363.1362 757.17,364.2144 Q757.8575,365.2769 759.2013,365.2769 Q759.8263,365.2769 760.42,365.0112 Q761.0138,364.73 761.6388,364.1519 L761.6388,366.8706 Z " fill="#000000"/><text fill="#000000" font-family="sans-serif" font-size="14" lengthAdjust="spacing" textLength="26.5098" x="772.67" y="366.0767">Exit</text></g><!--class CommandQueue--><g id="elem_CommandQueue"><rect codeLine="42" fill="#F1F1F1" height="96.8906" id="CommandQueue" rx="2.5" ry="2.5" style="stroke:#181818;stroke-width:0.5;" width="325.0244" x="837.41" y="312.78"/><ellipse cx="936.6986" cy="328.78" fill="#ADD1B2" rx="11" ry="11" style="stroke:#181818;stroke-width:1;"/><path d="M939.6673,334.4206 Q939.0892,334.7175 938.4486,334.8581 Q937.8079,335.0144 937.1048,335.0144 Q934.6048,335.0144 933.2767,333.3738 Q931.9642,331.7175 931.9642,328.5925 Q931.9642,325.4675 933.2767,323.8113 Q934.6048,322.155 937.1048,322.155 Q937.8079,322.155 938.4486,322.3113 Q939.1048,322.4675 939.6673,322.7644 L939.6673,325.4831 Q939.0423,324.905 938.4486,324.6394 Q937.8548,324.3581 937.2298,324.3581 Q935.8861,324.3581 935.1986,325.4363 Q934.5111,326.4988 934.5111,328.5925 Q934.5111,330.6863 935.1986,331.7644 Q935.8861,332.8269 937.2298,332.8269 Q937.8548,332.8269 938.4486,332.5613 Q939.0423,332.28 939.6673,331.7019 L939.6673,334.4206 Z " fill="#000000"/><text fill="#000000" font-family="sans-serif" font-size="14" lengthAdjust="spacing" textLength="117.9473" x="957.1986" y="333.6267">CommandQueue</text><line style="stroke:#181818;stroke-width:0.5;" x1="838.41" x2="1161.4344" y1="344.78" y2="344.78"/><rect fill="transparent" height="6" style="stroke:#C82930;stroke-width:1;" width="6" x="845.41" y="355.4284"/><text fill="#000000" font-family="sans-serif" font-size="14" lengthAdjust="spacing" textLength="180.667" x="857.41" y="361.7751">commands: Command [*]</text><line style="stroke:#181818;stroke-width:0.5;" x1="838.41" x2="1161.4344" y1="369.0769" y2="369.0769"/><ellipse cx="848.41" cy="382.7253" fill="#84BE84" rx="3" ry="3" style="stroke:#038048;stroke-width:1;"/><text fill="#000000" font-family="sans-serif" font-size="14" lengthAdjust="spacing" textLength="299.0244" x="857.41" y="386.072">addCommand(command: Command): void</text><ellipse cx="848.41" cy="399.0222" fill="#84BE84" rx="3" ry="3" style="stroke:#038048;stroke-width:1;"/><text fill="#000000" font-family="sans-serif" font-size="14" lengthAdjust="spacing" textLength="190.3398" x="857.41" y="402.3689">popCommand(): Command</text></g><!--class CommandRunner--><g id="elem_CommandRunner"><rect codeLine="49" fill="#F1F1F1" height="96.8906" id="CommandRunner" rx="2.5" ry="2.5" style="stroke:#181818;stroke-width:0.5;" width="276.2773" x="861.78" y="131.45"/><ellipse cx="934.3332" cy="147.45" fill="#ADD1B2" rx="11" ry="11" style="stroke:#181818;stroke-width:1;"/><path d="M937.302,153.0906 Q936.7238,153.3875 936.0832,153.5281 Q935.4426,153.6844 934.7395,153.6844 Q932.2395,153.6844 930.9113,152.0437 Q929.5988,150.3875 929.5988,147.2625 Q929.5988,144.1375 930.9113,142.4812 Q932.2395,140.825 934.7395,140.825 Q935.4426,140.825 936.0832,140.9812 Q936.7395,141.1375 937.302,141.4344 L937.302,144.1531 Q936.677,143.575 936.0832,143.3094 Q935.4895,143.0281 934.8645,143.0281 Q933.5207,143.0281 932.8332,144.1062 Q932.1457,145.1687 932.1457,147.2625 Q932.1457,149.3562 932.8332,150.4344 Q933.5207,151.4969 934.8645,151.4969 Q935.4895,151.4969 936.0832,151.2312 Q936.677,150.95 937.302,150.3719 L937.302,153.0906 Z " fill="#000000"/><text fill="#000000" font-family="sans-serif" font-size="14" lengthAdjust="spacing" textLength="122.6709" x="954.8332" y="152.2967">CommandRunner</text><line style="stroke:#181818;stroke-width:0.5;" x1="862.78" x2="1137.0573" y1="163.45" y2="163.45"/><rect fill="transparent" height="6" style="stroke:#C82930;stroke-width:1;" width="6" x="869.78" y="174.0984"/><text fill="#000000" font-family="sans-serif" font-size="14" lengthAdjust="spacing" textLength="250.2773" x="881.78" y="180.4451">commandsQueue: CommandQueue</text><rect fill="transparent" height="6" style="stroke:#C82930;stroke-width:1;" width="6" x="869.78" y="190.3953"/><text fill="#000000" font-family="sans-serif" font-size="14" lengthAdjust="spacing" textLength="124.6396" x="881.78" y="196.742">env: Environment</text><line style="stroke:#181818;stroke-width:0.5;" x1="862.78" x2="1137.0573" y1="204.0437" y2="204.0437"/><ellipse cx="872.78" cy="217.6922" fill="#84BE84" rx="3" ry="3" style="stroke:#038048;stroke-width:1;"/><text fill="#000000" font-family="sans-serif" font-size="14" lengthAdjust="spacing" textLength="204.1553" x="881.78" y="221.0389">executeCommands(): Output</text></g><!--class Main--><g id="elem_Main"><rect codeLine="58" fill="#F1F1F1" height="56.2969" id="Main" rx="2.5" ry="2.5" style="stroke:#181818;stroke-width:0.5;" width="175.1943" x="1210.32" y="7"/><ellipse cx="1276.9567" cy="23" fill="#ADD1B2" rx="11" ry="11" style="stroke:#181818;stroke-width:1;"/><path d="M1279.9255,28.6406 Q1279.3473,28.9375 1278.7067,29.0781 Q1278.0661,29.2344 1277.363,29.2344 Q1274.863,29.2344 1273.5348,27.5938 Q1272.2223,25.9375 1272.2223,22.8125 Q1272.2223,19.6875 1273.5348,18.0313 Q1274.863,16.375 1277.363,16.375 Q1278.0661,16.375 1278.7067,16.5313 Q1279.363,16.6875 1279.9255,16.9844 L1279.9255,19.7031 Q1279.3005,19.125 1278.7067,18.8594 Q1278.113,18.5781 1277.488,18.5781 Q1276.1442,18.5781 1275.4567,19.6563 Q1274.7692,20.7188 1274.7692,22.8125 Q1274.7692,24.9063 1275.4567,25.9844 Q1276.1442,27.0469 1277.488,27.0469 Q1278.113,27.0469 1278.7067,26.7813 Q1279.3005,26.5 1279.9255,25.9219 L1279.9255,28.6406 Z " fill="#000000"/><text fill="#000000" font-family="sans-serif" font-size="14" lengthAdjust="spacing" textLength="33.4209" x="1297.4567" y="27.8467">Main</text><line style="stroke:#181818;stroke-width:0.5;" x1="1211.32" x2="1384.5143" y1="39" y2="39"/><ellipse cx="1221.32" cy="52.6484" fill="#84BE84" rx="3" ry="3" style="stroke:#038048;stroke-width:1;"/><text fill="#000000" font-family="sans-serif" font-size="14" lengthAdjust="spacing" textLength="149.1943" x="1230.32" y="55.9951">runInterpreter(): void</text></g><!--class CommandLine--><g id="elem_CommandLine"><rect codeLine="64" fill="#F1F1F1" height="113.1875" id="CommandLine" rx="2.5" ry="2.5" style="stroke:#181818;stroke-width:0.5;" width="250.0615" x="1172.89" y="123.3"/><ellipse cx="1243.1053" cy="139.3" fill="#ADD1B2" rx="11" ry="11" style="stroke:#181818;stroke-width:1;"/><path d="M1246.0741,144.9406 Q1245.496,145.2375 1244.8553,145.3781 Q1244.2147,145.5344 1243.5116,145.5344 Q1241.0116,145.5344 1239.6835,143.8937 Q1238.371,142.2375 1238.371,139.1125 Q1238.371,135.9875 1239.6835,134.3312 Q1241.0116,132.675 1243.5116,132.675 Q1244.2147,132.675 1244.8553,132.8312 Q1245.5116,132.9875 1246.0741,133.2844 L1246.0741,136.0031 Q1245.4491,135.425 1244.8553,135.1594 Q1244.2616,134.8781 1243.6366,134.8781 Q1242.2928,134.8781 1241.6053,135.9562 Q1240.9178,137.0187 1240.9178,139.1125 Q1240.9178,141.2062 1241.6053,142.2844 Q1242.2928,143.3469 1243.6366,143.3469 Q1244.2616,143.3469 1244.8553,143.0812 Q1245.4491,142.8 1246.0741,142.2219 L1246.0741,144.9406 Z " fill="#000000"/><text fill="#000000" font-family="sans-serif" font-size="14" lengthAdjust="spacing" textLength="101.1309" x="1263.6053" y="144.1467">CommandLine</text><line style="stroke:#181818;stroke-width:0.5;" x1="1173.89" x2="1421.9515" y1="155.3" y2="155.3"/><rect fill="transparent" height="6" style="stroke:#C82930;stroke-width:1;" width="6" x="1180.89" y="165.9484"/><text fill="#000000" font-family="sans-serif" font-size="14" lengthAdjust="spacing" textLength="102.1699" x="1192.89" y="172.2951">prompt: String</text><line style="stroke:#181818;stroke-width:0.5;" x1="1173.89" x2="1421.9515" y1="179.5969" y2="179.5969"/><ellipse cx="1183.89" cy="193.2453" fill="#84BE84" rx="3" ry="3" style="stroke:#038048;stroke-width:1;"/><text fill="#000000" font-family="sans-serif" font-size="14" lengthAdjust="spacing" textLength="93.707" x="1192.89" y="196.592">read(): String</text><ellipse cx="1183.89" cy="209.5422" fill="#84BE84" rx="3" ry="3" style="stroke:#038048;stroke-width:1;"/><text fill="#000000" font-family="sans-serif" font-size="14" lengthAdjust="spacing" textLength="188.8906" x="1192.89" y="212.8889">write(output: Output): void</text><ellipse cx="1183.89" cy="225.8391" fill="#84BE84" rx="3" ry="3" style="stroke:#038048;stroke-width:1;"/><text fill="#000000" font-family="sans-serif" font-size="14" lengthAdjust="spacing" textLength="224.0615" x="1192.89" y="229.1857">setPrompt(prompt: String): void</text></g><!--class Token--><g id="elem_Token"><rect codeLine="73" fill="#F1F1F1" height="80.5938" id="Token" rx="2.5" ry="2.5" style="stroke:#181818;stroke-width:0.5;" width="150.3936" x="2268.73" y="494.12"/><ellipse cx="2318.3213" cy="510.12" fill="#B4A7E5" rx="11" ry="11" style="stroke:#181818;stroke-width:1;"/><path d="M2314.2432,505.8856 L2314.2432,503.7294 L2321.6338,503.7294 L2321.6338,505.8856 L2319.1651,505.8856 L2319.1651,513.9637 L2321.6338,513.9637 L2321.6338,516.12 L2314.2432,516.12 L2314.2432,513.9637 L2316.7119,513.9637 L2316.7119,505.8856 L2314.2432,505.8856 Z " fill="#000000"/><text fill="#000000" font-family="sans-serif" font-size="14" font-style="italic" lengthAdjust="spacing" textLength="42.7109" x="2338.8213" y="514.9667">Token</text><line style="stroke:#181818;stroke-width:0.5;" x1="2269.73" x2="2418.1236" y1="526.12" y2="526.12"/><rect fill="transparent" height="6" style="stroke:#C82930;stroke-width:1;" width="6" x="2276.73" y="536.7684"/><text fill="#000000" font-family="sans-serif" font-size="14" lengthAdjust="spacing" textLength="89.1885" x="2288.73" y="543.1151">value: String</text><line style="stroke:#181818;stroke-width:0.5;" x1="2269.73" x2="2418.1236" y1="550.4169" y2="550.4169"/><ellipse cx="2279.73" cy="564.0653" fill="#84BE84" rx="3" ry="3" style="stroke:#038048;stroke-width:1;"/><text fill="#000000" font-family="sans-serif" font-size="14" lengthAdjust="spacing" textLength="124.3936" x="2288.73" y="567.412">getValue(): String</text></g><!--class QuotedString--><g id="elem_QuotedString"><rect codeLine="78" fill="#F1F1F1" height="32" id="QuotedString" rx="2.5" ry="2.5" style="stroke:#181818;stroke-width:0.5;" width="125.2285" x="2132.31" y="345.23"/><ellipse cx="2147.31" cy="361.23" fill="#ADD1B2" rx="11" ry="11" style="stroke:#181818;stroke-width:1;"/><path d="M2150.2788,366.8706 Q2149.7006,367.1675 2149.06,367.3081 Q2148.4194,367.4644 2147.7163,367.4644 Q2145.2163,367.4644 2143.8881,365.8237 Q2142.5756,364.1675 2142.5756,361.0425 Q2142.5756,357.9175 2143.8881,356.2612 Q2145.2163,354.605 2147.7163,354.605 Q2148.4194,354.605 2149.06,354.7612 Q2149.7163,354.9175 2150.2788,355.2144 L2150.2788,357.9331 Q2149.6538,357.355 2149.06,357.0894 Q2148.4663,356.8081 2147.8413,356.8081 Q2146.4975,356.8081 2145.81,357.8862 Q2145.1225,358.9487 2145.1225,361.0425 Q2145.1225,363.1362 2145.81,364.2144 Q2146.4975,365.2769 2147.8413,365.2769 Q2148.4663,365.2769 2149.06,365.0112 Q2149.6538,364.73 2150.2788,364.1519 L2150.2788,366.8706 Z " fill="#000000"/><text fill="#000000" font-family="sans-serif" font-size="14" lengthAdjust="spacing" textLength="93.2285" x="2161.31" y="366.0767">QuotedString</text></g><!--class PlainWord--><g id="elem_PlainWord"><rect codeLine="79" fill="#F1F1F1" height="32" id="PlainWord" rx="2.5" ry="2.5" style="stroke:#181818;stroke-width:0.5;" width="102.7246" x="2292.56" y="345.23"/><ellipse cx="2307.56" cy="361.23" fill="#ADD1B2" rx="11" ry="11" style="stroke:#181818;stroke-width:1;"/><path d="M2310.5288,366.8706 Q2309.9506,367.1675 2309.31,367.3081 Q2308.6694,367.4644 2307.9663,367.4644 Q2305.4663,367.4644 2304.1381,365.8237 Q2302.8256,364.1675 2302.8256,361.0425 Q2302.8256,357.9175 2304.1381,356.2612 Q2305.4663,354.605 2307.9663,354.605 Q2308.6694,354.605 2309.31,354.7612 Q2309.9663,354.9175 2310.5288,355.2144 L2310.5288,357.9331 Q2309.9038,357.355 2309.31,357.0894 Q2308.7163,356.8081 2308.0913,356.8081 Q2306.7475,356.8081 2306.06,357.8862 Q2305.3725,358.9487 2305.3725,361.0425 Q2305.3725,363.1362 2306.06,364.2144 Q2306.7475,365.2769 2308.0913,365.2769 Q2308.7163,365.2769 2309.31,365.0112 Q2309.9038,364.73 2310.5288,364.1519 L2310.5288,366.8706 Z " fill="#000000"/><text fill="#000000" font-family="sans-serif" font-size="14" lengthAdjust="spacing" textLength="70.7246" x="2321.56" y="366.0767">PlainWord</text></g><!--class Pipe--><g id="elem_Pipe"><rect codeLine="80" fill="#F1F1F1" height="32" id="Pipe" rx="2.5" ry="2.5" style="stroke:#181818;stroke-width:0.5;" width="61.832" x="2430.01" y="345.23"/><ellipse cx="2445.01" cy="361.23" fill="#ADD1B2" rx="11" ry="11" style="stroke:#181818;stroke-width:1;"/><path d="M2447.9788,366.8706 Q2447.4006,367.1675 2446.76,367.3081 Q2446.1194,367.4644 2445.4163,367.4644 Q2442.9163,367.4644 2441.5881,365.8237 Q2440.2756,364.1675 2440.2756,361.0425 Q2440.2756,357.9175 2441.5881,356.2612 Q2442.9163,354.605 2445.4163,354.605 Q2446.1194,354.605 2446.76,354.7612 Q2447.4163,354.9175 2447.9788,355.2144 L2447.9788,357.9331 Q2447.3538,357.355 2446.76,357.0894 Q2446.1663,356.8081 2445.5413,356.8081 Q2444.1975,356.8081 2443.51,357.8862 Q2442.8225,358.9487 2442.8225,361.0425 Q2442.8225,363.1362 2443.51,364.2144 Q2444.1975,365.2769 2445.5413,365.2769 Q2446.1663,365.2769 2446.76,365.0112 Q2447.3538,364.73 2447.9788,364.1519 L2447.9788,366.8706 Z " fill="#000000"/><text fill="#000000" font-family="sans-serif" font-size="14" lengthAdjust="spacing" textLength="29.832" x="2459.01" y="366.0767">Pipe</text></g><!--class EqualsSymbol--><g id="elem_EqualsSymbol"><rect codeLine="81" fill="#F1F1F1" height="32" id="EqualsSymbol" rx="2.5" ry="2.5" style="stroke:#181818;stroke-width:0.5;" width="130.5195" x="2526.66" y="345.23"/><ellipse cx="2541.66" cy="361.23" fill="#ADD1B2" rx="11" ry="11" style="stroke:#181818;stroke-width:1;"/><path d="M2544.6288,366.8706 Q2544.0506,367.1675 2543.41,367.3081 Q2542.7694,367.4644 2542.0663,367.4644 Q2539.5663,367.4644 2538.2381,365.8237 Q2536.9256,364.1675 2536.9256,361.0425 Q2536.9256,357.9175 2538.2381,356.2612 Q2539.5663,354.605 2542.0663,354.605 Q2542.7694,354.605 2543.41,354.7612 Q2544.0663,354.9175 2544.6288,355.2144 L2544.6288,357.9331 Q2544.0038,357.355 2543.41,357.0894 Q2542.8163,356.8081 2542.1913,356.8081 Q2540.8475,356.8081 2540.16,357.8862 Q2539.4725,358.9487 2539.4725,361.0425 Q2539.4725,363.1362 2540.16,364.2144 Q2540.8475,365.2769 2542.1913,365.2769 Q2542.8163,365.2769 2543.41,365.0112 Q2544.0038,364.73 2544.6288,364.1519 L2544.6288,366.8706 Z " fill="#000000"/><text fill="#000000" font-family="sans-serif" font-size="14" lengthAdjust="spacing" textLength="98.5195" x="2555.66" y="366.0767">EqualsSymbol</text></g><!--class TokenizerState--><g id="elem_TokenizerState"><rect codeLine="89" fill="#F1F1F1" height="129.4844" id="TokenizerState" rx="2.5" ry="2.5" style="stroke:#181818;stroke-width:0.5;" width="284.0566" x="1812.89" y="296.49"/><ellipse cx="1897.9803" cy="312.49" fill="#A9DCDF" rx="11" ry="11" style="stroke:#181818;stroke-width:1;"/><path d="M1898.0897,307.8337 L1896.9335,312.9119 L1899.2616,312.9119 L1898.0897,307.8337 Z M1896.6053,305.5994 L1899.5897,305.5994 L1902.9491,317.99 L1900.496,317.99 L1899.7303,314.9275 L1896.4491,314.9275 L1895.6991,317.99 L1893.2616,317.99 L1896.6053,305.5994 Z " fill="#000000"/><text fill="#000000" font-family="sans-serif" font-size="14" font-style="italic" lengthAdjust="spacing" textLength="105.376" x="1918.4803" y="317.3367">TokenizerState</text><line style="stroke:#181818;stroke-width:0.5;" x1="1813.89" x2="2095.9466" y1="328.49" y2="328.49"/><rect fill="transparent" height="6" style="stroke:#C82930;stroke-width:1;" width="6" x="1820.89" y="339.1384"/><text fill="#000000" font-family="sans-serif" font-size="14" lengthAdjust="spacing" textLength="124.6396" x="1832.89" y="345.4851">env: Environment</text><rect fill="transparent" height="6" style="stroke:#C82930;stroke-width:1;" width="6" x="1820.89" y="355.4353"/><text fill="#000000" font-family="sans-serif" font-size="14" lengthAdjust="spacing" textLength="141.7637" x="1832.89" y="361.782">accumulated: String</text><rect fill="transparent" height="6" style="stroke:#C82930;stroke-width:1;" width="6" x="1820.89" y="371.7322"/><text fill="#000000" font-family="sans-serif" font-size="14" lengthAdjust="spacing" textLength="129.9238" x="1832.89" y="378.0789">splitters: String [*]</text><line style="stroke:#181818;stroke-width:0.5;" x1="1813.89" x2="2095.9466" y1="385.3806" y2="385.3806"/><ellipse cx="1823.89" cy="399.0291" fill="#84BE84" rx="3" ry="3" style="stroke:#038048;stroke-width:1;"/><text fill="#000000" font-family="sans-serif" font-size="14" lengthAdjust="spacing" textLength="122.3018" x="1832.89" y="402.3757">tokenize(): Token</text><ellipse cx="1823.89" cy="415.3259" fill="#84BE84" rx="3" ry="3" style="stroke:#038048;stroke-width:1;"/><text fill="#000000" font-family="sans-serif" font-size="14" lengthAdjust="spacing" textLength="258.0566" x="1832.89" y="418.6726">addToAccumulated(char: Char): void</text></g><!--class TokenizerNormal--><g id="elem_TokenizerNormal"><rect codeLine="99" fill="#F1F1F1" height="32" id="TokenizerNormal" rx="2.5" ry="2.5" style="stroke:#181818;stroke-width:0.5;" width="151.2188" x="1771.31" y="163.89"/><ellipse cx="1786.31" cy="179.89" fill="#ADD1B2" rx="11" ry="11" style="stroke:#181818;stroke-width:1;"/><path d="M1789.2788,185.5306 Q1788.7006,185.8275 1788.06,185.9681 Q1787.4194,186.1244 1786.7163,186.1244 Q1784.2163,186.1244 1782.8881,184.4838 Q1781.5756,182.8275 1781.5756,179.7025 Q1781.5756,176.5775 1782.8881,174.9213 Q1784.2163,173.265 1786.7163,173.265 Q1787.4194,173.265 1788.06,173.4213 Q1788.7163,173.5775 1789.2788,173.8744 L1789.2788,176.5931 Q1788.6538,176.015 1788.06,175.7494 Q1787.4663,175.4681 1786.8413,175.4681 Q1785.4975,175.4681 1784.81,176.5463 Q1784.1225,177.6088 1784.1225,179.7025 Q1784.1225,181.7963 1784.81,182.8744 Q1785.4975,183.9369 1786.8413,183.9369 Q1787.4663,183.9369 1788.06,183.6713 Q1788.6538,183.39 1789.2788,182.8119 L1789.2788,185.5306 Z " fill="#000000"/><text fill="#000000" font-family="sans-serif" font-size="14" lengthAdjust="spacing" textLength="119.2188" x="1800.31" y="184.7367">TokenizerNormal</text></g><!--class TokenizerStronglyQuoted--><g id="elem_TokenizerStronglyQuoted"><rect codeLine="103" fill="#F1F1F1" height="32" id="TokenizerStronglyQuoted" rx="2.5" ry="2.5" style="stroke:#181818;stroke-width:0.5;" width="210.3975" x="1957.72" y="163.89"/><ellipse cx="1972.72" cy="179.89" fill="#ADD1B2" rx="11" ry="11" style="stroke:#181818;stroke-width:1;"/><path d="M1975.6888,185.5306 Q1975.1106,185.8275 1974.47,185.9681 Q1973.8294,186.1244 1973.1263,186.1244 Q1970.6263,186.1244 1969.2981,184.4838 Q1967.9856,182.8275 1967.9856,179.7025 Q1967.9856,176.5775 1969.2981,174.9213 Q1970.6263,173.265 1973.1263,173.265 Q1973.8294,173.265 1974.47,173.4213 Q1975.1263,173.5775 1975.6888,173.8744 L1975.6888,176.5931 Q1975.0638,176.015 1974.47,175.7494 Q1973.8763,175.4681 1973.2513,175.4681 Q1971.9075,175.4681 1971.22,176.5463 Q1970.5325,177.6088 1970.5325,179.7025 Q1970.5325,181.7963 1971.22,182.8744 Q1971.9075,183.9369 1973.2513,183.9369 Q1973.8763,183.9369 1974.47,183.6713 Q1975.0638,183.39 1975.6888,182.8119 L1975.6888,185.5306 Z " fill="#000000"/><text fill="#000000" font-family="sans-serif" font-size="14" lengthAdjust="spacing" textLength="178.3975" x="1986.72" y="184.7367">TokenizerStronglyQuoted</text></g><!--class TokenizerWeaklyQuoted--><g id="elem_TokenizerWeaklyQuoted"><rect codeLine="105" fill="#F1F1F1" height="32" id="TokenizerWeaklyQuoted" rx="2.5" ry="2.5" style="stroke:#181818;stroke-width:0.5;" width="203.083" x="2203.38" y="163.89"/><ellipse cx="2218.38" cy="179.89" fill="#ADD1B2" rx="11" ry="11" style="stroke:#181818;stroke-width:1;"/><path d="M2221.3488,185.5306 Q2220.7706,185.8275 2220.13,185.9681 Q2219.4894,186.1244 2218.7863,186.1244 Q2216.2863,186.1244 2214.9581,184.4838 Q2213.6456,182.8275 2213.6456,179.7025 Q2213.6456,176.5775 2214.9581,174.9213 Q2216.2863,173.265 2218.7863,173.265 Q2219.4894,173.265 2220.13,173.4213 Q2220.7863,173.5775 2221.3488,173.8744 L2221.3488,176.5931 Q2220.7238,176.015 2220.13,175.7494 Q2219.5363,175.4681 2218.9113,175.4681 Q2217.5675,175.4681 2216.88,176.5463 Q2216.1925,177.6088 2216.1925,179.7025 Q2216.1925,181.7963 2216.88,182.8744 Q2217.5675,183.9369 2218.9113,183.9369 Q2219.5363,183.9369 2220.13,183.6713 Q2220.7238,183.39 2221.3488,182.8119 L2221.3488,185.5306 Z " fill="#000000"/><text fill="#000000" font-family="sans-serif" font-size="14" lengthAdjust="spacing" textLength="171.083" x="2232.38" y="184.7367">TokenizerWeaklyQuoted</text></g><!--class TokenizerVariable--><g id="elem_TokenizerVariable"><rect codeLine="109" fill="#F1F1F1" height="32" id="TokenizerVariable" rx="2.5" ry="2.5" style="stroke:#181818;stroke-width:0.5;" width="158.0889" x="2441.88" y="163.89"/><ellipse cx="2456.88" cy="179.89" fill="#ADD1B2" rx="11" ry="11" style="stroke:#181818;stroke-width:1;"/><path d="M2459.8488,185.5306 Q2459.2706,185.8275 2458.63,185.9681 Q2457.9894,186.1244 2457.2863,186.1244 Q2454.7863,186.1244 2453.4581,184.4838 Q2452.1456,182.8275 2452.1456,179.7025 Q2452.1456,176.5775 2453.4581,174.9213 Q2454.7863,173.265 2457.2863,173.265 Q2457.9894,173.265 2458.63,173.4213 Q2459.2863,173.5775 2459.8488,173.8744 L2459.8488,176.5931 Q2459.2238,176.015 2458.63,175.7494 Q2458.0363,175.4681 2457.4113,175.4681 Q2456.0675,175.4681 2455.38,176.5463 Q2454.6925,177.6088 2454.6925,179.7025 Q2454.6925,181.7963 2455.38,182.8744 Q2456.0675,183.9369 2457.4113,183.9369 Q2458.0363,183.9369 2458.63,183.6713 Q2459.2238,183.39 2459.8488,182.8119 L2459.8488,185.5306 Z " fill="#000000"/><text fill="#000000" font-family="sans-serif" font-size="14" lengthAdjust="spacing" textLength="126.0889" x="2470.88" y="184.7367">TokenizerVariable</text></g><!--class Parser--><g id="elem_Parser"><rect codeLine="118" fill="#F1F1F1" height="113.1875" id="Parser" rx="2.5" ry="2.5" style="stroke:#181818;stroke-width:0.5;" width="278.5264" x="1457.66" y="123.3"/><ellipse cx="1570.453" cy="139.3" fill="#ADD1B2" rx="11" ry="11" style="stroke:#181818;stroke-width:1;"/><path d="M1573.4217,144.9406 Q1572.8436,145.2375 1572.203,145.3781 Q1571.5623,145.5344 1570.8592,145.5344 Q1568.3592,145.5344 1567.0311,143.8937 Q1565.7186,142.2375 1565.7186,139.1125 Q1565.7186,135.9875 1567.0311,134.3312 Q1568.3592,132.675 1570.8592,132.675 Q1571.5623,132.675 1572.203,132.8312 Q1572.8592,132.9875 1573.4217,133.2844 L1573.4217,136.0031 Q1572.7967,135.425 1572.203,135.1594 Q1571.6092,134.8781 1570.9842,134.8781 Q1569.6405,134.8781 1568.953,135.9562 Q1568.2655,137.0187 1568.2655,139.1125 Q1568.2655,141.2062 1568.953,142.2844 Q1569.6405,143.3469 1570.9842,143.3469 Q1571.6092,143.3469 1572.203,143.0812 Q1572.7967,142.8 1573.4217,142.2219 L1573.4217,144.9406 Z " fill="#000000"/><text fill="#000000" font-family="sans-serif" font-size="14" lengthAdjust="spacing" textLength="44.4404" x="1590.953" y="144.1467">Parser</text><line style="stroke:#181818;stroke-width:0.5;" x1="1458.66" x2="1735.1864" y1="155.3" y2="155.3"/><rect fill="transparent" height="6" style="stroke:#C82930;stroke-width:1;" width="6" x="1465.66" y="165.9484"/><text fill="#000000" font-family="sans-serif" font-size="14" lengthAdjust="spacing" textLength="86.96" x="1477.66" y="172.2951">input: String</text><rect fill="transparent" height="6" style="stroke:#C82930;stroke-width:1;" width="6" x="1465.66" y="182.2453"/><text fill="#000000" font-family="sans-serif" font-size="14" lengthAdjust="spacing" textLength="252.5264" x="1477.66" y="188.592">startTokenizerState: TokenizerState</text><line style="stroke:#181818;stroke-width:0.5;" x1="1458.66" x2="1735.1864" y1="195.8937" y2="195.8937"/><rect fill="#F24D5C" height="6" style="stroke:#C82930;stroke-width:1;" width="6" x="1465.66" y="206.5422"/><text fill="#000000" font-family="sans-serif" font-size="14" lengthAdjust="spacing" textLength="144.6758" x="1477.66" y="212.8889">tokenize(): Token [*]</text><ellipse cx="1468.66" cy="225.8391" fill="#84BE84" rx="3" ry="3" style="stroke:#038048;stroke-width:1;"/><text fill="#000000" font-family="sans-serif" font-size="14" lengthAdjust="spacing" textLength="177.167" x="1477.66" y="229.1857">parse(): CommandQueue</text></g><!--link Command to Output--><g id="link_Command_Output"><path codeLine="21" d="M367.92,583.01 C367.92,601.62 367.92,617.1 367.92,636.45 " fill="transparent" id="Command-to-Output" style="stroke:#181818;stroke-width:1;"/><polygon fill="#181818" points="367.92,642.45,371.92,633.45,367.92,637.45,363.92,633.45,367.92,642.45" style="stroke:#181818;stroke-width:1;"/></g><!--link Cat to Command--><g id="link_Cat_Command"><path codeLine="34" d="M42.35,377.63 C49.97,391.96 63.08,412.99 79.92,425.97 C140.05,472.31 204.848,495.8438 266.048,511.5938 " fill="transparent" id="Cat-to-Command" style="stroke:#181818;stroke-width:1;"/><polygon fill="transparent" points="283.48,516.08,267.5434,505.7832,264.5526,517.4045,283.48,516.08" style="stroke:#181818;stroke-width:1;"/></g><!--link Pwd to Command--><g id="link_Pwd_Command"><path codeLine="35" d="M136.89,377.57 C145.56,391.46 159.75,411.85 175.92,425.97 C207.86,453.86 232.1742,469.564 267.6242,487.694 " fill="transparent" id="Pwd-to-Command" style="stroke:#181818;stroke-width:1;"/><polygon fill="transparent" points="283.65,495.89,270.3562,482.3521,264.8922,493.0359,283.65,495.89" style="stroke:#181818;stroke-width:1;"/></g><!--link Echo to Command--><g id="link_Echo_Command"><path codeLine="36" d="M237.96,377.52 C248.22,390.5 263.41,409.56 276.92,425.97 C293.08,445.6 299.4738,453.2938 315.2038,471.8038 " fill="transparent" id="Echo-to-Command" style="stroke:#181818;stroke-width:1;"/><polygon fill="transparent" points="326.86,485.52,319.7759,467.9184,310.6318,475.6892,326.86,485.52" style="stroke:#181818;stroke-width:1;"/></g><!--link Wc to Command--><g id="link_Wc_Command"><path codeLine="37" d="M325.18,377.72 C331.8,401.84 340.0775,431.9815 350.0175,468.2115 " fill="transparent" id="Wc-to-Command" style="stroke:#181818;stroke-width:1;"/><polygon fill="transparent" points="354.78,485.57,355.8037,466.624,344.2314,469.7989,354.78,485.57" style="stroke:#181818;stroke-width:1;"/></g><!--link Bind to Command--><g id="link_Bind_Command"><path codeLine="38" d="M409.76,377.72 C403.28,401.84 395.1787,431.956 385.4487,468.186 " fill="transparent" id="Bind-to-Command" style="stroke:#181818;stroke-width:1;"/><polygon fill="transparent" points="380.78,485.57,391.2433,469.7422,379.654,466.6298,380.78,485.57" style="stroke:#181818;stroke-width:1;"/></g><!--link External to Command--><g id="link_External_Command"><path codeLine="39" d="M531.39,410.14 C500.17,433.68 477.0207,451.141 445.8107,474.681 " fill="transparent" id="External-to-Command" style="stroke:#181818;stroke-width:1;"/><polygon fill="transparent" points="431.44,485.52,449.4237,479.4712,442.1977,469.8908,431.44,485.52" style="stroke:#181818;stroke-width:1;"/></g><!--link Exit to Command--><g id="link_Exit_Command"><path codeLine="40" d="M765.34,377.6 C757.42,392.12 743.68,413.46 725.92,425.97 C643.55,483.97 547.1914,508.2807 470.1214,520.6807 " fill="transparent" id="Exit-to-Command" style="stroke:#181818;stroke-width:1;"/><polygon fill="transparent" points="452.35,523.54,471.0745,526.6045,469.1684,514.7569,452.35,523.54" style="stroke:#181818;stroke-width:1;"/></g><!--link CommandQueue to Command--><g id="link_CommandQueue_Command"><path codeLine="47" d="M870.19,410.02 C853.37,415.67 836.3,421.14 819.92,425.97 C693.24,463.34 549.5604,495.6296 458.2204,514.9296 " fill="transparent" id="CommandQueue-to-Command" style="stroke:#181818;stroke-width:1;"/><polygon fill="#181818" points="452.35,516.17,461.9825,518.223,457.242,515.1363,460.3286,510.3958,452.35,516.17" style="stroke:#181818;stroke-width:1;"/></g><!--link CommandRunner to CommandQueue--><g id="link_CommandRunner_CommandQueue"><path codeLine="55" d="M999.92,228.48 C999.92,254.42 999.92,280.44 999.92,306.42 " fill="transparent" id="CommandRunner-to-CommandQueue" style="stroke:#181818;stroke-width:1;"/><polygon fill="#181818" points="999.92,312.42,1003.92,303.42,999.92,307.42,995.92,303.42,999.92,312.42" style="stroke:#181818;stroke-width:1;"/></g><!--link CommandRunner to Environment--><g id="link_CommandRunner_Environment"><path codeLine="56" d="M1094.24,228.8 C1226.92,296.2 1461.8906,415.5527 1594.4606,482.8927 " fill="transparent" id="CommandRunner-to-Environment" style="stroke:#181818;stroke-width:1;"/><polygon fill="#181818" points="1599.81,485.61,1593.5974,477.9678,1595.3521,483.3456,1589.9743,485.1004,1599.81,485.61" style="stroke:#181818;stroke-width:1;"/></g><!--link Main to CommandRunner--><g id="link_Main_CommandRunner"><path codeLine="62" d="M1240.46,63.67 C1200.63,82.75 1151.9614,106.0682 1105.1714,128.4782 " fill="transparent" id="Main-to-CommandRunner" style="stroke:#181818;stroke-width:1;"/><polygon fill="#181818" points="1099.76,131.07,1109.6049,130.7899,1104.2695,128.9102,1106.1492,123.5748,1099.76,131.07" style="stroke:#181818;stroke-width:1;"/></g><!--link Main to CommandLine--><g id="link_Main_CommandLine"><path codeLine="71" d="M1297.92,63.67 C1297.92,80.52 1297.92,96.7 1297.92,117.09 " fill="transparent" id="Main-to-CommandLine" style="stroke:#181818;stroke-width:1;"/><polygon fill="#181818" points="1297.92,123.09,1301.92,114.09,1297.92,118.09,1293.92,114.09,1297.92,123.09" style="stroke:#181818;stroke-width:1;"/></g><!--link QuotedString to Token--><g id="link_QuotedString_Token"><path codeLine="83" d="M2208.41,377.72 C2231.04,403.73 2265.5431,443.362 2297.6831,480.292 " fill="transparent" id="QuotedString-to-Token" style="stroke:#181818;stroke-width:1;"/><polygon fill="transparent" points="2309.5,493.87,2302.2091,476.3531,2293.1571,484.231,2309.5,493.87" style="stroke:#181818;stroke-width:1;"/></g><!--link PlainWord to Token--><g id="link_PlainWord_Token"><path codeLine="84" d="M2343.92,377.72 C2343.92,403.73 2343.92,438.94 2343.92,475.87 " fill="transparent" id="PlainWord-to-Token" style="stroke:#181818;stroke-width:1;"/><polygon fill="transparent" points="2343.92,493.87,2349.92,475.87,2337.92,475.87,2343.92,493.87" style="stroke:#181818;stroke-width:1;"/></g><!--link Pipe to Token--><g id="link_Pipe_Token"><path codeLine="85" d="M2450.33,377.72 C2432.56,403.73 2406.3467,442.0792 2381.1067,479.0092 " fill="transparent" id="Pipe-to-Token" style="stroke:#181818;stroke-width:1;"/><polygon fill="transparent" points="2370.95,493.87,2386.0603,482.3948,2376.1531,475.6237,2370.95,493.87" style="stroke:#181818;stroke-width:1;"/></g><!--link EqualsSymbol to Token--><g id="link_EqualsSymbol_Token"><path codeLine="86" d="M2572.79,377.6 C2556.17,390.79 2531.31,410.12 2508.92,425.97 C2476,449.28 2453.5398,464.2409 2422.5398,484.0409 " fill="transparent" id="EqualsSymbol-to-Token" style="stroke:#181818;stroke-width:1;"/><polygon fill="transparent" points="2407.37,493.73,2425.7695,489.0975,2419.3101,478.9843,2407.37,493.73" style="stroke:#181818;stroke-width:1;"/></g><!--link TokenizerState to Token--><g id="link_TokenizerState_Token"><path codeLine="97" d="M2097.29,424.88 C2155.21,450.37 2214.298,476.3738 2262.848,497.7338 " fill="transparent" id="TokenizerState-to-Token" style="stroke:#181818;stroke-width:1;"/><polygon fill="#181818" points="2268.34,500.15,2261.7129,492.8643,2263.7634,498.1365,2258.4912,500.187,2268.34,500.15" style="stroke:#181818;stroke-width:1;"/></g><!--link TokenizerNormal to TokenizerState--><g id="link_TokenizerNormal_TokenizerState"><path codeLine="111" d="M1856.13,196.18 C1869.39,218.21 1885.3726,244.751 1907.0326,280.711 " fill="transparent" id="TokenizerNormal-to-TokenizerState" style="stroke:#181818;stroke-width:1;"/><polygon fill="transparent" points="1916.32,296.13,1912.1723,277.6152,1901.893,283.8068,1916.32,296.13" style="stroke:#181818;stroke-width:1;"/></g><!--link TokenizerStronglyQuoted to TokenizerState--><g id="link_TokenizerStronglyQuoted_TokenizerState"><path codeLine="112" d="M2053.71,196.18 C2040.45,218.21 2024.4674,244.751 2002.8074,280.711 " fill="transparent" id="TokenizerStronglyQuoted-to-TokenizerState" style="stroke:#181818;stroke-width:1;"/><polygon fill="transparent" points="1993.52,296.13,2007.947,283.8068,1997.6677,277.6152,1993.52,296.13" style="stroke:#181818;stroke-width:1;"/></g><!--link TokenizerWeaklyQuoted to TokenizerState--><g id="link_TokenizerWeaklyQuoted_TokenizerState"><path codeLine="113" d="M2274.78,196.34 C2231.75,218.39 2166.1897,251.9822 2096.1997,287.8422 " fill="transparent" id="TokenizerWeaklyQuoted-to-TokenizerState" style="stroke:#181818;stroke-width:1;"/><polygon fill="transparent" points="2080.18,296.05,2098.9357,293.1821,2093.4638,282.5023,2080.18,296.05" style="stroke:#181818;stroke-width:1;"/></g><!--link TokenizerVariable to TokenizerState--><g id="link_TokenizerVariable_TokenizerState"><path codeLine="114" d="M2498.84,196.37 C2479.82,209 2451.21,226.34 2423.92,236.49 C2292.8,285.26 2249.16,257.09 2114.92,296.49 C2109.04,298.21 2120.1775,294.4722 2114.1875,296.4322 " fill="transparent" id="TokenizerVariable-to-TokenizerState" style="stroke:#181818;stroke-width:1;"/><polygon fill="transparent" points="2097.08,302.03,2116.0534,302.1347,2112.3215,290.7297,2097.08,302.03" style="stroke:#181818;stroke-width:1;"/></g><!--link TokenizerState to Environment--><g id="link_TokenizerState_Environment"><path codeLine="115" d="M1856.99,426.46 C1827.05,446.1 1799.677,464.0492 1771.717,482.3892 " fill="transparent" id="TokenizerState-to-Environment" style="stroke:#181818;stroke-width:1;"/><polygon fill="#181818" points="1766.7,485.68,1776.4194,484.0884,1770.8808,482.9376,1772.0316,477.3991,1766.7,485.68" style="stroke:#181818;stroke-width:1;"/></g><!--link Parser to TokenizerState--><g id="link_Parser_TokenizerState"><path codeLine="125" d="M1708.72,236.9 C1746.16,255.65 1782.8251,274.0234 1821.4251,293.3534 " fill="transparent" id="Parser-to-TokenizerState" style="stroke:#181818;stroke-width:1;"/><polygon fill="#181818" points="1826.79,296.04,1820.5337,288.4335,1822.3193,293.8012,1816.9516,295.5867,1826.79,296.04" style="stroke:#181818;stroke-width:1;"/></g><!--link Main to Parser--><g id="link_Main_Parser"><path codeLine="127" d="M1355.57,63.67 C1390.78,80.48 1431.6858,100.0042 1474.3158,120.3642 " fill="transparent" id="Main-to-Parser" style="stroke:#181818;stroke-width:1;"/><polygon fill="#181818" points="1479.73,122.95,1473.3326,115.4618,1475.2182,120.7952,1469.8848,122.6808,1479.73,122.95" style="stroke:#181818;stroke-width:1;"/></g><!--SRC=[fLNBRjD05DtxAsQ70-G7B5IfBQc4H26b5LaW5XFxaengpvXvf2cX_ywyVISfPS4ciU-SEVVSfxUi0mB3g1_90CCQfAhQdYf55dp7fE03S4qE5I5pigEIqNKFgY7lMQlVtMh9-EOj2Vzd5lE6AD1V8wpcT8269DIEzYQ_pXgo4wppLpRkYZqhyBFqK3rLKT1deqUZWnJOCtqfEWl_mBMt27-QRtcGb49UWr9q0-Z0UmnaTU66hfMMjDNaKWm3vLrmHUL69HJvzlgxPu0zj4Q3kn-Ol9LstRdSr6M8bZZoaVdyBC53I9TK7vxYy_AXoy-BTYloowhDZnUC8z1UW-Iq3pBNZ5ynNvibrTieT4wOkZ9zxqntOk55kz8qv4A87aNYZ8izKrgvaFpXv8OvaPNLQWFuVPQoKrd1fS6fBYshjdnt-e_kn22EhUp8MKfOUBqnO234tGQBZJjbETN8LYEQwWZA6Dn-enWJR9O1DdhiobVkUIbV3ESWIId6NseAjQ4Z-Qx1WuLxAO8LwgcfTQ8N92EGdXvZzgZqcZ9-yAwauNPUG8uIx6-DMjHXC7rWF8hr8-CnwwCKTcKKGoM1TcYUdEb1CZiZQJ93K3ZrTbaiFL5TyhsWoqceAkQ2-45R87VY7dXQJsZ1b9ibooBJEhanGaCNpDCGzjRVIiXfofPiX6daVXhQgzl7OIrwDnEO8_IhrrDbci9ecV0x9iDsj8YyWVq2UQkfZgb_feViacfRCvZUWhfY1QgnPzhcwdI3wKZjSXFynfcv4-SJMTrkgRIDR7zHKKfPlZnHUaXJFlyav10Mr2llCdqQ_BtisI7JoLGVvCH6kkaVGx8Ffu0LqFjy_7- -qj41HncYG2NAeLT_4Vao5kjz6Pda_Cjtga8n_Ac1gLGWG-ymVloDL9fANJ8rnuuSxgHTSYEDZX-jph2ORFw2uwax9i9fgWFc3m00]--></g></svg>