<?xml version="1.0" encoding="us-ascii" standalone="no"?><svg xmlns="http://www.w3.org/2000/svg" xmlns:xlink="http://www.w3.org/1999/xlink" contentStyleType="text/css" height="355px" preserveAspectRatio="none" style="width:190px;height:355px;background:#FFFFFF;" version="1.1" viewBox="0 0 190 355" width="190px" zoomAndPan="magnify"><defs/><g><!--class Target--><g id="elem_Target"><rect codeLine="1" fill="#F1F1F1" height="67.0679" id="Target" rx="2.5" ry="2.5" style="stroke:#181818;stroke-width:0.5;" width="122" x="34" y="7"/><ellipse cx="71.05" cy="23" fill="#B4A7E5" rx="11" ry="11" style="stroke:#181818;stroke-width:1.0;"/><path d="M67.0813,29.5 L67.0813,27.7969 L69.4406,27.5313 L69.4406,19.3281 L67.0813,19.0625 L67.0813,17.3594 L74.2219,17.3594 L74.2219,19.0625 L71.8,19.3281 L71.8,27.5313 L74.2219,27.7969 L74.2219,29.5 L67.0813,29.5 Z " fill="#000000"/><text fill="#000000" font-family="sans-serif" font-size="14" font-style="italic" lengthAdjust="spacing" textLength="41" x="89.95" y="28.432">Target</text><line style="stroke:#181818;stroke-width:0.5;" x1="35" x2="155" y1="39" y2="39"/><line style="stroke:#181818;stroke-width:0.5;" x1="35" x2="155" y1="47" y2="47"/><ellipse cx="45" cy="62.034" fill="#84BE84" rx="3" ry="3" style="stroke:#038048;stroke-width:1.0;"/><text fill="#000000" font-family="sans-serif" font-size="14" lengthAdjust="spacing" textLength="96" x="54" y="65.9659">request(): void</text></g><!--class Adapter--><g id="elem_Adapter"><rect codeLine="5" fill="#F1F1F1" height="67.0679" id="Adapter" rx="2.5" ry="2.5" style="stroke:#181818;stroke-width:0.5;" width="122" x="34" y="135.06"/><ellipse cx="65.2" cy="151.06" fill="#ADD1B2" rx="11" ry="11" style="stroke:#181818;stroke-width:1.0;"/><path d="M64.6688,157.9819 Q62.9188,157.9819 61.7781,157.2475 Q60.6531,156.4975 60.0906,155.1538 Q59.5438,153.7944 59.5438,151.9975 Q59.5438,149.9663 60.2,148.5131 Q60.8563,147.06 62.1375,146.2788 Q63.4188,145.4975 65.2938,145.4975 Q66.1844,145.4975 66.8563,145.685 Q67.5281,145.8569 68.2156,146.2006 L67.4031,148.2163 Q66.7781,147.9038 66.2313,147.7788 Q65.7,147.6538 65.2156,147.6538 Q64.0438,147.6538 63.3406,148.185 Q62.6375,148.7163 62.3406,149.6694 Q62.0438,150.6225 62.0438,151.8881 Q62.0438,153.9038 62.7625,154.8725 Q63.4813,155.8256 65.075,155.8256 Q65.6688,155.8256 66.2938,155.6694 Q66.9188,155.5131 67.7469,155.1381 L67.7469,157.3569 Q67.0125,157.6694 66.2156,157.8256 Q65.4344,157.9819 64.6688,157.9819 Z " fill="#000000"/><text fill="#000000" font-family="sans-serif" font-size="14" lengthAdjust="spacing" textLength="54" x="82.8" y="156.492">Adapter</text><line style="stroke:#181818;stroke-width:0.5;" x1="35" x2="155" y1="167.06" y2="167.06"/><line style="stroke:#181818;stroke-width:0.5;" x1="35" x2="155" y1="175.06" y2="175.06"/><ellipse cx="45" cy="190.094" fill="#84BE84" rx="3" ry="3" style="stroke:#038048;stroke-width:1.0;"/><text fill="#000000" font-family="sans-serif" font-size="14" lengthAdjust="spacing" textLength="96" x="54" y="194.0259">request(): void</text></g><!--class Adaptee--><g id="elem_Adaptee"><rect codeLine="9" fill="#F1F1F1" height="67.0679" id="Adaptee" rx="2.5" ry="2.5" style="stroke:#181818;stroke-width:0.5;" width="176" x="7" y="281.13"/><ellipse cx="62.75" cy="297.13" fill="#ADD1B2" rx="11" ry="11" style="stroke:#181818;stroke-width:1.0;"/><path d="M62.2188,304.0519 Q60.4688,304.0519 59.3281,303.3175 Q58.2031,302.5675 57.6406,301.2238 Q57.0938,299.8644 57.0938,298.0675 Q57.0938,296.0363 57.75,294.5831 Q58.4063,293.13 59.6875,292.3488 Q60.9688,291.5675 62.8438,291.5675 Q63.7344,291.5675 64.4063,291.755 Q65.0781,291.9269 65.7656,292.2706 L64.9531,294.2863 Q64.3281,293.9738 63.7813,293.8488 Q63.25,293.7238 62.7656,293.7238 Q61.5938,293.7238 60.8906,294.255 Q60.1875,294.7863 59.8906,295.7394 Q59.5938,296.6925 59.5938,297.9581 Q59.5938,299.9738 60.3125,300.9425 Q61.0313,301.8956 62.625,301.8956 Q63.2188,301.8956 63.8438,301.7394 Q64.4688,301.5831 65.2969,301.2081 L65.2969,303.4269 Q64.5625,303.7394 63.7656,303.8956 Q62.9844,304.0519 62.2188,304.0519 Z " fill="#000000"/><text fill="#000000" font-family="sans-serif" font-size="14" lengthAdjust="spacing" textLength="56" x="83.25" y="302.562">Adaptee</text><line style="stroke:#181818;stroke-width:0.5;" x1="8" x2="182" y1="313.13" y2="313.13"/><line style="stroke:#181818;stroke-width:0.5;" x1="8" x2="182" y1="321.13" y2="321.13"/><ellipse cx="18" cy="336.164" fill="#84BE84" rx="3" ry="3" style="stroke:#038048;stroke-width:1.0;"/><text fill="#000000" font-family="sans-serif" font-size="14" lengthAdjust="spacing" textLength="150" x="27" y="340.0959">specificRequest(): void</text></g><!--reverse link Target to Adapter--><g id="link_Target_Adapter"><path d="M81.4701,92.2247 C79.5401,110.9047 81.39,116.32 83.34,134.97 " fill="none" id="Target-backto-Adapter" style="stroke:#181818;stroke-width:1.0;stroke-dasharray:7.0,7.0;"/><polygon fill="none" points="83.32,74.32,75.5019,91.6081,87.4383,92.8413,83.32,74.32" style="stroke:#181818;stroke-width:1.0;"/></g><!--link Adapter to Target--><g id="link_Adapter_Target"><path codeLine="13" d="M106.66,134.97 C108.61,116.32 109.2266,98.9682 107.2966,80.2882 " fill="none" id="Adapter-to-Target" style="stroke:#181818;stroke-width:1.0;"/><polygon fill="#181818" points="106.68,74.32,103.6261,83.6834,107.1939,79.2935,111.5838,82.8613,106.68,74.32" style="stroke:#181818;stroke-width:1.0;"/></g><!--link Adapter to Adaptee--><g id="link_Adapter_Adaptee"><path codeLine="14" d="M95,202.29 C95,225.87 95,251.56 95,275.1 " fill="none" id="Adapter-to-Adaptee" style="stroke:#181818;stroke-width:1.0;stroke-dasharray:7.0,7.0;"/><polygon fill="#181818" points="95,281.1,99,272.1,95,276.1,91,272.1,95,281.1" style="stroke:#181818;stroke-width:1.0;"/><text fill="#000000" font-family="sans-serif" font-size="13" lengthAdjust="spacing" textLength="41" x="96" y="247.027">adapts</text></g><!--SRC=[oymhIIrAIqnELGX9B4fFBL6evb800ksYrCBIrE8I3KqhXRByp1IkMYwkv9p4uc85nvJ40g0MXSpSWfpKtDIyacBITAR2r1KNf2PdfcKc1s6gXzcXgsi7DHmkfATd1pV8IY4Hn2e60000]--></g></svg>