<?xml version="1.0" encoding="us-ascii" standalone="no"?><svg xmlns="http://www.w3.org/2000/svg" xmlns:xlink="http://www.w3.org/1999/xlink" contentStyleType="text/css" height="193px" preserveAspectRatio="none" style="width:450px;height:193px;background:#FFFFFF;" version="1.1" viewBox="0 0 450 193" width="450px" zoomAndPan="magnify"><defs/><g><!--class Target--><g id="elem_Target"><rect codeLine="3" fill="#F1F1F1" height="59.0679" id="Target" rx="2.5" ry="2.5" style="stroke:#181818;stroke-width:0.5;" width="99" x="113" y="7"/><ellipse cx="139.7" cy="23" fill="#B4A7E5" rx="11" ry="11" style="stroke:#181818;stroke-width:1.0;"/><path d="M135.7313,29.5 L135.7313,27.7969 L138.0906,27.5313 L138.0906,19.3281 L135.7313,19.0625 L135.7313,17.3594 L142.8719,17.3594 L142.8719,19.0625 L140.45,19.3281 L140.45,27.5313 L142.8719,27.7969 L142.8719,29.5 L135.7313,29.5 Z " fill="#000000"/><text fill="#000000" font-family="sans-serif" font-size="14" font-style="italic" lengthAdjust="spacing" textLength="41" x="156.3" y="28.432">Target</text><line style="stroke:#181818;stroke-width:0.5;" x1="114" x2="211" y1="39" y2="39"/><ellipse cx="124" cy="54.034" fill="#84BE84" rx="3" ry="3" style="stroke:#038048;stroke-width:1.0;"/><text fill="#000000" font-family="sans-serif" font-size="14" lengthAdjust="spacing" textLength="73" x="133" y="57.9659">operation()</text></g><!--class Client--><g id="elem_Client"><rect codeLine="7" fill="#F1F1F1" height="32" id="Client" rx="2.5" ry="2.5" style="stroke:#181818;stroke-width:0.5;" width="71" x="7" y="20.54"/><ellipse cx="22" cy="36.54" fill="#ADD1B2" rx="11" ry="11" style="stroke:#181818;stroke-width:1.0;"/><path d="M21.4688,43.4619 Q19.7188,43.4619 18.5781,42.7275 Q17.4531,41.9775 16.8906,40.6337 Q16.3438,39.2744 16.3438,37.4775 Q16.3438,35.4462 17,33.9931 Q17.6563,32.54 18.9375,31.7587 Q20.2188,30.9775 22.0938,30.9775 Q22.9844,30.9775 23.6563,31.165 Q24.3281,31.3369 25.0156,31.6806 L24.2031,33.6962 Q23.5781,33.3837 23.0313,33.2587 Q22.5,33.1337 22.0156,33.1337 Q20.8438,33.1337 20.1406,33.665 Q19.4375,34.1962 19.1406,35.1494 Q18.8438,36.1025 18.8438,37.3681 Q18.8438,39.3837 19.5625,40.3525 Q20.2813,41.3056 21.875,41.3056 Q22.4688,41.3056 23.0938,41.1494 Q23.7188,40.9931 24.5469,40.6181 L24.5469,42.8369 Q23.8125,43.1494 23.0156,43.3056 Q22.2344,43.4619 21.4688,43.4619 Z " fill="#000000"/><text fill="#000000" font-family="sans-serif" font-size="14" lengthAdjust="spacing" textLength="39" x="36" y="41.972">Client</text></g><!--class Adapter--><g id="elem_Adapter"><rect codeLine="9" fill="#F1F1F1" height="59.0679" id="Adapter" rx="2.5" ry="2.5" style="stroke:#181818;stroke-width:0.5;" width="99" x="113" y="127.07"/><ellipse cx="133.85" cy="143.07" fill="#ADD1B2" rx="11" ry="11" style="stroke:#181818;stroke-width:1.0;"/><path d="M133.3188,149.9919 Q131.5688,149.9919 130.4281,149.2575 Q129.3031,148.5075 128.7406,147.1638 Q128.1938,145.8044 128.1938,144.0075 Q128.1938,141.9763 128.85,140.5231 Q129.5063,139.07 130.7875,138.2888 Q132.0688,137.5075 133.9438,137.5075 Q134.8344,137.5075 135.5063,137.695 Q136.1781,137.8669 136.8656,138.2106 L136.0531,140.2263 Q135.4281,139.9138 134.8813,139.7888 Q134.35,139.6638 133.8656,139.6638 Q132.6938,139.6638 131.9906,140.195 Q131.2875,140.7263 130.9906,141.6794 Q130.6938,142.6325 130.6938,143.8981 Q130.6938,145.9138 131.4125,146.8825 Q132.1313,147.8356 133.725,147.8356 Q134.3188,147.8356 134.9438,147.6794 Q135.5688,147.5231 136.3969,147.1481 L136.3969,149.3669 Q135.6625,149.6794 134.8656,149.8356 Q134.0844,149.9919 133.3188,149.9919 Z " fill="#000000"/><text fill="#000000" font-family="sans-serif" font-size="14" lengthAdjust="spacing" textLength="54" x="149.15" y="148.502">Adapter</text><line style="stroke:#181818;stroke-width:0.5;" x1="114" x2="211" y1="159.07" y2="159.07"/><ellipse cx="124" cy="174.104" fill="#84BE84" rx="3" ry="3" style="stroke:#038048;stroke-width:1.0;"/><text fill="#000000" font-family="sans-serif" font-size="14" lengthAdjust="spacing" textLength="73" x="133" y="178.0359">operation()</text></g><!--class Adaptee--><g id="elem_Adaptee"><rect codeLine="13" fill="#F1F1F1" height="59.0679" id="Adaptee" rx="2.5" ry="2.5" style="stroke:#181818;stroke-width:0.5;" width="153" x="290" y="127.07"/><ellipse cx="334.25" cy="143.07" fill="#ADD1B2" rx="11" ry="11" style="stroke:#181818;stroke-width:1.0;"/><path d="M333.7188,149.9919 Q331.9688,149.9919 330.8281,149.2575 Q329.7031,148.5075 329.1406,147.1638 Q328.5938,145.8044 328.5938,144.0075 Q328.5938,141.9763 329.25,140.5231 Q329.9063,139.07 331.1875,138.2888 Q332.4688,137.5075 334.3438,137.5075 Q335.2344,137.5075 335.9063,137.695 Q336.5781,137.8669 337.2656,138.2106 L336.4531,140.2263 Q335.8281,139.9138 335.2813,139.7888 Q334.75,139.6638 334.2656,139.6638 Q333.0938,139.6638 332.3906,140.195 Q331.6875,140.7263 331.3906,141.6794 Q331.0938,142.6325 331.0938,143.8981 Q331.0938,145.9138 331.8125,146.8825 Q332.5313,147.8356 334.125,147.8356 Q334.7188,147.8356 335.3438,147.6794 Q335.9688,147.5231 336.7969,147.1481 L336.7969,149.3669 Q336.0625,149.6794 335.2656,149.8356 Q334.4844,149.9919 333.7188,149.9919 Z " fill="#000000"/><text fill="#000000" font-family="sans-serif" font-size="14" lengthAdjust="spacing" textLength="56" x="354.75" y="148.502">Adaptee</text><line style="stroke:#181818;stroke-width:0.5;" x1="291" x2="442" y1="159.07" y2="159.07"/><ellipse cx="301" cy="174.104" fill="#84BE84" rx="3" ry="3" style="stroke:#038048;stroke-width:1.0;"/><text fill="#000000" font-family="sans-serif" font-size="14" lengthAdjust="spacing" textLength="127" x="310" y="178.0359">specificOperation()</text></g><!--reverse link Target to Adapter--><g id="link_Target_Adapter"><path d="M162.5,84.42 C162.5,102.72 162.5,108.29 162.5,126.61 " fill="none" id="Target-backto-Adapter" style="stroke:#181818;stroke-width:1.0;stroke-dasharray:7.0,7.0;"/><polygon fill="none" points="162.5,66.42,156.5,84.42,168.5,84.42,162.5,66.42" style="stroke:#181818;stroke-width:1.0;"/></g><!--link Client to Target--><g id="link_Client_Target"><path codeLine="17" d="M78.12,36.54 C89.66,36.54 95.2,36.54 106.73,36.54 " fill="none" id="Client-to-Target" style="stroke:#181818;stroke-width:1.0;"/><polygon fill="#181818" points="112.73,36.54,103.73,32.54,107.73,36.54,103.73,40.54,112.73,36.54" style="stroke:#181818;stroke-width:1.0;"/></g><!--link Adapter to Adaptee--><g id="link_Adapter_Adaptee"><path codeLine="18" d="M212.4,156.61 C235.64,156.61 257.81,156.61 283.67,156.61 " fill="none" id="Adapter-to-Adaptee" style="stroke:#181818;stroke-width:1.0;"/><polygon fill="#181818" points="289.67,156.61,280.67,152.61,284.67,156.61,280.67,160.61,289.67,156.61" style="stroke:#181818;stroke-width:1.0;"/><text fill="#000000" font-family="sans-serif" font-size="13" lengthAdjust="spacing" textLength="41" x="230.5" y="149.507">adapts</text></g><!--SRC=[ZOqn3W8n30Hxly8b2F412YJ40sZuWCdjWQKaPyLfqEd-Jj0H93fSsUlTsOSEO2IhJqv8DnGdqbnHHWdWgvGxAi_4RNQJeKZLAM-sj125AEvyZefSv-zz6iHQd3LPH6el_uUofj0zRWWwQhZyUjSktXy_IEfbJUc40yjxynS0]--></g></svg>