<?xml version="1.0" encoding="us-ascii" standalone="no"?><svg xmlns="http://www.w3.org/2000/svg" xmlns:xlink="http://www.w3.org/1999/xlink" contentStyleType="text/css" height="208px" preserveAspectRatio="none" style="width:505px;height:208px;background:#FFFFFF;" version="1.1" viewBox="0 0 505 208" width="505px" zoomAndPan="magnify"><defs/><g><!--class Expression--><g id="elem_Expression"><rect codeLine="1" fill="#F1F1F1" height="67.0679" id="Expression" rx="2.5" ry="2.5" style="stroke:#181818;stroke-width:0.5;" width="228" x="138" y="7"/><ellipse cx="214.25" cy="23" fill="#B4A7E5" rx="11" ry="11" style="stroke:#181818;stroke-width:1.0;"/><path d="M210.2813,29.5 L210.2813,27.7969 L212.6406,27.5313 L212.6406,19.3281 L210.2813,19.0625 L210.2813,17.3594 L217.4219,17.3594 L217.4219,19.0625 L215,19.3281 L215,27.5313 L217.4219,27.7969 L217.4219,29.5 L210.2813,29.5 Z " fill="#000000"/><text fill="#000000" font-family="sans-serif" font-size="14" font-style="italic" lengthAdjust="spacing" textLength="67" x="234.75" y="28.432">Expression</text><line style="stroke:#181818;stroke-width:0.5;" x1="139" x2="365" y1="39" y2="39"/><line style="stroke:#181818;stroke-width:0.5;" x1="139" x2="365" y1="47" y2="47"/><ellipse cx="149" cy="62.034" fill="#84BE84" rx="3" ry="3" style="stroke:#038048;stroke-width:1.0;"/><text fill="#000000" font-family="sans-serif" font-size="14" lengthAdjust="spacing" textLength="202" x="158" y="65.9659">interpret(context: Context): int</text></g><!--class TerminalExpression--><g id="elem_TerminalExpression"><rect codeLine="5" fill="#F1F1F1" height="67.0679" id="TerminalExpression" rx="2.5" ry="2.5" style="stroke:#181818;stroke-width:0.5;" width="228" x="7" y="134.07"/><ellipse cx="50.35" cy="150.07" fill="#ADD1B2" rx="11" ry="11" style="stroke:#181818;stroke-width:1.0;"/><path d="M49.8188,156.9919 Q48.0688,156.9919 46.9281,156.2575 Q45.8031,155.5075 45.2406,154.1638 Q44.6938,152.8044 44.6938,151.0075 Q44.6938,148.9763 45.35,147.5231 Q46.0063,146.07 47.2875,145.2888 Q48.5688,144.5075 50.4438,144.5075 Q51.3344,144.5075 52.0063,144.695 Q52.6781,144.8669 53.3656,145.2106 L52.5531,147.2263 Q51.9281,146.9138 51.3813,146.7888 Q50.85,146.6638 50.3656,146.6638 Q49.1938,146.6638 48.4906,147.195 Q47.7875,147.7263 47.4906,148.6794 Q47.1938,149.6325 47.1938,150.8981 Q47.1938,152.9138 47.9125,153.8825 Q48.6313,154.8356 50.225,154.8356 Q50.8188,154.8356 51.4438,154.6794 Q52.0688,154.5231 52.8969,154.1481 L52.8969,156.3669 Q52.1625,156.6794 51.3656,156.8356 Q50.5844,156.9919 49.8188,156.9919 Z " fill="#000000"/><text fill="#000000" font-family="sans-serif" font-size="14" lengthAdjust="spacing" textLength="133" x="70.65" y="155.502">TerminalExpression</text><line style="stroke:#181818;stroke-width:0.5;" x1="8" x2="234" y1="166.07" y2="166.07"/><line style="stroke:#181818;stroke-width:0.5;" x1="8" x2="234" y1="174.07" y2="174.07"/><ellipse cx="18" cy="189.104" fill="#84BE84" rx="3" ry="3" style="stroke:#038048;stroke-width:1.0;"/><text fill="#000000" font-family="sans-serif" font-size="14" lengthAdjust="spacing" textLength="202" x="27" y="193.0359">interpret(context: Context): int</text></g><!--class NonTerminalExpression--><g id="elem_NonTerminalExpression"><rect codeLine="9" fill="#F1F1F1" height="67.0679" id="NonTerminalExpression" rx="2.5" ry="2.5" style="stroke:#181818;stroke-width:0.5;" width="228" x="270" y="134.07"/><ellipse cx="300.75" cy="150.07" fill="#ADD1B2" rx="11" ry="11" style="stroke:#181818;stroke-width:1.0;"/><path d="M300.2188,156.9919 Q298.4688,156.9919 297.3281,156.2575 Q296.2031,155.5075 295.6406,154.1638 Q295.0938,152.8044 295.0938,151.0075 Q295.0938,148.9763 295.75,147.5231 Q296.4063,146.07 297.6875,145.2888 Q298.9688,144.5075 300.8438,144.5075 Q301.7344,144.5075 302.4063,144.695 Q303.0781,144.8669 303.7656,145.2106 L302.9531,147.2263 Q302.3281,146.9138 301.7813,146.7888 Q301.25,146.6638 300.7656,146.6638 Q299.5938,146.6638 298.8906,147.195 Q298.1875,147.7263 297.8906,148.6794 Q297.5938,149.6325 297.5938,150.8981 Q297.5938,152.9138 298.3125,153.8825 Q299.0313,154.8356 300.625,154.8356 Q301.2188,154.8356 301.8438,154.6794 Q302.4688,154.5231 303.2969,154.1481 L303.2969,156.3669 Q302.5625,156.6794 301.7656,156.8356 Q300.9844,156.9919 300.2188,156.9919 Z " fill="#000000"/><text fill="#000000" font-family="sans-serif" font-size="14" lengthAdjust="spacing" textLength="161" x="318.25" y="155.502">NonTerminalExpression</text><line style="stroke:#181818;stroke-width:0.5;" x1="271" x2="497" y1="166.07" y2="166.07"/><line style="stroke:#181818;stroke-width:0.5;" x1="271" x2="497" y1="174.07" y2="174.07"/><ellipse cx="281" cy="189.104" fill="#84BE84" rx="3" ry="3" style="stroke:#038048;stroke-width:1.0;"/><text fill="#000000" font-family="sans-serif" font-size="14" lengthAdjust="spacing" textLength="202" x="290" y="193.0359">interpret(context: Context): int</text></g><!--class Context--><g id="elem_Context"><rect codeLine="13" fill="#F1F1F1" height="48" id="Context" rx="2.5" ry="2.5" style="stroke:#181818;stroke-width:0.5;" width="83" x="401.5" y="16.54"/><ellipse cx="416.5" cy="32.54" fill="#ADD1B2" rx="11" ry="11" style="stroke:#181818;stroke-width:1.0;"/><path d="M415.9688,39.4619 Q414.2188,39.4619 413.0781,38.7275 Q411.9531,37.9775 411.3906,36.6337 Q410.8438,35.2744 410.8438,33.4775 Q410.8438,31.4462 411.5,29.9931 Q412.1563,28.54 413.4375,27.7587 Q414.7188,26.9775 416.5938,26.9775 Q417.4844,26.9775 418.1563,27.165 Q418.8281,27.3369 419.5156,27.6806 L418.7031,29.6962 Q418.0781,29.3837 417.5313,29.2587 Q417,29.1337 416.5156,29.1337 Q415.3438,29.1337 414.6406,29.665 Q413.9375,30.1962 413.6406,31.1494 Q413.3438,32.1025 413.3438,33.3681 Q413.3438,35.3837 414.0625,36.3525 Q414.7813,37.3056 416.375,37.3056 Q416.9688,37.3056 417.5938,37.1494 Q418.2188,36.9931 419.0469,36.6181 L419.0469,38.8369 Q418.3125,39.1494 417.5156,39.3056 Q416.7344,39.4619 415.9688,39.4619 Z " fill="#000000"/><text fill="#000000" font-family="sans-serif" font-size="14" lengthAdjust="spacing" textLength="51" x="430.5" y="37.972">Context</text><line style="stroke:#181818;stroke-width:0.5;" x1="402.5" x2="483.5" y1="48.54" y2="48.54"/><line style="stroke:#181818;stroke-width:0.5;" x1="402.5" x2="483.5" y1="56.54" y2="56.54"/></g><!--reverse link Expression to TerminalExpression--><g id="link_Expression_TerminalExpression"><path d="M192.2835,86.2071 C171.1335,104.5871 160.81,115.62 143.5,133.97 " fill="none" id="Expression-backto-TerminalExpression" style="stroke:#181818;stroke-width:1.0;stroke-dasharray:7.0,7.0;"/><polygon fill="none" points="205.87,74.4,188.3478,81.6782,196.2192,90.7359,205.87,74.4" style="stroke:#181818;stroke-width:1.0;"/></g><!--link TerminalExpression to Expression--><g id="link_TerminalExpression_Expression"><path codeLine="15" d="M166.88,133.97 C188,115.62 207.8101,97.1419 225.1701,78.7619 " fill="none" id="TerminalExpression-to-Expression" style="stroke:#181818;stroke-width:1.0;"/><polygon fill="#181818" points="229.29,74.4,220.2022,78.1963,225.8568,78.035,226.0181,83.6895,229.29,74.4" style="stroke:#181818;stroke-width:1.0;"/></g><!--reverse link Expression to NonTerminalExpression--><g id="link_Expression_NonTerminalExpression"><path d="M287.3845,87.4338 C304.8245,105.7438 316.4,115.44 337.61,133.75 " fill="none" id="Expression-backto-NonTerminalExpression" style="stroke:#181818;stroke-width:1.0;stroke-dasharray:7.0,7.0;"/><polygon fill="none" points="274.97,74.4,283.0399,91.572,291.7291,83.2956,274.97,74.4" style="stroke:#181818;stroke-width:1.0;"/></g><!--link NonTerminalExpression to Expression--><g id="link_NonTerminalExpression_Expression"><path codeLine="16" d="M361.24,133.97 C343.78,115.62 324.2326,96.6998 302.9326,78.3198 " fill="none" id="NonTerminalExpression-to-Expression" style="stroke:#181818;stroke-width:1.0;"/><polygon fill="#181818" points="298.39,74.4,302.5906,83.3081,302.1755,77.6665,307.8171,77.2514,298.39,74.4" style="stroke:#181818;stroke-width:1.0;"/></g><!--SRC=[oymhIIrAIqnELN2jA2XABIxEpCzJgEPI00BjJ90SKB148paVoAmeiL9mXZ0qhHI0aborN5p9EOd5nGeXgKMvcNc9EKXcPEOMvAJcfkQL55Daibz-7kqCXmehL0D5iDYYgsk7P3mNTgUWAW80]--></g></svg>