<?xml version="1.0" encoding="us-ascii" standalone="no"?><svg xmlns="http://www.w3.org/2000/svg" xmlns:xlink="http://www.w3.org/1999/xlink" contentStyleType="text/css" height="311px" preserveAspectRatio="none" style="width:537px;height:311px;background:#FFFFFF;" version="1.1" viewBox="0 0 537 311" width="537px" zoomAndPan="magnify"><defs/><g><!--class Client--><g id="elem_Client"><rect codeLine="2" fill="#F1F1F1" height="32" id="Client" rx="2.5" ry="2.5" style="stroke:#181818;stroke-width:0.5;" width="71" x="341.5" y="7"/><ellipse cx="356.5" cy="23" fill="#ADD1B2" rx="11" ry="11" style="stroke:#181818;stroke-width:1.0;"/><path d="M355.9688,29.9219 Q354.2188,29.9219 353.0781,29.1875 Q351.9531,28.4375 351.3906,27.0938 Q350.8438,25.7344 350.8438,23.9375 Q350.8438,21.9063 351.5,20.4531 Q352.1563,19 353.4375,18.2188 Q354.7188,17.4375 356.5938,17.4375 Q357.4844,17.4375 358.1563,17.625 Q358.8281,17.7969 359.5156,18.1406 L358.7031,20.1563 Q358.0781,19.8438 357.5313,19.7188 Q357,19.5938 356.5156,19.5938 Q355.3438,19.5938 354.6406,20.125 Q353.9375,20.6563 353.6406,21.6094 Q353.3438,22.5625 353.3438,23.8281 Q353.3438,25.8438 354.0625,26.8125 Q354.7813,27.7656 356.375,27.7656 Q356.9688,27.7656 357.5938,27.6094 Q358.2188,27.4531 359.0469,27.0781 L359.0469,29.2969 Q358.3125,29.6094 357.5156,29.7656 Q356.7344,29.9219 355.9688,29.9219 Z " fill="#000000"/><text fill="#000000" font-family="sans-serif" font-size="14" lengthAdjust="spacing" textLength="39" x="370.5" y="28.432">Client</text></g><!--class AbstractExpression--><g id="elem_AbstractExpression"><rect codeLine="4" fill="#F1F1F1" height="59.0679" id="AbstractExpression" rx="2.5" ry="2.5" style="stroke:#181818;stroke-width:0.5;" width="202" x="276" y="99"/><ellipse cx="313.95" cy="115" fill="#B4A7E5" rx="11" ry="11" style="stroke:#181818;stroke-width:1.0;"/><path d="M309.9813,121.5 L309.9813,119.7969 L312.3406,119.5313 L312.3406,111.3281 L309.9813,111.0625 L309.9813,109.3594 L317.1219,109.3594 L317.1219,111.0625 L314.7,111.3281 L314.7,119.5313 L317.1219,119.7969 L317.1219,121.5 L309.9813,121.5 Z " fill="#000000"/><text fill="#000000" font-family="sans-serif" font-size="14" font-style="italic" lengthAdjust="spacing" textLength="119" x="333.05" y="120.432">AbstractExpression</text><line style="stroke:#181818;stroke-width:0.5;" x1="277" x2="477" y1="131" y2="131"/><ellipse cx="287" cy="146.034" fill="#84BE84" rx="3" ry="3" style="stroke:#038048;stroke-width:1.0;"/><text fill="#000000" font-family="sans-serif" font-size="14" lengthAdjust="spacing" textLength="176" x="296" y="149.9659">interpret(context: Context)</text></g><!--class TerminalExpression--><g id="elem_TerminalExpression"><rect codeLine="8" fill="#F1F1F1" height="59.0679" id="TerminalExpression" rx="2.5" ry="2.5" style="stroke:#181818;stroke-width:0.5;" width="202" x="7" y="231.6"/><ellipse cx="38.65" cy="247.6" fill="#ADD1B2" rx="11" ry="11" style="stroke:#181818;stroke-width:1.0;"/><path d="M38.1188,254.5219 Q36.3688,254.5219 35.2281,253.7875 Q34.1031,253.0375 33.5406,251.6938 Q32.9938,250.3344 32.9938,248.5375 Q32.9938,246.5063 33.65,245.0531 Q34.3063,243.6 35.5875,242.8188 Q36.8688,242.0375 38.7438,242.0375 Q39.6344,242.0375 40.3063,242.225 Q40.9781,242.3969 41.6656,242.7406 L40.8531,244.7563 Q40.2281,244.4438 39.6813,244.3188 Q39.15,244.1938 38.6656,244.1938 Q37.4938,244.1938 36.7906,244.725 Q36.0875,245.2563 35.7906,246.2094 Q35.4938,247.1625 35.4938,248.4281 Q35.4938,250.4438 36.2125,251.4125 Q36.9313,252.3656 38.525,252.3656 Q39.1188,252.3656 39.7438,252.2094 Q40.3688,252.0531 41.1969,251.6781 L41.1969,253.8969 Q40.4625,254.2094 39.6656,254.3656 Q38.8844,254.5219 38.1188,254.5219 Z " fill="#000000"/><text fill="#000000" font-family="sans-serif" font-size="14" lengthAdjust="spacing" textLength="133" x="56.35" y="253.032">TerminalExpression</text><line style="stroke:#181818;stroke-width:0.5;" x1="8" x2="208" y1="263.6" y2="263.6"/><ellipse cx="18" cy="278.634" fill="#84BE84" rx="3" ry="3" style="stroke:#038048;stroke-width:1.0;"/><text fill="#000000" font-family="sans-serif" font-size="14" lengthAdjust="spacing" textLength="176" x="27" y="282.5659">interpret(context: Context)</text></g><!--class NonTerminalExpression--><g id="elem_NonTerminalExpression"><rect codeLine="12" fill="#F1F1F1" height="86.1358" id="NonTerminalExpression" rx="2.5" ry="2.5" style="stroke:#181818;stroke-width:0.5;" width="265" x="244.5" y="218.06"/><ellipse cx="292.25" cy="234.06" fill="#ADD1B2" rx="11" ry="11" style="stroke:#181818;stroke-width:1.0;"/><path d="M291.7188,240.9819 Q289.9688,240.9819 288.8281,240.2475 Q287.7031,239.4975 287.1406,238.1538 Q286.5938,236.7944 286.5938,234.9975 Q286.5938,232.9663 287.25,231.5131 Q287.9063,230.06 289.1875,229.2788 Q290.4688,228.4975 292.3438,228.4975 Q293.2344,228.4975 293.9063,228.685 Q294.5781,228.8569 295.2656,229.2006 L294.4531,231.2163 Q293.8281,230.9038 293.2813,230.7788 Q292.75,230.6538 292.2656,230.6538 Q291.0938,230.6538 290.3906,231.185 Q289.6875,231.7163 289.3906,232.6694 Q289.0938,233.6225 289.0938,234.8881 Q289.0938,236.9038 289.8125,237.8725 Q290.5313,238.8256 292.125,238.8256 Q292.7188,238.8256 293.3438,238.6694 Q293.9688,238.5131 294.7969,238.1381 L294.7969,240.3569 Q294.0625,240.6694 293.2656,240.8256 Q292.4844,240.9819 291.7188,240.9819 Z " fill="#000000"/><text fill="#000000" font-family="sans-serif" font-size="14" lengthAdjust="spacing" textLength="161" x="312.75" y="239.492">NonTerminalExpression</text><line style="stroke:#181818;stroke-width:0.5;" x1="245.5" x2="508.5" y1="250.06" y2="250.06"/><rect fill="none" height="6" style="stroke:#C82930;stroke-width:1.0;" width="6" x="252.5" y="262.094"/><text fill="#000000" font-family="sans-serif" font-size="14" lengthAdjust="spacing" textLength="239" x="264.5" y="269.0259">nextExpression: AbstractExpression</text><line style="stroke:#181818;stroke-width:0.5;" x1="245.5" x2="508.5" y1="277.1279" y2="277.1279"/><ellipse cx="255.5" cy="292.1619" fill="#84BE84" rx="3" ry="3" style="stroke:#038048;stroke-width:1.0;"/><text fill="#000000" font-family="sans-serif" font-size="14" lengthAdjust="spacing" textLength="176" x="264.5" y="296.0939">interpret(context: Context)</text></g><!--class Context--><g id="elem_Context"><rect codeLine="17" fill="#F1F1F1" height="32" id="Context" rx="2.5" ry="2.5" style="stroke:#181818;stroke-width:0.5;" width="83" x="447.5" y="7"/><ellipse cx="462.5" cy="23" fill="#ADD1B2" rx="11" ry="11" style="stroke:#181818;stroke-width:1.0;"/><path d="M461.9688,29.9219 Q460.2188,29.9219 459.0781,29.1875 Q457.9531,28.4375 457.3906,27.0938 Q456.8438,25.7344 456.8438,23.9375 Q456.8438,21.9063 457.5,20.4531 Q458.1563,19 459.4375,18.2188 Q460.7188,17.4375 462.5938,17.4375 Q463.4844,17.4375 464.1563,17.625 Q464.8281,17.7969 465.5156,18.1406 L464.7031,20.1563 Q464.0781,19.8438 463.5313,19.7188 Q463,19.5938 462.5156,19.5938 Q461.3438,19.5938 460.6406,20.125 Q459.9375,20.6563 459.6406,21.6094 Q459.3438,22.5625 459.3438,23.8281 Q459.3438,25.8438 460.0625,26.8125 Q460.7813,27.7656 462.375,27.7656 Q462.9688,27.7656 463.5938,27.6094 Q464.2188,27.4531 465.0469,27.0781 L465.0469,29.2969 Q464.3125,29.6094 463.5156,29.7656 Q462.7344,29.9219 461.9688,29.9219 Z " fill="#000000"/><text fill="#000000" font-family="sans-serif" font-size="14" lengthAdjust="spacing" textLength="51" x="476.5" y="28.432">Context</text></g><!--reverse link AbstractExpression to TerminalExpression--><g id="link_AbstractExpression_TerminalExpression"><path d="M301.1084,166.3733 C256.5284,188.0233 212.07,209.6 167.53,231.23 " fill="none" id="AbstractExpression-backto-TerminalExpression" style="stroke:#181818;stroke-width:1.0;stroke-dasharray:7.0,7.0;"/><polygon fill="none" points="317.3,158.51,298.4873,160.9761,303.7295,171.7705,317.3,158.51" style="stroke:#181818;stroke-width:1.0;"/></g><!--reverse link AbstractExpression to NonTerminalExpression--><g id="link_AbstractExpression_NonTerminalExpression"><path d="M363.6676,176.3735 C361.5176,193.7335 363.31,198.25 364.61,217.59 " fill="none" id="AbstractExpression-backto-NonTerminalExpression" style="stroke:#181818;stroke-width:1.0;stroke-dasharray:7.0,7.0;"/><polygon fill="none" points="365.88,158.51,357.7131,175.6361,369.6221,177.111,365.88,158.51" style="stroke:#181818;stroke-width:1.0;"/></g><!--link NonTerminalExpression to AbstractExpression--><g id="link_NonTerminalExpression_AbstractExpression"><path codeLine="21" d="M390.1948,205.617 C391.4948,186.277 391.0075,181.8245 388.8575,164.4645 " fill="none" id="NonTerminalExpression-AbstractExpression" style="stroke:#181818;stroke-width:1.0;"/><polygon fill="none" points="389.39,217.59,393.7834,211.8718,390.1948,205.617,385.8014,211.3352,389.39,217.59" style="stroke:#181818;stroke-width:1.0;"/><polygon fill="#181818" points="388.12,158.51,385.2565,167.9334,388.7345,163.4721,393.1959,166.9501,388.12,158.51" style="stroke:#181818;stroke-width:1.0;"/></g><!--link Client to Context--><g id="link_Client_Context"><path codeLine="19" d="M412.88,23 C424.27,23 429.67,23 441.07,23 " fill="none" id="Client-to-Context" style="stroke:#181818;stroke-width:1.0;"/><polygon fill="#181818" points="447.07,23,438.07,19,442.07,23,438.07,27,447.07,23" style="stroke:#181818;stroke-width:1.0;"/></g><!--link Client to AbstractExpression--><g id="link_Client_AbstractExpression"><path codeLine="20" d="M377,39.27 C377,54.91 377,73.59 377,92.87 " fill="none" id="Client-to-AbstractExpression" style="stroke:#181818;stroke-width:1.0;"/><polygon fill="#181818" points="377,98.87,381,89.87,377,93.87,373,89.87,377,98.87" style="stroke:#181818;stroke-width:1.0;"/></g><!--SRC=[fP0z3i8m34RtdC8Z2FK27P1GnSh41T9WHAJ4YM8FHHLtnn3-XYo09-lfytFYapyWOCnoXeXnnCB61SiCG_18Cb-CyIHOZjOXR4QMOfrifroGsIU2sO3MwfvHA0kNj9saXw4sIwEAgjnZYPvi-1ZtCGUCkeZ_bUyI_UZlI4rlsZUINxpZGU1skNf3wDPF-YAA6blQVqZjz1K0]--></g></svg>