<?xml version="1.0" encoding="us-ascii" standalone="no"?><svg xmlns="http://www.w3.org/2000/svg" xmlns:xlink="http://www.w3.org/1999/xlink" contentStyleType="text/css" height="246px" preserveAspectRatio="none" style="width:466px;height:246px;background:#FFFFFF;" version="1.1" viewBox="0 0 466 246" width="466px" zoomAndPan="magnify"><defs/><g><!--class Component--><g id="elem_Component"><rect codeLine="1" fill="#F1F1F1" height="67.0679" id="Component" rx="2.5" ry="2.5" style="stroke:#181818;stroke-width:0.5;" width="135" x="129" y="7"/><ellipse cx="157.95" cy="23" fill="#B4A7E5" rx="11" ry="11" style="stroke:#181818;stroke-width:1.0;"/><path d="M153.9813,29.5 L153.9813,27.7969 L156.3406,27.5313 L156.3406,19.3281 L153.9813,19.0625 L153.9813,17.3594 L161.1219,17.3594 L161.1219,19.0625 L158.7,19.3281 L158.7,27.5313 L161.1219,27.7969 L161.1219,29.5 L153.9813,29.5 Z " fill="#000000"/><text fill="#000000" font-family="sans-serif" font-size="14" font-style="italic" lengthAdjust="spacing" textLength="72" x="175.05" y="28.432">Component</text><line style="stroke:#181818;stroke-width:0.5;" x1="130" x2="263" y1="39" y2="39"/><line style="stroke:#181818;stroke-width:0.5;" x1="130" x2="263" y1="47" y2="47"/><ellipse cx="140" cy="62.034" fill="#84BE84" rx="3" ry="3" style="stroke:#038048;stroke-width:1.0;"/><text fill="#000000" font-family="sans-serif" font-size="14" lengthAdjust="spacing" textLength="109" x="149" y="65.9659">operation(): void</text></g><!--class Leaf--><g id="elem_Leaf"><rect codeLine="5" fill="#F1F1F1" height="67.0679" id="Leaf" rx="2.5" ry="2.5" style="stroke:#181818;stroke-width:0.5;" width="135" x="7" y="153.13"/><ellipse cx="56.25" cy="169.13" fill="#ADD1B2" rx="11" ry="11" style="stroke:#181818;stroke-width:1.0;"/><path d="M55.7188,176.0519 Q53.9688,176.0519 52.8281,175.3175 Q51.7031,174.5675 51.1406,173.2238 Q50.5938,171.8644 50.5938,170.0675 Q50.5938,168.0363 51.25,166.5831 Q51.9063,165.13 53.1875,164.3488 Q54.4688,163.5675 56.3438,163.5675 Q57.2344,163.5675 57.9063,163.755 Q58.5781,163.9269 59.2656,164.2706 L58.4531,166.2863 Q57.8281,165.9738 57.2813,165.8488 Q56.75,165.7238 56.2656,165.7238 Q55.0938,165.7238 54.3906,166.255 Q53.6875,166.7863 53.3906,167.7394 Q53.0938,168.6925 53.0938,169.9581 Q53.0938,171.9738 53.8125,172.9425 Q54.5313,173.8956 56.125,173.8956 Q56.7188,173.8956 57.3438,173.7394 Q57.9688,173.5831 58.7969,173.2081 L58.7969,175.4269 Q58.0625,175.7394 57.2656,175.8956 Q56.4844,176.0519 55.7188,176.0519 Z " fill="#000000"/><text fill="#000000" font-family="sans-serif" font-size="14" lengthAdjust="spacing" textLength="28" x="76.75" y="174.562">Leaf</text><line style="stroke:#181818;stroke-width:0.5;" x1="8" x2="141" y1="185.13" y2="185.13"/><line style="stroke:#181818;stroke-width:0.5;" x1="8" x2="141" y1="193.13" y2="193.13"/><ellipse cx="18" cy="208.164" fill="#84BE84" rx="3" ry="3" style="stroke:#038048;stroke-width:1.0;"/><text fill="#000000" font-family="sans-serif" font-size="14" lengthAdjust="spacing" textLength="109" x="27" y="212.0959">operation(): void</text></g><!--class Composite--><g id="elem_Composite"><rect codeLine="9" fill="#F1F1F1" height="105.2038" id="Composite" rx="2.5" ry="2.5" style="stroke:#181818;stroke-width:0.5;" width="282" x="177.5" y="134.07"/><ellipse cx="278.75" cy="150.07" fill="#ADD1B2" rx="11" ry="11" style="stroke:#181818;stroke-width:1.0;"/><path d="M278.2188,156.9919 Q276.4688,156.9919 275.3281,156.2575 Q274.2031,155.5075 273.6406,154.1638 Q273.0938,152.8044 273.0938,151.0075 Q273.0938,148.9763 273.75,147.5231 Q274.4063,146.07 275.6875,145.2888 Q276.9688,144.5075 278.8438,144.5075 Q279.7344,144.5075 280.4063,144.695 Q281.0781,144.8669 281.7656,145.2106 L280.9531,147.2263 Q280.3281,146.9138 279.7813,146.7888 Q279.25,146.6638 278.7656,146.6638 Q277.5938,146.6638 276.8906,147.195 Q276.1875,147.7263 275.8906,148.6794 Q275.5938,149.6325 275.5938,150.8981 Q275.5938,152.9138 276.3125,153.8825 Q277.0313,154.8356 278.625,154.8356 Q279.2188,154.8356 279.8438,154.6794 Q280.4688,154.5231 281.2969,154.1481 L281.2969,156.3669 Q280.5625,156.6794 279.7656,156.8356 Q278.9844,156.9919 278.2188,156.9919 Z " fill="#000000"/><text fill="#000000" font-family="sans-serif" font-size="14" lengthAdjust="spacing" textLength="71" x="299.25" y="155.502">Composite</text><line style="stroke:#181818;stroke-width:0.5;" x1="178.5" x2="458.5" y1="166.07" y2="166.07"/><line style="stroke:#181818;stroke-width:0.5;" x1="178.5" x2="458.5" y1="174.07" y2="174.07"/><ellipse cx="188.5" cy="189.104" fill="#84BE84" rx="3" ry="3" style="stroke:#038048;stroke-width:1.0;"/><text fill="#000000" font-family="sans-serif" font-size="14" lengthAdjust="spacing" textLength="232" x="197.5" y="193.0359">add(component: Component): void</text><ellipse cx="188.5" cy="208.1719" fill="#84BE84" rx="3" ry="3" style="stroke:#038048;stroke-width:1.0;"/><text fill="#000000" font-family="sans-serif" font-size="14" lengthAdjust="spacing" textLength="256" x="197.5" y="212.1039">remove(component: Component): void</text><ellipse cx="188.5" cy="227.2398" fill="#84BE84" rx="3" ry="3" style="stroke:#038048;stroke-width:1.0;"/><text fill="#000000" font-family="sans-serif" font-size="14" lengthAdjust="spacing" textLength="109" x="197.5" y="231.1718">operation(): void</text></g><!--reverse link Component to Leaf--><g id="link_Component_Leaf"><path d="M145.1779,87.257 C122.6479,110.847 108.25,129.53 90.89,153.09 " fill="none" id="Component-backto-Leaf" style="stroke:#181818;stroke-width:1.0;stroke-dasharray:7.0,7.0;"/><polygon fill="none" points="157.61,74.24,140.8389,83.113,149.5169,91.4011,157.61,74.24" style="stroke:#181818;stroke-width:1.0;"/></g><!--link Leaf to Component--><g id="link_Leaf_Component"><path codeLine="16" d="M113.26,153.09 C135.78,129.53 159.0584,102.6586 176.4584,79.0686 " fill="none" id="Leaf-to-Component" style="stroke:#181818;stroke-width:1.0;"/><polygon fill="#181818" points="180.02,74.24,171.4586,79.1085,177.052,78.2638,177.8967,83.8573,180.02,74.24" style="stroke:#181818;stroke-width:1.0;"/></g><!--reverse link Component to Composite--><g id="link_Component_Composite"><path d="M223.6686,88.7229 C236.5986,106.2429 244.04,113.77 261.75,133.59 " fill="none" id="Component-backto-Composite" style="stroke:#181818;stroke-width:1.0;stroke-dasharray:7.0,7.0;"/><polygon fill="none" points="212.98,74.24,218.8409,92.2858,228.4962,85.16,212.98,74.24" style="stroke:#181818;stroke-width:1.0;"/></g><!--link Composite to Component--><g id="link_Composite_Component"><path codeLine="15" d="M287.08,133.59 C271.24,113.77 256.275,96.0981 239.535,78.5781 " fill="none" id="Composite-to-Component" style="stroke:#181818;stroke-width:1.0;"/><polygon fill="#181818" points="235.39,74.24,238.7154,83.5105,238.8441,77.8551,244.4995,77.9838,235.39,74.24" style="stroke:#181818;stroke-width:1.0;"/></g><!--SRC=[oymhIIrAIqnELN3Epot8pqlDAr6evb800ktyWjIYn9BC_3mDJIk5ilpC5AvQBgxadCJYOWMVrCGqXSpSWfpKNA26OfBqWjKMPvQauZKWCIL58nacQ8MGXna7LbIKcfjVbafO7LRN8DoXgsk7qCW5zXkA4000]--></g></svg>