<?xml version="1.0" encoding="us-ascii" standalone="no"?><svg xmlns="http://www.w3.org/2000/svg" xmlns:xlink="http://www.w3.org/1999/xlink" contentStyleType="text/css" height="325px" preserveAspectRatio="none" style="width:430px;height:325px;background:#FFFFFF;" version="1.1" viewBox="0 0 430 325" width="430px" zoomAndPan="magnify"><defs/><g><!--class Component--><g id="elem_Component"><rect codeLine="2" fill="#F1F1F1" height="116.2717" id="Component" rx="2.5" ry="2.5" style="stroke:#181818;stroke-width:0.5;" width="282" x="83.5" y="7"/><ellipse cx="184.25" cy="23" fill="#B4A7E5" rx="11" ry="11" style="stroke:#181818;stroke-width:1.0;"/><path d="M180.2813,29.5 L180.2813,27.7969 L182.6406,27.5313 L182.6406,19.3281 L180.2813,19.0625 L180.2813,17.3594 L187.4219,17.3594 L187.4219,19.0625 L185,19.3281 L185,27.5313 L187.4219,27.7969 L187.4219,29.5 L180.2813,29.5 Z " fill="#000000"/><text fill="#000000" font-family="sans-serif" font-size="14" font-style="italic" lengthAdjust="spacing" textLength="72" x="204.75" y="28.432">Component</text><line style="stroke:#181818;stroke-width:0.5;" x1="84.5" x2="364.5" y1="39" y2="39"/><ellipse cx="94.5" cy="54.034" fill="#84BE84" rx="3" ry="3" style="stroke:#038048;stroke-width:1.0;"/><text fill="#000000" font-family="sans-serif" font-size="14" lengthAdjust="spacing" textLength="232" x="103.5" y="57.9659">add(component: Component): void</text><ellipse cx="94.5" cy="73.1019" fill="#84BE84" rx="3" ry="3" style="stroke:#038048;stroke-width:1.0;"/><text fill="#000000" font-family="sans-serif" font-size="14" lengthAdjust="spacing" textLength="256" x="103.5" y="77.0339">remove(component: Component): void</text><ellipse cx="94.5" cy="92.1698" fill="#84BE84" rx="3" ry="3" style="stroke:#038048;stroke-width:1.0;"/><text fill="#000000" font-family="sans-serif" font-size="14" lengthAdjust="spacing" textLength="73" x="103.5" y="96.1018">operation()</text><ellipse cx="94.5" cy="111.2377" fill="#84BE84" rx="3" ry="3" style="stroke:#038048;stroke-width:1.0;"/><text fill="#000000" font-family="sans-serif" font-size="14" lengthAdjust="spacing" textLength="169" x="103.5" y="115.1697">getChild(int): Component</text></g><!--class Leaf--><g id="elem_Leaf"><rect codeLine="9" fill="#F1F1F1" height="59.0679" id="Leaf" rx="2.5" ry="2.5" style="stroke:#181818;stroke-width:0.5;" width="99" x="7" y="230.87"/><ellipse cx="39.55" cy="246.87" fill="#ADD1B2" rx="11" ry="11" style="stroke:#181818;stroke-width:1.0;"/><path d="M39.0188,253.7919 Q37.2688,253.7919 36.1281,253.0575 Q35.0031,252.3075 34.4406,250.9638 Q33.8938,249.6044 33.8938,247.8075 Q33.8938,245.7763 34.55,244.3231 Q35.2063,242.87 36.4875,242.0888 Q37.7688,241.3075 39.6438,241.3075 Q40.5344,241.3075 41.2063,241.495 Q41.8781,241.6669 42.5656,242.0106 L41.7531,244.0263 Q41.1281,243.7138 40.5813,243.5888 Q40.05,243.4638 39.5656,243.4638 Q38.3938,243.4638 37.6906,243.995 Q36.9875,244.5263 36.6906,245.4794 Q36.3938,246.4325 36.3938,247.6981 Q36.3938,249.7138 37.1125,250.6825 Q37.8313,251.6356 39.425,251.6356 Q40.0188,251.6356 40.6438,251.4794 Q41.2688,251.3231 42.0969,250.9481 L42.0969,253.1669 Q41.3625,253.4794 40.5656,253.6356 Q39.7844,253.7919 39.0188,253.7919 Z " fill="#000000"/><text fill="#000000" font-family="sans-serif" font-size="14" lengthAdjust="spacing" textLength="28" x="57.45" y="252.302">Leaf</text><line style="stroke:#181818;stroke-width:0.5;" x1="8" x2="105" y1="262.87" y2="262.87"/><ellipse cx="18" cy="277.904" fill="#84BE84" rx="3" ry="3" style="stroke:#038048;stroke-width:1.0;"/><text fill="#000000" font-family="sans-serif" font-size="14" lengthAdjust="spacing" textLength="73" x="27" y="281.8359">operation()</text></g><!--class Composite--><g id="elem_Composite"><rect codeLine="13" fill="#F1F1F1" height="116.2717" id="Composite" rx="2.5" ry="2.5" style="stroke:#181818;stroke-width:0.5;" width="282" x="141.5" y="202.27"/><ellipse cx="242.75" cy="218.27" fill="#ADD1B2" rx="11" ry="11" style="stroke:#181818;stroke-width:1.0;"/><path d="M242.2188,225.1919 Q240.4688,225.1919 239.3281,224.4575 Q238.2031,223.7075 237.6406,222.3638 Q237.0938,221.0044 237.0938,219.2075 Q237.0938,217.1763 237.75,215.7231 Q238.4063,214.27 239.6875,213.4888 Q240.9688,212.7075 242.8438,212.7075 Q243.7344,212.7075 244.4063,212.895 Q245.0781,213.0669 245.7656,213.4106 L244.9531,215.4263 Q244.3281,215.1138 243.7813,214.9888 Q243.25,214.8638 242.7656,214.8638 Q241.5938,214.8638 240.8906,215.395 Q240.1875,215.9263 239.8906,216.8794 Q239.5938,217.8325 239.5938,219.0981 Q239.5938,221.1138 240.3125,222.0825 Q241.0313,223.0356 242.625,223.0356 Q243.2188,223.0356 243.8438,222.8794 Q244.4688,222.7231 245.2969,222.3481 L245.2969,224.5669 Q244.5625,224.8794 243.7656,225.0356 Q242.9844,225.1919 242.2188,225.1919 Z " fill="#000000"/><text fill="#000000" font-family="sans-serif" font-size="14" lengthAdjust="spacing" textLength="71" x="263.25" y="223.702">Composite</text><line style="stroke:#181818;stroke-width:0.5;" x1="142.5" x2="422.5" y1="234.27" y2="234.27"/><ellipse cx="152.5" cy="249.304" fill="#84BE84" rx="3" ry="3" style="stroke:#038048;stroke-width:1.0;"/><text fill="#000000" font-family="sans-serif" font-size="14" lengthAdjust="spacing" textLength="232" x="161.5" y="253.2359">add(component: Component): void</text><ellipse cx="152.5" cy="268.3719" fill="#84BE84" rx="3" ry="3" style="stroke:#038048;stroke-width:1.0;"/><text fill="#000000" font-family="sans-serif" font-size="14" lengthAdjust="spacing" textLength="256" x="161.5" y="272.3039">remove(component: Component): void</text><ellipse cx="152.5" cy="287.4398" fill="#84BE84" rx="3" ry="3" style="stroke:#038048;stroke-width:1.0;"/><text fill="#000000" font-family="sans-serif" font-size="14" lengthAdjust="spacing" textLength="73" x="161.5" y="291.3718">operation()</text><ellipse cx="152.5" cy="306.5077" fill="#84BE84" rx="3" ry="3" style="stroke:#038048;stroke-width:1.0;"/><text fill="#000000" font-family="sans-serif" font-size="14" lengthAdjust="spacing" textLength="169" x="161.5" y="310.4397">getChild(int): Component</text></g><!--reverse link Component to Leaf--><g id="link_Component_Leaf"><path d="M162.7418,137.1856 C132.1818,172.3456 106.18,202.25 81.72,230.39 " fill="none" id="Component-backto-Leaf" style="stroke:#181818;stroke-width:1.0;stroke-dasharray:7.0,7.0;"/><polygon fill="none" points="174.55,123.6,158.2133,133.2495,167.2704,141.1216,174.55,123.6" style="stroke:#181818;stroke-width:1.0;"/></g><!--reverse link Component to Composite--><g id="link_Component_Composite"><path d="M238.0151,141.2671 C241.3051,157.1771 241.72,156.71 246.5,172.27 C249.48,181.97 253.13,192.08 256.95,201.84 " fill="none" id="Component-backto-Composite" style="stroke:#181818;stroke-width:1.0;stroke-dasharray:7.0,7.0;"/><polygon fill="none" points="234.37,123.64,232.1394,142.4821,243.8908,140.052,234.37,123.64" style="stroke:#181818;stroke-width:1.0;"/></g><!--reverse link Composite to Component--><g id="link_Composite_Component"><path codeLine="20" d="M261.7701,190.3366 C254.3501,165.6166 249.16,148.3 241.74,123.6 " fill="none" id="Composite-backto-Component" style="stroke:#181818;stroke-width:1.0;"/><polygon fill="none" points="265.22,201.83,267.3262,194.9333,261.7701,190.3366,259.6639,197.2333,265.22,201.83" style="stroke:#181818;stroke-width:1.0;"/><text fill="#000000" font-family="sans-serif" font-size="13" lengthAdjust="spacing" textLength="48" x="256.24" y="168.167">children</text></g><!--SRC=[nOz12eCm44NtESKibU85tBhj9TBaMmUSJ4Y2K4hlNgjKXKAxx2p_l3Vy6TY38B7SI20Nf6mu5AJUEb2d4ZKW5BeRckTalQ_SEsptVTtIfEnNA45qmczE8v8jhA6gr-2AqWqy-eeNShFCmnWtsfpf3DiJInmXSvu_2nvlRjP2PIxuglxljxsVDisXM4lkfII49m00]--></g></svg>