<?xml version="1.0" encoding="us-ascii" standalone="no"?><svg xmlns="http://www.w3.org/2000/svg" xmlns:xlink="http://www.w3.org/1999/xlink" contentStyleType="text/css" height="265px" preserveAspectRatio="none" style="width:553px;height:265px;background:#FFFFFF;" version="1.1" viewBox="0 0 553 265" width="553px" zoomAndPan="magnify"><defs/><g><!--class Client--><g id="elem_Client"><rect codeLine="2" fill="#F1F1F1" height="32" id="Client" rx="2.5" ry="2.5" style="stroke:#181818;stroke-width:0.5;" width="71" x="7" y="43.6"/><ellipse cx="22" cy="59.6" fill="#ADD1B2" rx="11" ry="11" style="stroke:#181818;stroke-width:1.0;"/><path d="M21.4688,66.5219 Q19.7188,66.5219 18.5781,65.7875 Q17.4531,65.0375 16.8906,63.6937 Q16.3438,62.3344 16.3438,60.5375 Q16.3438,58.5062 17,57.0531 Q17.6563,55.6 18.9375,54.8187 Q20.2188,54.0375 22.0938,54.0375 Q22.9844,54.0375 23.6563,54.225 Q24.3281,54.3969 25.0156,54.7406 L24.2031,56.7562 Q23.5781,56.4437 23.0313,56.3187 Q22.5,56.1937 22.0156,56.1937 Q20.8438,56.1937 20.1406,56.725 Q19.4375,57.2562 19.1406,58.2094 Q18.8438,59.1625 18.8438,60.4281 Q18.8438,62.4437 19.5625,63.4125 Q20.2813,64.3656 21.875,64.3656 Q22.4688,64.3656 23.0938,64.2094 Q23.7188,64.0531 24.5469,63.6781 L24.5469,65.8969 Q23.8125,66.2094 23.0156,66.3656 Q22.2344,66.5219 21.4688,66.5219 Z " fill="#000000"/><text fill="#000000" font-family="sans-serif" font-size="14" lengthAdjust="spacing" textLength="39" x="36" y="65.032">Client</text></g><!--class Command--><g id="elem_Command"><rect codeLine="3" fill="#F1F1F1" height="59.0679" id="Command" rx="2.5" ry="2.5" style="stroke:#181818;stroke-width:0.5;" width="96" x="450.5" y="30.07"/><ellipse cx="465.5" cy="46.07" fill="#B4A7E5" rx="11" ry="11" style="stroke:#181818;stroke-width:1.0;"/><path d="M461.5313,52.57 L461.5313,50.8669 L463.8906,50.6012 L463.8906,42.3981 L461.5313,42.1325 L461.5313,40.4294 L468.6719,40.4294 L468.6719,42.1325 L466.25,42.3981 L466.25,50.6012 L468.6719,50.8669 L468.6719,52.57 L461.5313,52.57 Z " fill="#000000"/><text fill="#000000" font-family="sans-serif" font-size="14" font-style="italic" lengthAdjust="spacing" textLength="64" x="479.5" y="51.502">Command</text><line style="stroke:#181818;stroke-width:0.5;" x1="451.5" x2="545.5" y1="62.07" y2="62.07"/><ellipse cx="461.5" cy="77.104" fill="#84BE84" rx="3" ry="3" style="stroke:#038048;stroke-width:1.0;"/><text fill="#000000" font-family="sans-serif" font-size="14" lengthAdjust="spacing" textLength="60" x="470.5" y="81.0359">execute()</text></g><!--class ConcreteCommand--><g id="elem_ConcreteCommand"><rect codeLine="7" fill="#F1F1F1" height="86.1358" id="ConcreteCommand" rx="2.5" ry="2.5" style="stroke:#181818;stroke-width:0.5;" width="161" x="346" y="172.2"/><ellipse cx="361" cy="188.2" fill="#ADD1B2" rx="11" ry="11" style="stroke:#181818;stroke-width:1.0;"/><path d="M360.4688,195.1219 Q358.7188,195.1219 357.5781,194.3875 Q356.4531,193.6375 355.8906,192.2938 Q355.3438,190.9344 355.3438,189.1375 Q355.3438,187.1063 356,185.6531 Q356.6563,184.2 357.9375,183.4188 Q359.2188,182.6375 361.0938,182.6375 Q361.9844,182.6375 362.6563,182.825 Q363.3281,182.9969 364.0156,183.3406 L363.2031,185.3563 Q362.5781,185.0438 362.0313,184.9188 Q361.5,184.7938 361.0156,184.7938 Q359.8438,184.7938 359.1406,185.325 Q358.4375,185.8563 358.1406,186.8094 Q357.8438,187.7625 357.8438,189.0281 Q357.8438,191.0438 358.5625,192.0125 Q359.2813,192.9656 360.875,192.9656 Q361.4688,192.9656 362.0938,192.8094 Q362.7188,192.6531 363.5469,192.2781 L363.5469,194.4969 Q362.8125,194.8094 362.0156,194.9656 Q361.2344,195.1219 360.4688,195.1219 Z " fill="#000000"/><text fill="#000000" font-family="sans-serif" font-size="14" lengthAdjust="spacing" textLength="129" x="375" y="193.632">ConcreteCommand</text><line style="stroke:#181818;stroke-width:0.5;" x1="347" x2="506" y1="204.2" y2="204.2"/><rect fill="none" height="6" style="stroke:#C82930;stroke-width:1.0;" width="6" x="354" y="216.234"/><text fill="#000000" font-family="sans-serif" font-size="14" lengthAdjust="spacing" textLength="119" x="366" y="223.1659">receiver: Receiver</text><line style="stroke:#181818;stroke-width:0.5;" x1="347" x2="506" y1="231.2679" y2="231.2679"/><ellipse cx="357" cy="246.3019" fill="#84BE84" rx="3" ry="3" style="stroke:#038048;stroke-width:1.0;"/><text fill="#000000" font-family="sans-serif" font-size="14" lengthAdjust="spacing" textLength="60" x="366" y="250.2339">execute()</text></g><!--class Invoker--><g id="elem_Invoker"><rect codeLine="12" fill="#F1F1F1" height="105.2038" id="Invoker" rx="2.5" ry="2.5" style="stroke:#181818;stroke-width:0.5;" width="303" x="113" y="7"/><ellipse cx="235.25" cy="23" fill="#ADD1B2" rx="11" ry="11" style="stroke:#181818;stroke-width:1.0;"/><path d="M234.7188,29.9219 Q232.9688,29.9219 231.8281,29.1875 Q230.7031,28.4375 230.1406,27.0938 Q229.5938,25.7344 229.5938,23.9375 Q229.5938,21.9063 230.25,20.4531 Q230.9063,19 232.1875,18.2188 Q233.4688,17.4375 235.3438,17.4375 Q236.2344,17.4375 236.9063,17.625 Q237.5781,17.7969 238.2656,18.1406 L237.4531,20.1563 Q236.8281,19.8438 236.2813,19.7188 Q235.75,19.5938 235.2656,19.5938 Q234.0938,19.5938 233.3906,20.125 Q232.6875,20.6563 232.3906,21.6094 Q232.0938,22.5625 232.0938,23.8281 Q232.0938,25.8438 232.8125,26.8125 Q233.5313,27.7656 235.125,27.7656 Q235.7188,27.7656 236.3438,27.6094 Q236.9688,27.4531 237.7969,27.0781 L237.7969,29.2969 Q237.0625,29.6094 236.2656,29.7656 Q235.4844,29.9219 234.7188,29.9219 Z " fill="#000000"/><text fill="#000000" font-family="sans-serif" font-size="14" lengthAdjust="spacing" textLength="50" x="255.75" y="28.432">Invoker</text><line style="stroke:#181818;stroke-width:0.5;" x1="114" x2="415" y1="39" y2="39"/><rect fill="none" height="6" style="stroke:#C82930;stroke-width:1.0;" width="6" x="121" y="51.034"/><text fill="#000000" font-family="sans-serif" font-size="14" lengthAdjust="spacing" textLength="144" x="133" y="57.9659">command: Command</text><line style="stroke:#181818;stroke-width:0.5;" x1="114" x2="415" y1="66.0679" y2="66.0679"/><ellipse cx="124" cy="81.1019" fill="#84BE84" rx="3" ry="3" style="stroke:#038048;stroke-width:1.0;"/><text fill="#000000" font-family="sans-serif" font-size="14" lengthAdjust="spacing" textLength="277" x="133" y="85.0339">setCommand(command: Command): void</text><ellipse cx="124" cy="100.1698" fill="#84BE84" rx="3" ry="3" style="stroke:#038048;stroke-width:1.0;"/><text fill="#000000" font-family="sans-serif" font-size="14" lengthAdjust="spacing" textLength="51" x="133" y="104.1018">invoke()</text></g><!--class Receiver--><g id="elem_Receiver"><rect codeLine="18" fill="#F1F1F1" height="59.0679" id="Receiver" rx="2.5" ry="2.5" style="stroke:#181818;stroke-width:0.5;" width="111" x="129" y="185.74"/><ellipse cx="153.9" cy="201.74" fill="#ADD1B2" rx="11" ry="11" style="stroke:#181818;stroke-width:1.0;"/><path d="M153.3688,208.6619 Q151.6188,208.6619 150.4781,207.9275 Q149.3531,207.1775 148.7906,205.8338 Q148.2438,204.4744 148.2438,202.6775 Q148.2438,200.6463 148.9,199.1931 Q149.5563,197.74 150.8375,196.9588 Q152.1188,196.1775 153.9938,196.1775 Q154.8844,196.1775 155.5563,196.365 Q156.2281,196.5369 156.9156,196.8806 L156.1031,198.8963 Q155.4781,198.5838 154.9313,198.4588 Q154.4,198.3338 153.9156,198.3338 Q152.7438,198.3338 152.0406,198.865 Q151.3375,199.3963 151.0406,200.3494 Q150.7438,201.3025 150.7438,202.5681 Q150.7438,204.5838 151.4625,205.5525 Q152.1813,206.5056 153.775,206.5056 Q154.3688,206.5056 154.9938,206.3494 Q155.6188,206.1931 156.4469,205.8181 L156.4469,208.0369 Q155.7125,208.3494 154.9156,208.5056 Q154.1344,208.6619 153.3688,208.6619 Z " fill="#000000"/><text fill="#000000" font-family="sans-serif" font-size="14" lengthAdjust="spacing" textLength="57" x="170.1" y="207.172">Receiver</text><line style="stroke:#181818;stroke-width:0.5;" x1="130" x2="239" y1="217.74" y2="217.74"/><ellipse cx="140" cy="232.774" fill="#84BE84" rx="3" ry="3" style="stroke:#038048;stroke-width:1.0;"/><text fill="#000000" font-family="sans-serif" font-size="14" lengthAdjust="spacing" textLength="85" x="149" y="236.7059">action(): void</text></g><!--reverse link Command to ConcreteCommand--><g id="link_Command_ConcreteCommand"><path d="M477.32,105.8082 C466.44,129.0182 458.65,145.65 446.37,171.85 " fill="none" id="Command-backto-ConcreteCommand" style="stroke:#181818;stroke-width:1.0;stroke-dasharray:7.0,7.0;"/><polygon fill="none" points="484.96,89.51,471.8873,103.2615,482.7527,108.3548,484.96,89.51" style="stroke:#181818;stroke-width:1.0;"/></g><!--reverse link Receiver to ConcreteCommand--><g id="link_Receiver_ConcreteCommand"><path codeLine="22" d="M246.27,215.27 C281.43,215.27 310.59,215.27 345.75,215.27 " fill="none" id="Receiver-backto-ConcreteCommand" style="stroke:#181818;stroke-width:1.0;"/><polygon fill="#181818" points="240.27,215.27,249.27,219.27,245.27,215.27,249.27,211.27,240.27,215.27" style="stroke:#181818;stroke-width:1.0;"/></g><!--link Invoker to Command--><g id="link_Invoker_Command"><path codeLine="23" d="M428.23,59.6 C439.59,59.6 432.94,59.6 444.3,59.6 " fill="none" id="Invoker-Command" style="stroke:#181818;stroke-width:1.0;"/><polygon fill="none" points="416.23,59.6,422.23,63.6,428.23,59.6,422.23,55.6,416.23,59.6" style="stroke:#181818;stroke-width:1.0;"/><polygon fill="#181818" points="450.3,59.6,441.3,55.6,445.3,59.6,441.3,63.6,450.3,59.6" style="stroke:#181818;stroke-width:1.0;"/></g><!--link Client to Receiver--><g id="link_Client_Receiver"><path codeLine="24" d="M56.63,75.9 C80.21,101.41 123.8376,148.6237 153.8476,181.0937 " fill="none" id="Client-to-Receiver" style="stroke:#181818;stroke-width:1.0;"/><polygon fill="#181818" points="157.92,185.5,154.7489,176.1756,154.5263,181.8281,148.8738,181.6056,157.92,185.5" style="stroke:#181818;stroke-width:1.0;"/></g><!--SRC=[TP112i8m44NtESKiMoGNAEAcAxVU8APV76oIaiIYbDxTO3j52cQL3F-zcScTEn3SaD_auAw8ITdUf4Hjp_1vcXNxZ7Wp5jG6vuplQ59KpW4ls6T6LQjP2HIyZSYG9BkXXokUj8DrX0MFY0rTrjjVwTcFuO4ef5r4ZHWNBY6lxseVg1iQ0wyv_if-zT9VrZ8sS_2LK2Mt9Ovwlw6IuO8-RGCjNqUwb0Jz0000]--></g></svg>