<?xml version="1.0" encoding="us-ascii" standalone="no"?><svg xmlns="http://www.w3.org/2000/svg" xmlns:xlink="http://www.w3.org/1999/xlink" contentStyleType="text/css" height="481px" preserveAspectRatio="none" style="width:317px;height:481px;background:#FFFFFF;" version="1.1" viewBox="0 0 317 481" width="317px" zoomAndPan="magnify"><defs/><g><!--class Command--><g id="elem_Command"><rect codeLine="1" fill="#F1F1F1" height="67.0679" id="Command" rx="2.5" ry="2.5" style="stroke:#181818;stroke-width:0.5;" width="122" x="97.5" y="153.14"/><ellipse cx="124.2" cy="169.14" fill="#B4A7E5" rx="11" ry="11" style="stroke:#181818;stroke-width:1.0;"/><path d="M120.2313,175.64 L120.2313,173.9369 L122.5906,173.6713 L122.5906,165.4681 L120.2313,165.2025 L120.2313,163.4994 L127.3719,163.4994 L127.3719,165.2025 L124.95,165.4681 L124.95,173.6713 L127.3719,173.9369 L127.3719,175.64 L120.2313,175.64 Z " fill="#000000"/><text fill="#000000" font-family="sans-serif" font-size="14" font-style="italic" lengthAdjust="spacing" textLength="64" x="140.8" y="174.572">Command</text><line style="stroke:#181818;stroke-width:0.5;" x1="98.5" x2="218.5" y1="185.14" y2="185.14"/><line style="stroke:#181818;stroke-width:0.5;" x1="98.5" x2="218.5" y1="193.14" y2="193.14"/><ellipse cx="108.5" cy="208.174" fill="#84BE84" rx="3" ry="3" style="stroke:#038048;stroke-width:1.0;"/><text fill="#000000" font-family="sans-serif" font-size="14" lengthAdjust="spacing" textLength="96" x="117.5" y="212.1059">execute(): void</text></g><!--class ConcreteCommand--><g id="elem_ConcreteCommand"><rect codeLine="5" fill="#F1F1F1" height="67.0679" id="ConcreteCommand" rx="2.5" ry="2.5" style="stroke:#181818;stroke-width:0.5;" width="161" x="78" y="280.2"/><ellipse cx="93" cy="296.2" fill="#ADD1B2" rx="11" ry="11" style="stroke:#181818;stroke-width:1.0;"/><path d="M92.4688,303.1219 Q90.7188,303.1219 89.5781,302.3875 Q88.4531,301.6375 87.8906,300.2938 Q87.3438,298.9344 87.3438,297.1375 Q87.3438,295.1063 88,293.6531 Q88.6563,292.2 89.9375,291.4188 Q91.2188,290.6375 93.0938,290.6375 Q93.9844,290.6375 94.6563,290.825 Q95.3281,290.9969 96.0156,291.3406 L95.2031,293.3563 Q94.5781,293.0438 94.0313,292.9188 Q93.5,292.7938 93.0156,292.7938 Q91.8438,292.7938 91.1406,293.325 Q90.4375,293.8563 90.1406,294.8094 Q89.8438,295.7625 89.8438,297.0281 Q89.8438,299.0438 90.5625,300.0125 Q91.2813,300.9656 92.875,300.9656 Q93.4688,300.9656 94.0938,300.8094 Q94.7188,300.6531 95.5469,300.2781 L95.5469,302.4969 Q94.8125,302.8094 94.0156,302.9656 Q93.2344,303.1219 92.4688,303.1219 Z " fill="#000000"/><text fill="#000000" font-family="sans-serif" font-size="14" lengthAdjust="spacing" textLength="129" x="107" y="301.632">ConcreteCommand</text><line style="stroke:#181818;stroke-width:0.5;" x1="79" x2="238" y1="312.2" y2="312.2"/><line style="stroke:#181818;stroke-width:0.5;" x1="79" x2="238" y1="320.2" y2="320.2"/><ellipse cx="89" cy="335.234" fill="#84BE84" rx="3" ry="3" style="stroke:#038048;stroke-width:1.0;"/><text fill="#000000" font-family="sans-serif" font-size="14" lengthAdjust="spacing" textLength="96" x="98" y="339.1659">execute(): void</text></g><!--class Invoker--><g id="elem_Invoker"><rect codeLine="9" fill="#F1F1F1" height="86.1358" id="Invoker" rx="2.5" ry="2.5" style="stroke:#181818;stroke-width:0.5;" width="303" x="7" y="7"/><ellipse cx="129.25" cy="23" fill="#ADD1B2" rx="11" ry="11" style="stroke:#181818;stroke-width:1.0;"/><path d="M128.7188,29.9219 Q126.9688,29.9219 125.8281,29.1875 Q124.7031,28.4375 124.1406,27.0938 Q123.5938,25.7344 123.5938,23.9375 Q123.5938,21.9063 124.25,20.4531 Q124.9063,19 126.1875,18.2188 Q127.4688,17.4375 129.3438,17.4375 Q130.2344,17.4375 130.9063,17.625 Q131.5781,17.7969 132.2656,18.1406 L131.4531,20.1563 Q130.8281,19.8438 130.2813,19.7188 Q129.75,19.5938 129.2656,19.5938 Q128.0938,19.5938 127.3906,20.125 Q126.6875,20.6563 126.3906,21.6094 Q126.0938,22.5625 126.0938,23.8281 Q126.0938,25.8438 126.8125,26.8125 Q127.5313,27.7656 129.125,27.7656 Q129.7188,27.7656 130.3438,27.6094 Q130.9688,27.4531 131.7969,27.0781 L131.7969,29.2969 Q131.0625,29.6094 130.2656,29.7656 Q129.4844,29.9219 128.7188,29.9219 Z " fill="#000000"/><text fill="#000000" font-family="sans-serif" font-size="14" lengthAdjust="spacing" textLength="50" x="149.75" y="28.432">Invoker</text><line style="stroke:#181818;stroke-width:0.5;" x1="8" x2="309" y1="39" y2="39"/><line style="stroke:#181818;stroke-width:0.5;" x1="8" x2="309" y1="47" y2="47"/><ellipse cx="18" cy="62.034" fill="#84BE84" rx="3" ry="3" style="stroke:#038048;stroke-width:1.0;"/><text fill="#000000" font-family="sans-serif" font-size="14" lengthAdjust="spacing" textLength="277" x="27" y="65.9659">setCommand(command: Command): void</text><ellipse cx="18" cy="81.1019" fill="#84BE84" rx="3" ry="3" style="stroke:#038048;stroke-width:1.0;"/><text fill="#000000" font-family="sans-serif" font-size="14" lengthAdjust="spacing" textLength="87" x="27" y="85.0339">invoke(): void</text></g><!--class Receiver--><g id="elem_Receiver"><rect codeLine="14" fill="#F1F1F1" height="67.0679" id="Receiver" rx="2.5" ry="2.5" style="stroke:#181818;stroke-width:0.5;" width="111" x="103" y="407.27"/><ellipse cx="127.9" cy="423.27" fill="#ADD1B2" rx="11" ry="11" style="stroke:#181818;stroke-width:1.0;"/><path d="M127.3688,430.1919 Q125.6188,430.1919 124.4781,429.4575 Q123.3531,428.7075 122.7906,427.3638 Q122.2438,426.0044 122.2438,424.2075 Q122.2438,422.1763 122.9,420.7231 Q123.5563,419.27 124.8375,418.4888 Q126.1188,417.7075 127.9938,417.7075 Q128.8844,417.7075 129.5563,417.895 Q130.2281,418.0669 130.9156,418.4106 L130.1031,420.4263 Q129.4781,420.1138 128.9313,419.9888 Q128.4,419.8638 127.9156,419.8638 Q126.7438,419.8638 126.0406,420.395 Q125.3375,420.9263 125.0406,421.8794 Q124.7438,422.8325 124.7438,424.0981 Q124.7438,426.1138 125.4625,427.0825 Q126.1813,428.0356 127.775,428.0356 Q128.3688,428.0356 128.9938,427.8794 Q129.6188,427.7231 130.4469,427.3481 L130.4469,429.5669 Q129.7125,429.8794 128.9156,430.0356 Q128.1344,430.1919 127.3688,430.1919 Z " fill="#000000"/><text fill="#000000" font-family="sans-serif" font-size="14" lengthAdjust="spacing" textLength="57" x="144.1" y="428.702">Receiver</text><line style="stroke:#181818;stroke-width:0.5;" x1="104" x2="213" y1="439.27" y2="439.27"/><line style="stroke:#181818;stroke-width:0.5;" x1="104" x2="213" y1="447.27" y2="447.27"/><ellipse cx="114" cy="462.304" fill="#84BE84" rx="3" ry="3" style="stroke:#038048;stroke-width:1.0;"/><text fill="#000000" font-family="sans-serif" font-size="14" lengthAdjust="spacing" textLength="85" x="123" y="466.2359">action(): void</text></g><!--reverse link Command to ConcreteCommand--><g id="link_Command_ConcreteCommand"><path d="M158.5,238.53 C158.5,256.91 158.5,261.75 158.5,280.1 " fill="none" id="Command-backto-ConcreteCommand" style="stroke:#181818;stroke-width:1.0;stroke-dasharray:7.0,7.0;"/><polygon fill="none" points="158.5,220.53,152.5,238.53,164.5,238.53,158.5,220.53" style="stroke:#181818;stroke-width:1.0;"/></g><!--link ConcreteCommand to Receiver--><g id="link_ConcreteCommand_Receiver"><path codeLine="18" d="M158.5,347.6 C158.5,365.98 158.5,382.82 158.5,401.17 " fill="none" id="ConcreteCommand-to-Receiver" style="stroke:#181818;stroke-width:1.0;"/><polygon fill="#181818" points="158.5,407.17,162.5,398.17,158.5,402.17,154.5,398.17,158.5,407.17" style="stroke:#181818;stroke-width:1.0;"/></g><!--link Invoker to Command--><g id="link_Invoker_Command"><path codeLine="19" d="M158.5,93.29 C158.5,112.56 158.5,129.04 158.5,147 " fill="none" id="Invoker-to-Command" style="stroke:#181818;stroke-width:1.0;"/><polygon fill="#181818" points="158.5,153,162.5,144,158.5,148,154.5,144,158.5,153" style="stroke:#181818;stroke-width:1.0;"/></g><!--SRC=[ZOun3i8m34Ltdo9Z4Ue5Eh1qOkK6aVkHB1e79IP2GjoTKfg2OC6B9Ukz9uiQqj4pN1z3y3gu6xbfjhY2BuPcqxaIPQ0x4Oy-vubJJZ1KNi9vH81Q_Zknrn9FI9NBiCLi-BMxcghgpCci_UOEO4XvzpoRHFtaldzkszrgKVtcULo01m00]--></g></svg>