<?xml version="1.0" encoding="us-ascii" standalone="no"?><svg xmlns="http://www.w3.org/2000/svg" xmlns:xlink="http://www.w3.org/1999/xlink" contentStyleType="text/css" height="126px" preserveAspectRatio="none" style="width:343px;height:126px;background:#FFFFFF;" version="1.1" viewBox="0 0 343 126" width="343px" zoomAndPan="magnify"><defs/><g><!--class LazyInitializedObject--><g id="elem_LazyInitializedObject"><rect codeLine="2" fill="#F1F1F1" height="105.2038" id="LazyInitializedObject" rx="2.5" ry="2.5" style="stroke:#181818;stroke-width:0.5;" width="322" x="7" y="7"/><ellipse cx="93.75" cy="23" fill="#ADD1B2" rx="11" ry="11" style="stroke:#181818;stroke-width:1.0;"/><path d="M93.2188,29.9219 Q91.4688,29.9219 90.3281,29.1875 Q89.2031,28.4375 88.6406,27.0938 Q88.0938,25.7344 88.0938,23.9375 Q88.0938,21.9063 88.75,20.4531 Q89.4063,19 90.6875,18.2188 Q91.9688,17.4375 93.8438,17.4375 Q94.7344,17.4375 95.4063,17.625 Q96.0781,17.7969 96.7656,18.1406 L95.9531,20.1563 Q95.3281,19.8438 94.7813,19.7188 Q94.25,19.5938 93.7656,19.5938 Q92.5938,19.5938 91.8906,20.125 Q91.1875,20.6563 90.8906,21.6094 Q90.5938,22.5625 90.5938,23.8281 Q90.5938,25.8438 91.3125,26.8125 Q92.0313,27.7656 93.625,27.7656 Q94.2188,27.7656 94.8438,27.6094 Q95.4688,27.4531 96.2969,27.0781 L96.2969,29.2969 Q95.5625,29.6094 94.7656,29.7656 Q93.9844,29.9219 93.2188,29.9219 Z " fill="#000000"/><text fill="#000000" font-family="sans-serif" font-size="14" lengthAdjust="spacing" textLength="140" x="114.25" y="28.432">LazyInitializedObject</text><line style="stroke:#181818;stroke-width:0.5;" x1="8" x2="328" y1="39" y2="39"/><rect fill="none" height="6" style="stroke:#C82930;stroke-width:1.0;" width="6" x="15" y="51.034"/><text fill="#000000" font-family="sans-serif" font-size="14" lengthAdjust="spacing" textLength="205" x="27" y="57.9659">instance: LazyInitializedObject</text><line style="stroke:#181818;stroke-width:0.5;" x1="8" x2="328" y1="66.0679" y2="66.0679"/><ellipse cx="18" cy="81.1019" fill="#84BE84" rx="3" ry="3" style="stroke:#038048;stroke-width:1.0;"/><text fill="#000000" font-family="sans-serif" font-size="14" lengthAdjust="spacing" textLength="236" x="27" y="85.0339">getInstance(): LazyInitializedObject</text><rect fill="#F24D5C" height="6" style="stroke:#C82930;stroke-width:1.0;" width="6" x="15" y="97.1698"/><text fill="#000000" font-family="sans-serif" font-size="14" lengthAdjust="spacing" textLength="296" x="27" y="104.1018">LazyInitializedObject(): LazyInitializedObject</text></g><!--SRC=[Iyv9B2vMy4ciglJCoop9JCp9h4fDyK_AIaqkKQZcKb3GJayjySmhBadCIqxLqBJ2hXAeJXUh15uTcL1ZSIcfvG80]--></g></svg>