<?xml version="1.0" encoding="us-ascii" standalone="no"?><svg xmlns="http://www.w3.org/2000/svg" xmlns:xlink="http://www.w3.org/1999/xlink" contentStyleType="text/css" height="193px" preserveAspectRatio="none" style="width:756px;height:193px;background:#FFFFFF;" version="1.1" viewBox="0 0 756 193" width="756px" zoomAndPan="magnify"><defs/><g><!--class Creator--><g id="elem_Creator"><rect codeLine="3" fill="#F1F1F1" height="59.0679" id="Creator" rx="2.5" ry="2.5" style="stroke:#181818;stroke-width:0.5;" width="188" x="273.5" y="7"/><ellipse cx="339.25" cy="23" fill="#A9DCDF" rx="11" ry="11" style="stroke:#181818;stroke-width:1.0;"/><path d="M334.4219,28.75 L337.7656,16.5625 L340.9063,16.5625 L344.2813,28.75 L341.8125,28.75 L341.0781,25.7344 L337.5625,25.7344 L336.8125,28.75 L334.4219,28.75 Z M338.8281,20.7031 L338.0781,23.7031 L340.5938,23.7031 L339.875,20.7031 Q339.7344,20.125 339.6094,19.5781 Q339.4844,19.0156 339.3438,18.4375 Q339.2344,19.0156 339.0938,19.5781 Q338.9531,20.125 338.8281,20.7031 Z " fill="#000000"/><text fill="#000000" font-family="sans-serif" font-size="14" font-style="italic" lengthAdjust="spacing" textLength="48" x="359.75" y="28.432">Creator</text><line style="stroke:#181818;stroke-width:0.5;" x1="274.5" x2="460.5" y1="39" y2="39"/><ellipse cx="284.5" cy="54.034" fill="#84BE84" rx="3" ry="3" style="stroke:#038048;stroke-width:1.0;"/><text fill="#000000" font-family="sans-serif" font-size="14" lengthAdjust="spacing" textLength="162" x="293.5" y="57.9659">createProduct(): Product</text></g><!--class Product--><g id="elem_Product"><rect codeLine="7" fill="#F1F1F1" height="59.0679" id="Product" rx="2.5" ry="2.5" style="stroke:#181818;stroke-width:0.5;" width="81" x="637" y="7"/><ellipse cx="652" cy="23" fill="#A9DCDF" rx="11" ry="11" style="stroke:#181818;stroke-width:1.0;"/><path d="M647.1719,28.75 L650.5156,16.5625 L653.6563,16.5625 L657.0313,28.75 L654.5625,28.75 L653.8281,25.7344 L650.3125,25.7344 L649.5625,28.75 L647.1719,28.75 Z M651.5781,20.7031 L650.8281,23.7031 L653.3438,23.7031 L652.625,20.7031 Q652.4844,20.125 652.3594,19.5781 Q652.2344,19.0156 652.0938,18.4375 Q651.9844,19.0156 651.8438,19.5781 Q651.7031,20.125 651.5781,20.7031 Z " fill="#000000"/><text fill="#000000" font-family="sans-serif" font-size="14" font-style="italic" lengthAdjust="spacing" textLength="49" x="666" y="28.432">Product</text><line style="stroke:#181818;stroke-width:0.5;" x1="638" x2="717" y1="39" y2="39"/><ellipse cx="648" cy="54.034" fill="#84BE84" rx="3" ry="3" style="stroke:#038048;stroke-width:1.0;"/><text fill="#000000" font-family="sans-serif" font-size="14" lengthAdjust="spacing" textLength="32" x="657" y="57.9659">use()</text></g><!--class ConcreteCreator--><g id="elem_ConcreteCreator"><rect codeLine="11" fill="#F1F1F1" height="59.0679" id="ConcreteCreator" rx="2.5" ry="2.5" style="stroke:#181818;stroke-width:0.5;" width="248" x="243.5" y="127.07"/><ellipse cx="308.25" cy="143.07" fill="#ADD1B2" rx="11" ry="11" style="stroke:#181818;stroke-width:1.0;"/><path d="M307.7188,149.9919 Q305.9688,149.9919 304.8281,149.2575 Q303.7031,148.5075 303.1406,147.1638 Q302.5938,145.8044 302.5938,144.0075 Q302.5938,141.9763 303.25,140.5231 Q303.9063,139.07 305.1875,138.2888 Q306.4688,137.5075 308.3438,137.5075 Q309.2344,137.5075 309.9063,137.695 Q310.5781,137.8669 311.2656,138.2106 L310.4531,140.2263 Q309.8281,139.9138 309.2813,139.7888 Q308.75,139.6638 308.2656,139.6638 Q307.0938,139.6638 306.3906,140.195 Q305.6875,140.7263 305.3906,141.6794 Q305.0938,142.6325 305.0938,143.8981 Q305.0938,145.9138 305.8125,146.8825 Q306.5313,147.8356 308.125,147.8356 Q308.7188,147.8356 309.3438,147.6794 Q309.9688,147.5231 310.7969,147.1481 L310.7969,149.3669 Q310.0625,149.6794 309.2656,149.8356 Q308.4844,149.9919 307.7188,149.9919 Z " fill="#000000"/><text fill="#000000" font-family="sans-serif" font-size="14" lengthAdjust="spacing" textLength="110" x="328.75" y="148.502">ConcreteCreator</text><line style="stroke:#181818;stroke-width:0.5;" x1="244.5" x2="490.5" y1="159.07" y2="159.07"/><ellipse cx="254.5" cy="174.104" fill="#84BE84" rx="3" ry="3" style="stroke:#038048;stroke-width:1.0;"/><text fill="#000000" font-family="sans-serif" font-size="14" lengthAdjust="spacing" textLength="222" x="263.5" y="178.0359">createProduct(): ConcreteProduct</text></g><path d="M6,137.75 L6,165.456 A0,0 0 0 0 6,165.456 L209,165.456 A0,0 0 0 0 209,165.456 L209,155.75 L247.5,172.604 L209,147.75 L209,147.75 L199,137.75 L6,137.75 A0,0 0 0 0 6,137.75 " fill="#FEFFDD" style="stroke:#181818;stroke-width:0.5;"/><path d="M199,137.75 L199,147.75 L209,147.75 L199,137.75 " fill="#FEFFDD" style="stroke:#181818;stroke-width:0.5;"/><text fill="#000000" font-family="sans-serif" font-size="13" lengthAdjust="spacing" textLength="182" x="12" y="156.647">return new ConcreteProduct();</text><!--class ConcreteProduct--><g id="elem_ConcreteProduct"><rect codeLine="19" fill="#F1F1F1" height="59.0679" id="ConcreteProduct" rx="2.5" ry="2.5" style="stroke:#181818;stroke-width:0.5;" width="144" x="605.5" y="127.07"/><ellipse cx="620.5" cy="143.07" fill="#ADD1B2" rx="11" ry="11" style="stroke:#181818;stroke-width:1.0;"/><path d="M619.9688,149.9919 Q618.2188,149.9919 617.0781,149.2575 Q615.9531,148.5075 615.3906,147.1638 Q614.8438,145.8044 614.8438,144.0075 Q614.8438,141.9763 615.5,140.5231 Q616.1563,139.07 617.4375,138.2888 Q618.7188,137.5075 620.5938,137.5075 Q621.4844,137.5075 622.1563,137.695 Q622.8281,137.8669 623.5156,138.2106 L622.7031,140.2263 Q622.0781,139.9138 621.5313,139.7888 Q621,139.6638 620.5156,139.6638 Q619.3438,139.6638 618.6406,140.195 Q617.9375,140.7263 617.6406,141.6794 Q617.3438,142.6325 617.3438,143.8981 Q617.3438,145.9138 618.0625,146.8825 Q618.7813,147.8356 620.375,147.8356 Q620.9688,147.8356 621.5938,147.6794 Q622.2188,147.5231 623.0469,147.1481 L623.0469,149.3669 Q622.3125,149.6794 621.5156,149.8356 Q620.7344,149.9919 619.9688,149.9919 Z " fill="#000000"/><text fill="#000000" font-family="sans-serif" font-size="14" lengthAdjust="spacing" textLength="112" x="634.5" y="148.502">ConcreteProduct</text><line style="stroke:#181818;stroke-width:0.5;" x1="606.5" x2="748.5" y1="159.07" y2="159.07"/><ellipse cx="616.5" cy="174.104" fill="#84BE84" rx="3" ry="3" style="stroke:#038048;stroke-width:1.0;"/><text fill="#000000" font-family="sans-serif" font-size="14" lengthAdjust="spacing" textLength="32" x="625.5" y="178.0359">use()</text></g><!--reverse link Creator to ConcreteCreator--><g id="link_Creator_ConcreteCreator"><path d="M367.5,84.42 C367.5,102.72 367.5,108.29 367.5,126.61 " fill="none" id="Creator-backto-ConcreteCreator" style="stroke:#181818;stroke-width:1.0;stroke-dasharray:7.0,7.0;"/><polygon fill="none" points="367.5,66.42,361.5,84.42,373.5,84.42,367.5,66.42" style="stroke:#181818;stroke-width:1.0;"/></g><!--reverse link Product to ConcreteProduct--><g id="link_Product_ConcreteProduct"><path d="M677.5,84.42 C677.5,102.72 677.5,108.29 677.5,126.61 " fill="none" id="Product-backto-ConcreteProduct" style="stroke:#181818;stroke-width:1.0;stroke-dasharray:7.0,7.0;"/><polygon fill="none" points="677.5,66.42,671.5,84.42,683.5,84.42,677.5,66.42" style="stroke:#181818;stroke-width:1.0;"/></g><!--link ConcreteCreator to ConcreteProduct--><g id="link_ConcreteCreator_ConcreteProduct"><path codeLine="23" d="M491.8,156.61 C530.38,156.61 565.59,156.61 599.37,156.61 " fill="none" id="ConcreteCreator-to-ConcreteProduct" style="stroke:#181818;stroke-width:1.0;stroke-dasharray:7.0,7.0;"/><polygon fill="#181818" points="605.37,156.61,596.37,152.61,600.37,156.61,596.37,160.61,605.37,156.61" style="stroke:#181818;stroke-width:1.0;"/><text fill="#000000" font-family="sans-serif" font-size="13" lengthAdjust="spacing" textLength="78" x="509.5" y="149.507">&#171;instantiate&#187;</text></g><!--SRC=[XOz12i8m44NtESKiMmGF44itNi0hnFON0ysa95D4nBkRIWCrHPpL33F_pVytsuFW9dcGWxiYHANCDKemdL0tcXZf76341tegIdNebX6NuFkvawhMjBRgjLEkcwoS8wfwELkvdXDBaFdMJICSMFw_pDBDQ_O26Z48-Q54Q_r5-43JUWvCZ7j9g-gJ0lUq44klET76ww-GPRnZkwDeQXhBKGoBJVRQLhq1]--></g></svg>