<?xml version="1.0" encoding="us-ascii" standalone="no"?><svg xmlns="http://www.w3.org/2000/svg" xmlns:xlink="http://www.w3.org/1999/xlink" contentStyleType="text/css" height="335px" preserveAspectRatio="none" style="width:356px;height:335px;background:#FFFFFF;" version="1.1" viewBox="0 0 356 335" width="356px" zoomAndPan="magnify"><defs/><g><!--class Creator--><g id="elem_Creator"><rect codeLine="1" fill="#F1F1F1" height="67.0679" id="Creator" rx="2.5" ry="2.5" style="stroke:#181818;stroke-width:0.5;" width="188" x="161" y="7"/><ellipse cx="226.75" cy="23" fill="#A9DCDF" rx="11" ry="11" style="stroke:#181818;stroke-width:1.0;"/><path d="M221.9219,28.75 L225.2656,16.5625 L228.4063,16.5625 L231.7813,28.75 L229.3125,28.75 L228.5781,25.7344 L225.0625,25.7344 L224.3125,28.75 L221.9219,28.75 Z M226.3281,20.7031 L225.5781,23.7031 L228.0938,23.7031 L227.375,20.7031 Q227.2344,20.125 227.1094,19.5781 Q226.9844,19.0156 226.8438,18.4375 Q226.7344,19.0156 226.5938,19.5781 Q226.4531,20.125 226.3281,20.7031 Z " fill="#000000"/><text fill="#000000" font-family="sans-serif" font-size="14" font-style="italic" lengthAdjust="spacing" textLength="48" x="247.25" y="28.432">Creator</text><line style="stroke:#181818;stroke-width:0.5;" x1="162" x2="348" y1="39" y2="39"/><line style="stroke:#181818;stroke-width:0.5;" x1="162" x2="348" y1="47" y2="47"/><ellipse cx="172" cy="62.034" fill="#84BE84" rx="3" ry="3" style="stroke:#038048;stroke-width:1.0;"/><text fill="#000000" font-family="sans-serif" font-size="14" lengthAdjust="spacing" textLength="162" x="181" y="65.9659">createProduct(): Product</text></g><!--class Product--><g id="elem_Product"><rect codeLine="5" fill="#F1F1F1" height="67.0679" id="Product" rx="2.5" ry="2.5" style="stroke:#181818;stroke-width:0.5;" width="94" x="32" y="134.06"/><ellipse cx="52.85" cy="150.06" fill="#A9DCDF" rx="11" ry="11" style="stroke:#181818;stroke-width:1.0;"/><path d="M48.0219,155.81 L51.3656,143.6225 L54.5063,143.6225 L57.8813,155.81 L55.4125,155.81 L54.6781,152.7944 L51.1625,152.7944 L50.4125,155.81 L48.0219,155.81 Z M52.4281,147.7631 L51.6781,150.7631 L54.1938,150.7631 L53.475,147.7631 Q53.3344,147.185 53.2094,146.6381 Q53.0844,146.0756 52.9438,145.4975 Q52.8344,146.0756 52.6938,146.6381 Q52.5531,147.185 52.4281,147.7631 Z " fill="#000000"/><text fill="#000000" font-family="sans-serif" font-size="14" font-style="italic" lengthAdjust="spacing" textLength="49" x="68.15" y="155.492">Product</text><line style="stroke:#181818;stroke-width:0.5;" x1="33" x2="125" y1="166.06" y2="166.06"/><line style="stroke:#181818;stroke-width:0.5;" x1="33" x2="125" y1="174.06" y2="174.06"/><ellipse cx="43" cy="189.094" fill="#84BE84" rx="3" ry="3" style="stroke:#038048;stroke-width:1.0;"/><text fill="#000000" font-family="sans-serif" font-size="14" lengthAdjust="spacing" textLength="68" x="52" y="193.0259">use(): void</text></g><!--class ConcreteCreator--><g id="elem_ConcreteCreator"><rect codeLine="9" fill="#F1F1F1" height="67.0679" id="ConcreteCreator" rx="2.5" ry="2.5" style="stroke:#181818;stroke-width:0.5;" width="188" x="161" y="134.06"/><ellipse cx="196.7" cy="150.06" fill="#ADD1B2" rx="11" ry="11" style="stroke:#181818;stroke-width:1.0;"/><path d="M196.1688,156.9819 Q194.4188,156.9819 193.2781,156.2475 Q192.1531,155.4975 191.5906,154.1538 Q191.0438,152.7944 191.0438,150.9975 Q191.0438,148.9663 191.7,147.5131 Q192.3563,146.06 193.6375,145.2788 Q194.9188,144.4975 196.7938,144.4975 Q197.6844,144.4975 198.3563,144.685 Q199.0281,144.8569 199.7156,145.2006 L198.9031,147.2163 Q198.2781,146.9038 197.7313,146.7788 Q197.2,146.6538 196.7156,146.6538 Q195.5438,146.6538 194.8406,147.185 Q194.1375,147.7163 193.8406,148.6694 Q193.5438,149.6225 193.5438,150.8881 Q193.5438,152.9038 194.2625,153.8725 Q194.9813,154.8256 196.575,154.8256 Q197.1688,154.8256 197.7938,154.6694 Q198.4188,154.5131 199.2469,154.1381 L199.2469,156.3569 Q198.5125,156.6694 197.7156,156.8256 Q196.9344,156.9819 196.1688,156.9819 Z " fill="#000000"/><text fill="#000000" font-family="sans-serif" font-size="14" lengthAdjust="spacing" textLength="110" x="215.3" y="155.492">ConcreteCreator</text><line style="stroke:#181818;stroke-width:0.5;" x1="162" x2="348" y1="166.06" y2="166.06"/><line style="stroke:#181818;stroke-width:0.5;" x1="162" x2="348" y1="174.06" y2="174.06"/><ellipse cx="172" cy="189.094" fill="#84BE84" rx="3" ry="3" style="stroke:#038048;stroke-width:1.0;"/><text fill="#000000" font-family="sans-serif" font-size="14" lengthAdjust="spacing" textLength="162" x="181" y="193.0259">createProduct(): Product</text></g><!--class ConcreteProduct--><g id="elem_ConcreteProduct"><rect codeLine="13" fill="#F1F1F1" height="67.0679" id="ConcreteProduct" rx="2.5" ry="2.5" style="stroke:#181818;stroke-width:0.5;" width="144" x="7" y="261.13"/><ellipse cx="22" cy="277.13" fill="#ADD1B2" rx="11" ry="11" style="stroke:#181818;stroke-width:1.0;"/><path d="M21.4688,284.0519 Q19.7188,284.0519 18.5781,283.3175 Q17.4531,282.5675 16.8906,281.2238 Q16.3438,279.8644 16.3438,278.0675 Q16.3438,276.0363 17,274.5831 Q17.6563,273.13 18.9375,272.3488 Q20.2188,271.5675 22.0938,271.5675 Q22.9844,271.5675 23.6563,271.755 Q24.3281,271.9269 25.0156,272.2706 L24.2031,274.2863 Q23.5781,273.9738 23.0313,273.8488 Q22.5,273.7238 22.0156,273.7238 Q20.8438,273.7238 20.1406,274.255 Q19.4375,274.7863 19.1406,275.7394 Q18.8438,276.6925 18.8438,277.9581 Q18.8438,279.9738 19.5625,280.9425 Q20.2813,281.8956 21.875,281.8956 Q22.4688,281.8956 23.0938,281.7394 Q23.7188,281.5831 24.5469,281.2081 L24.5469,283.4269 Q23.8125,283.7394 23.0156,283.8956 Q22.2344,284.0519 21.4688,284.0519 Z " fill="#000000"/><text fill="#000000" font-family="sans-serif" font-size="14" lengthAdjust="spacing" textLength="112" x="36" y="282.562">ConcreteProduct</text><line style="stroke:#181818;stroke-width:0.5;" x1="8" x2="150" y1="293.13" y2="293.13"/><line style="stroke:#181818;stroke-width:0.5;" x1="8" x2="150" y1="301.13" y2="301.13"/><ellipse cx="18" cy="316.164" fill="#84BE84" rx="3" ry="3" style="stroke:#038048;stroke-width:1.0;"/><text fill="#000000" font-family="sans-serif" font-size="14" lengthAdjust="spacing" textLength="68" x="27" y="320.0959">use(): void</text></g><!--reverse link Creator to ConcreteCreator--><g id="link_Creator_ConcreteCreator"><path d="M241.4488,92.2956 C239.5588,110.6756 241.4,115.61 243.31,133.96 " fill="none" id="Creator-backto-ConcreteCreator" style="stroke:#181818;stroke-width:1.0;stroke-dasharray:7.0,7.0;"/><polygon fill="none" points="243.29,74.39,235.4803,91.6818,247.4173,92.9093,243.29,74.39" style="stroke:#181818;stroke-width:1.0;"/></g><!--link ConcreteCreator to Creator--><g id="link_ConcreteCreator_Creator"><path codeLine="18" d="M266.69,133.96 C268.6,115.61 269.2137,98.7385 267.3237,80.3585 " fill="none" id="ConcreteCreator-to-Creator" style="stroke:#181818;stroke-width:1.0;"/><polygon fill="#181818" points="266.71,74.39,263.6516,83.752,267.2214,79.3638,271.6096,82.9336,266.71,74.39" style="stroke:#181818;stroke-width:1.0;"/></g><!--reverse link Product to ConcreteProduct--><g id="link_Product_ConcreteProduct"><path d="M65.4488,219.3656 C63.5588,237.7456 65.4,242.68 67.31,261.03 " fill="none" id="Product-backto-ConcreteProduct" style="stroke:#181818;stroke-width:1.0;stroke-dasharray:7.0,7.0;"/><polygon fill="none" points="67.29,201.46,59.4803,218.7518,71.4173,219.9793,67.29,201.46" style="stroke:#181818;stroke-width:1.0;"/></g><!--link ConcreteProduct to Product--><g id="link_ConcreteProduct_Product"><path codeLine="19" d="M90.69,261.03 C92.6,242.68 93.2137,225.8085 91.3237,207.4285 " fill="none" id="ConcreteProduct-to-Product" style="stroke:#181818;stroke-width:1.0;"/><polygon fill="#181818" points="90.71,201.46,87.6516,210.822,91.2214,206.4338,95.6096,210.0036,90.71,201.46" style="stroke:#181818;stroke-width:1.0;"/></g><!--link Creator to Product--><g id="link_Creator_Product"><path codeLine="17" d="M208.76,74.39 C182.99,92.7 155.9011,111.9548 130.1311,130.2648 " fill="none" id="Creator-to-Product" style="stroke:#181818;stroke-width:1.0;"/><polygon fill="#181818" points="125.24,133.74,134.8935,131.7879,129.3159,130.844,130.2599,125.2664,125.24,133.74" style="stroke:#181818;stroke-width:1.0;"/></g><!--SRC=[IqmgBYbAJ2vHICv9B2vMS2vAJIp9BrAevb800kra43Sre2W_fJIvH4FJIW7AvAhbuaf4rGcLWUaiBKu5gI_Bpqm1AOQQdfy7DB4a5MPBPcv1JcfkQbu9IHQZcWMp5yai_4w1sQIhQmSt5TrX83aecmlT8YHz0000]--></g></svg>