<?xml version="1.0" encoding="us-ascii" standalone="no"?><svg xmlns="http://www.w3.org/2000/svg" xmlns:xlink="http://www.w3.org/1999/xlink" contentStyleType="text/css" height="384px" preserveAspectRatio="none" style="width:534px;height:384px;background:#FFFFFF;" version="1.1" viewBox="0 0 534 384" width="534px" zoomAndPan="magnify"><defs/><g><!--class Component--><g id="elem_Component"><rect codeLine="2" fill="#F1F1F1" height="59.0679" id="Component" rx="2.5" ry="2.5" style="stroke:#181818;stroke-width:0.5;" width="104" x="291" y="7"/><ellipse cx="306" cy="23" fill="#B4A7E5" rx="11" ry="11" style="stroke:#181818;stroke-width:1.0;"/><path d="M302.0313,29.5 L302.0313,27.7969 L304.3906,27.5313 L304.3906,19.3281 L302.0313,19.0625 L302.0313,17.3594 L309.1719,17.3594 L309.1719,19.0625 L306.75,19.3281 L306.75,27.5313 L309.1719,27.7969 L309.1719,29.5 L302.0313,29.5 Z " fill="#000000"/><text fill="#000000" font-family="sans-serif" font-size="14" font-style="italic" lengthAdjust="spacing" textLength="72" x="320" y="28.432">Component</text><line style="stroke:#181818;stroke-width:0.5;" x1="292" x2="394" y1="39" y2="39"/><ellipse cx="302" cy="54.034" fill="#84BE84" rx="3" ry="3" style="stroke:#038048;stroke-width:1.0;"/><text fill="#000000" font-family="sans-serif" font-size="14" lengthAdjust="spacing" textLength="73" x="311" y="57.9659">operation()</text></g><!--class ConcreteComponent--><g id="elem_ConcreteComponent"><rect codeLine="6" fill="#F1F1F1" height="59.0679" id="ConcreteComponent" rx="2.5" ry="2.5" style="stroke:#181818;stroke-width:0.5;" width="170" x="7" y="149.14"/><ellipse cx="22" cy="165.14" fill="#ADD1B2" rx="11" ry="11" style="stroke:#181818;stroke-width:1.0;"/><path d="M21.4688,172.0619 Q19.7188,172.0619 18.5781,171.3275 Q17.4531,170.5775 16.8906,169.2338 Q16.3438,167.8744 16.3438,166.0775 Q16.3438,164.0463 17,162.5931 Q17.6563,161.14 18.9375,160.3588 Q20.2188,159.5775 22.0938,159.5775 Q22.9844,159.5775 23.6563,159.765 Q24.3281,159.9369 25.0156,160.2806 L24.2031,162.2963 Q23.5781,161.9838 23.0313,161.8588 Q22.5,161.7338 22.0156,161.7338 Q20.8438,161.7338 20.1406,162.265 Q19.4375,162.7963 19.1406,163.7494 Q18.8438,164.7025 18.8438,165.9681 Q18.8438,167.9838 19.5625,168.9525 Q20.2813,169.9056 21.875,169.9056 Q22.4688,169.9056 23.0938,169.7494 Q23.7188,169.5931 24.5469,169.2181 L24.5469,171.4369 Q23.8125,171.7494 23.0156,171.9056 Q22.2344,172.0619 21.4688,172.0619 Z " fill="#000000"/><text fill="#000000" font-family="sans-serif" font-size="14" lengthAdjust="spacing" textLength="138" x="36" y="170.572">ConcreteComponent</text><line style="stroke:#181818;stroke-width:0.5;" x1="8" x2="176" y1="181.14" y2="181.14"/><ellipse cx="18" cy="196.174" fill="#84BE84" rx="3" ry="3" style="stroke:#038048;stroke-width:1.0;"/><text fill="#000000" font-family="sans-serif" font-size="14" lengthAdjust="spacing" textLength="73" x="27" y="200.1059">operation()</text></g><!--class Decorator--><g id="elem_Decorator"><rect codeLine="10" fill="#F1F1F1" height="105.2038" id="Decorator" rx="2.5" ry="2.5" style="stroke:#181818;stroke-width:0.5;" width="262" x="212" y="126.07"/><ellipse cx="307.25" cy="142.07" fill="#A9DCDF" rx="11" ry="11" style="stroke:#181818;stroke-width:1.0;"/><path d="M302.4219,147.82 L305.7656,135.6325 L308.9063,135.6325 L312.2813,147.82 L309.8125,147.82 L309.0781,144.8044 L305.5625,144.8044 L304.8125,147.82 L302.4219,147.82 Z M306.8281,139.7731 L306.0781,142.7731 L308.5938,142.7731 L307.875,139.7731 Q307.7344,139.195 307.6094,138.6481 Q307.4844,138.0856 307.3438,137.5075 Q307.2344,138.0856 307.0938,138.6481 Q306.9531,139.195 306.8281,139.7731 Z " fill="#000000"/><text fill="#000000" font-family="sans-serif" font-size="14" font-style="italic" lengthAdjust="spacing" textLength="63" x="327.75" y="147.502">Decorator</text><line style="stroke:#181818;stroke-width:0.5;" x1="213" x2="473" y1="158.07" y2="158.07"/><rect fill="none" height="6" style="stroke:#C82930;stroke-width:1.0;" width="6" x="220" y="170.104"/><text fill="#000000" font-family="sans-serif" font-size="14" lengthAdjust="spacing" textLength="162" x="232" y="177.0359">component: Component</text><line style="stroke:#181818;stroke-width:0.5;" x1="213" x2="473" y1="185.1379" y2="185.1379"/><ellipse cx="223" cy="200.1719" fill="#84BE84" rx="3" ry="3" style="stroke:#038048;stroke-width:1.0;"/><text fill="#000000" font-family="sans-serif" font-size="14" lengthAdjust="spacing" textLength="236" x="232" y="204.1039">Decorator(component: Component)</text><ellipse cx="223" cy="219.2398" fill="#84BE84" rx="3" ry="3" style="stroke:#038048;stroke-width:1.0;"/><text fill="#000000" font-family="sans-serif" font-size="14" lengthAdjust="spacing" textLength="73" x="232" y="223.1718">operation()</text></g><!--class ConcreteDecoratorA--><g id="elem_ConcreteDecoratorA"><rect codeLine="16" fill="#F1F1F1" height="86.1358" id="ConcreteDecoratorA" rx="2.5" ry="2.5" style="stroke:#181818;stroke-width:0.5;" width="167" x="158.5" y="291.27"/><ellipse cx="173.5" cy="307.27" fill="#ADD1B2" rx="11" ry="11" style="stroke:#181818;stroke-width:1.0;"/><path d="M172.9688,314.1919 Q171.2188,314.1919 170.0781,313.4575 Q168.9531,312.7075 168.3906,311.3638 Q167.8438,310.0044 167.8438,308.2075 Q167.8438,306.1763 168.5,304.7231 Q169.1563,303.27 170.4375,302.4888 Q171.7188,301.7075 173.5938,301.7075 Q174.4844,301.7075 175.1563,301.895 Q175.8281,302.0669 176.5156,302.4106 L175.7031,304.4263 Q175.0781,304.1138 174.5313,303.9888 Q174,303.8638 173.5156,303.8638 Q172.3438,303.8638 171.6406,304.395 Q170.9375,304.9263 170.6406,305.8794 Q170.3438,306.8325 170.3438,308.0981 Q170.3438,310.1138 171.0625,311.0825 Q171.7813,312.0356 173.375,312.0356 Q173.9688,312.0356 174.5938,311.8794 Q175.2188,311.7231 176.0469,311.3481 L176.0469,313.5669 Q175.3125,313.8794 174.5156,314.0356 Q173.7344,314.1919 172.9688,314.1919 Z " fill="#000000"/><text fill="#000000" font-family="sans-serif" font-size="14" lengthAdjust="spacing" textLength="135" x="187.5" y="312.702">ConcreteDecoratorA</text><line style="stroke:#181818;stroke-width:0.5;" x1="159.5" x2="324.5" y1="323.27" y2="323.27"/><rect fill="none" height="6" style="stroke:#C82930;stroke-width:1.0;" width="6" x="166.5" y="335.304"/><text fill="#000000" font-family="sans-serif" font-size="14" lengthAdjust="spacing" textLength="77" x="178.5" y="342.2359">addedState</text><line style="stroke:#181818;stroke-width:0.5;" x1="159.5" x2="324.5" y1="350.3379" y2="350.3379"/><ellipse cx="169.5" cy="365.3719" fill="#84BE84" rx="3" ry="3" style="stroke:#038048;stroke-width:1.0;"/><text fill="#000000" font-family="sans-serif" font-size="14" lengthAdjust="spacing" textLength="73" x="178.5" y="369.3039">operation()</text></g><!--class ConcreteDecoratorB--><g id="elem_ConcreteDecoratorB"><rect codeLine="21" fill="#F1F1F1" height="78.1358" id="ConcreteDecoratorB" rx="2.5" ry="2.5" style="stroke:#181818;stroke-width:0.5;" width="167" x="360.5" y="295.27"/><ellipse cx="375.5" cy="311.27" fill="#ADD1B2" rx="11" ry="11" style="stroke:#181818;stroke-width:1.0;"/><path d="M374.9688,318.1919 Q373.2188,318.1919 372.0781,317.4575 Q370.9531,316.7075 370.3906,315.3638 Q369.8438,314.0044 369.8438,312.2075 Q369.8438,310.1763 370.5,308.7231 Q371.1563,307.27 372.4375,306.4888 Q373.7188,305.7075 375.5938,305.7075 Q376.4844,305.7075 377.1563,305.895 Q377.8281,306.0669 378.5156,306.4106 L377.7031,308.4263 Q377.0781,308.1138 376.5313,307.9888 Q376,307.8638 375.5156,307.8638 Q374.3438,307.8638 373.6406,308.395 Q372.9375,308.9263 372.6406,309.8794 Q372.3438,310.8325 372.3438,312.0981 Q372.3438,314.1138 373.0625,315.0825 Q373.7813,316.0356 375.375,316.0356 Q375.9688,316.0356 376.5938,315.8794 Q377.2188,315.7231 378.0469,315.3481 L378.0469,317.5669 Q377.3125,317.8794 376.5156,318.0356 Q375.7344,318.1919 374.9688,318.1919 Z " fill="#000000"/><text fill="#000000" font-family="sans-serif" font-size="14" lengthAdjust="spacing" textLength="135" x="389.5" y="316.702">ConcreteDecoratorB</text><line style="stroke:#181818;stroke-width:0.5;" x1="361.5" x2="526.5" y1="327.27" y2="327.27"/><ellipse cx="371.5" cy="342.304" fill="#84BE84" rx="3" ry="3" style="stroke:#038048;stroke-width:1.0;"/><text fill="#000000" font-family="sans-serif" font-size="14" lengthAdjust="spacing" textLength="73" x="380.5" y="346.2359">operation()</text><ellipse cx="371.5" cy="361.3719" fill="#84BE84" rx="3" ry="3" style="stroke:#038048;stroke-width:1.0;"/><text fill="#000000" font-family="sans-serif" font-size="14" lengthAdjust="spacing" textLength="110" x="380.5" y="365.3039">addedBehavior()</text></g><!--reverse link Component to ConcreteComponent--><g id="link_Component_ConcreteComponent"><path d="M275.5837,75.1749 C232.3837,99.2949 186.81,124.74 143.64,148.84 " fill="none" id="Component-backto-ConcreteComponent" style="stroke:#181818;stroke-width:1.0;stroke-dasharray:7.0,7.0;"/><polygon fill="none" points="291.3,66.4,272.6588,69.9362,278.5087,80.4137,291.3,66.4" style="stroke:#181818;stroke-width:1.0;"/></g><!--reverse link Component to Decorator--><g id="link_Component_Decorator"><path d="M329.9092,84.0875 C327.7392,101.2275 329.37,105.65 330.28,125.78 " fill="none" id="Component-backto-Decorator" style="stroke:#181818;stroke-width:1.0;stroke-dasharray:7.0,7.0;"/><polygon fill="none" points="332.17,66.23,323.9567,83.3338,335.8617,84.8411,332.17,66.23" style="stroke:#181818;stroke-width:1.0;"/></g><!--reverse link Decorator to Component--><g id="link_Decorator_Component"><path codeLine="26" d="M356.2619,113.7922 C357.1719,93.6622 356,83.37 353.83,66.23 " fill="none" id="Decorator-backto-Component" style="stroke:#181818;stroke-width:1.0;"/><polygon fill="none" points="355.72,125.78,359.9869,119.9668,356.2619,113.7922,351.995,119.6055,355.72,125.78" style="stroke:#181818;stroke-width:1.0;"/></g><!--reverse link Decorator to ConcreteDecoratorA--><g id="link_Decorator_ConcreteDecoratorA"><path d="M298.9208,246.74 C286.2108,266.07 281.85,272.7 269.79,291.06 " fill="none" id="Decorator-backto-ConcreteDecoratorA" style="stroke:#181818;stroke-width:1.0;"/><polygon fill="none" points="308.81,231.7,293.9074,243.4436,303.9341,250.0365,308.81,231.7" style="stroke:#181818;stroke-width:1.0;"/></g><!--reverse link Decorator to ConcreteDecoratorB--><g id="link_Decorator_ConcreteDecoratorB"><path d="M387.0772,246.7414 C400.6972,267.4614 406.21,275.84 418.78,294.97 " fill="none" id="Decorator-backto-ConcreteDecoratorB" style="stroke:#181818;stroke-width:1.0;"/><polygon fill="none" points="377.19,231.7,382.0634,250.0371,392.091,243.4456,377.19,231.7" style="stroke:#181818;stroke-width:1.0;"/></g><!--SRC=[bOzB3i8m34JtEKMMhL0lm8x23JY1cmngfEQZn4AWYhiJjT20nDShonw_yVH6Gy86FaiBso4cOHmZ7aX1RhqDti6n78NCjV81aTXuLzNY8eGQAAMiSYg2KTJ6XW4sT-ahWhh4aHJBcRM3yddjuoT6e-w3TTdDzEM-UgMfVqYn43OI9uRJZq_T_4bhw3qJunzW-nRu19W6aqEBdeucPvcevSWtJSbq1G00]--></g></svg>