<?xml version="1.0" encoding="us-ascii" standalone="no"?><svg xmlns="http://www.w3.org/2000/svg" xmlns:xlink="http://www.w3.org/1999/xlink" contentStyleType="text/css" height="373px" preserveAspectRatio="none" style="width:534px;height:373px;background:#FFFFFF;" version="1.1" viewBox="0 0 534 373" width="534px" zoomAndPan="magnify"><defs/><g><!--class Component--><g id="elem_Component"><rect codeLine="1" fill="#F1F1F1" height="67.0679" id="Component" rx="2.5" ry="2.5" style="stroke:#181818;stroke-width:0.5;" width="135" x="149.5" y="7"/><ellipse cx="178.45" cy="23" fill="#B4A7E5" rx="11" ry="11" style="stroke:#181818;stroke-width:1.0;"/><path d="M174.4813,29.5 L174.4813,27.7969 L176.8406,27.5313 L176.8406,19.3281 L174.4813,19.0625 L174.4813,17.3594 L181.6219,17.3594 L181.6219,19.0625 L179.2,19.3281 L179.2,27.5313 L181.6219,27.7969 L181.6219,29.5 L174.4813,29.5 Z " fill="#000000"/><text fill="#000000" font-family="sans-serif" font-size="14" font-style="italic" lengthAdjust="spacing" textLength="72" x="195.55" y="28.432">Component</text><line style="stroke:#181818;stroke-width:0.5;" x1="150.5" x2="283.5" y1="39" y2="39"/><line style="stroke:#181818;stroke-width:0.5;" x1="150.5" x2="283.5" y1="47" y2="47"/><ellipse cx="160.5" cy="62.034" fill="#84BE84" rx="3" ry="3" style="stroke:#038048;stroke-width:1.0;"/><text fill="#000000" font-family="sans-serif" font-size="14" lengthAdjust="spacing" textLength="109" x="169.5" y="65.9659">operation(): void</text></g><!--class ConcreteComponent--><g id="elem_ConcreteComponent"><rect codeLine="5" fill="#F1F1F1" height="67.0679" id="ConcreteComponent" rx="2.5" ry="2.5" style="stroke:#181818;stroke-width:0.5;" width="170" x="7" y="153.14"/><ellipse cx="22" cy="169.14" fill="#ADD1B2" rx="11" ry="11" style="stroke:#181818;stroke-width:1.0;"/><path d="M21.4688,176.0619 Q19.7188,176.0619 18.5781,175.3275 Q17.4531,174.5775 16.8906,173.2338 Q16.3438,171.8744 16.3438,170.0775 Q16.3438,168.0463 17,166.5931 Q17.6563,165.14 18.9375,164.3588 Q20.2188,163.5775 22.0938,163.5775 Q22.9844,163.5775 23.6563,163.765 Q24.3281,163.9369 25.0156,164.2806 L24.2031,166.2963 Q23.5781,165.9838 23.0313,165.8588 Q22.5,165.7338 22.0156,165.7338 Q20.8438,165.7338 20.1406,166.265 Q19.4375,166.7963 19.1406,167.7494 Q18.8438,168.7025 18.8438,169.9681 Q18.8438,171.9838 19.5625,172.9525 Q20.2813,173.9056 21.875,173.9056 Q22.4688,173.9056 23.0938,173.7494 Q23.7188,173.5931 24.5469,173.2181 L24.5469,175.4369 Q23.8125,175.7494 23.0156,175.9056 Q22.2344,176.0619 21.4688,176.0619 Z " fill="#000000"/><text fill="#000000" font-family="sans-serif" font-size="14" lengthAdjust="spacing" textLength="138" x="36" y="174.572">ConcreteComponent</text><line style="stroke:#181818;stroke-width:0.5;" x1="8" x2="176" y1="185.14" y2="185.14"/><line style="stroke:#181818;stroke-width:0.5;" x1="8" x2="176" y1="193.14" y2="193.14"/><ellipse cx="18" cy="208.174" fill="#84BE84" rx="3" ry="3" style="stroke:#038048;stroke-width:1.0;"/><text fill="#000000" font-family="sans-serif" font-size="14" lengthAdjust="spacing" textLength="109" x="27" y="212.1059">operation(): void</text></g><!--class Decorator--><g id="elem_Decorator"><rect codeLine="9" fill="#F1F1F1" height="105.2038" id="Decorator" rx="2.5" ry="2.5" style="stroke:#181818;stroke-width:0.5;" width="262" x="212" y="134.07"/><ellipse cx="307.25" cy="150.07" fill="#A9DCDF" rx="11" ry="11" style="stroke:#181818;stroke-width:1.0;"/><path d="M302.4219,155.82 L305.7656,143.6325 L308.9063,143.6325 L312.2813,155.82 L309.8125,155.82 L309.0781,152.8044 L305.5625,152.8044 L304.8125,155.82 L302.4219,155.82 Z M306.8281,147.7731 L306.0781,150.7731 L308.5938,150.7731 L307.875,147.7731 Q307.7344,147.195 307.6094,146.6481 Q307.4844,146.0856 307.3438,145.5075 Q307.2344,146.0856 307.0938,146.6481 Q306.9531,147.195 306.8281,147.7731 Z " fill="#000000"/><text fill="#000000" font-family="sans-serif" font-size="14" font-style="italic" lengthAdjust="spacing" textLength="63" x="327.75" y="155.502">Decorator</text><line style="stroke:#181818;stroke-width:0.5;" x1="213" x2="473" y1="166.07" y2="166.07"/><rect fill="none" height="6" style="stroke:#C82930;stroke-width:1.0;" width="6" x="220" y="178.104"/><text fill="#000000" font-family="sans-serif" font-size="14" lengthAdjust="spacing" textLength="162" x="232" y="185.0359">component: Component</text><line style="stroke:#181818;stroke-width:0.5;" x1="213" x2="473" y1="193.1379" y2="193.1379"/><ellipse cx="223" cy="208.1719" fill="#84BE84" rx="3" ry="3" style="stroke:#038048;stroke-width:1.0;"/><text fill="#000000" font-family="sans-serif" font-size="14" lengthAdjust="spacing" textLength="236" x="232" y="212.1039">Decorator(component: Component)</text><ellipse cx="223" cy="227.2398" fill="#84BE84" rx="3" ry="3" style="stroke:#038048;stroke-width:1.0;"/><text fill="#000000" font-family="sans-serif" font-size="14" lengthAdjust="spacing" textLength="109" x="232" y="231.1718">operation(): void</text></g><!--class ConcreteDecoratorA--><g id="elem_ConcreteDecoratorA"><rect codeLine="15" fill="#F1F1F1" height="67.0679" id="ConcreteDecoratorA" rx="2.5" ry="2.5" style="stroke:#181818;stroke-width:0.5;" width="167" x="158.5" y="299.27"/><ellipse cx="173.5" cy="315.27" fill="#ADD1B2" rx="11" ry="11" style="stroke:#181818;stroke-width:1.0;"/><path d="M172.9688,322.1919 Q171.2188,322.1919 170.0781,321.4575 Q168.9531,320.7075 168.3906,319.3638 Q167.8438,318.0044 167.8438,316.2075 Q167.8438,314.1763 168.5,312.7231 Q169.1563,311.27 170.4375,310.4888 Q171.7188,309.7075 173.5938,309.7075 Q174.4844,309.7075 175.1563,309.895 Q175.8281,310.0669 176.5156,310.4106 L175.7031,312.4263 Q175.0781,312.1138 174.5313,311.9888 Q174,311.8638 173.5156,311.8638 Q172.3438,311.8638 171.6406,312.395 Q170.9375,312.9263 170.6406,313.8794 Q170.3438,314.8325 170.3438,316.0981 Q170.3438,318.1138 171.0625,319.0825 Q171.7813,320.0356 173.375,320.0356 Q173.9688,320.0356 174.5938,319.8794 Q175.2188,319.7231 176.0469,319.3481 L176.0469,321.5669 Q175.3125,321.8794 174.5156,322.0356 Q173.7344,322.1919 172.9688,322.1919 Z " fill="#000000"/><text fill="#000000" font-family="sans-serif" font-size="14" lengthAdjust="spacing" textLength="135" x="187.5" y="320.702">ConcreteDecoratorA</text><line style="stroke:#181818;stroke-width:0.5;" x1="159.5" x2="324.5" y1="331.27" y2="331.27"/><line style="stroke:#181818;stroke-width:0.5;" x1="159.5" x2="324.5" y1="339.27" y2="339.27"/><ellipse cx="169.5" cy="354.304" fill="#84BE84" rx="3" ry="3" style="stroke:#038048;stroke-width:1.0;"/><text fill="#000000" font-family="sans-serif" font-size="14" lengthAdjust="spacing" textLength="109" x="178.5" y="358.2359">operation(): void</text></g><!--class ConcreteDecoratorB--><g id="elem_ConcreteDecoratorB"><rect codeLine="19" fill="#F1F1F1" height="67.0679" id="ConcreteDecoratorB" rx="2.5" ry="2.5" style="stroke:#181818;stroke-width:0.5;" width="167" x="360.5" y="299.27"/><ellipse cx="375.5" cy="315.27" fill="#ADD1B2" rx="11" ry="11" style="stroke:#181818;stroke-width:1.0;"/><path d="M374.9688,322.1919 Q373.2188,322.1919 372.0781,321.4575 Q370.9531,320.7075 370.3906,319.3638 Q369.8438,318.0044 369.8438,316.2075 Q369.8438,314.1763 370.5,312.7231 Q371.1563,311.27 372.4375,310.4888 Q373.7188,309.7075 375.5938,309.7075 Q376.4844,309.7075 377.1563,309.895 Q377.8281,310.0669 378.5156,310.4106 L377.7031,312.4263 Q377.0781,312.1138 376.5313,311.9888 Q376,311.8638 375.5156,311.8638 Q374.3438,311.8638 373.6406,312.395 Q372.9375,312.9263 372.6406,313.8794 Q372.3438,314.8325 372.3438,316.0981 Q372.3438,318.1138 373.0625,319.0825 Q373.7813,320.0356 375.375,320.0356 Q375.9688,320.0356 376.5938,319.8794 Q377.2188,319.7231 378.0469,319.3481 L378.0469,321.5669 Q377.3125,321.8794 376.5156,322.0356 Q375.7344,322.1919 374.9688,322.1919 Z " fill="#000000"/><text fill="#000000" font-family="sans-serif" font-size="14" lengthAdjust="spacing" textLength="135" x="389.5" y="320.702">ConcreteDecoratorB</text><line style="stroke:#181818;stroke-width:0.5;" x1="361.5" x2="526.5" y1="331.27" y2="331.27"/><line style="stroke:#181818;stroke-width:0.5;" x1="361.5" x2="526.5" y1="339.27" y2="339.27"/><ellipse cx="371.5" cy="354.304" fill="#84BE84" rx="3" ry="3" style="stroke:#038048;stroke-width:1.0;"/><text fill="#000000" font-family="sans-serif" font-size="14" lengthAdjust="spacing" textLength="109" x="380.5" y="358.2359">operation(): void</text></g><!--reverse link Component to ConcreteComponent--><g id="link_Component_ConcreteComponent"><path d="M164.8587,87.1226 C141.8387,110.7126 126.92,129.53 109.06,153.09 " fill="none" id="Component-backto-ConcreteComponent" style="stroke:#181818;stroke-width:1.0;stroke-dasharray:7.0,7.0;"/><polygon fill="none" points="177.43,74.24,160.5645,82.9322,169.1529,91.3131,177.43,74.24" style="stroke:#181818;stroke-width:1.0;"/></g><!--link ConcreteComponent to Component--><g id="link_ConcreteComponent_Component"><path codeLine="23" d="M131.44,153.09 C154.45,129.53 178.3244,102.6107 196.2144,79.0207 " fill="none" id="ConcreteComponent-to-Component" style="stroke:#181818;stroke-width:1.0;"/><polygon fill="#181818" points="199.84,74.24,191.2145,78.994,196.8187,78.2239,197.5888,83.8281,199.84,74.24" style="stroke:#181818;stroke-width:1.0;"/></g><!--reverse link Component to Decorator--><g id="link_Component_Decorator"><path d="M245.3265,88.5366 C258.7365,106.0666 266.55,113.77 284.81,133.59 " fill="none" id="Component-backto-Decorator" style="stroke:#181818;stroke-width:1.0;stroke-dasharray:7.0,7.0;"/><polygon fill="none" points="234.39,74.24,240.561,92.1821,250.0921,84.8911,234.39,74.24" style="stroke:#181818;stroke-width:1.0;"/></g><!--link Decorator to Component--><g id="link_Decorator_Component"><path codeLine="24" d="M310.14,133.59 C293.75,113.77 278.2259,96.0491 260.9959,78.5191 " fill="none" id="Decorator-to-Component" style="stroke:#181818;stroke-width:1.0;"/><polygon fill="#181818" points="256.79,74.24,260.2461,83.4626,260.2949,77.8059,265.9515,77.8547,256.79,74.24" style="stroke:#181818;stroke-width:1.0;"/></g><!--reverse link Decorator to ConcreteDecoratorA--><g id="link_Decorator_ConcreteDecoratorA"><path d="M283.0898,254.1248 C268.2598,273.9548 264.08,281.58 253.7,299.12 " fill="none" id="Decorator-backto-ConcreteDecoratorA" style="stroke:#181818;stroke-width:1.0;"/><polygon fill="none" points="293.87,239.71,278.2848,250.5314,287.8947,257.7182,293.87,239.71" style="stroke:#181818;stroke-width:1.0;"/></g><!--link ConcreteDecoratorA to Decorator--><g id="link_ConcreteDecoratorA_Decorator"><path codeLine="25" d="M276.1,299.12 C290.31,281.58 302.9575,264.5625 315.9175,244.7325 " fill="none" id="ConcreteDecoratorA-to-Decorator" style="stroke:#181818;stroke-width:1.0;"/><polygon fill="#181818" points="319.2,239.71,310.928,245.0554,316.4646,243.8954,317.6246,249.432,319.2,239.71" style="stroke:#181818;stroke-width:1.0;"/></g><!--reverse link Decorator to ConcreteDecoratorB--><g id="link_Decorator_ConcreteDecoratorB"><path d="M376.6474,254.7775 C389.6074,274.6075 395.69,281.58 409.9,299.12 " fill="none" id="Decorator-backto-ConcreteDecoratorB" style="stroke:#181818;stroke-width:1.0;"/><polygon fill="none" points="366.8,239.71,371.6249,258.0599,381.6699,251.495,366.8,239.71" style="stroke:#181818;stroke-width:1.0;"/></g><!--link ConcreteDecoratorB to Decorator--><g id="link_ConcreteDecoratorB_Decorator"><path codeLine="26" d="M432.3,299.12 C421.92,281.58 410.5534,264.3449 395.7234,244.5149 " fill="none" id="ConcreteDecoratorB-to-Decorator" style="stroke:#181818;stroke-width:1.0;"/><polygon fill="#181818" points="392.13,239.71,394.3168,249.313,395.1245,243.7141,400.7234,244.5218,392.13,239.71" style="stroke:#181818;stroke-width:1.0;"/></g><!--SRC=[bP1D2iCW44Rtdi9bGl42MHJwSn4xcO8GPqI7KWYzUosXCQ5I4bSwldb-eoF1UBU0-i8-C2697fNEwy01enN7rBITVh3hrKif66nAcIM8A5Xwd0y3-hnB6qNsbYHQ43qPhmYS8Ox_J0Q-XQxSJM_C_KsDQJTFD7jE6f-2r2-ZZVirvvsQtvyrvhWOjbZMzKh-3p0VLINP2dW3]--></g></svg>