<?xml version="1.0" encoding="us-ascii" standalone="no"?><svg xmlns="http://www.w3.org/2000/svg" xmlns:xlink="http://www.w3.org/1999/xlink" contentStyleType="text/css" height="227px" preserveAspectRatio="none" style="width:359px;height:227px;background:#FFFFFF;" version="1.1" viewBox="0 0 359 227" width="359px" zoomAndPan="magnify"><defs/><g><!--class Handler--><g id="elem_Handler"><rect codeLine="1" fill="#F1F1F1" height="105.2038" id="Handler" rx="2.5" ry="2.5" style="stroke:#181818;stroke-width:0.5;" width="236" x="61.5" y="7"/><ellipse cx="149.75" cy="23" fill="#A9DCDF" rx="11" ry="11" style="stroke:#181818;stroke-width:1.0;"/><path d="M144.9219,28.75 L148.2656,16.5625 L151.4063,16.5625 L154.7813,28.75 L152.3125,28.75 L151.5781,25.7344 L148.0625,25.7344 L147.3125,28.75 L144.9219,28.75 Z M149.3281,20.7031 L148.5781,23.7031 L151.0938,23.7031 L150.375,20.7031 Q150.2344,20.125 150.1094,19.5781 Q149.9844,19.0156 149.8438,18.4375 Q149.7344,19.0156 149.5938,19.5781 Q149.4531,20.125 149.3281,20.7031 Z " fill="#000000"/><text fill="#000000" font-family="sans-serif" font-size="14" font-style="italic" lengthAdjust="spacing" textLength="51" x="170.25" y="28.432">Handler</text><line style="stroke:#181818;stroke-width:0.5;" x1="62.5" x2="296.5" y1="39" y2="39"/><rect fill="none" height="6" style="stroke:#C82930;stroke-width:1.0;" width="6" x="69.5" y="51.034"/><text fill="#000000" font-family="sans-serif" font-size="14" lengthAdjust="spacing" textLength="91" x="81.5" y="57.9659">next: Handler</text><line style="stroke:#181818;stroke-width:0.5;" x1="62.5" x2="296.5" y1="66.0679" y2="66.0679"/><ellipse cx="72.5" cy="81.1019" fill="#84BE84" rx="3" ry="3" style="stroke:#038048;stroke-width:1.0;"/><text fill="#000000" font-family="sans-serif" font-size="14" lengthAdjust="spacing" textLength="210" x="81.5" y="85.0339">setNext(handler: Handler): void</text><ellipse cx="72.5" cy="100.1698" fill="#84BE84" rx="3" ry="3" style="stroke:#038048;stroke-width:1.0;"/><text fill="#000000" font-family="sans-serif" font-size="14" lengthAdjust="spacing" textLength="206" x="81.5" y="104.1018">handle(request: Request): void</text></g><!--class ConcreteHandlerA--><g id="elem_ConcreteHandlerA"><rect codeLine="7" fill="#F1F1F1" height="48" id="ConcreteHandlerA" rx="2.5" ry="2.5" style="stroke:#181818;stroke-width:0.5;" width="155" x="7" y="172.2"/><ellipse cx="22" cy="188.2" fill="#ADD1B2" rx="11" ry="11" style="stroke:#181818;stroke-width:1.0;"/><path d="M21.4688,195.1219 Q19.7188,195.1219 18.5781,194.3875 Q17.4531,193.6375 16.8906,192.2938 Q16.3438,190.9344 16.3438,189.1375 Q16.3438,187.1063 17,185.6531 Q17.6563,184.2 18.9375,183.4188 Q20.2188,182.6375 22.0938,182.6375 Q22.9844,182.6375 23.6563,182.825 Q24.3281,182.9969 25.0156,183.3406 L24.2031,185.3563 Q23.5781,185.0438 23.0313,184.9188 Q22.5,184.7938 22.0156,184.7938 Q20.8438,184.7938 20.1406,185.325 Q19.4375,185.8563 19.1406,186.8094 Q18.8438,187.7625 18.8438,189.0281 Q18.8438,191.0438 19.5625,192.0125 Q20.2813,192.9656 21.875,192.9656 Q22.4688,192.9656 23.0938,192.8094 Q23.7188,192.6531 24.5469,192.2781 L24.5469,194.4969 Q23.8125,194.8094 23.0156,194.9656 Q22.2344,195.1219 21.4688,195.1219 Z " fill="#000000"/><text fill="#000000" font-family="sans-serif" font-size="14" lengthAdjust="spacing" textLength="123" x="36" y="193.632">ConcreteHandlerA</text><line style="stroke:#181818;stroke-width:0.5;" x1="8" x2="161" y1="204.2" y2="204.2"/><line style="stroke:#181818;stroke-width:0.5;" x1="8" x2="161" y1="212.2" y2="212.2"/></g><!--class ConcreteHandlerB--><g id="elem_ConcreteHandlerB"><rect codeLine="8" fill="#F1F1F1" height="48" id="ConcreteHandlerB" rx="2.5" ry="2.5" style="stroke:#181818;stroke-width:0.5;" width="155" x="197" y="172.2"/><ellipse cx="212" cy="188.2" fill="#ADD1B2" rx="11" ry="11" style="stroke:#181818;stroke-width:1.0;"/><path d="M211.4688,195.1219 Q209.7188,195.1219 208.5781,194.3875 Q207.4531,193.6375 206.8906,192.2938 Q206.3438,190.9344 206.3438,189.1375 Q206.3438,187.1063 207,185.6531 Q207.6563,184.2 208.9375,183.4188 Q210.2188,182.6375 212.0938,182.6375 Q212.9844,182.6375 213.6563,182.825 Q214.3281,182.9969 215.0156,183.3406 L214.2031,185.3563 Q213.5781,185.0438 213.0313,184.9188 Q212.5,184.7938 212.0156,184.7938 Q210.8438,184.7938 210.1406,185.325 Q209.4375,185.8563 209.1406,186.8094 Q208.8438,187.7625 208.8438,189.0281 Q208.8438,191.0438 209.5625,192.0125 Q210.2813,192.9656 211.875,192.9656 Q212.4688,192.9656 213.0938,192.8094 Q213.7188,192.6531 214.5469,192.2781 L214.5469,194.4969 Q213.8125,194.8094 213.0156,194.9656 Q212.2344,195.1219 211.4688,195.1219 Z " fill="#000000"/><text fill="#000000" font-family="sans-serif" font-size="14" lengthAdjust="spacing" textLength="123" x="226" y="193.632">ConcreteHandlerB</text><line style="stroke:#181818;stroke-width:0.5;" x1="198" x2="351" y1="204.2" y2="204.2"/><line style="stroke:#181818;stroke-width:0.5;" x1="198" x2="351" y1="212.2" y2="212.2"/></g><!--reverse link Handler to ConcreteHandlerA--><g id="link_Handler_ConcreteHandlerA"><path d="M119.1839,127.0654 C103.9439,147.4854 99.76,155.45 90.8,171.76 " fill="none" id="Handler-backto-ConcreteHandlerA" style="stroke:#181818;stroke-width:1.0;"/><polygon fill="none" points="129.95,112.64,114.3755,123.4767,123.9924,130.6541,129.95,112.64" style="stroke:#181818;stroke-width:1.0;"/></g><!--link ConcreteHandlerA to Handler--><g id="link_ConcreteHandlerA_Handler"><path codeLine="10" d="M111.28,171.76 C125.34,155.45 138.6874,138.0561 152.2674,117.6361 " fill="none" id="ConcreteHandlerA-to-Handler" style="stroke:#181818;stroke-width:1.0;"/><polygon fill="#181818" points="155.59,112.64,147.2755,117.9191,152.8212,116.8034,153.9369,122.3491,155.59,112.64" style="stroke:#181818;stroke-width:1.0;"/></g><!--reverse link Handler to ConcreteHandlerB--><g id="link_Handler_ConcreteHandlerB"><path d="M213.3777,127.6282 C226.9577,148.0482 233.66,155.45 247.72,171.76 " fill="none" id="Handler-backto-ConcreteHandlerB" style="stroke:#181818;stroke-width:1.0;"/><polygon fill="none" points="203.41,112.64,208.3816,130.9507,218.3737,124.3056,203.41,112.64" style="stroke:#181818;stroke-width:1.0;"/></g><!--link ConcreteHandlerB to Handler--><g id="link_ConcreteHandlerB_Handler"><path codeLine="11" d="M268.2,171.76 C259.24,155.45 247.8787,137.8685 232.6387,117.4485 " fill="none" id="ConcreteHandlerB-to-Handler" style="stroke:#181818;stroke-width:1.0;"/><polygon fill="#181818" points="229.05,112.64,231.2274,122.2452,232.0406,116.6471,237.6387,117.4602,229.05,112.64" style="stroke:#181818;stroke-width:1.0;"/></g><!--SRC=[IqmgBYbAJ2vHICv9B2vMy4ZCIyb9BLAevb800jsyr8eIAvWWM4YxEBN43oYgaG4HXCjgMYcKvMUcG1H193MAKWjBKuk19WH1630rjLnS4EkSy_EIYr9BKg5cE2e0JKxDIq5oHorsbKxOL79X6AUhQmTtFOO9I980]--></g></svg>