<?xml version="1.0" encoding="us-ascii" standalone="no"?><svg xmlns="http://www.w3.org/2000/svg" xmlns:xlink="http://www.w3.org/1999/xlink" contentStyleType="text/css" height="212px" preserveAspectRatio="none" style="width:468px;height:212px;background:#FFFFFF;" version="1.1" viewBox="0 0 468 212" width="468px" zoomAndPan="magnify"><defs/><g><!--class Client--><g id="elem_Client"><rect codeLine="2" fill="#F1F1F1" height="32" id="Client" rx="2.5" ry="2.5" style="stroke:#181818;stroke-width:0.5;" width="71" x="7" y="43.6"/><ellipse cx="22" cy="59.6" fill="#ADD1B2" rx="11" ry="11" style="stroke:#181818;stroke-width:1.0;"/><path d="M21.4688,66.5219 Q19.7188,66.5219 18.5781,65.7875 Q17.4531,65.0375 16.8906,63.6937 Q16.3438,62.3344 16.3438,60.5375 Q16.3438,58.5062 17,57.0531 Q17.6563,55.6 18.9375,54.8187 Q20.2188,54.0375 22.0938,54.0375 Q22.9844,54.0375 23.6563,54.225 Q24.3281,54.3969 25.0156,54.7406 L24.2031,56.7562 Q23.5781,56.4437 23.0313,56.3187 Q22.5,56.1937 22.0156,56.1937 Q20.8438,56.1937 20.1406,56.725 Q19.4375,57.2562 19.1406,58.2094 Q18.8438,59.1625 18.8438,60.4281 Q18.8438,62.4437 19.5625,63.4125 Q20.2813,64.3656 21.875,64.3656 Q22.4688,64.3656 23.0938,64.2094 Q23.7188,64.0531 24.5469,63.6781 L24.5469,65.8969 Q23.8125,66.2094 23.0156,66.3656 Q22.2344,66.5219 21.4688,66.5219 Z " fill="#000000"/><text fill="#000000" font-family="sans-serif" font-size="14" lengthAdjust="spacing" textLength="39" x="36" y="65.032">Client</text></g><!--class Handler--><g id="elem_Handler"><rect codeLine="4" fill="#F1F1F1" height="105.2038" id="Handler" rx="2.5" ry="2.5" style="stroke:#181818;stroke-width:0.5;" width="236" x="113.5" y="7"/><ellipse cx="201.75" cy="23" fill="#A9DCDF" rx="11" ry="11" style="stroke:#181818;stroke-width:1.0;"/><path d="M196.9219,28.75 L200.2656,16.5625 L203.4063,16.5625 L206.7813,28.75 L204.3125,28.75 L203.5781,25.7344 L200.0625,25.7344 L199.3125,28.75 L196.9219,28.75 Z M201.3281,20.7031 L200.5781,23.7031 L203.0938,23.7031 L202.375,20.7031 Q202.2344,20.125 202.1094,19.5781 Q201.9844,19.0156 201.8438,18.4375 Q201.7344,19.0156 201.5938,19.5781 Q201.4531,20.125 201.3281,20.7031 Z " fill="#000000"/><text fill="#000000" font-family="sans-serif" font-size="14" font-style="italic" lengthAdjust="spacing" textLength="51" x="222.25" y="28.432">Handler</text><line style="stroke:#181818;stroke-width:0.5;" x1="114.5" x2="348.5" y1="39" y2="39"/><rect fill="none" height="6" style="stroke:#C82930;stroke-width:1.0;" width="6" x="121.5" y="51.034"/><text fill="#000000" font-family="sans-serif" font-size="14" lengthAdjust="spacing" textLength="91" x="133.5" y="57.9659">next: Handler</text><line style="stroke:#181818;stroke-width:0.5;" x1="114.5" x2="348.5" y1="66.0679" y2="66.0679"/><ellipse cx="124.5" cy="81.1019" fill="#84BE84" rx="3" ry="3" style="stroke:#038048;stroke-width:1.0;"/><text fill="#000000" font-family="sans-serif" font-size="14" lengthAdjust="spacing" textLength="210" x="133.5" y="85.0339">setNext(handler: Handler): void</text><ellipse cx="124.5" cy="100.1698" fill="#84BE84" rx="3" ry="3" style="stroke:#038048;stroke-width:1.0;"/><text fill="#000000" font-family="sans-serif" font-size="14" lengthAdjust="spacing" textLength="170" x="133.5" y="104.1018">handle(request: Request)</text></g><!--class ConcreteHandlerA--><g id="elem_ConcreteHandlerA"><rect codeLine="10" fill="#F1F1F1" height="32" id="ConcreteHandlerA" rx="2.5" ry="2.5" style="stroke:#181818;stroke-width:0.5;" width="155" x="59" y="173.2"/><ellipse cx="74" cy="189.2" fill="#ADD1B2" rx="11" ry="11" style="stroke:#181818;stroke-width:1.0;"/><path d="M73.4688,196.1219 Q71.7188,196.1219 70.5781,195.3875 Q69.4531,194.6375 68.8906,193.2938 Q68.3438,191.9344 68.3438,190.1375 Q68.3438,188.1063 69,186.6531 Q69.6563,185.2 70.9375,184.4188 Q72.2188,183.6375 74.0938,183.6375 Q74.9844,183.6375 75.6563,183.825 Q76.3281,183.9969 77.0156,184.3406 L76.2031,186.3563 Q75.5781,186.0438 75.0313,185.9188 Q74.5,185.7938 74.0156,185.7938 Q72.8438,185.7938 72.1406,186.325 Q71.4375,186.8563 71.1406,187.8094 Q70.8438,188.7625 70.8438,190.0281 Q70.8438,192.0438 71.5625,193.0125 Q72.2813,193.9656 73.875,193.9656 Q74.4688,193.9656 75.0938,193.8094 Q75.7188,193.6531 76.5469,193.2781 L76.5469,195.4969 Q75.8125,195.8094 75.0156,195.9656 Q74.2344,196.1219 73.4688,196.1219 Z " fill="#000000"/><text fill="#000000" font-family="sans-serif" font-size="14" lengthAdjust="spacing" textLength="123" x="88" y="194.632">ConcreteHandlerA</text></g><!--class ConcreteHandlerB--><g id="elem_ConcreteHandlerB"><rect codeLine="11" fill="#F1F1F1" height="32" id="ConcreteHandlerB" rx="2.5" ry="2.5" style="stroke:#181818;stroke-width:0.5;" width="155" x="249" y="173.2"/><ellipse cx="264" cy="189.2" fill="#ADD1B2" rx="11" ry="11" style="stroke:#181818;stroke-width:1.0;"/><path d="M263.4688,196.1219 Q261.7188,196.1219 260.5781,195.3875 Q259.4531,194.6375 258.8906,193.2938 Q258.3438,191.9344 258.3438,190.1375 Q258.3438,188.1063 259,186.6531 Q259.6563,185.2 260.9375,184.4188 Q262.2188,183.6375 264.0938,183.6375 Q264.9844,183.6375 265.6563,183.825 Q266.3281,183.9969 267.0156,184.3406 L266.2031,186.3563 Q265.5781,186.0438 265.0313,185.9188 Q264.5,185.7938 264.0156,185.7938 Q262.8438,185.7938 262.1406,186.325 Q261.4375,186.8563 261.1406,187.8094 Q260.8438,188.7625 260.8438,190.0281 Q260.8438,192.0438 261.5625,193.0125 Q262.2813,193.9656 263.875,193.9656 Q264.4688,193.9656 265.0938,193.8094 Q265.7188,193.6531 266.5469,193.2781 L266.5469,195.4969 Q265.8125,195.8094 265.0156,195.9656 Q264.2344,196.1219 263.4688,196.1219 Z " fill="#000000"/><text fill="#000000" font-family="sans-serif" font-size="14" lengthAdjust="spacing" textLength="123" x="278" y="194.632">ConcreteHandlerB</text></g><!--reverse link Handler to ConcreteHandlerA--><g id="link_Handler_ConcreteHandlerA"><path d="M182.1091,126.9367 C165.9791,148.5967 159.19,157.73 148.03,172.71 " fill="none" id="Handler-backto-ConcreteHandlerA" style="stroke:#181818;stroke-width:1.0;"/><polygon fill="none" points="192.86,112.5,177.2969,123.3531,186.9214,130.5203,192.86,112.5" style="stroke:#181818;stroke-width:1.0;"/></g><!--reverse link Handler to ConcreteHandlerB--><g id="link_Handler_ConcreteHandlerB"><path d="M280.8909,126.9367 C297.0209,148.5967 303.81,157.73 314.97,172.71 " fill="none" id="Handler-backto-ConcreteHandlerB" style="stroke:#181818;stroke-width:1.0;"/><polygon fill="none" points="270.14,112.5,276.0786,130.5203,285.7031,123.3531,270.14,112.5" style="stroke:#181818;stroke-width:1.0;"/></g><!--link Client to Handler--><g id="link_Client_Handler"><path codeLine="13" d="M78.31,59.6 C89.88,59.6 95.45,59.6 107.01,59.6 " fill="none" id="Client-to-Handler" style="stroke:#181818;stroke-width:1.0;"/><polygon fill="#181818" points="113.01,59.6,104.01,55.6,108.01,59.6,104.01,63.6,113.01,59.6" style="stroke:#181818;stroke-width:1.0;"/></g><!--link Handler to Handler--><g id="link_Handler_Handler"><path codeLine="14" d="M349.86,45.02 C370.31,46.99 384.5,51.85 384.5,59.6 C384.5,67.35 376.2824,71.6347 355.8324,73.6047 " fill="none" id="Handler-to-Handler" style="stroke:#181818;stroke-width:1.0;"/><polygon fill="#181818" points="349.86,74.18,359.2021,77.2986,354.837,73.7006,358.435,69.3354,349.86,74.18" style="stroke:#181818;stroke-width:1.0;"/><text fill="#000000" font-family="sans-serif" font-size="13" lengthAdjust="spacing" textLength="65" x="390.5" y="64.997">&#1055;&#1088;&#1077;&#1077;&#1084;&#1085;&#1080;&#1082;</text></g><!--SRC=[oyXCILL8pIqegLJ8JSrDIYqgvahEIImkLd3EoKpDAwckvU9AJ2ekAKfCBb60I7WavgNaf1OfL7Cf085kNcf5YHLC42oaNPnQuWSKrSY02C9bDQqKol8pKo2A898QHQc5fQd5G1E280nDBg2DK1VavoKNfPQaGdKxAW3DJCrBGN91BNQLJjXKSa4yfA1h1tSiJ1OXf62bS67-nOOBMu5mpuMz5tPSs0K0]--></g></svg>