<?xml version="1.0" encoding="us-ascii" standalone="no"?><svg xmlns="http://www.w3.org/2000/svg" xmlns:xlink="http://www.w3.org/1999/xlink" contentStyleType="text/css" height="126px" preserveAspectRatio="none" style="width:207px;height:126px;background:#FFFFFF;" version="1.1" viewBox="0 0 207 126" width="207px" zoomAndPan="magnify"><defs/><g><!--class Singleton--><g id="elem_Singleton"><rect codeLine="1" fill="#F1F1F1" height="105.2038" id="Singleton" rx="2.5" ry="2.5" style="stroke:#181818;stroke-width:0.5;" width="186" x="7" y="7"/><ellipse cx="63.75" cy="23" fill="#ADD1B2" rx="11" ry="11" style="stroke:#181818;stroke-width:1.0;"/><path d="M63.2188,29.9219 Q61.4688,29.9219 60.3281,29.1875 Q59.2031,28.4375 58.6406,27.0938 Q58.0938,25.7344 58.0938,23.9375 Q58.0938,21.9063 58.75,20.4531 Q59.4063,19 60.6875,18.2188 Q61.9688,17.4375 63.8438,17.4375 Q64.7344,17.4375 65.4063,17.625 Q66.0781,17.7969 66.7656,18.1406 L65.9531,20.1563 Q65.3281,19.8438 64.7813,19.7188 Q64.25,19.5938 63.7656,19.5938 Q62.5938,19.5938 61.8906,20.125 Q61.1875,20.6563 60.8906,21.6094 Q60.5938,22.5625 60.5938,23.8281 Q60.5938,25.8438 61.3125,26.8125 Q62.0313,27.7656 63.625,27.7656 Q64.2188,27.7656 64.8438,27.6094 Q65.4688,27.4531 66.2969,27.0781 L66.2969,29.2969 Q65.5625,29.6094 64.7656,29.7656 Q63.9844,29.9219 63.2188,29.9219 Z " fill="#000000"/><text fill="#000000" font-family="sans-serif" font-size="14" lengthAdjust="spacing" textLength="64" x="84.25" y="28.432">Singleton</text><line style="stroke:#181818;stroke-width:0.5;" x1="8" x2="192" y1="39" y2="39"/><rect fill="none" height="6" style="stroke:#C82930;stroke-width:1.0;" width="6" x="15" y="51.034"/><text fill="#000000" font-family="sans-serif" font-size="14" lengthAdjust="spacing" textLength="129" x="27" y="57.9659">instance: Singleton</text><line style="stroke:#181818;stroke-width:0.5;" x1="8" x2="192" y1="66.0679" y2="66.0679"/><rect fill="#F24D5C" height="6" style="stroke:#C82930;stroke-width:1.0;" width="6" x="15" y="78.1019"/><text fill="#000000" font-family="sans-serif" font-size="14" lengthAdjust="spacing" textLength="108" x="27" y="85.0339">Singleton(): void</text><ellipse cx="18" cy="100.1698" fill="#84BE84" rx="3" ry="3" style="stroke:#038048;stroke-width:1.0;"/><text fill="#000000" font-family="sans-serif" font-size="14" lengthAdjust="spacing" textLength="160" x="27" y="104.1018">getInstance(): Singleton</text></g><!--SRC=[Iyv9B2vM2CxCIyz9BSdFKwZcKW02tSoyufB4lEHKAuGKH0BErT2qKYZBpqm12skdfvPuGhM0912QQW40]--></g></svg>