<?xml version="1.0" encoding="us-ascii" standalone="no"?><svg xmlns="http://www.w3.org/2000/svg" xmlns:xlink="http://www.w3.org/1999/xlink" contentStyleType="text/css" height="183px" preserveAspectRatio="none" style="width:225px;height:183px;background:#FFFFFF;" version="1.1" viewBox="0 0 225 183" width="225px" zoomAndPan="magnify"><defs/><g><!--class Singleton--><g id="elem_Singleton"><rect codeLine="3" fill="#F1F1F1" height="162.4075" id="Singleton" rx="2.5" ry="2.5" style="stroke:#181818;stroke-width:0.5;" width="204" x="7" y="7"/><ellipse cx="72.75" cy="23" fill="#ADD1B2" rx="11" ry="11" style="stroke:#181818;stroke-width:1.0;"/><path d="M72.2188,29.9219 Q70.4688,29.9219 69.3281,29.1875 Q68.2031,28.4375 67.6406,27.0938 Q67.0938,25.7344 67.0938,23.9375 Q67.0938,21.9063 67.75,20.4531 Q68.4063,19 69.6875,18.2188 Q70.9688,17.4375 72.8438,17.4375 Q73.7344,17.4375 74.4063,17.625 Q75.0781,17.7969 75.7656,18.1406 L74.9531,20.1563 Q74.3281,19.8438 73.7813,19.7188 Q73.25,19.5938 72.7656,19.5938 Q71.5938,19.5938 70.8906,20.125 Q70.1875,20.6563 69.8906,21.6094 Q69.5938,22.5625 69.5938,23.8281 Q69.5938,25.8438 70.3125,26.8125 Q71.0313,27.7656 72.625,27.7656 Q73.2188,27.7656 73.8438,27.6094 Q74.4688,27.4531 75.2969,27.0781 L75.2969,29.2969 Q74.5625,29.6094 73.7656,29.7656 Q72.9844,29.9219 72.2188,29.9219 Z " fill="#000000"/><text fill="#000000" font-family="sans-serif" font-size="14" lengthAdjust="spacing" textLength="64" x="93.25" y="28.432">Singleton</text><line style="stroke:#181818;stroke-width:0.5;" x1="8" x2="210" y1="39" y2="39"/><rect fill="none" height="6" style="stroke:#C82930;stroke-width:1.0;" width="6" x="15" y="51.034"/><text fill="#000000" font-family="sans-serif" font-size="14" lengthAdjust="spacing" textLength="178" x="27" y="57.9659">uniqueInstance: Singleton</text><rect fill="none" height="6" style="stroke:#C82930;stroke-width:1.0;" width="6" x="15" y="70.1019"/><text fill="#000000" font-family="sans-serif" font-size="14" lengthAdjust="spacing" textLength="133" x="27" y="77.0339">singletonData: Data</text><line style="stroke:#181818;stroke-width:0.5;" x1="8" x2="210" y1="85.1358" y2="85.1358"/><rect fill="#F24D5C" height="6" style="stroke:#C82930;stroke-width:1.0;" width="6" x="15" y="97.1698"/><text fill="#000000" font-family="sans-serif" font-size="14" lengthAdjust="spacing" textLength="144" x="27" y="104.1018">Singleton(): Singleton</text><ellipse cx="18" cy="119.2377" fill="#84BE84" rx="3" ry="3" style="stroke:#038048;stroke-width:1.0;"/><text fill="#000000" font-family="sans-serif" font-size="14" lengthAdjust="spacing" textLength="164" x="27" y="123.1697">getSingletonData(): Data</text><ellipse cx="18" cy="138.3056" fill="#84BE84" rx="3" ry="3" style="stroke:#038048;stroke-width:1.0;"/><text fill="#000000" font-family="sans-serif" font-size="14" lengthAdjust="spacing" textLength="137" x="27" y="142.2376">instance(): Singleton</text><ellipse cx="18" cy="157.3735" fill="#84BE84" rx="3" ry="3" style="stroke:#038048;stroke-width:1.0;"/><text fill="#000000" font-family="sans-serif" font-size="14" lengthAdjust="spacing" textLength="139" x="27" y="161.3055">singletonOperation()</text></g><!--SRC=[oyXCILL8pIqegLJ8JSrDIYqgvk9ApaaiBbO8pinBpqajoSzJgEPI00BTqhpCmj9KpxpYaiIyv5GhX0A8T36Cwv9OacYb028X4d1r6fhechJJKqk2aVM1bC1rQcT2xSAY4MwRVq5gKM999iXqhbe0]--></g></svg>