<?xml version="1.0" encoding="us-ascii" standalone="no"?><svg xmlns="http://www.w3.org/2000/svg" xmlns:xlink="http://www.w3.org/1999/xlink" contentStyleType="text/css" height="373px" preserveAspectRatio="none" style="width:363px;height:373px;background:#FFFFFF;" version="1.1" viewBox="0 0 363 373" width="363px" zoomAndPan="magnify"><defs/><g><!--class Strategy--><g id="elem_Strategy"><rect codeLine="1" fill="#F1F1F1" height="67.0679" id="Strategy" rx="2.5" ry="2.5" style="stroke:#181818;stroke-width:0.5;" width="122" x="120.5" y="172.2"/><ellipse cx="152.15" cy="188.2" fill="#B4A7E5" rx="11" ry="11" style="stroke:#181818;stroke-width:1.0;"/><path d="M148.1813,194.7 L148.1813,192.9969 L150.5406,192.7313 L150.5406,184.5281 L148.1813,184.2625 L148.1813,182.5594 L155.3219,182.5594 L155.3219,184.2625 L152.9,184.5281 L152.9,192.7313 L155.3219,192.9969 L155.3219,194.7 L148.1813,194.7 Z " fill="#000000"/><text fill="#000000" font-family="sans-serif" font-size="14" font-style="italic" lengthAdjust="spacing" textLength="53" x="169.85" y="193.632">Strategy</text><line style="stroke:#181818;stroke-width:0.5;" x1="121.5" x2="241.5" y1="204.2" y2="204.2"/><line style="stroke:#181818;stroke-width:0.5;" x1="121.5" x2="241.5" y1="212.2" y2="212.2"/><ellipse cx="131.5" cy="227.234" fill="#84BE84" rx="3" ry="3" style="stroke:#038048;stroke-width:1.0;"/><text fill="#000000" font-family="sans-serif" font-size="14" lengthAdjust="spacing" textLength="96" x="140.5" y="231.1659">execute(): void</text></g><!--class ConcreteStrategyA--><g id="elem_ConcreteStrategyA"><rect codeLine="5" fill="#F1F1F1" height="67.0679" id="ConcreteStrategyA" rx="2.5" ry="2.5" style="stroke:#181818;stroke-width:0.5;" width="157" x="7" y="299.27"/><ellipse cx="22" cy="315.27" fill="#ADD1B2" rx="11" ry="11" style="stroke:#181818;stroke-width:1.0;"/><path d="M21.4688,322.1919 Q19.7188,322.1919 18.5781,321.4575 Q17.4531,320.7075 16.8906,319.3638 Q16.3438,318.0044 16.3438,316.2075 Q16.3438,314.1763 17,312.7231 Q17.6563,311.27 18.9375,310.4888 Q20.2188,309.7075 22.0938,309.7075 Q22.9844,309.7075 23.6563,309.895 Q24.3281,310.0669 25.0156,310.4106 L24.2031,312.4263 Q23.5781,312.1138 23.0313,311.9888 Q22.5,311.8638 22.0156,311.8638 Q20.8438,311.8638 20.1406,312.395 Q19.4375,312.9263 19.1406,313.8794 Q18.8438,314.8325 18.8438,316.0981 Q18.8438,318.1138 19.5625,319.0825 Q20.2813,320.0356 21.875,320.0356 Q22.4688,320.0356 23.0938,319.8794 Q23.7188,319.7231 24.5469,319.3481 L24.5469,321.5669 Q23.8125,321.8794 23.0156,322.0356 Q22.2344,322.1919 21.4688,322.1919 Z " fill="#000000"/><text fill="#000000" font-family="sans-serif" font-size="14" lengthAdjust="spacing" textLength="125" x="36" y="320.702">ConcreteStrategyA</text><line style="stroke:#181818;stroke-width:0.5;" x1="8" x2="163" y1="331.27" y2="331.27"/><line style="stroke:#181818;stroke-width:0.5;" x1="8" x2="163" y1="339.27" y2="339.27"/><ellipse cx="18" cy="354.304" fill="#84BE84" rx="3" ry="3" style="stroke:#038048;stroke-width:1.0;"/><text fill="#000000" font-family="sans-serif" font-size="14" lengthAdjust="spacing" textLength="96" x="27" y="358.2359">execute(): void</text></g><!--class ConcreteStrategyB--><g id="elem_ConcreteStrategyB"><rect codeLine="9" fill="#F1F1F1" height="67.0679" id="ConcreteStrategyB" rx="2.5" ry="2.5" style="stroke:#181818;stroke-width:0.5;" width="157" x="199" y="299.27"/><ellipse cx="214" cy="315.27" fill="#ADD1B2" rx="11" ry="11" style="stroke:#181818;stroke-width:1.0;"/><path d="M213.4688,322.1919 Q211.7188,322.1919 210.5781,321.4575 Q209.4531,320.7075 208.8906,319.3638 Q208.3438,318.0044 208.3438,316.2075 Q208.3438,314.1763 209,312.7231 Q209.6563,311.27 210.9375,310.4888 Q212.2188,309.7075 214.0938,309.7075 Q214.9844,309.7075 215.6563,309.895 Q216.3281,310.0669 217.0156,310.4106 L216.2031,312.4263 Q215.5781,312.1138 215.0313,311.9888 Q214.5,311.8638 214.0156,311.8638 Q212.8438,311.8638 212.1406,312.395 Q211.4375,312.9263 211.1406,313.8794 Q210.8438,314.8325 210.8438,316.0981 Q210.8438,318.1138 211.5625,319.0825 Q212.2813,320.0356 213.875,320.0356 Q214.4688,320.0356 215.0938,319.8794 Q215.7188,319.7231 216.5469,319.3481 L216.5469,321.5669 Q215.8125,321.8794 215.0156,322.0356 Q214.2344,322.1919 213.4688,322.1919 Z " fill="#000000"/><text fill="#000000" font-family="sans-serif" font-size="14" lengthAdjust="spacing" textLength="125" x="228" y="320.702">ConcreteStrategyB</text><line style="stroke:#181818;stroke-width:0.5;" x1="200" x2="355" y1="331.27" y2="331.27"/><line style="stroke:#181818;stroke-width:0.5;" x1="200" x2="355" y1="339.27" y2="339.27"/><ellipse cx="210" cy="354.304" fill="#84BE84" rx="3" ry="3" style="stroke:#038048;stroke-width:1.0;"/><text fill="#000000" font-family="sans-serif" font-size="14" lengthAdjust="spacing" textLength="96" x="219" y="358.2359">execute(): void</text></g><!--class Context--><g id="elem_Context"><rect codeLine="13" fill="#F1F1F1" height="105.2038" id="Context" rx="2.5" ry="2.5" style="stroke:#181818;stroke-width:0.5;" width="265" x="49" y="7"/><ellipse cx="151.75" cy="23" fill="#ADD1B2" rx="11" ry="11" style="stroke:#181818;stroke-width:1.0;"/><path d="M151.2188,29.9219 Q149.4688,29.9219 148.3281,29.1875 Q147.2031,28.4375 146.6406,27.0938 Q146.0938,25.7344 146.0938,23.9375 Q146.0938,21.9063 146.75,20.4531 Q147.4063,19 148.6875,18.2188 Q149.9688,17.4375 151.8438,17.4375 Q152.7344,17.4375 153.4063,17.625 Q154.0781,17.7969 154.7656,18.1406 L153.9531,20.1563 Q153.3281,19.8438 152.7813,19.7188 Q152.25,19.5938 151.7656,19.5938 Q150.5938,19.5938 149.8906,20.125 Q149.1875,20.6563 148.8906,21.6094 Q148.5938,22.5625 148.5938,23.8281 Q148.5938,25.8438 149.3125,26.8125 Q150.0313,27.7656 151.625,27.7656 Q152.2188,27.7656 152.8438,27.6094 Q153.4688,27.4531 154.2969,27.0781 L154.2969,29.2969 Q153.5625,29.6094 152.7656,29.7656 Q151.9844,29.9219 151.2188,29.9219 Z " fill="#000000"/><text fill="#000000" font-family="sans-serif" font-size="14" lengthAdjust="spacing" textLength="51" x="172.25" y="28.432">Context</text><line style="stroke:#181818;stroke-width:0.5;" x1="50" x2="313" y1="39" y2="39"/><rect fill="none" height="6" style="stroke:#C82930;stroke-width:1.0;" width="6" x="57" y="51.034"/><text fill="#000000" font-family="sans-serif" font-size="14" lengthAdjust="spacing" textLength="119" x="69" y="57.9659">strategy: Strategy</text><line style="stroke:#181818;stroke-width:0.5;" x1="50" x2="313" y1="66.0679" y2="66.0679"/><ellipse cx="60" cy="81.1019" fill="#84BE84" rx="3" ry="3" style="stroke:#038048;stroke-width:1.0;"/><text fill="#000000" font-family="sans-serif" font-size="14" lengthAdjust="spacing" textLength="239" x="69" y="85.0339">setStrategy(strategy: Strategy): void</text><ellipse cx="60" cy="100.1698" fill="#84BE84" rx="3" ry="3" style="stroke:#038048;stroke-width:1.0;"/><text fill="#000000" font-family="sans-serif" font-size="14" lengthAdjust="spacing" textLength="152" x="69" y="104.1018">executeStrategy(): void</text></g><!--reverse link Strategy to ConcreteStrategyA--><g id="link_Strategy_ConcreteStrategyA"><path d="M132.7473,253.1729 C116.7373,271.5529 111.04,280.82 98.87,299.17 " fill="none" id="Strategy-backto-ConcreteStrategyA" style="stroke:#181818;stroke-width:1.0;stroke-dasharray:7.0,7.0;"/><polygon fill="none" points="144.57,239.6,128.223,249.232,137.2716,257.1138,144.57,239.6" style="stroke:#181818;stroke-width:1.0;"/></g><!--link ConcreteStrategyA to Strategy--><g id="link_ConcreteStrategyA_Strategy"><path codeLine="20" d="M122.24,299.17 C138.23,280.82 152.4481,262.9765 164.6681,244.5965 " fill="none" id="ConcreteStrategyA-to-Strategy" style="stroke:#181818;stroke-width:1.0;"/><polygon fill="#181818" points="167.99,239.6,159.6761,244.8801,165.2217,243.7637,166.3381,249.3093,167.99,239.6" style="stroke:#181818;stroke-width:1.0;"/></g><!--reverse link Strategy to ConcreteStrategyB--><g id="link_Strategy_ConcreteStrategyB"><path d="M204.9758,254.5894 C217.1958,272.9694 224.77,280.82 240.76,299.17 " fill="none" id="Strategy-backto-ConcreteStrategyB" style="stroke:#181818;stroke-width:1.0;stroke-dasharray:7.0,7.0;"/><polygon fill="none" points="195.01,239.6,199.9793,257.9114,209.9723,251.2675,195.01,239.6" style="stroke:#181818;stroke-width:1.0;"/></g><!--link ConcreteStrategyB to Strategy--><g id="link_ConcreteStrategyB_Strategy"><path codeLine="21" d="M264.13,299.17 C251.96,280.82 238.3809,262.5043 222.3709,244.1243 " fill="none" id="ConcreteStrategyB-to-Strategy" style="stroke:#181818;stroke-width:1.0;"/><polygon fill="#181818" points="218.43,239.6,221.3252,249.0137,221.7141,243.3702,227.3576,243.7592,218.43,239.6" style="stroke:#181818;stroke-width:1.0;"/></g><!--link Context to Strategy--><g id="link_Context_Strategy"><path codeLine="19" d="M181.5,112.64 C181.5,132.48 181.5,148.51 181.5,166.05 " fill="none" id="Context-to-Strategy" style="stroke:#181818;stroke-width:1.0;"/><polygon fill="#181818" points="181.5,172.05,185.5,163.05,181.5,167.05,177.5,163.05,181.5,172.05" style="stroke:#181818;stroke-width:1.0;"/></g><!--SRC=[oymhIIrAIqnELGWkAKeiIKslLAZcKW02xTIArEJIabGDJIk5ilpC5AvQBgxadCJYOWNd_BpaejIIL9W6HuNCt8ASrDpKl99Yyarn8jUKajIA4gWwtMAeFYku2H3znQabC04DJ3KmKv6jWYj7iX9ccQwk7S9ypD30A-s48Wq0]--></g></svg>