<?xml version="1.0" encoding="us-ascii" standalone="no"?><svg xmlns="http://www.w3.org/2000/svg" xmlns:xlink="http://www.w3.org/1999/xlink" contentStyleType="text/css" height="238px" preserveAspectRatio="none" style="width:532px;height:238px;background:#FFFFFF;" version="1.1" viewBox="0 0 532 238" width="532px" zoomAndPan="magnify"><defs/><g><!--class Strategy--><g id="elem_Strategy"><rect codeLine="3" fill="#F1F1F1" height="59.0679" id="Strategy" rx="2.5" ry="2.5" style="stroke:#181818;stroke-width:0.5;" width="86" x="307.5" y="30.07"/><ellipse cx="322.95" cy="46.07" fill="#B4A7E5" rx="11" ry="11" style="stroke:#181818;stroke-width:1.0;"/><path d="M318.9813,52.57 L318.9813,50.8669 L321.3406,50.6013 L321.3406,42.3981 L318.9813,42.1325 L318.9813,40.4294 L326.1219,40.4294 L326.1219,42.1325 L323.7,42.3981 L323.7,50.6013 L326.1219,50.8669 L326.1219,52.57 L318.9813,52.57 Z " fill="#000000"/><text fill="#000000" font-family="sans-serif" font-size="14" font-style="italic" lengthAdjust="spacing" textLength="53" x="337.05" y="51.502">Strategy</text><line style="stroke:#181818;stroke-width:0.5;" x1="308.5" x2="392.5" y1="62.07" y2="62.07"/><ellipse cx="318.5" cy="77.104" fill="#84BE84" rx="3" ry="3" style="stroke:#038048;stroke-width:1.0;"/><text fill="#000000" font-family="sans-serif" font-size="14" lengthAdjust="spacing" textLength="60" x="327.5" y="81.0359">execute()</text></g><!--class ConcreteStrategyA--><g id="elem_ConcreteStrategyA"><rect codeLine="7" fill="#F1F1F1" height="59.0679" id="ConcreteStrategyA" rx="2.5" ry="2.5" style="stroke:#181818;stroke-width:0.5;" width="157" x="176" y="172.2"/><ellipse cx="191" cy="188.2" fill="#ADD1B2" rx="11" ry="11" style="stroke:#181818;stroke-width:1.0;"/><path d="M190.4688,195.1219 Q188.7188,195.1219 187.5781,194.3875 Q186.4531,193.6375 185.8906,192.2938 Q185.3438,190.9344 185.3438,189.1375 Q185.3438,187.1063 186,185.6531 Q186.6563,184.2 187.9375,183.4188 Q189.2188,182.6375 191.0938,182.6375 Q191.9844,182.6375 192.6563,182.825 Q193.3281,182.9969 194.0156,183.3406 L193.2031,185.3563 Q192.5781,185.0438 192.0313,184.9188 Q191.5,184.7938 191.0156,184.7938 Q189.8438,184.7938 189.1406,185.325 Q188.4375,185.8563 188.1406,186.8094 Q187.8438,187.7625 187.8438,189.0281 Q187.8438,191.0438 188.5625,192.0125 Q189.2813,192.9656 190.875,192.9656 Q191.4688,192.9656 192.0938,192.8094 Q192.7188,192.6531 193.5469,192.2781 L193.5469,194.4969 Q192.8125,194.8094 192.0156,194.9656 Q191.2344,195.1219 190.4688,195.1219 Z " fill="#000000"/><text fill="#000000" font-family="sans-serif" font-size="14" lengthAdjust="spacing" textLength="125" x="205" y="193.632">ConcreteStrategyA</text><line style="stroke:#181818;stroke-width:0.5;" x1="177" x2="332" y1="204.2" y2="204.2"/><ellipse cx="187" cy="219.234" fill="#84BE84" rx="3" ry="3" style="stroke:#038048;stroke-width:1.0;"/><text fill="#000000" font-family="sans-serif" font-size="14" lengthAdjust="spacing" textLength="60" x="196" y="223.1659">execute()</text></g><!--class ConcreteStrategyB--><g id="elem_ConcreteStrategyB"><rect codeLine="11" fill="#F1F1F1" height="59.0679" id="ConcreteStrategyB" rx="2.5" ry="2.5" style="stroke:#181818;stroke-width:0.5;" width="157" x="368" y="172.2"/><ellipse cx="383" cy="188.2" fill="#ADD1B2" rx="11" ry="11" style="stroke:#181818;stroke-width:1.0;"/><path d="M382.4688,195.1219 Q380.7188,195.1219 379.5781,194.3875 Q378.4531,193.6375 377.8906,192.2938 Q377.3438,190.9344 377.3438,189.1375 Q377.3438,187.1063 378,185.6531 Q378.6563,184.2 379.9375,183.4188 Q381.2188,182.6375 383.0938,182.6375 Q383.9844,182.6375 384.6563,182.825 Q385.3281,182.9969 386.0156,183.3406 L385.2031,185.3563 Q384.5781,185.0438 384.0313,184.9188 Q383.5,184.7938 383.0156,184.7938 Q381.8438,184.7938 381.1406,185.325 Q380.4375,185.8563 380.1406,186.8094 Q379.8438,187.7625 379.8438,189.0281 Q379.8438,191.0438 380.5625,192.0125 Q381.2813,192.9656 382.875,192.9656 Q383.4688,192.9656 384.0938,192.8094 Q384.7188,192.6531 385.5469,192.2781 L385.5469,194.4969 Q384.8125,194.8094 384.0156,194.9656 Q383.2344,195.1219 382.4688,195.1219 Z " fill="#000000"/><text fill="#000000" font-family="sans-serif" font-size="14" lengthAdjust="spacing" textLength="125" x="397" y="193.632">ConcreteStrategyB</text><line style="stroke:#181818;stroke-width:0.5;" x1="369" x2="524" y1="204.2" y2="204.2"/><ellipse cx="379" cy="219.234" fill="#84BE84" rx="3" ry="3" style="stroke:#038048;stroke-width:1.0;"/><text fill="#000000" font-family="sans-serif" font-size="14" lengthAdjust="spacing" textLength="60" x="388" y="223.1659">execute()</text></g><!--class Context--><g id="elem_Context"><rect codeLine="15" fill="#F1F1F1" height="105.2038" id="Context" rx="2.5" ry="2.5" style="stroke:#181818;stroke-width:0.5;" width="265" x="7" y="7"/><ellipse cx="109.75" cy="23" fill="#ADD1B2" rx="11" ry="11" style="stroke:#181818;stroke-width:1.0;"/><path d="M109.2188,29.9219 Q107.4688,29.9219 106.3281,29.1875 Q105.2031,28.4375 104.6406,27.0938 Q104.0938,25.7344 104.0938,23.9375 Q104.0938,21.9063 104.75,20.4531 Q105.4063,19 106.6875,18.2188 Q107.9688,17.4375 109.8438,17.4375 Q110.7344,17.4375 111.4063,17.625 Q112.0781,17.7969 112.7656,18.1406 L111.9531,20.1563 Q111.3281,19.8438 110.7813,19.7188 Q110.25,19.5938 109.7656,19.5938 Q108.5938,19.5938 107.8906,20.125 Q107.1875,20.6563 106.8906,21.6094 Q106.5938,22.5625 106.5938,23.8281 Q106.5938,25.8438 107.3125,26.8125 Q108.0313,27.7656 109.625,27.7656 Q110.2188,27.7656 110.8438,27.6094 Q111.4688,27.4531 112.2969,27.0781 L112.2969,29.2969 Q111.5625,29.6094 110.7656,29.7656 Q109.9844,29.9219 109.2188,29.9219 Z " fill="#000000"/><text fill="#000000" font-family="sans-serif" font-size="14" lengthAdjust="spacing" textLength="51" x="130.25" y="28.432">Context</text><line style="stroke:#181818;stroke-width:0.5;" x1="8" x2="271" y1="39" y2="39"/><rect fill="none" height="6" style="stroke:#C82930;stroke-width:1.0;" width="6" x="15" y="51.034"/><text fill="#000000" font-family="sans-serif" font-size="14" lengthAdjust="spacing" textLength="119" x="27" y="57.9659">strategy: Strategy</text><line style="stroke:#181818;stroke-width:0.5;" x1="8" x2="271" y1="66.0679" y2="66.0679"/><ellipse cx="18" cy="81.1019" fill="#84BE84" rx="3" ry="3" style="stroke:#038048;stroke-width:1.0;"/><text fill="#000000" font-family="sans-serif" font-size="14" lengthAdjust="spacing" textLength="239" x="27" y="85.0339">setStrategy(strategy: Strategy): void</text><ellipse cx="18" cy="100.1698" fill="#84BE84" rx="3" ry="3" style="stroke:#038048;stroke-width:1.0;"/><text fill="#000000" font-family="sans-serif" font-size="14" lengthAdjust="spacing" textLength="116" x="27" y="104.1018">executeStrategy()</text></g><!--reverse link Strategy to ConcreteStrategyA--><g id="link_Strategy_ConcreteStrategyA"><path d="M320.6649,104.1481 C304.0949,128.3281 290.69,147.91 274.13,172.08 " fill="none" id="Strategy-backto-ConcreteStrategyA" style="stroke:#181818;stroke-width:1.0;stroke-dasharray:7.0,7.0;"/><polygon fill="none" points="330.84,89.3,315.7155,100.7564,325.6143,107.5398,330.84,89.3" style="stroke:#181818;stroke-width:1.0;"/></g><!--reverse link Strategy to ConcreteStrategyB--><g id="link_Strategy_ConcreteStrategyB"><path d="M380.3351,104.1481 C396.9051,128.3281 410.31,147.91 426.87,172.08 " fill="none" id="Strategy-backto-ConcreteStrategyB" style="stroke:#181818;stroke-width:1.0;stroke-dasharray:7.0,7.0;"/><polygon fill="none" points="370.16,89.3,375.3857,107.5398,385.2845,100.7564,370.16,89.3" style="stroke:#181818;stroke-width:1.0;"/></g><!--link Context to Strategy--><g id="link_Context_Strategy"><path codeLine="21" d="M284.2,59.6 C295.82,59.6 289.44,59.6 301.07,59.6 " fill="none" id="Context-Strategy" style="stroke:#181818;stroke-width:1.0;"/><polygon fill="none" points="272.2,59.6,278.2,63.6,284.2,59.6,278.2,55.6,272.2,59.6" style="stroke:#181818;stroke-width:1.0;"/><polygon fill="#181818" points="307.07,59.6,298.07,55.6,302.07,59.6,298.07,63.6,307.07,59.6" style="stroke:#181818;stroke-width:1.0;"/></g><!--SRC=[dOr12i8m44NtSufPjaWlq8MW7i4JnFIhWIOfcL5QYdTNj0aKD-8iX_V-kxeE33_en1x-X2H4BYZIsLZmKPDHN2QUYL-tmGXxKrGrquF8zaQ43p7O14LcT-pyqCCZgFmriFzfOEKhHbs8HXQZBUx756X-LDzCtV8zkcuLAVWxbZEnsHRh2G00]--></g></svg>