<?xml version="1.0" encoding="us-ascii" standalone="no"?><svg xmlns="http://www.w3.org/2000/svg" xmlns:xlink="http://www.w3.org/1999/xlink" contentStyleType="text/css" height="238px" preserveAspectRatio="none" style="width:603px;height:238px;background:#FFFFFF;" version="1.1" viewBox="0 0 603 238" width="603px" zoomAndPan="magnify"><defs/><g><!--class State--><g id="elem_State"><rect codeLine="3" fill="#F1F1F1" height="59.0679" id="State" rx="2.5" ry="2.5" style="stroke:#181818;stroke-width:0.5;" width="225" x="241" y="30.07"/><ellipse cx="333.25" cy="46.07" fill="#B4A7E5" rx="11" ry="11" style="stroke:#181818;stroke-width:1.0;"/><path d="M329.2813,52.57 L329.2813,50.8669 L331.6406,50.6013 L331.6406,42.3981 L329.2813,42.1325 L329.2813,40.4294 L336.4219,40.4294 L336.4219,42.1325 L334,42.3981 L334,50.6013 L336.4219,50.8669 L336.4219,52.57 L329.2813,52.57 Z " fill="#000000"/><text fill="#000000" font-family="sans-serif" font-size="14" font-style="italic" lengthAdjust="spacing" textLength="32" x="353.75" y="51.502">State</text><line style="stroke:#181818;stroke-width:0.5;" x1="242" x2="465" y1="62.07" y2="62.07"/><ellipse cx="252" cy="77.104" fill="#84BE84" rx="3" ry="3" style="stroke:#038048;stroke-width:1.0;"/><text fill="#000000" font-family="sans-serif" font-size="14" lengthAdjust="spacing" textLength="199" x="261" y="81.0359">handle(context: Context): void</text></g><!--class ConcreteStateA--><g id="elem_ConcreteStateA"><rect codeLine="7" fill="#F1F1F1" height="59.0679" id="ConcreteStateA" rx="2.5" ry="2.5" style="stroke:#181818;stroke-width:0.5;" width="225" x="111" y="172.2"/><ellipse cx="167.75" cy="188.2" fill="#ADD1B2" rx="11" ry="11" style="stroke:#181818;stroke-width:1.0;"/><path d="M167.2188,195.1219 Q165.4688,195.1219 164.3281,194.3875 Q163.2031,193.6375 162.6406,192.2938 Q162.0938,190.9344 162.0938,189.1375 Q162.0938,187.1063 162.75,185.6531 Q163.4063,184.2 164.6875,183.4188 Q165.9688,182.6375 167.8438,182.6375 Q168.7344,182.6375 169.4063,182.825 Q170.0781,182.9969 170.7656,183.3406 L169.9531,185.3563 Q169.3281,185.0438 168.7813,184.9188 Q168.25,184.7938 167.7656,184.7938 Q166.5938,184.7938 165.8906,185.325 Q165.1875,185.8563 164.8906,186.8094 Q164.5938,187.7625 164.5938,189.0281 Q164.5938,191.0438 165.3125,192.0125 Q166.0313,192.9656 167.625,192.9656 Q168.2188,192.9656 168.8438,192.8094 Q169.4688,192.6531 170.2969,192.2781 L170.2969,194.4969 Q169.5625,194.8094 168.7656,194.9656 Q167.9844,195.1219 167.2188,195.1219 Z " fill="#000000"/><text fill="#000000" font-family="sans-serif" font-size="14" lengthAdjust="spacing" textLength="103" x="188.25" y="193.632">ConcreteStateA</text><line style="stroke:#181818;stroke-width:0.5;" x1="112" x2="335" y1="204.2" y2="204.2"/><ellipse cx="122" cy="219.234" fill="#84BE84" rx="3" ry="3" style="stroke:#038048;stroke-width:1.0;"/><text fill="#000000" font-family="sans-serif" font-size="14" lengthAdjust="spacing" textLength="199" x="131" y="223.1659">handle(context: Context): void</text></g><!--class ConcreteStateB--><g id="elem_ConcreteStateB"><rect codeLine="11" fill="#F1F1F1" height="59.0679" id="ConcreteStateB" rx="2.5" ry="2.5" style="stroke:#181818;stroke-width:0.5;" width="225" x="371" y="172.2"/><ellipse cx="427.75" cy="188.2" fill="#ADD1B2" rx="11" ry="11" style="stroke:#181818;stroke-width:1.0;"/><path d="M427.2188,195.1219 Q425.4688,195.1219 424.3281,194.3875 Q423.2031,193.6375 422.6406,192.2938 Q422.0938,190.9344 422.0938,189.1375 Q422.0938,187.1063 422.75,185.6531 Q423.4063,184.2 424.6875,183.4188 Q425.9688,182.6375 427.8438,182.6375 Q428.7344,182.6375 429.4063,182.825 Q430.0781,182.9969 430.7656,183.3406 L429.9531,185.3563 Q429.3281,185.0438 428.7813,184.9188 Q428.25,184.7938 427.7656,184.7938 Q426.5938,184.7938 425.8906,185.325 Q425.1875,185.8563 424.8906,186.8094 Q424.5938,187.7625 424.5938,189.0281 Q424.5938,191.0438 425.3125,192.0125 Q426.0313,192.9656 427.625,192.9656 Q428.2188,192.9656 428.8438,192.8094 Q429.4688,192.6531 430.2969,192.2781 L430.2969,194.4969 Q429.5625,194.8094 428.7656,194.9656 Q427.9844,195.1219 427.2188,195.1219 Z " fill="#000000"/><text fill="#000000" font-family="sans-serif" font-size="14" lengthAdjust="spacing" textLength="103" x="448.25" y="193.632">ConcreteStateB</text><line style="stroke:#181818;stroke-width:0.5;" x1="372" x2="595" y1="204.2" y2="204.2"/><ellipse cx="382" cy="219.234" fill="#84BE84" rx="3" ry="3" style="stroke:#038048;stroke-width:1.0;"/><text fill="#000000" font-family="sans-serif" font-size="14" lengthAdjust="spacing" textLength="199" x="391" y="223.1659">handle(context: Context): void</text></g><!--class Context--><g id="elem_Context"><rect codeLine="15" fill="#F1F1F1" height="105.2038" id="Context" rx="2.5" ry="2.5" style="stroke:#181818;stroke-width:0.5;" width="199" x="7" y="7"/><ellipse cx="76.75" cy="23" fill="#ADD1B2" rx="11" ry="11" style="stroke:#181818;stroke-width:1.0;"/><path d="M76.2188,29.9219 Q74.4688,29.9219 73.3281,29.1875 Q72.2031,28.4375 71.6406,27.0938 Q71.0938,25.7344 71.0938,23.9375 Q71.0938,21.9063 71.75,20.4531 Q72.4063,19 73.6875,18.2188 Q74.9688,17.4375 76.8438,17.4375 Q77.7344,17.4375 78.4063,17.625 Q79.0781,17.7969 79.7656,18.1406 L78.9531,20.1563 Q78.3281,19.8438 77.7813,19.7188 Q77.25,19.5938 76.7656,19.5938 Q75.5938,19.5938 74.8906,20.125 Q74.1875,20.6563 73.8906,21.6094 Q73.5938,22.5625 73.5938,23.8281 Q73.5938,25.8438 74.3125,26.8125 Q75.0313,27.7656 76.625,27.7656 Q77.2188,27.7656 77.8438,27.6094 Q78.4688,27.4531 79.2969,27.0781 L79.2969,29.2969 Q78.5625,29.6094 77.7656,29.7656 Q76.9844,29.9219 76.2188,29.9219 Z " fill="#000000"/><text fill="#000000" font-family="sans-serif" font-size="14" lengthAdjust="spacing" textLength="51" x="97.25" y="28.432">Context</text><line style="stroke:#181818;stroke-width:0.5;" x1="8" x2="205" y1="39" y2="39"/><rect fill="none" height="6" style="stroke:#C82930;stroke-width:1.0;" width="6" x="15" y="51.034"/><text fill="#000000" font-family="sans-serif" font-size="14" lengthAdjust="spacing" textLength="75" x="27" y="57.9659">state: State</text><line style="stroke:#181818;stroke-width:0.5;" x1="8" x2="205" y1="66.0679" y2="66.0679"/><ellipse cx="18" cy="81.1019" fill="#84BE84" rx="3" ry="3" style="stroke:#038048;stroke-width:1.0;"/><text fill="#000000" font-family="sans-serif" font-size="14" lengthAdjust="spacing" textLength="173" x="27" y="85.0339">setState(state: State): void</text><ellipse cx="18" cy="100.1698" fill="#84BE84" rx="3" ry="3" style="stroke:#038048;stroke-width:1.0;"/><text fill="#000000" font-family="sans-serif" font-size="14" lengthAdjust="spacing" textLength="60" x="27" y="104.1018">request()</text></g><!--reverse link State to ConcreteStateA--><g id="link_State_ConcreteStateA"><path d="M314.6386,102.4965 C292.2086,126.6765 272.51,147.91 250.09,172.08 " fill="none" id="State-backto-ConcreteStateA" style="stroke:#181818;stroke-width:1.0;stroke-dasharray:7.0,7.0;"/><polygon fill="none" points="326.88,89.3,310.2397,98.416,319.0374,106.577,326.88,89.3" style="stroke:#181818;stroke-width:1.0;"/></g><!--reverse link State to ConcreteStateB--><g id="link_State_ConcreteStateB"><path d="M392.3614,102.4965 C414.7914,126.6765 434.49,147.91 456.91,172.08 " fill="none" id="State-backto-ConcreteStateB" style="stroke:#181818;stroke-width:1.0;stroke-dasharray:7.0,7.0;"/><polygon fill="none" points="380.12,89.3,387.9626,106.577,396.7603,98.416,380.12,89.3" style="stroke:#181818;stroke-width:1.0;"/></g><!--link Context to State--><g id="link_Context_State"><path codeLine="21" d="M218.36,59.6 C229.76,59.6 223.16,59.6 234.56,59.6 " fill="none" id="Context-State" style="stroke:#181818;stroke-width:1.0;"/><polygon fill="none" points="206.36,59.6,212.36,63.6,218.36,59.6,212.36,55.6,206.36,59.6" style="stroke:#181818;stroke-width:1.0;"/><polygon fill="#181818" points="240.56,59.6,231.56,55.6,235.56,59.6,231.56,63.6,240.56,59.6" style="stroke:#181818;stroke-width:1.0;"/></g><!--SRC=[hSpD3S8m30NWkwVmiHNg0ZaW0ICmGKWUQgIaBR51HOZTQVeZCK1zif_jhmqUZ3JecnFI3Lc8GgV8T-l0LxKA_X1FTMXjvoCgrq_hKGrVbgOs_Eg3fo-HYrQav2v3CJ-VEAGX8g5JsO4xxy6LV7rhf1XceHP8eFDK_QysPhx8U3mXMjL5tRo-EQxA3m00]--></g></svg>