<?xml version="1.0" encoding="us-ascii" standalone="no"?><svg xmlns="http://www.w3.org/2000/svg" xmlns:xlink="http://www.w3.org/1999/xlink" contentStyleType="text/css" height="373px" preserveAspectRatio="none" style="width:499px;height:373px;background:#FFFFFF;" version="1.1" viewBox="0 0 499 373" width="499px" zoomAndPan="magnify"><defs/><g><!--class State--><g id="elem_State"><rect codeLine="1" fill="#F1F1F1" height="67.0679" id="State" rx="2.5" ry="2.5" style="stroke:#181818;stroke-width:0.5;" width="225" x="137" y="172.2"/><ellipse cx="229.25" cy="188.2" fill="#B4A7E5" rx="11" ry="11" style="stroke:#181818;stroke-width:1.0;"/><path d="M225.2813,194.7 L225.2813,192.9969 L227.6406,192.7313 L227.6406,184.5281 L225.2813,184.2625 L225.2813,182.5594 L232.4219,182.5594 L232.4219,184.2625 L230,184.5281 L230,192.7313 L232.4219,192.9969 L232.4219,194.7 L225.2813,194.7 Z " fill="#000000"/><text fill="#000000" font-family="sans-serif" font-size="14" font-style="italic" lengthAdjust="spacing" textLength="32" x="249.75" y="193.632">State</text><line style="stroke:#181818;stroke-width:0.5;" x1="138" x2="361" y1="204.2" y2="204.2"/><line style="stroke:#181818;stroke-width:0.5;" x1="138" x2="361" y1="212.2" y2="212.2"/><ellipse cx="148" cy="227.234" fill="#84BE84" rx="3" ry="3" style="stroke:#038048;stroke-width:1.0;"/><text fill="#000000" font-family="sans-serif" font-size="14" lengthAdjust="spacing" textLength="199" x="157" y="231.1659">handle(context: Context): void</text></g><!--class ConcreteStateA--><g id="elem_ConcreteStateA"><rect codeLine="5" fill="#F1F1F1" height="67.0679" id="ConcreteStateA" rx="2.5" ry="2.5" style="stroke:#181818;stroke-width:0.5;" width="225" x="7" y="299.27"/><ellipse cx="63.75" cy="315.27" fill="#ADD1B2" rx="11" ry="11" style="stroke:#181818;stroke-width:1.0;"/><path d="M63.2188,322.1919 Q61.4688,322.1919 60.3281,321.4575 Q59.2031,320.7075 58.6406,319.3638 Q58.0938,318.0044 58.0938,316.2075 Q58.0938,314.1763 58.75,312.7231 Q59.4063,311.27 60.6875,310.4888 Q61.9688,309.7075 63.8438,309.7075 Q64.7344,309.7075 65.4063,309.895 Q66.0781,310.0669 66.7656,310.4106 L65.9531,312.4263 Q65.3281,312.1138 64.7813,311.9888 Q64.25,311.8638 63.7656,311.8638 Q62.5938,311.8638 61.8906,312.395 Q61.1875,312.9263 60.8906,313.8794 Q60.5938,314.8325 60.5938,316.0981 Q60.5938,318.1138 61.3125,319.0825 Q62.0313,320.0356 63.625,320.0356 Q64.2188,320.0356 64.8438,319.8794 Q65.4688,319.7231 66.2969,319.3481 L66.2969,321.5669 Q65.5625,321.8794 64.7656,322.0356 Q63.9844,322.1919 63.2188,322.1919 Z " fill="#000000"/><text fill="#000000" font-family="sans-serif" font-size="14" lengthAdjust="spacing" textLength="103" x="84.25" y="320.702">ConcreteStateA</text><line style="stroke:#181818;stroke-width:0.5;" x1="8" x2="231" y1="331.27" y2="331.27"/><line style="stroke:#181818;stroke-width:0.5;" x1="8" x2="231" y1="339.27" y2="339.27"/><ellipse cx="18" cy="354.304" fill="#84BE84" rx="3" ry="3" style="stroke:#038048;stroke-width:1.0;"/><text fill="#000000" font-family="sans-serif" font-size="14" lengthAdjust="spacing" textLength="199" x="27" y="358.2359">handle(context: Context): void</text></g><!--class ConcreteStateB--><g id="elem_ConcreteStateB"><rect codeLine="9" fill="#F1F1F1" height="67.0679" id="ConcreteStateB" rx="2.5" ry="2.5" style="stroke:#181818;stroke-width:0.5;" width="225" x="267" y="299.27"/><ellipse cx="323.75" cy="315.27" fill="#ADD1B2" rx="11" ry="11" style="stroke:#181818;stroke-width:1.0;"/><path d="M323.2188,322.1919 Q321.4688,322.1919 320.3281,321.4575 Q319.2031,320.7075 318.6406,319.3638 Q318.0938,318.0044 318.0938,316.2075 Q318.0938,314.1763 318.75,312.7231 Q319.4063,311.27 320.6875,310.4888 Q321.9688,309.7075 323.8438,309.7075 Q324.7344,309.7075 325.4063,309.895 Q326.0781,310.0669 326.7656,310.4106 L325.9531,312.4263 Q325.3281,312.1138 324.7813,311.9888 Q324.25,311.8638 323.7656,311.8638 Q322.5938,311.8638 321.8906,312.395 Q321.1875,312.9263 320.8906,313.8794 Q320.5938,314.8325 320.5938,316.0981 Q320.5938,318.1138 321.3125,319.0825 Q322.0313,320.0356 323.625,320.0356 Q324.2188,320.0356 324.8438,319.8794 Q325.4688,319.7231 326.2969,319.3481 L326.2969,321.5669 Q325.5625,321.8794 324.7656,322.0356 Q323.9844,322.1919 323.2188,322.1919 Z " fill="#000000"/><text fill="#000000" font-family="sans-serif" font-size="14" lengthAdjust="spacing" textLength="103" x="344.25" y="320.702">ConcreteStateB</text><line style="stroke:#181818;stroke-width:0.5;" x1="268" x2="491" y1="331.27" y2="331.27"/><line style="stroke:#181818;stroke-width:0.5;" x1="268" x2="491" y1="339.27" y2="339.27"/><ellipse cx="278" cy="354.304" fill="#84BE84" rx="3" ry="3" style="stroke:#038048;stroke-width:1.0;"/><text fill="#000000" font-family="sans-serif" font-size="14" lengthAdjust="spacing" textLength="199" x="287" y="358.2359">handle(context: Context): void</text></g><!--class Context--><g id="elem_Context"><rect codeLine="13" fill="#F1F1F1" height="105.2038" id="Context" rx="2.5" ry="2.5" style="stroke:#181818;stroke-width:0.5;" width="199" x="150" y="7"/><ellipse cx="219.75" cy="23" fill="#ADD1B2" rx="11" ry="11" style="stroke:#181818;stroke-width:1.0;"/><path d="M219.2188,29.9219 Q217.4688,29.9219 216.3281,29.1875 Q215.2031,28.4375 214.6406,27.0938 Q214.0938,25.7344 214.0938,23.9375 Q214.0938,21.9063 214.75,20.4531 Q215.4063,19 216.6875,18.2188 Q217.9688,17.4375 219.8438,17.4375 Q220.7344,17.4375 221.4063,17.625 Q222.0781,17.7969 222.7656,18.1406 L221.9531,20.1563 Q221.3281,19.8438 220.7813,19.7188 Q220.25,19.5938 219.7656,19.5938 Q218.5938,19.5938 217.8906,20.125 Q217.1875,20.6563 216.8906,21.6094 Q216.5938,22.5625 216.5938,23.8281 Q216.5938,25.8438 217.3125,26.8125 Q218.0313,27.7656 219.625,27.7656 Q220.2188,27.7656 220.8438,27.6094 Q221.4688,27.4531 222.2969,27.0781 L222.2969,29.2969 Q221.5625,29.6094 220.7656,29.7656 Q219.9844,29.9219 219.2188,29.9219 Z " fill="#000000"/><text fill="#000000" font-family="sans-serif" font-size="14" lengthAdjust="spacing" textLength="51" x="240.25" y="28.432">Context</text><line style="stroke:#181818;stroke-width:0.5;" x1="151" x2="348" y1="39" y2="39"/><rect fill="none" height="6" style="stroke:#C82930;stroke-width:1.0;" width="6" x="158" y="51.034"/><text fill="#000000" font-family="sans-serif" font-size="14" lengthAdjust="spacing" textLength="75" x="170" y="57.9659">state: State</text><line style="stroke:#181818;stroke-width:0.5;" x1="151" x2="348" y1="66.0679" y2="66.0679"/><ellipse cx="161" cy="81.1019" fill="#84BE84" rx="3" ry="3" style="stroke:#038048;stroke-width:1.0;"/><text fill="#000000" font-family="sans-serif" font-size="14" lengthAdjust="spacing" textLength="173" x="170" y="85.0339">setState(state: State): void</text><ellipse cx="161" cy="100.1698" fill="#84BE84" rx="3" ry="3" style="stroke:#038048;stroke-width:1.0;"/><text fill="#000000" font-family="sans-serif" font-size="14" lengthAdjust="spacing" textLength="96" x="170" y="104.1018">request(): void</text></g><!--reverse link State to ConcreteStateA--><g id="link_State_ConcreteStateA"><path d="M190.0852,251.4549 C169.0852,269.8349 158.9,280.82 141.74,299.17 " fill="none" id="State-backto-ConcreteStateA" style="stroke:#181818;stroke-width:1.0;stroke-dasharray:7.0,7.0;"/><polygon fill="none" points="203.63,239.6,186.1336,246.94,194.0369,255.9698,203.63,239.6" style="stroke:#181818;stroke-width:1.0;"/></g><!--link ConcreteStateA to State--><g id="link_ConcreteStateA_State"><path codeLine="20" d="M165.12,299.17 C186.09,280.82 205.7378,262.3586 222.9578,243.9786 " fill="none" id="ConcreteStateA-to-State" style="stroke:#181818;stroke-width:1.0;"/><polygon fill="#181818" points="227.06,239.6,217.9876,243.433,223.6415,243.2488,223.8257,248.9027,227.06,239.6" style="stroke:#181818;stroke-width:1.0;"/></g><!--reverse link State to ConcreteStateB--><g id="link_State_ConcreteStateB"><path d="M284.2467,252.7357 C301.4667,271.1157 312.91,280.82 333.88,299.17 " fill="none" id="State-backto-ConcreteStateB" style="stroke:#181818;stroke-width:1.0;stroke-dasharray:7.0,7.0;"/><polygon fill="none" points="271.94,239.6,279.8681,256.8379,288.6252,248.6335,271.94,239.6" style="stroke:#181818;stroke-width:1.0;"/></g><!--link ConcreteStateB to State--><g id="link_ConcreteStateB_State"><path codeLine="21" d="M357.26,299.17 C340.1,280.82 320.8849,261.9316 299.8849,243.5516 " fill="none" id="ConcreteStateB-to-State" style="stroke:#181818;stroke-width:1.0;"/><polygon fill="#181818" points="295.37,239.6,299.508,248.5374,299.1324,242.893,304.7768,242.5175,295.37,239.6" style="stroke:#181818;stroke-width:1.0;"/></g><!--link Context to State--><g id="link_Context_State"><path codeLine="19" d="M249.5,112.64 C249.5,132.48 249.5,148.51 249.5,166.05 " fill="none" id="Context-to-State" style="stroke:#181818;stroke-width:1.0;"/><polygon fill="#181818" points="249.5,172.05,253.5,163.05,249.5,167.05,245.5,163.05,249.5,172.05" style="stroke:#181818;stroke-width:1.0;"/></g><!--SRC=[oymhIIrAIqnELGWkIIn9LQZcKW02xOp4l9ISL8taVA1qHOcLWZE4eMcbK9QVcS9LoyMLd9DON0mIJovABKa5QtPKoCmjo4dDJSqhAQQ2SKxKC0ua3jMcMmmommfY5CIWujGIC4y3MGfc35X5KMfXQMfnYGQIsJ1JTNNje6QXXG8E2IU41000]--></g></svg>