<?xml version="1.0" encoding="us-ascii" standalone="no"?><svg xmlns="http://www.w3.org/2000/svg" xmlns:xlink="http://www.w3.org/1999/xlink" contentStyleType="text/css" height="219px" preserveAspectRatio="none" style="width:349px;height:219px;background:#FFFFFF;" version="1.1" viewBox="0 0 349 219" width="349px" zoomAndPan="magnify"><defs/><g><!--class Client--><g id="elem_Client"><rect codeLine="3" fill="#F1F1F1" height="32" id="Client" rx="2.5" ry="2.5" style="stroke:#181818;stroke-width:0.5;" width="71" x="39" y="20.53"/><ellipse cx="54" cy="36.53" fill="#ADD1B2" rx="11" ry="11" style="stroke:#181818;stroke-width:1.0;"/><path d="M53.4688,43.4519 Q51.7188,43.4519 50.5781,42.7175 Q49.4531,41.9675 48.8906,40.6238 Q48.3438,39.2644 48.3438,37.4675 Q48.3438,35.4363 49,33.9831 Q49.6563,32.53 50.9375,31.7488 Q52.2188,30.9675 54.0938,30.9675 Q54.9844,30.9675 55.6563,31.155 Q56.3281,31.3269 57.0156,31.6706 L56.2031,33.6863 Q55.5781,33.3738 55.0313,33.2488 Q54.5,33.1238 54.0156,33.1238 Q52.8438,33.1238 52.1406,33.655 Q51.4375,34.1863 51.1406,35.1394 Q50.8438,36.0925 50.8438,37.3581 Q50.8438,39.3738 51.5625,40.3425 Q52.2813,41.2956 53.875,41.2956 Q54.4688,41.2956 55.0938,41.1394 Q55.7188,40.9831 56.5469,40.6081 L56.5469,42.8269 Q55.8125,43.1394 55.0156,43.2956 Q54.2344,43.4519 53.4688,43.4519 Z " fill="#000000"/><text fill="#000000" font-family="sans-serif" font-size="14" lengthAdjust="spacing" textLength="39" x="68" y="41.962">Client</text></g><!--class Subject--><g id="elem_Subject"><rect codeLine="5" fill="#F1F1F1" height="59.0679" id="Subject" rx="2.5" ry="2.5" style="stroke:#181818;stroke-width:0.5;" width="99" x="145" y="7"/><ellipse cx="169.9" cy="23" fill="#B4A7E5" rx="11" ry="11" style="stroke:#181818;stroke-width:1.0;"/><path d="M165.9313,29.5 L165.9313,27.7969 L168.2906,27.5313 L168.2906,19.3281 L165.9313,19.0625 L165.9313,17.3594 L173.0719,17.3594 L173.0719,19.0625 L170.65,19.3281 L170.65,27.5313 L173.0719,27.7969 L173.0719,29.5 L165.9313,29.5 Z " fill="#000000"/><text fill="#000000" font-family="sans-serif" font-size="14" font-style="italic" lengthAdjust="spacing" textLength="45" x="186.1" y="28.432">Subject</text><line style="stroke:#181818;stroke-width:0.5;" x1="146" x2="243" y1="39" y2="39"/><ellipse cx="156" cy="54.034" fill="#84BE84" rx="3" ry="3" style="stroke:#038048;stroke-width:1.0;"/><text fill="#000000" font-family="sans-serif" font-size="14" lengthAdjust="spacing" textLength="73" x="165" y="57.9659">operation()</text></g><!--class RealSubject--><g id="elem_RealSubject"><rect codeLine="9" fill="#F1F1F1" height="59.0679" id="RealSubject" rx="2.5" ry="2.5" style="stroke:#181818;stroke-width:0.5;" width="111" x="231" y="139.6"/><ellipse cx="246" cy="155.6" fill="#ADD1B2" rx="11" ry="11" style="stroke:#181818;stroke-width:1.0;"/><path d="M245.4688,162.5219 Q243.7188,162.5219 242.5781,161.7875 Q241.4531,161.0375 240.8906,159.6938 Q240.3438,158.3344 240.3438,156.5375 Q240.3438,154.5063 241,153.0531 Q241.6563,151.6 242.9375,150.8188 Q244.2188,150.0375 246.0938,150.0375 Q246.9844,150.0375 247.6563,150.225 Q248.3281,150.3969 249.0156,150.7406 L248.2031,152.7563 Q247.5781,152.4438 247.0313,152.3188 Q246.5,152.1938 246.0156,152.1938 Q244.8438,152.1938 244.1406,152.725 Q243.4375,153.2563 243.1406,154.2094 Q242.8438,155.1625 242.8438,156.4281 Q242.8438,158.4438 243.5625,159.4125 Q244.2813,160.3656 245.875,160.3656 Q246.4688,160.3656 247.0938,160.2094 Q247.7188,160.0531 248.5469,159.6781 L248.5469,161.8969 Q247.8125,162.2094 247.0156,162.3656 Q246.2344,162.5219 245.4688,162.5219 Z " fill="#000000"/><text fill="#000000" font-family="sans-serif" font-size="14" lengthAdjust="spacing" textLength="79" x="260" y="161.032">RealSubject</text><line style="stroke:#181818;stroke-width:0.5;" x1="232" x2="341" y1="171.6" y2="171.6"/><ellipse cx="242" cy="186.634" fill="#84BE84" rx="3" ry="3" style="stroke:#038048;stroke-width:1.0;"/><text fill="#000000" font-family="sans-serif" font-size="14" lengthAdjust="spacing" textLength="73" x="251" y="190.5659">operation()</text></g><!--class Proxy--><g id="elem_Proxy"><rect codeLine="13" fill="#F1F1F1" height="86.1358" id="Proxy" rx="2.5" ry="2.5" style="stroke:#181818;stroke-width:0.5;" width="189" x="7" y="126.06"/><ellipse cx="79.25" cy="142.06" fill="#ADD1B2" rx="11" ry="11" style="stroke:#181818;stroke-width:1.0;"/><path d="M78.7188,148.9819 Q76.9688,148.9819 75.8281,148.2475 Q74.7031,147.4975 74.1406,146.1538 Q73.5938,144.7944 73.5938,142.9975 Q73.5938,140.9663 74.25,139.5131 Q74.9063,138.06 76.1875,137.2788 Q77.4688,136.4975 79.3438,136.4975 Q80.2344,136.4975 80.9063,136.685 Q81.5781,136.8569 82.2656,137.2006 L81.4531,139.2163 Q80.8281,138.9038 80.2813,138.7788 Q79.75,138.6538 79.2656,138.6538 Q78.0938,138.6538 77.3906,139.185 Q76.6875,139.7163 76.3906,140.6694 Q76.0938,141.6225 76.0938,142.8881 Q76.0938,144.9038 76.8125,145.8725 Q77.5313,146.8256 79.125,146.8256 Q79.7188,146.8256 80.3438,146.6694 Q80.9688,146.5131 81.7969,146.1381 L81.7969,148.3569 Q81.0625,148.6694 80.2656,148.8256 Q79.4844,148.9819 78.7188,148.9819 Z " fill="#000000"/><text fill="#000000" font-family="sans-serif" font-size="14" lengthAdjust="spacing" textLength="36" x="99.75" y="147.492">Proxy</text><line style="stroke:#181818;stroke-width:0.5;" x1="8" x2="195" y1="158.06" y2="158.06"/><rect fill="none" height="6" style="stroke:#C82930;stroke-width:1.0;" width="6" x="15" y="170.094"/><text fill="#000000" font-family="sans-serif" font-size="14" lengthAdjust="spacing" textLength="163" x="27" y="177.0259">realSubject: RealSubject</text><line style="stroke:#181818;stroke-width:0.5;" x1="8" x2="195" y1="185.1279" y2="185.1279"/><ellipse cx="18" cy="200.1619" fill="#84BE84" rx="3" ry="3" style="stroke:#038048;stroke-width:1.0;"/><text fill="#000000" font-family="sans-serif" font-size="14" lengthAdjust="spacing" textLength="73" x="27" y="204.0939">operation()</text></g><!--reverse link Subject to RealSubject--><g id="link_Subject_RealSubject"><path d="M225.2811,81.229 C240.5211,102.879 250.91,117.6 266.14,139.23 " fill="none" id="Subject-backto-RealSubject" style="stroke:#181818;stroke-width:1.0;stroke-dasharray:7.0,7.0;"/><polygon fill="none" points="214.92,66.51,220.3747,84.6827,230.1874,77.7753,214.92,66.51" style="stroke:#181818;stroke-width:1.0;"/></g><!--reverse link Subject to Proxy--><g id="link_Subject_Proxy"><path d="M163.4201,81.1732 C151.0601,98.5332 145.56,106.25 131.79,125.59 " fill="none" id="Subject-backto-Proxy" style="stroke:#181818;stroke-width:1.0;stroke-dasharray:7.0,7.0;"/><polygon fill="none" points="173.86,66.51,158.5324,77.6932,168.3078,84.6531,173.86,66.51" style="stroke:#181818;stroke-width:1.0;"/></g><!--link Client to Subject--><g id="link_Client_Subject"><path codeLine="18" d="M110.12,36.53 C121.66,36.53 127.2,36.53 138.73,36.53 " fill="none" id="Client-to-Subject" style="stroke:#181818;stroke-width:1.0;"/><polygon fill="#181818" points="144.73,36.53,135.73,32.53,139.73,36.53,135.73,40.53,144.73,36.53" style="stroke:#181818;stroke-width:1.0;"/></g><!--link Proxy to RealSubject--><g id="link_Proxy_RealSubject"><path codeLine="19" d="M196.17,169.13 C207.69,169.13 213.22,169.13 224.75,169.13 " fill="none" id="Proxy-to-RealSubject" style="stroke:#181818;stroke-width:1.0;"/><polygon fill="#181818" points="230.75,169.13,221.75,165.13,225.75,169.13,221.75,173.13,230.75,169.13" style="stroke:#181818;stroke-width:1.0;"/></g><!--SRC=[oyXCILL8pIqegLJ8JSrDIYqgvk9ApaaiBbPmpibCpIkfhkNYoimhIIrAIqnELGWkJSfAJIvHgEPI00Bj_8BKeiIIpFmy3KskMfY-eDJ479YwpDo2dDHSe375H6aDACglgCIjIRS8ORGLiZrOZOIuNq7N3cOA5yHue02ILW00]--></g></svg>