<?xml version="1.0" encoding="us-ascii" standalone="no"?><svg xmlns="http://www.w3.org/2000/svg" xmlns:xlink="http://www.w3.org/1999/xlink" contentStyleType="text/css" height="227px" preserveAspectRatio="none" style="width:359px;height:227px;background:#FFFFFF;" version="1.1" viewBox="0 0 359 227" width="359px" zoomAndPan="magnify"><defs/><g><!--class Subject--><g id="elem_Subject"><rect codeLine="1" fill="#F1F1F1" height="67.0679" id="Subject" rx="2.5" ry="2.5" style="stroke:#181818;stroke-width:0.5;" width="122" x="102" y="7"/><ellipse cx="137.25" cy="23" fill="#B4A7E5" rx="11" ry="11" style="stroke:#181818;stroke-width:1.0;"/><path d="M133.2813,29.5 L133.2813,27.7969 L135.6406,27.5313 L135.6406,19.3281 L133.2813,19.0625 L133.2813,17.3594 L140.4219,17.3594 L140.4219,19.0625 L138,19.3281 L138,27.5313 L140.4219,27.7969 L140.4219,29.5 L133.2813,29.5 Z " fill="#000000"/><text fill="#000000" font-family="sans-serif" font-size="14" font-style="italic" lengthAdjust="spacing" textLength="45" x="155.75" y="28.432">Subject</text><line style="stroke:#181818;stroke-width:0.5;" x1="103" x2="223" y1="39" y2="39"/><line style="stroke:#181818;stroke-width:0.5;" x1="103" x2="223" y1="47" y2="47"/><ellipse cx="113" cy="62.034" fill="#84BE84" rx="3" ry="3" style="stroke:#038048;stroke-width:1.0;"/><text fill="#000000" font-family="sans-serif" font-size="14" lengthAdjust="spacing" textLength="96" x="122" y="65.9659">request(): void</text></g><!--class RealSubject--><g id="elem_RealSubject"><rect codeLine="5" fill="#F1F1F1" height="67.0679" id="RealSubject" rx="2.5" ry="2.5" style="stroke:#181818;stroke-width:0.5;" width="122" x="7" y="143.6"/><ellipse cx="26.95" cy="159.6" fill="#ADD1B2" rx="11" ry="11" style="stroke:#181818;stroke-width:1.0;"/><path d="M26.4188,166.5219 Q24.6688,166.5219 23.5281,165.7875 Q22.4031,165.0375 21.8406,163.6938 Q21.2938,162.3344 21.2938,160.5375 Q21.2938,158.5063 21.95,157.0531 Q22.6063,155.6 23.8875,154.8188 Q25.1688,154.0375 27.0438,154.0375 Q27.9344,154.0375 28.6063,154.225 Q29.2781,154.3969 29.9656,154.7406 L29.1531,156.7563 Q28.5281,156.4438 27.9813,156.3188 Q27.45,156.1938 26.9656,156.1938 Q25.7938,156.1938 25.0906,156.725 Q24.3875,157.2563 24.0906,158.2094 Q23.7938,159.1625 23.7938,160.4281 Q23.7938,162.4438 24.5125,163.4125 Q25.2313,164.3656 26.825,164.3656 Q27.4188,164.3656 28.0438,164.2094 Q28.6688,164.0531 29.4969,163.6781 L29.4969,165.8969 Q28.7625,166.2094 27.9656,166.3656 Q27.1844,166.5219 26.4188,166.5219 Z " fill="#000000"/><text fill="#000000" font-family="sans-serif" font-size="14" lengthAdjust="spacing" textLength="79" x="42.05" y="165.032">RealSubject</text><line style="stroke:#181818;stroke-width:0.5;" x1="8" x2="128" y1="175.6" y2="175.6"/><line style="stroke:#181818;stroke-width:0.5;" x1="8" x2="128" y1="183.6" y2="183.6"/><ellipse cx="18" cy="198.634" fill="#84BE84" rx="3" ry="3" style="stroke:#038048;stroke-width:1.0;"/><text fill="#000000" font-family="sans-serif" font-size="14" lengthAdjust="spacing" textLength="96" x="27" y="202.5659">request(): void</text></g><!--class Proxy--><g id="elem_Proxy"><rect codeLine="9" fill="#F1F1F1" height="86.1358" id="Proxy" rx="2.5" ry="2.5" style="stroke:#181818;stroke-width:0.5;" width="189" x="163.5" y="134.06"/><ellipse cx="235.75" cy="150.06" fill="#ADD1B2" rx="11" ry="11" style="stroke:#181818;stroke-width:1.0;"/><path d="M235.2188,156.9819 Q233.4688,156.9819 232.3281,156.2475 Q231.2031,155.4975 230.6406,154.1538 Q230.0938,152.7944 230.0938,150.9975 Q230.0938,148.9663 230.75,147.5131 Q231.4063,146.06 232.6875,145.2788 Q233.9688,144.4975 235.8438,144.4975 Q236.7344,144.4975 237.4063,144.685 Q238.0781,144.8569 238.7656,145.2006 L237.9531,147.2163 Q237.3281,146.9038 236.7813,146.7788 Q236.25,146.6538 235.7656,146.6538 Q234.5938,146.6538 233.8906,147.185 Q233.1875,147.7163 232.8906,148.6694 Q232.5938,149.6225 232.5938,150.8881 Q232.5938,152.9038 233.3125,153.8725 Q234.0313,154.8256 235.625,154.8256 Q236.2188,154.8256 236.8438,154.6694 Q237.4688,154.5131 238.2969,154.1381 L238.2969,156.3569 Q237.5625,156.6694 236.7656,156.8256 Q235.9844,156.9819 235.2188,156.9819 Z " fill="#000000"/><text fill="#000000" font-family="sans-serif" font-size="14" lengthAdjust="spacing" textLength="36" x="256.25" y="155.492">Proxy</text><line style="stroke:#181818;stroke-width:0.5;" x1="164.5" x2="351.5" y1="166.06" y2="166.06"/><rect fill="none" height="6" style="stroke:#C82930;stroke-width:1.0;" width="6" x="171.5" y="178.094"/><text fill="#000000" font-family="sans-serif" font-size="14" lengthAdjust="spacing" textLength="163" x="183.5" y="185.0259">realSubject: RealSubject</text><line style="stroke:#181818;stroke-width:0.5;" x1="164.5" x2="351.5" y1="193.1279" y2="193.1279"/><ellipse cx="174.5" cy="208.1619" fill="#84BE84" rx="3" ry="3" style="stroke:#038048;stroke-width:1.0;"/><text fill="#000000" font-family="sans-serif" font-size="14" lengthAdjust="spacing" textLength="96" x="183.5" y="212.0939">request(): void</text></g><!--reverse link Subject to RealSubject--><g id="link_Subject_RealSubject"><path d="M116.9476,88.4368 C99.8976,109.4468 92.11,122.6 79.57,143.54 " fill="none" id="Subject-backto-RealSubject" style="stroke:#181818;stroke-width:1.0;stroke-dasharray:7.0,7.0;"/><polygon fill="none" points="128.29,74.46,112.2887,84.656,121.6065,92.2176,128.29,74.46" style="stroke:#181818;stroke-width:1.0;"/></g><!--link RealSubject to Subject--><g id="link_RealSubject_Subject"><path codeLine="14" d="M102.43,143.54 C119.46,122.6 135.5323,100.6145 148.1423,79.6045 " fill="none" id="RealSubject-to-Subject" style="stroke:#181818;stroke-width:1.0;"/><polygon fill="#181818" points="151.23,74.46,143.1688,80.1183,148.6569,78.7471,150.0281,84.2353,151.23,74.46" style="stroke:#181818;stroke-width:1.0;"/></g><!--reverse link Subject to Proxy--><g id="link_Subject_Proxy"><path d="M184.036,89.8918 C194.736,107.7118 200.87,114.5 215.69,133.62 " fill="none" id="Subject-backto-Proxy" style="stroke:#181818;stroke-width:1.0;stroke-dasharray:7.0,7.0;"/><polygon fill="none" points="174.77,74.46,178.8921,92.9805,189.18,86.8031,174.77,74.46" style="stroke:#181818;stroke-width:1.0;"/></g><!--link Proxy to Subject--><g id="link_Proxy_Subject"><path codeLine="15" d="M240.29,133.62 C228.13,114.5 215.9506,96.9391 201.4906,79.1191 " fill="none" id="Proxy-to-Subject" style="stroke:#181818;stroke-width:1.0;"/><polygon fill="#181818" points="197.71,74.46,200.2748,83.969,200.8605,78.3426,206.487,78.9282,197.71,74.46" style="stroke:#181818;stroke-width:1.0;"/></g><!--SRC=[oymhIIrAIqnELGWkJSfAJIvHgEPI00BjejJ2qjJY4WrDAuMo_CmKhbekhkISnE9YXQ3Kn1oOsipSWfpKtDIyacAYjGSKvLTKujQeMuGmtWhPBfp68hj7LzSEPXuNn28a4G00]--></g></svg>