<?xml version="1.0" encoding="us-ascii" standalone="no"?><svg xmlns="http://www.w3.org/2000/svg" xmlns:xlink="http://www.w3.org/1999/xlink" contentStyleType="text/css" height="227px" preserveAspectRatio="none" style="width:465px;height:227px;background:#FFFFFF;" version="1.1" viewBox="0 0 465 227" width="465px" zoomAndPan="magnify"><defs/><g><!--class Originator--><g id="elem_Originator"><rect codeLine="1" fill="#F1F1F1" height="86.1358" id="Originator" rx="2.5" ry="2.5" style="stroke:#181818;stroke-width:0.5;" width="254" x="7" y="7"/><ellipse cx="94.75" cy="23" fill="#ADD1B2" rx="11" ry="11" style="stroke:#181818;stroke-width:1.0;"/><path d="M94.2188,29.9219 Q92.4688,29.9219 91.3281,29.1875 Q90.2031,28.4375 89.6406,27.0938 Q89.0938,25.7344 89.0938,23.9375 Q89.0938,21.9063 89.75,20.4531 Q90.4063,19 91.6875,18.2188 Q92.9688,17.4375 94.8438,17.4375 Q95.7344,17.4375 96.4063,17.625 Q97.0781,17.7969 97.7656,18.1406 L96.9531,20.1563 Q96.3281,19.8438 95.7813,19.7188 Q95.25,19.5938 94.7656,19.5938 Q93.5938,19.5938 92.8906,20.125 Q92.1875,20.6563 91.8906,21.6094 Q91.5938,22.5625 91.5938,23.8281 Q91.5938,25.8438 92.3125,26.8125 Q93.0313,27.7656 94.625,27.7656 Q95.2188,27.7656 95.8438,27.6094 Q96.4688,27.4531 97.2969,27.0781 L97.2969,29.2969 Q96.5625,29.6094 95.7656,29.7656 Q94.9844,29.9219 94.2188,29.9219 Z " fill="#000000"/><text fill="#000000" font-family="sans-serif" font-size="14" lengthAdjust="spacing" textLength="70" x="115.25" y="28.432">Originator</text><line style="stroke:#181818;stroke-width:0.5;" x1="8" x2="260" y1="39" y2="39"/><line style="stroke:#181818;stroke-width:0.5;" x1="8" x2="260" y1="47" y2="47"/><ellipse cx="18" cy="62.034" fill="#84BE84" rx="3" ry="3" style="stroke:#038048;stroke-width:1.0;"/><text fill="#000000" font-family="sans-serif" font-size="14" lengthAdjust="spacing" textLength="186" x="27" y="65.9659">createMemento(): Memento</text><ellipse cx="18" cy="81.1019" fill="#84BE84" rx="3" ry="3" style="stroke:#038048;stroke-width:1.0;"/><text fill="#000000" font-family="sans-serif" font-size="14" lengthAdjust="spacing" textLength="228" x="27" y="85.0339">restore(memento: Memento): void</text></g><!--class Memento--><g id="elem_Memento"><rect codeLine="6" fill="#F1F1F1" height="67.0679" id="Memento" rx="2.5" ry="2.5" style="stroke:#181818;stroke-width:0.5;" width="108" x="201" y="153.13"/><ellipse cx="221.4" cy="169.13" fill="#ADD1B2" rx="11" ry="11" style="stroke:#181818;stroke-width:1.0;"/><path d="M220.8688,176.0519 Q219.1188,176.0519 217.9781,175.3175 Q216.8531,174.5675 216.2906,173.2238 Q215.7438,171.8644 215.7438,170.0675 Q215.7438,168.0363 216.4,166.5831 Q217.0563,165.13 218.3375,164.3488 Q219.6188,163.5675 221.4938,163.5675 Q222.3844,163.5675 223.0563,163.755 Q223.7281,163.9269 224.4156,164.2706 L223.6031,166.2863 Q222.9781,165.9738 222.4313,165.8488 Q221.9,165.7238 221.4156,165.7238 Q220.2438,165.7238 219.5406,166.255 Q218.8375,166.7863 218.5406,167.7394 Q218.2438,168.6925 218.2438,169.9581 Q218.2438,171.9738 218.9625,172.9425 Q219.6813,173.8956 221.275,173.8956 Q221.8688,173.8956 222.4938,173.7394 Q223.1188,173.5831 223.9469,173.2081 L223.9469,175.4269 Q223.2125,175.7394 222.4156,175.8956 Q221.6344,176.0519 220.8688,176.0519 Z " fill="#000000"/><text fill="#000000" font-family="sans-serif" font-size="14" lengthAdjust="spacing" textLength="64" x="236.6" y="174.562">Memento</text><line style="stroke:#181818;stroke-width:0.5;" x1="202" x2="308" y1="185.13" y2="185.13"/><rect fill="none" height="6" style="stroke:#C82930;stroke-width:1.0;" width="6" x="209" y="197.164"/><text fill="#000000" font-family="sans-serif" font-size="14" lengthAdjust="spacing" textLength="82" x="221" y="204.0959">state: String</text><line style="stroke:#181818;stroke-width:0.5;" x1="202" x2="308" y1="212.1979" y2="212.1979"/></g><!--class Caretaker--><g id="elem_Caretaker"><rect codeLine="10" fill="#F1F1F1" height="67.0679" id="Caretaker" rx="2.5" ry="2.5" style="stroke:#181818;stroke-width:0.5;" width="162" x="296" y="16.53"/><ellipse cx="340.25" cy="32.53" fill="#ADD1B2" rx="11" ry="11" style="stroke:#181818;stroke-width:1.0;"/><path d="M339.7188,39.4519 Q337.9688,39.4519 336.8281,38.7175 Q335.7031,37.9675 335.1406,36.6238 Q334.5938,35.2644 334.5938,33.4675 Q334.5938,31.4363 335.25,29.9831 Q335.9063,28.53 337.1875,27.7488 Q338.4688,26.9675 340.3438,26.9675 Q341.2344,26.9675 341.9063,27.155 Q342.5781,27.3269 343.2656,27.6706 L342.4531,29.6863 Q341.8281,29.3738 341.2813,29.2488 Q340.75,29.1238 340.2656,29.1238 Q339.0938,29.1238 338.3906,29.655 Q337.6875,30.1863 337.3906,31.1394 Q337.0938,32.0925 337.0938,33.3581 Q337.0938,35.3738 337.8125,36.3425 Q338.5313,37.2956 340.125,37.2956 Q340.7188,37.2956 341.3438,37.1394 Q341.9688,36.9831 342.7969,36.6081 L342.7969,38.8269 Q342.0625,39.1394 341.2656,39.2956 Q340.4844,39.4519 339.7188,39.4519 Z " fill="#000000"/><text fill="#000000" font-family="sans-serif" font-size="14" lengthAdjust="spacing" textLength="65" x="360.75" y="37.962">Caretaker</text><line style="stroke:#181818;stroke-width:0.5;" x1="297" x2="457" y1="48.53" y2="48.53"/><rect fill="none" height="6" style="stroke:#C82930;stroke-width:1.0;" width="6" x="304" y="60.564"/><text fill="#000000" font-family="sans-serif" font-size="14" lengthAdjust="spacing" textLength="136" x="316" y="67.4959">memento: Memento</text><line style="stroke:#181818;stroke-width:0.5;" x1="297" x2="457" y1="75.5979" y2="75.5979"/></g><!--link Caretaker to Memento--><g id="link_Caretaker_Memento"><path codeLine="14" d="M347.16,83.99 C328.11,105.01 307.5484,127.6835 288.5684,148.6335 " fill="none" id="Caretaker-to-Memento" style="stroke:#181818;stroke-width:1.0;"/><polygon fill="#181818" points="284.54,153.08,293.547,149.0958,287.897,149.3745,287.6183,143.7246,284.54,153.08" style="stroke:#181818;stroke-width:1.0;"/></g><!--link Originator to Memento--><g id="link_Originator_Memento"><path codeLine="15" d="M171.95,93.28 C189.28,112.56 205.4783,130.5784 221.6183,148.5284 " fill="none" id="Originator-to-Memento" style="stroke:#181818;stroke-width:1.0;"/><polygon fill="#181818" points="225.63,152.99,222.5868,143.6231,222.2869,149.272,216.638,148.9721,225.63,152.99" style="stroke:#181818;stroke-width:1.0;"/></g><!--SRC=[Iyv9B2vMy2_AJC_CIop9BrAevb800ktaejJ4abJVrDpKl99y3Kqh1IWJ8bkKMWnKcwgH2n64omBLbULdfd3LSd4bWms6YaDDrIqk0HfgfH1SKfIPbuvGvPnOb5gIc9qAirqNtLoGKeGYNLqxk0IIov640G00]--></g></svg>