<?xml version="1.0" encoding="us-ascii" standalone="no"?><svg xmlns="http://www.w3.org/2000/svg" xmlns:xlink="http://www.w3.org/1999/xlink" contentStyleType="text/css" height="119px" preserveAspectRatio="none" style="width:829px;height:119px;background:#FFFFFF;" version="1.1" viewBox="0 0 829 119" width="829px" zoomAndPan="magnify"><defs/><g><!--class Originator--><g id="elem_Originator"><rect codeLine="3" fill="#F1F1F1" height="105.2038" id="Originator" rx="2.5" ry="2.5" style="stroke:#181818;stroke-width:0.5;" width="254" x="228.5" y="7"/><ellipse cx="316.25" cy="23" fill="#ADD1B2" rx="11" ry="11" style="stroke:#181818;stroke-width:1.0;"/><path d="M315.7188,29.9219 Q313.9688,29.9219 312.8281,29.1875 Q311.7031,28.4375 311.1406,27.0938 Q310.5938,25.7344 310.5938,23.9375 Q310.5938,21.9063 311.25,20.4531 Q311.9063,19 313.1875,18.2188 Q314.4688,17.4375 316.3438,17.4375 Q317.2344,17.4375 317.9063,17.625 Q318.5781,17.7969 319.2656,18.1406 L318.4531,20.1563 Q317.8281,19.8438 317.2813,19.7188 Q316.75,19.5938 316.2656,19.5938 Q315.0938,19.5938 314.3906,20.125 Q313.6875,20.6563 313.3906,21.6094 Q313.0938,22.5625 313.0938,23.8281 Q313.0938,25.8438 313.8125,26.8125 Q314.5313,27.7656 316.125,27.7656 Q316.7188,27.7656 317.3438,27.6094 Q317.9688,27.4531 318.7969,27.0781 L318.7969,29.2969 Q318.0625,29.6094 317.2656,29.7656 Q316.4844,29.9219 315.7188,29.9219 Z " fill="#000000"/><text fill="#000000" font-family="sans-serif" font-size="14" lengthAdjust="spacing" textLength="70" x="336.75" y="28.432">Originator</text><line style="stroke:#181818;stroke-width:0.5;" x1="229.5" x2="481.5" y1="39" y2="39"/><rect fill="none" height="6" style="stroke:#C82930;stroke-width:1.0;" width="6" x="236.5" y="51.034"/><text fill="#000000" font-family="sans-serif" font-size="14" lengthAdjust="spacing" textLength="33" x="248.5" y="57.9659">state</text><line style="stroke:#181818;stroke-width:0.5;" x1="229.5" x2="481.5" y1="66.0679" y2="66.0679"/><ellipse cx="239.5" cy="81.1019" fill="#84BE84" rx="3" ry="3" style="stroke:#038048;stroke-width:1.0;"/><text fill="#000000" font-family="sans-serif" font-size="14" lengthAdjust="spacing" textLength="186" x="248.5" y="85.0339">createMemento(): Memento</text><ellipse cx="239.5" cy="100.1698" fill="#84BE84" rx="3" ry="3" style="stroke:#038048;stroke-width:1.0;"/><text fill="#000000" font-family="sans-serif" font-size="14" lengthAdjust="spacing" textLength="228" x="248.5" y="104.1018">restore(memento: Memento): void</text></g><!--class Memento--><g id="elem_Memento"><rect codeLine="9" fill="#F1F1F1" height="86.1358" id="Memento" rx="2.5" ry="2.5" style="stroke:#181818;stroke-width:0.5;" width="108" x="517.5" y="16.53"/><ellipse cx="537.9" cy="32.53" fill="#ADD1B2" rx="11" ry="11" style="stroke:#181818;stroke-width:1.0;"/><path d="M537.3688,39.4519 Q535.6188,39.4519 534.4781,38.7175 Q533.3531,37.9675 532.7906,36.6238 Q532.2438,35.2644 532.2438,33.4675 Q532.2438,31.4363 532.9,29.9831 Q533.5563,28.53 534.8375,27.7488 Q536.1188,26.9675 537.9938,26.9675 Q538.8844,26.9675 539.5563,27.155 Q540.2281,27.3269 540.9156,27.6706 L540.1031,29.6863 Q539.4781,29.3738 538.9313,29.2488 Q538.4,29.1238 537.9156,29.1238 Q536.7438,29.1238 536.0406,29.655 Q535.3375,30.1863 535.0406,31.1394 Q534.7438,32.0925 534.7438,33.3581 Q534.7438,35.3738 535.4625,36.3425 Q536.1813,37.2956 537.775,37.2956 Q538.3688,37.2956 538.9938,37.1394 Q539.6188,36.9831 540.4469,36.6081 L540.4469,38.8269 Q539.7125,39.1394 538.9156,39.2956 Q538.1344,39.4519 537.3688,39.4519 Z " fill="#000000"/><text fill="#000000" font-family="sans-serif" font-size="14" lengthAdjust="spacing" textLength="64" x="553.1" y="37.962">Memento</text><line style="stroke:#181818;stroke-width:0.5;" x1="518.5" x2="624.5" y1="48.53" y2="48.53"/><rect fill="none" height="6" style="stroke:#C82930;stroke-width:1.0;" width="6" x="525.5" y="60.564"/><text fill="#000000" font-family="sans-serif" font-size="14" lengthAdjust="spacing" textLength="82" x="537.5" y="67.4959">state: String</text><line style="stroke:#181818;stroke-width:0.5;" x1="518.5" x2="624.5" y1="75.5979" y2="75.5979"/><ellipse cx="528.5" cy="90.6319" fill="#84BE84" rx="3" ry="3" style="stroke:#038048;stroke-width:1.0;"/><text fill="#000000" font-family="sans-serif" font-size="14" lengthAdjust="spacing" textLength="64" x="537.5" y="94.5639">getState()</text></g><!--class Caretaker--><g id="elem_Caretaker"><rect codeLine="14" fill="#F1F1F1" height="59.0679" id="Caretaker" rx="2.5" ry="2.5" style="stroke:#181818;stroke-width:0.5;" width="162" x="660.5" y="30.06"/><ellipse cx="704.75" cy="46.06" fill="#ADD1B2" rx="11" ry="11" style="stroke:#181818;stroke-width:1.0;"/><path d="M704.2188,52.9819 Q702.4688,52.9819 701.3281,52.2475 Q700.2031,51.4975 699.6406,50.1538 Q699.0938,48.7944 699.0938,46.9975 Q699.0938,44.9663 699.75,43.5131 Q700.4063,42.06 701.6875,41.2788 Q702.9688,40.4975 704.8438,40.4975 Q705.7344,40.4975 706.4063,40.685 Q707.0781,40.8569 707.7656,41.2006 L706.9531,43.2163 Q706.3281,42.9038 705.7813,42.7788 Q705.25,42.6538 704.7656,42.6538 Q703.5938,42.6538 702.8906,43.185 Q702.1875,43.7163 701.8906,44.6694 Q701.5938,45.6225 701.5938,46.8881 Q701.5938,48.9038 702.3125,49.8725 Q703.0313,50.8256 704.625,50.8256 Q705.2188,50.8256 705.8438,50.6694 Q706.4688,50.5131 707.2969,50.1381 L707.2969,52.3569 Q706.5625,52.6694 705.7656,52.8256 Q704.9844,52.9819 704.2188,52.9819 Z " fill="#000000"/><text fill="#000000" font-family="sans-serif" font-size="14" lengthAdjust="spacing" textLength="65" x="725.25" y="51.492">Caretaker</text><line style="stroke:#181818;stroke-width:0.5;" x1="661.5" x2="821.5" y1="62.06" y2="62.06"/><rect fill="none" height="6" style="stroke:#C82930;stroke-width:1.0;" width="6" x="668.5" y="74.094"/><text fill="#000000" font-family="sans-serif" font-size="14" lengthAdjust="spacing" textLength="136" x="680.5" y="81.0259">memento: Memento</text></g><path d="M6,21.89 L6,49.596 A0,0 0 0 0 6,49.596 L193,49.596 A0,0 0 0 0 193,49.596 L193,39.89 L232.5,79.6019 L193,31.89 L193,31.89 L183,21.89 L6,21.89 A0,0 0 0 0 6,21.89 " fill="#FEFFDD" style="stroke:#181818;stroke-width:0.5;"/><path d="M183,21.89 L183,31.89 L193,31.89 L183,21.89 " fill="#FEFFDD" style="stroke:#181818;stroke-width:0.5;"/><text fill="#000000" font-family="sans-serif" font-size="13" lengthAdjust="spacing" textLength="166" x="12" y="40.787">return new Memento(state)</text><path d="M6,59.596 L6,87.302 A0,0 0 0 0 6,87.302 L191,87.302 A0,0 0 0 0 191,87.302 L191,77.596 L232.5,98.6698 L191,69.596 L191,69.596 L181,59.596 L6,59.596 A0,0 0 0 0 6,59.596 " fill="#FEFFDD" style="stroke:#181818;stroke-width:0.5;"/><path d="M181,59.596 L181,69.596 L191,69.596 L181,59.596 " fill="#FEFFDD" style="stroke:#181818;stroke-width:0.5;"/><text fill="#000000" font-family="sans-serif" font-size="13" lengthAdjust="spacing" textLength="164" x="12" y="78.493">state = memento.getState()</text><!--link Memento to Caretaker--><g id="link_Memento_Caretaker"><path codeLine="26" d="M631.95,59.6 C643.39,59.6 636.82,59.6 648.26,59.6 " fill="none" id="Memento-Caretaker" style="stroke:#181818;stroke-width:1.0;"/><polygon fill="#181818" points="625.95,59.6,634.95,63.6,630.95,59.6,634.95,55.6,625.95,59.6" style="stroke:#181818;stroke-width:1.0;"/><polygon fill="none" points="660.26,59.6,654.26,55.6,648.26,59.6,654.26,63.6,660.26,59.6" style="stroke:#181818;stroke-width:1.0;"/></g><!--link Originator to Memento--><g id="link_Originator_Memento"><path codeLine="27" d="M482.91,59.6 C494.33,59.6 499.75,59.6 511.17,59.6 " fill="none" id="Originator-to-Memento" style="stroke:#181818;stroke-width:1.0;stroke-dasharray:7.0,7.0;"/><polygon fill="#181818" points="517.17,59.6,508.17,55.6,512.17,59.6,508.17,63.6,517.17,59.6" style="stroke:#181818;stroke-width:1.0;"/></g><!--SRC=[VP0z3i8m38NtdC9ZArGE404BCsBW184-IaIJeCI04EBkfEa_0vais-_pUxde4WHpunSPc2Dy4E9Kgn1extMbhMBdwIqelYAmOgHoSVA8zGu6bbsMI-hATkeHeWoPQPl3DEuzd2x5fx_HzMS791tOQrkrg0fyQBfPFggsoeFL5OEntplDgdKCgd5cSkT95YbdrfC-qkxUaiMp1sJ9IIvWIsf0Vt1TrWHAAbfJvsSvCJ-I-iohmj4OHKo-UxdfVNm1]--></g></svg>