<?xml version="1.0" encoding="us-ascii" standalone="no"?><svg xmlns="http://www.w3.org/2000/svg" xmlns:xlink="http://www.w3.org/1999/xlink" contentStyleType="text/css" height="193px" preserveAspectRatio="none" style="width:382px;height:193px;background:#FFFFFF;" version="1.1" viewBox="0 0 382 193" width="382px" zoomAndPan="magnify"><defs/><g><!--class Client--><g id="elem_Client"><rect codeLine="3" fill="#F1F1F1" height="59.0679" id="Client" rx="2.5" ry="2.5" style="stroke:#181818;stroke-width:0.5;" width="99" x="7" y="7"/><ellipse cx="34.6" cy="23" fill="#ADD1B2" rx="11" ry="11" style="stroke:#181818;stroke-width:1.0;"/><path d="M34.0688,29.9219 Q32.3188,29.9219 31.1781,29.1875 Q30.0531,28.4375 29.4906,27.0938 Q28.9438,25.7344 28.9438,23.9375 Q28.9438,21.9063 29.6,20.4531 Q30.2563,19 31.5375,18.2188 Q32.8188,17.4375 34.6938,17.4375 Q35.5844,17.4375 36.2563,17.625 Q36.9281,17.7969 37.6156,18.1406 L36.8031,20.1563 Q36.1781,19.8438 35.6313,19.7188 Q35.1,19.5938 34.6156,19.5938 Q33.4438,19.5938 32.7406,20.125 Q32.0375,20.6563 31.7406,21.6094 Q31.4438,22.5625 31.4438,23.8281 Q31.4438,25.8438 32.1625,26.8125 Q32.8813,27.7656 34.475,27.7656 Q35.0688,27.7656 35.6938,27.6094 Q36.3188,27.4531 37.1469,27.0781 L37.1469,29.2969 Q36.4125,29.6094 35.6156,29.7656 Q34.8344,29.9219 34.0688,29.9219 Z " fill="#000000"/><text fill="#000000" font-family="sans-serif" font-size="14" lengthAdjust="spacing" textLength="39" x="51.4" y="28.432">Client</text><line style="stroke:#181818;stroke-width:0.5;" x1="8" x2="105" y1="39" y2="39"/><ellipse cx="18" cy="54.034" fill="#84BE84" rx="3" ry="3" style="stroke:#038048;stroke-width:1.0;"/><text fill="#000000" font-family="sans-serif" font-size="14" lengthAdjust="spacing" textLength="73" x="27" y="57.9659">operation()</text></g><!--class Prototype--><g id="elem_Prototype"><rect codeLine="7" fill="#F1F1F1" height="59.0679" id="Prototype" rx="2.5" ry="2.5" style="stroke:#181818;stroke-width:0.5;" width="142" x="203.5" y="7"/><ellipse cx="240.1" cy="23" fill="#B4A7E5" rx="11" ry="11" style="stroke:#181818;stroke-width:1.0;"/><path d="M236.1313,29.5 L236.1313,27.7969 L238.4906,27.5313 L238.4906,19.3281 L236.1313,19.0625 L236.1313,17.3594 L243.2719,17.3594 L243.2719,19.0625 L240.85,19.3281 L240.85,27.5313 L243.2719,27.7969 L243.2719,29.5 L236.1313,29.5 Z " fill="#000000"/><text fill="#000000" font-family="sans-serif" font-size="14" font-style="italic" lengthAdjust="spacing" textLength="62" x="258.9" y="28.432">Prototype</text><line style="stroke:#181818;stroke-width:0.5;" x1="204.5" x2="344.5" y1="39" y2="39"/><ellipse cx="214.5" cy="54.034" fill="#84BE84" rx="3" ry="3" style="stroke:#038048;stroke-width:1.0;"/><text fill="#000000" font-family="sans-serif" font-size="14" lengthAdjust="spacing" textLength="116" x="223.5" y="57.9659">clone(): Prototype</text></g><!--class ConcretePrototype--><g id="elem_ConcretePrototype"><rect codeLine="11" fill="#F1F1F1" height="59.0679" id="ConcretePrototype" rx="2.5" ry="2.5" style="stroke:#181818;stroke-width:0.5;" width="202" x="173.5" y="127.07"/><ellipse cx="209.2" cy="143.07" fill="#ADD1B2" rx="11" ry="11" style="stroke:#181818;stroke-width:1.0;"/><path d="M208.6688,149.9919 Q206.9188,149.9919 205.7781,149.2575 Q204.6531,148.5075 204.0906,147.1638 Q203.5438,145.8044 203.5438,144.0075 Q203.5438,141.9763 204.2,140.5231 Q204.8563,139.07 206.1375,138.2888 Q207.4188,137.5075 209.2938,137.5075 Q210.1844,137.5075 210.8563,137.695 Q211.5281,137.8669 212.2156,138.2106 L211.4031,140.2263 Q210.7781,139.9138 210.2313,139.7888 Q209.7,139.6638 209.2156,139.6638 Q208.0438,139.6638 207.3406,140.195 Q206.6375,140.7263 206.3406,141.6794 Q206.0438,142.6325 206.0438,143.8981 Q206.0438,145.9138 206.7625,146.8825 Q207.4813,147.8356 209.075,147.8356 Q209.6688,147.8356 210.2938,147.6794 Q210.9188,147.5231 211.7469,147.1481 L211.7469,149.3669 Q211.0125,149.6794 210.2156,149.8356 Q209.4344,149.9919 208.6688,149.9919 Z " fill="#000000"/><text fill="#000000" font-family="sans-serif" font-size="14" lengthAdjust="spacing" textLength="124" x="227.8" y="148.502">ConcretePrototype</text><line style="stroke:#181818;stroke-width:0.5;" x1="174.5" x2="374.5" y1="159.07" y2="159.07"/><ellipse cx="184.5" cy="174.104" fill="#84BE84" rx="3" ry="3" style="stroke:#038048;stroke-width:1.0;"/><text fill="#000000" font-family="sans-serif" font-size="14" lengthAdjust="spacing" textLength="176" x="193.5" y="178.0359">clone(): ConcretePrototype</text></g><!--reverse link Prototype to ConcretePrototype--><g id="link_Prototype_ConcretePrototype"><path d="M274.5,84.42 C274.5,102.72 274.5,108.29 274.5,126.61 " fill="none" id="Prototype-backto-ConcretePrototype" style="stroke:#181818;stroke-width:1.0;stroke-dasharray:7.0,7.0;"/><polygon fill="none" points="274.5,66.42,268.5,84.42,280.5,84.42,274.5,66.42" style="stroke:#181818;stroke-width:1.0;"/></g><!--link Client to Prototype--><g id="link_Client_Prototype"><path codeLine="16" d="M106.24,36.54 C134.89,36.54 165.39,36.54 197.07,36.54 " fill="none" id="Client-to-Prototype" style="stroke:#181818;stroke-width:1.0;"/><polygon fill="#181818" points="203.07,36.54,194.07,32.54,198.07,36.54,194.07,40.54,203.07,36.54" style="stroke:#181818;stroke-width:1.0;"/><text fill="#000000" font-family="sans-serif" font-size="13" lengthAdjust="spacing" textLength="61" x="124.25" y="29.437">prototype</text></g><!--SRC=[VOv12i9034NtEKMMBU85kd3Z1Rp2EFxIWPaap6HJnBlRqae5mQm2F-_zJEa1HZ6VkQ3SKHjHpA4rlkO4yIVnCYSrrE19fUlfHPJ4KSSGmRUghZuRUB-CMGLTFnp92knAbLZXEA1KBACiFUsFwGTRZRJzn-VB5pcmVVOt]--></g></svg>