<?xml version="1.0" encoding="us-ascii" standalone="no"?><svg xmlns="http://www.w3.org/2000/svg" xmlns:xlink="http://www.w3.org/1999/xlink" contentStyleType="text/css" height="208px" preserveAspectRatio="none" style="width:170px;height:208px;background:#FFFFFF;" version="1.1" viewBox="0 0 170 208" width="170px" zoomAndPan="magnify"><defs/><g><!--class Prototype--><g id="elem_Prototype"><rect codeLine="1" fill="#F1F1F1" height="67.0679" id="Prototype" rx="2.5" ry="2.5" style="stroke:#181818;stroke-width:0.5;" width="142" x="14" y="7"/><ellipse cx="50.6" cy="23" fill="#B4A7E5" rx="11" ry="11" style="stroke:#181818;stroke-width:1.0;"/><path d="M46.6313,29.5 L46.6313,27.7969 L48.9906,27.5313 L48.9906,19.3281 L46.6313,19.0625 L46.6313,17.3594 L53.7719,17.3594 L53.7719,19.0625 L51.35,19.3281 L51.35,27.5313 L53.7719,27.7969 L53.7719,29.5 L46.6313,29.5 Z " fill="#000000"/><text fill="#000000" font-family="sans-serif" font-size="14" font-style="italic" lengthAdjust="spacing" textLength="62" x="69.4" y="28.432">Prototype</text><line style="stroke:#181818;stroke-width:0.5;" x1="15" x2="155" y1="39" y2="39"/><line style="stroke:#181818;stroke-width:0.5;" x1="15" x2="155" y1="47" y2="47"/><ellipse cx="25" cy="62.034" fill="#84BE84" rx="3" ry="3" style="stroke:#038048;stroke-width:1.0;"/><text fill="#000000" font-family="sans-serif" font-size="14" lengthAdjust="spacing" textLength="116" x="34" y="65.9659">clone(): Prototype</text></g><!--class ConcretePrototype--><g id="elem_ConcretePrototype"><rect codeLine="5" fill="#F1F1F1" height="67.0679" id="ConcretePrototype" rx="2.5" ry="2.5" style="stroke:#181818;stroke-width:0.5;" width="156" x="7" y="134.07"/><ellipse cx="22" cy="150.07" fill="#ADD1B2" rx="11" ry="11" style="stroke:#181818;stroke-width:1.0;"/><path d="M21.4688,156.9919 Q19.7188,156.9919 18.5781,156.2575 Q17.4531,155.5075 16.8906,154.1638 Q16.3438,152.8044 16.3438,151.0075 Q16.3438,148.9763 17,147.5231 Q17.6563,146.07 18.9375,145.2888 Q20.2188,144.5075 22.0938,144.5075 Q22.9844,144.5075 23.6563,144.695 Q24.3281,144.8669 25.0156,145.2106 L24.2031,147.2263 Q23.5781,146.9138 23.0313,146.7888 Q22.5,146.6638 22.0156,146.6638 Q20.8438,146.6638 20.1406,147.195 Q19.4375,147.7263 19.1406,148.6794 Q18.8438,149.6325 18.8438,150.8981 Q18.8438,152.9138 19.5625,153.8825 Q20.2813,154.8356 21.875,154.8356 Q22.4688,154.8356 23.0938,154.6794 Q23.7188,154.5231 24.5469,154.1481 L24.5469,156.3669 Q23.8125,156.6794 23.0156,156.8356 Q22.2344,156.9919 21.4688,156.9919 Z " fill="#000000"/><text fill="#000000" font-family="sans-serif" font-size="14" lengthAdjust="spacing" textLength="124" x="36" y="155.502">ConcretePrototype</text><line style="stroke:#181818;stroke-width:0.5;" x1="8" x2="162" y1="166.07" y2="166.07"/><line style="stroke:#181818;stroke-width:0.5;" x1="8" x2="162" y1="174.07" y2="174.07"/><ellipse cx="18" cy="189.104" fill="#84BE84" rx="3" ry="3" style="stroke:#038048;stroke-width:1.0;"/><text fill="#000000" font-family="sans-serif" font-size="14" lengthAdjust="spacing" textLength="116" x="27" y="193.0359">clone(): Prototype</text></g><!--reverse link Prototype to ConcretePrototype--><g id="link_Prototype_ConcretePrototype"><path d="M71.4488,92.3056 C69.5588,110.6856 71.4,115.62 73.31,133.97 " fill="none" id="Prototype-backto-ConcretePrototype" style="stroke:#181818;stroke-width:1.0;stroke-dasharray:7.0,7.0;"/><polygon fill="none" points="73.29,74.4,65.4803,91.6918,77.4173,92.9193,73.29,74.4" style="stroke:#181818;stroke-width:1.0;"/></g><!--link ConcretePrototype to Prototype--><g id="link_ConcretePrototype_Prototype"><path codeLine="9" d="M96.69,133.97 C98.6,115.62 99.2137,98.7485 97.3237,80.3685 " fill="none" id="ConcretePrototype-to-Prototype" style="stroke:#181818;stroke-width:1.0;"/><polygon fill="#181818" points="96.71,74.4,93.6516,83.762,97.2214,79.3738,101.6096,82.9436,96.71,74.4" style="stroke:#181818;stroke-width:1.0;"/></g><!--SRC=[oymhIIrAIqnELGWeoY_9BwaiI5Mevb800ktadFoyL0rDAuGCLoqNLt9EOd6nWdD-Nd9HQaagGbDcRa5EQcvgNaaniIPXcg6hQuTG0W00]--></g></svg>