<?xml version="1.0" encoding="us-ascii" standalone="no"?><svg xmlns="http://www.w3.org/2000/svg" xmlns:xlink="http://www.w3.org/1999/xlink" contentStyleType="text/css" height="219px" preserveAspectRatio="none" style="width:750px;height:219px;background:#FFFFFF;" version="1.1" viewBox="0 0 750 219" width="750px" zoomAndPan="magnify"><defs/><g><!--class Client--><g id="elem_Client"><rect codeLine="3" fill="#F1F1F1" height="32" id="Client" rx="2.5" ry="2.5" style="stroke:#181818;stroke-width:0.5;" width="71" x="7" y="34.06"/><ellipse cx="22" cy="50.06" fill="#ADD1B2" rx="11" ry="11" style="stroke:#181818;stroke-width:1.0;"/><path d="M21.4688,56.9819 Q19.7188,56.9819 18.5781,56.2475 Q17.4531,55.4975 16.8906,54.1538 Q16.3438,52.7944 16.3438,50.9975 Q16.3438,48.9663 17,47.5131 Q17.6563,46.06 18.9375,45.2788 Q20.2188,44.4975 22.0938,44.4975 Q22.9844,44.4975 23.6563,44.685 Q24.3281,44.8569 25.0156,45.2006 L24.2031,47.2163 Q23.5781,46.9038 23.0313,46.7788 Q22.5,46.6538 22.0156,46.6538 Q20.8438,46.6538 20.1406,47.185 Q19.4375,47.7163 19.1406,48.6694 Q18.8438,49.6225 18.8438,50.8881 Q18.8438,52.9038 19.5625,53.8725 Q20.2813,54.8256 21.875,54.8256 Q22.4688,54.8256 23.0938,54.6694 Q23.7188,54.5131 24.5469,54.1381 L24.5469,56.3569 Q23.8125,56.6694 23.0156,56.8256 Q22.2344,56.9819 21.4688,56.9819 Z " fill="#000000"/><text fill="#000000" font-family="sans-serif" font-size="14" lengthAdjust="spacing" textLength="39" x="36" y="55.492">Client</text></g><!--class Implementor--><g id="elem_Implementor"><rect codeLine="5" fill="#F1F1F1" height="59.0679" id="Implementor" rx="2.5" ry="2.5" style="stroke:#181818;stroke-width:0.5;" width="130" x="359.5" y="20.53"/><ellipse cx="381.7" cy="36.53" fill="#B4A7E5" rx="11" ry="11" style="stroke:#181818;stroke-width:1.0;"/><path d="M377.7313,43.03 L377.7313,41.3269 L380.0906,41.0613 L380.0906,32.8581 L377.7313,32.5925 L377.7313,30.8894 L384.8719,30.8894 L384.8719,32.5925 L382.45,32.8581 L382.45,41.0613 L384.8719,41.3269 L384.8719,43.03 L377.7313,43.03 Z " fill="#000000"/><text fill="#000000" font-family="sans-serif" font-size="14" font-style="italic" lengthAdjust="spacing" textLength="82" x="397.3" y="41.962">Implementor</text><line style="stroke:#181818;stroke-width:0.5;" x1="360.5" x2="488.5" y1="52.53" y2="52.53"/><ellipse cx="370.5" cy="67.564" fill="#84BE84" rx="3" ry="3" style="stroke:#038048;stroke-width:1.0;"/><text fill="#000000" font-family="sans-serif" font-size="14" lengthAdjust="spacing" textLength="104" x="379.5" y="71.4959">operationImpl()</text></g><!--class ConcreteImplementorA--><g id="elem_ConcreteImplementorA"><rect codeLine="9" fill="#F1F1F1" height="59.0679" id="ConcreteImplementorA" rx="2.5" ry="2.5" style="stroke:#181818;stroke-width:0.5;" width="189" x="330" y="153.13"/><ellipse cx="345" cy="169.13" fill="#ADD1B2" rx="11" ry="11" style="stroke:#181818;stroke-width:1.0;"/><path d="M344.4688,176.0519 Q342.7188,176.0519 341.5781,175.3175 Q340.4531,174.5675 339.8906,173.2238 Q339.3438,171.8644 339.3438,170.0675 Q339.3438,168.0363 340,166.5831 Q340.6563,165.13 341.9375,164.3488 Q343.2188,163.5675 345.0938,163.5675 Q345.9844,163.5675 346.6563,163.755 Q347.3281,163.9269 348.0156,164.2706 L347.2031,166.2863 Q346.5781,165.9738 346.0313,165.8488 Q345.5,165.7238 345.0156,165.7238 Q343.8438,165.7238 343.1406,166.255 Q342.4375,166.7863 342.1406,167.7394 Q341.8438,168.6925 341.8438,169.9581 Q341.8438,171.9738 342.5625,172.9425 Q343.2813,173.8956 344.875,173.8956 Q345.4688,173.8956 346.0938,173.7394 Q346.7188,173.5831 347.5469,173.2081 L347.5469,175.4269 Q346.8125,175.7394 346.0156,175.8956 Q345.2344,176.0519 344.4688,176.0519 Z " fill="#000000"/><text fill="#000000" font-family="sans-serif" font-size="14" lengthAdjust="spacing" textLength="157" x="359" y="174.562">ConcreteImplementorA</text><line style="stroke:#181818;stroke-width:0.5;" x1="331" x2="518" y1="185.13" y2="185.13"/><ellipse cx="341" cy="200.164" fill="#84BE84" rx="3" ry="3" style="stroke:#038048;stroke-width:1.0;"/><text fill="#000000" font-family="sans-serif" font-size="14" lengthAdjust="spacing" textLength="104" x="350" y="204.0959">operationImpl()</text></g><!--class ConcreteImplementorB--><g id="elem_ConcreteImplementorB"><rect codeLine="13" fill="#F1F1F1" height="59.0679" id="ConcreteImplementorB" rx="2.5" ry="2.5" style="stroke:#181818;stroke-width:0.5;" width="189" x="554" y="153.13"/><ellipse cx="569" cy="169.13" fill="#ADD1B2" rx="11" ry="11" style="stroke:#181818;stroke-width:1.0;"/><path d="M568.4688,176.0519 Q566.7188,176.0519 565.5781,175.3175 Q564.4531,174.5675 563.8906,173.2238 Q563.3438,171.8644 563.3438,170.0675 Q563.3438,168.0363 564,166.5831 Q564.6563,165.13 565.9375,164.3488 Q567.2188,163.5675 569.0938,163.5675 Q569.9844,163.5675 570.6563,163.755 Q571.3281,163.9269 572.0156,164.2706 L571.2031,166.2863 Q570.5781,165.9738 570.0313,165.8488 Q569.5,165.7238 569.0156,165.7238 Q567.8438,165.7238 567.1406,166.255 Q566.4375,166.7863 566.1406,167.7394 Q565.8438,168.6925 565.8438,169.9581 Q565.8438,171.9738 566.5625,172.9425 Q567.2813,173.8956 568.875,173.8956 Q569.4688,173.8956 570.0938,173.7394 Q570.7188,173.5831 571.5469,173.2081 L571.5469,175.4269 Q570.8125,175.7394 570.0156,175.8956 Q569.2344,176.0519 568.4688,176.0519 Z " fill="#000000"/><text fill="#000000" font-family="sans-serif" font-size="14" lengthAdjust="spacing" textLength="157" x="583" y="174.562">ConcreteImplementorB</text><line style="stroke:#181818;stroke-width:0.5;" x1="555" x2="742" y1="185.13" y2="185.13"/><ellipse cx="565" cy="200.164" fill="#84BE84" rx="3" ry="3" style="stroke:#038048;stroke-width:1.0;"/><text fill="#000000" font-family="sans-serif" font-size="14" lengthAdjust="spacing" textLength="104" x="574" y="204.0959">operationImpl()</text></g><!--class Abstraction--><g id="elem_Abstraction"><rect codeLine="17" fill="#F1F1F1" height="86.1358" id="Abstraction" rx="2.5" ry="2.5" style="stroke:#181818;stroke-width:0.5;" width="209" x="113" y="7"/><ellipse cx="177.25" cy="23" fill="#A9DCDF" rx="11" ry="11" style="stroke:#181818;stroke-width:1.0;"/><path d="M172.4219,28.75 L175.7656,16.5625 L178.9063,16.5625 L182.2813,28.75 L179.8125,28.75 L179.0781,25.7344 L175.5625,25.7344 L174.8125,28.75 L172.4219,28.75 Z M176.8281,20.7031 L176.0781,23.7031 L178.5938,23.7031 L177.875,20.7031 Q177.7344,20.125 177.6094,19.5781 Q177.4844,19.0156 177.3438,18.4375 Q177.2344,19.0156 177.0938,19.5781 Q176.9531,20.125 176.8281,20.7031 Z " fill="#000000"/><text fill="#000000" font-family="sans-serif" font-size="14" font-style="italic" lengthAdjust="spacing" textLength="72" x="197.75" y="28.432">Abstraction</text><line style="stroke:#181818;stroke-width:0.5;" x1="114" x2="321" y1="39" y2="39"/><rect fill="none" height="6" style="stroke:#C82930;stroke-width:1.0;" width="6" x="121" y="51.034"/><text fill="#000000" font-family="sans-serif" font-size="14" lengthAdjust="spacing" textLength="183" x="133" y="57.9659">implementor: Implementor</text><line style="stroke:#181818;stroke-width:0.5;" x1="114" x2="321" y1="66.0679" y2="66.0679"/><ellipse cx="124" cy="81.1019" fill="#84BE84" rx="3" ry="3" style="stroke:#038048;stroke-width:1.0;"/><text fill="#000000" font-family="sans-serif" font-size="14" lengthAdjust="spacing" textLength="73" x="133" y="85.0339">operation()</text></g><!--class RefinedAbstraction--><g id="elem_RefinedAbstraction"><rect codeLine="22" fill="#F1F1F1" height="32" id="RefinedAbstraction" rx="2.5" ry="2.5" style="stroke:#181818;stroke-width:0.5;" width="161" x="134" y="166.67"/><ellipse cx="149" cy="182.67" fill="#ADD1B2" rx="11" ry="11" style="stroke:#181818;stroke-width:1.0;"/><path d="M148.4688,189.5919 Q146.7188,189.5919 145.5781,188.8575 Q144.4531,188.1075 143.8906,186.7638 Q143.3438,185.4044 143.3438,183.6075 Q143.3438,181.5763 144,180.1231 Q144.6563,178.67 145.9375,177.8888 Q147.2188,177.1075 149.0938,177.1075 Q149.9844,177.1075 150.6563,177.295 Q151.3281,177.4669 152.0156,177.8106 L151.2031,179.8263 Q150.5781,179.5138 150.0313,179.3888 Q149.5,179.2638 149.0156,179.2638 Q147.8438,179.2638 147.1406,179.795 Q146.4375,180.3263 146.1406,181.2794 Q145.8438,182.2325 145.8438,183.4981 Q145.8438,185.5138 146.5625,186.4825 Q147.2813,187.4356 148.875,187.4356 Q149.4688,187.4356 150.0938,187.2794 Q150.7188,187.1231 151.5469,186.7481 L151.5469,188.9669 Q150.8125,189.2794 150.0156,189.4356 Q149.2344,189.5919 148.4688,189.5919 Z " fill="#000000"/><text fill="#000000" font-family="sans-serif" font-size="14" lengthAdjust="spacing" textLength="129" x="163" y="188.102">RefinedAbstraction</text></g><!--reverse link Implementor to ConcreteImplementorA--><g id="link_Implementor_ConcreteImplementorA"><path d="M424.5,98.05 C424.5,119.69 424.5,131.14 424.5,152.76 " fill="none" id="Implementor-backto-ConcreteImplementorA" style="stroke:#181818;stroke-width:1.0;stroke-dasharray:7.0,7.0;"/><polygon fill="none" points="424.5,80.05,418.5,98.05,430.5,98.05,424.5,80.05" style="stroke:#181818;stroke-width:1.0;"/></g><!--reverse link Implementor to ConcreteImplementorB--><g id="link_Implementor_ConcreteImplementorB"><path d="M489.7605,89.1155 C526.8805,110.7555 561.84,131.14 598.93,152.76 " fill="none" id="Implementor-backto-ConcreteImplementorB" style="stroke:#181818;stroke-width:1.0;stroke-dasharray:7.0,7.0;"/><polygon fill="none" points="474.21,80.05,486.7386,94.299,492.7823,83.932,474.21,80.05" style="stroke:#181818;stroke-width:1.0;"/></g><!--reverse link Abstraction to RefinedAbstraction--><g id="link_Abstraction_RefinedAbstraction"><path d="M216.1128,111.4652 C215.5328,136.4852 215.26,148.66 214.85,166.44 " fill="none" id="Abstraction-backto-RefinedAbstraction" style="stroke:#181818;stroke-width:1.0;"/><polygon fill="none" points="216.53,93.47,210.1145,111.3261,222.1112,111.6042,216.53,93.47" style="stroke:#181818;stroke-width:1.0;"/></g><!--link Client to Abstraction--><g id="link_Client_Abstraction"><path codeLine="25" d="M78.39,50.06 C89.8,50.06 95.21,50.06 106.62,50.06 " fill="none" id="Client-to-Abstraction" style="stroke:#181818;stroke-width:1.0;"/><polygon fill="#181818" points="112.62,50.06,103.62,46.06,107.62,50.06,103.62,54.06,112.62,50.06" style="stroke:#181818;stroke-width:1.0;"/></g><!--link Abstraction to Implementor--><g id="link_Abstraction_Implementor"><path codeLine="26" d="M334.21,50.06 C346.6,50.06 340.99,50.06 353.37,50.06 " fill="none" id="Abstraction-Implementor" style="stroke:#181818;stroke-width:1.0;"/><polygon fill="none" points="322.21,50.06,328.21,54.06,334.21,50.06,328.21,46.06,322.21,50.06" style="stroke:#181818;stroke-width:1.0;"/><polygon fill="#181818" points="359.37,50.06,350.37,46.06,354.37,50.06,350.37,54.06,359.37,50.06" style="stroke:#181818;stroke-width:1.0;"/></g><!--SRC=[fP2z3i8m38JtF8L74EeBC20L9bRU84slmbAJL8a7KDLtRw3y63R4UBwxpvRFt8BW1xcIXs-GiZ6kjpdJeMS46ITZE0XIPntew8SUlenZej4GRUA0P8LZk3chjPbUxHXSWa0rQkAdoF-Hzh-IR9CbMIUq8Ek7B9bxfU8tOwk17pXzr0aT1xGQX8iWjD_mqbWUITLEMqR7Ol7qrXa0]--></g></svg>